<svg xmlns="http://www.w3.org/2000/svg" width="79.88" height="88.766" viewBox="0 0 79.88 88.766">
  <g id="Grupo_968455" data-name="Grupo 968455" transform="translate(3422 7892.219)">
    <g id="calendario" transform="translate(-3447.627 -7892.219)">
      <path id="Trazado_661808" data-name="Trazado 661808" d="M88.975,43.595h6.192a2.542,2.542,0,0,0,2.539-2.539V34.864a2.542,2.542,0,0,0-2.539-2.539H88.975a2.542,2.542,0,0,0-2.539,2.539v6.192A2.542,2.542,0,0,0,88.975,43.595Zm.062-8.669H95.1v6.068H89.037Zm-.062,25.139h6.192a2.542,2.542,0,0,0,2.539-2.539V51.334A2.542,2.542,0,0,0,95.167,48.8H88.975a2.542,2.542,0,0,0-2.539,2.539v6.192A2.542,2.542,0,0,0,88.975,60.065Zm.062-8.669H95.1v6.068H89.037Zm-17.731-7.8H77.5a2.542,2.542,0,0,0,2.539-2.539V34.864A2.542,2.542,0,0,0,77.5,32.326H71.306a2.542,2.542,0,0,0-2.539,2.539v6.192A2.542,2.542,0,0,0,71.306,43.595Zm.062-8.669h6.068v6.068H71.367ZM42.159,64.494H35.967a2.542,2.542,0,0,0-2.539,2.539v6.192a2.542,2.542,0,0,0,2.539,2.539h6.192A2.542,2.542,0,0,0,44.7,73.224V67.032A2.542,2.542,0,0,0,42.159,64.494ZM42.1,73.162H36.029V67.094H42.1Zm.062-40.837H35.967a2.542,2.542,0,0,0-2.539,2.539v6.192a2.542,2.542,0,0,0,2.539,2.539h6.192A2.542,2.542,0,0,0,44.7,41.056V34.864A2.541,2.541,0,0,0,42.159,32.326ZM42.1,40.994H36.029V34.926H42.1ZM71.306,59.679H77.5a2.542,2.542,0,0,0,2.539-2.539V50.948A2.542,2.542,0,0,0,77.5,48.41H71.306a2.542,2.542,0,0,0-2.539,2.539V57.14A2.542,2.542,0,0,0,71.306,59.679Zm.062-8.669h6.068v6.068H71.367ZM99,5.942H93.437V3.954A3.958,3.958,0,0,0,89.483,0h-.6a3.958,3.958,0,0,0-3.954,3.954V5.942H46.2V3.954A3.958,3.958,0,0,0,42.247,0h-.6A3.958,3.958,0,0,0,37.7,3.954V5.942H32.137a6.517,6.517,0,0,0-6.51,6.51V82.264a6.509,6.509,0,0,0,6.5,6.5H99.006a6.509,6.509,0,0,0,6.5-6.5V12.452A6.518,6.518,0,0,0,99,5.942ZM87.533,3.954A1.355,1.355,0,0,1,88.886,2.6h.6a1.355,1.355,0,0,1,1.354,1.354V5.942h-3.3Zm-47.236,0A1.355,1.355,0,0,1,41.65,2.6h.6A1.355,1.355,0,0,1,43.6,3.954V5.942H40.3V3.954Zm62.609,78.31a3.905,3.905,0,0,1-3.9,3.9H32.128a3.905,3.905,0,0,1-3.9-3.9v-.008a6.476,6.476,0,0,0,3.91,1.308H84.856a6.467,6.467,0,0,0,4.6-1.907l13.447-13.447ZM88.133,79.307A5.561,5.561,0,0,0,88.29,78v-8.68a2.972,2.972,0,0,1,2.968-2.968h8.679a5.561,5.561,0,0,0,1.311-.157Zm14.774-54.783H47.5a1.3,1.3,0,1,0,0,2.6h55.4V60.779a2.972,2.972,0,0,1-2.968,2.968H91.258a5.575,5.575,0,0,0-5.569,5.569V78a2.972,2.972,0,0,1-2.968,2.968H32.137a3.914,3.914,0,0,1-3.91-3.91V27.124H42.3a1.3,1.3,0,0,0,0-2.6H28.227V12.452a3.914,3.914,0,0,1,3.91-3.91H37.7v3.823A3.958,3.958,0,0,0,41.65,16.32a1.3,1.3,0,0,0,0-2.6A1.355,1.355,0,0,1,40.3,12.366V8.543H84.932v3.823a3.958,3.958,0,0,0,3.954,3.954,1.3,1.3,0,1,0,0-2.6,1.355,1.355,0,0,1-1.354-1.354V8.543H99a3.914,3.914,0,0,1,3.909,3.909ZM42.159,48.41H35.967a2.542,2.542,0,0,0-2.539,2.539V57.14a2.542,2.542,0,0,0,2.539,2.539h6.192A2.542,2.542,0,0,0,44.7,57.14V50.948A2.541,2.541,0,0,0,42.159,48.41ZM42.1,57.078H36.029V51.01H42.1ZM53.636,43.595h6.192a2.542,2.542,0,0,0,2.539-2.539V34.864a2.542,2.542,0,0,0-2.539-2.539H53.636A2.542,2.542,0,0,0,51.1,34.864v6.192A2.542,2.542,0,0,0,53.636,43.595Zm.062-8.669h6.068v6.068H53.7ZM71.366,73.162a1.3,1.3,0,0,0-2.6.062,2.542,2.542,0,0,0,2.539,2.539H77.5a2.542,2.542,0,0,0,2.539-2.539V67.032A2.542,2.542,0,0,0,77.5,64.494H71.305a2.542,2.542,0,0,0-2.539,2.539v1.786a1.3,1.3,0,1,0,2.6,0V67.094h6.068v6.068ZM53.636,59.679h6.192a2.542,2.542,0,0,0,2.539-2.539V50.948a2.542,2.542,0,0,0-2.539-2.539H53.636A2.542,2.542,0,0,0,51.1,50.948V57.14A2.542,2.542,0,0,0,53.636,59.679ZM53.7,51.01h6.068v6.068H53.7Zm-.062,24.753h6.192a2.542,2.542,0,0,0,2.539-2.539V67.032a2.542,2.542,0,0,0-2.539-2.539H53.636A2.542,2.542,0,0,0,51.1,67.032v6.192A2.542,2.542,0,0,0,53.636,75.763Zm.062-8.669h6.068v6.068H53.7Z" fill="#fd9827"/>
    </g>
  </g>
</svg>
