<svg xmlns="http://www.w3.org/2000/svg" width="88.766" height="88.766" viewBox="0 0 88.766 88.766">
  <g id="Grupo_968457" data-name="Grupo 968457" transform="translate(3189 8225.712)">
    <g id="Communicate" transform="translate(-3191 -8227.712)">
      <path id="Trazado_661792" data-name="Trazado 661792" d="M37.432,29.029,30.11,21.706a1.479,1.479,0,0,0-2.092,0l-3.139,3.138a4.438,4.438,0,0,1-6.277,0l-.358-.358a4.438,4.438,0,0,1,0-6.277l3.138-3.139a1.479,1.479,0,0,0,0-2.092L14.057,5.655a1.479,1.479,0,0,0-2.092,0L8.827,8.793a13.33,13.33,0,0,0,0,18.83l6.635,6.635a13.33,13.33,0,0,0,18.83,0l3.139-3.138A1.479,1.479,0,0,0,37.432,29.029Zm-8.368-4.185,5.23,5.231-1.046,1.046-5.23-5.231ZM13.012,8.793l5.23,5.23L17.2,15.07,11.965,9.839Zm4.542,23.375-6.635-6.637a10.374,10.374,0,0,1-.972-13.525l5.261,5.261a7.41,7.41,0,0,0,.942,9.31l.358.358a7.415,7.415,0,0,0,9.31.942l5.261,5.261a10.375,10.375,0,0,1-13.525-.972Z" transform="translate(1.406 1.545)" fill="#fd9827"/>
      <path id="Trazado_661793" data-name="Trazado 661793" d="M38.986,46.383H6.438A4.438,4.438,0,0,1,2,41.945V6.438A4.438,4.438,0,0,1,6.438,2H38.986a4.438,4.438,0,0,1,4.438,4.438V41.945A4.438,4.438,0,0,1,38.986,46.383ZM6.438,4.959A1.479,1.479,0,0,0,4.959,6.438V41.945a1.479,1.479,0,0,0,1.479,1.479H38.986a1.479,1.479,0,0,0,1.479-1.479V6.438a1.479,1.479,0,0,0-1.479-1.479Z" transform="translate(0 0)" fill="#fd9827"/>
      <path id="Trazado_661794" data-name="Trazado 661794" d="M38.986,75.424H6.438A4.438,4.438,0,0,1,2,70.986V38.438A4.438,4.438,0,0,1,6.438,34H38.986a4.438,4.438,0,0,1,4.438,4.438V70.986a4.438,4.438,0,0,1-4.438,4.438ZM6.438,36.959a1.479,1.479,0,0,0-1.479,1.479V70.986a1.479,1.479,0,0,0,1.479,1.479H38.986a1.479,1.479,0,0,0,1.479-1.479V38.438a1.479,1.479,0,0,0-1.479-1.479Z" transform="translate(0 15.342)" fill="#fd9827"/>
      <path id="Trazado_661795" data-name="Trazado 661795" d="M34.109,41H7.479A1.479,1.479,0,0,0,6,42.479V60.233a1.479,1.479,0,0,0,1.479,1.479h26.63a1.479,1.479,0,0,0,1.479-1.479V42.479A1.479,1.479,0,0,0,34.109,41ZM20.794,52.318l-9.421-8.359H30.212Zm-5.524-.948L8.959,56.948V45.771ZM17.5,53.347l1.331,1.184a2.949,2.949,0,0,0,3.952.007l1.331-1.184,6.092,5.4H11.384Zm8.835-1.978,6.3-5.6V56.948Z" transform="translate(1.918 18.698)" fill="#fd9827"/>
      <path id="Trazado_661796" data-name="Trazado 661796" d="M70.986,2H38.438A4.438,4.438,0,0,0,34,6.438V41.945a4.438,4.438,0,0,0,4.438,4.438h7.4V64.932L44.1,61.264A4.382,4.382,0,0,0,42.079,58.7,4.449,4.449,0,0,0,38.7,58.26l-1.363.367A2.959,2.959,0,0,0,35.3,62.414L41.479,80.35a1.462,1.462,0,0,0,.269.473l4.008,4.734.08,3.759a1.479,1.479,0,0,0,1.479,1.448H68.027a1.479,1.479,0,0,0,1.479-1.479V85.292l2.71-4.065a1.488,1.488,0,0,0,.249-.817V61.177a4.329,4.329,0,0,0-1.293-3.119,4.524,4.524,0,0,0-4.779-1.009,4.242,4.242,0,0,0-1.139-1.95,4.527,4.527,0,0,0-4.779-1.009,4.241,4.241,0,0,0-1.139-1.95,4.517,4.517,0,0,0-4.625-1.067V46.383H70.986a4.438,4.438,0,0,0,4.438-4.438V6.438A4.438,4.438,0,0,0,70.986,2ZM56.191,53.78a1.441,1.441,0,0,1,1.053.453,1.416,1.416,0,0,1,.426,1.027V65.615a1.479,1.479,0,1,0,2.959,0v-7.4a1.479,1.479,0,0,1,1.479-1.479,1.441,1.441,0,0,1,1.053.453,1.416,1.416,0,0,1,.426,1.027v7.4a1.479,1.479,0,1,0,2.959,0V61.177A1.479,1.479,0,0,1,68.027,59.7a1.441,1.441,0,0,1,1.053.453,1.416,1.416,0,0,1,.426,1.027V79.966L66.8,84.031a1.488,1.488,0,0,0-.249.817v2.959H48.763L48.7,84.965a1.479,1.479,0,0,0-.349-.926l-4.169-4.921L38.111,61.473l1.352-.364a1.506,1.506,0,0,1,1.136.148,1.45,1.45,0,0,1,.683.888c.022.087,4.694,10.005,4.694,10.005a1.479,1.479,0,0,0,2.817-.617V42.11a1.6,1.6,0,0,1,1.342-1.645,1.441,1.441,0,0,1,1.191.444,1.416,1.416,0,0,1,.426,1.036V65.615a1.479,1.479,0,1,0,2.959,0V55.259A1.479,1.479,0,0,1,56.191,53.78ZM72.465,41.945a1.479,1.479,0,0,1-1.479,1.479H54.712V41.945a4.329,4.329,0,0,0-1.293-3.119,4.388,4.388,0,0,0-3.531-1.3,4.552,4.552,0,0,0-4.052,4.588v1.314h-7.4a1.479,1.479,0,0,1-1.479-1.479V6.438a1.479,1.479,0,0,1,1.479-1.479H70.986a1.479,1.479,0,0,1,1.479,1.479Z" transform="translate(15.342)" fill="#fd9827"/>
      <path id="Trazado_661797" data-name="Trazado 661797" d="M51.835,8a11.835,11.835,0,1,0,0,23.671h5.918a1.479,1.479,0,0,0,0-2.959H51.835a8.877,8.877,0,1,1,8.877-8.877v1.479a1.479,1.479,0,0,1-2.959,0V19.835a5.967,5.967,0,1,0-1.9,4.32,4.419,4.419,0,0,0,7.82-2.84V19.835A11.849,11.849,0,0,0,51.835,8Zm0,14.794a2.959,2.959,0,1,1,2.959-2.959A2.959,2.959,0,0,1,51.835,22.794Z" transform="translate(18.218 2.877)" fill="#fd9827"/>
    </g>
  </g>
</svg>
