<svg xmlns="http://www.w3.org/2000/svg" xmlns:xlink="http://www.w3.org/1999/xlink" width="101" height="103" viewBox="0 0 101 103">
  <defs>
    <filter id="Elipse_4724" x="0" y="2" width="101" height="101" filterUnits="userSpaceOnUse">
      <feOffset dy="3" input="SourceAlpha"/>
      <feGaussianBlur stdDeviation="3" result="blur"/>
      <feFlood flood-opacity="0.161"/>
      <feComposite operator="in" in2="blur"/>
      <feComposite in="SourceGraphic"/>
    </filter>
  </defs>
  <g id="Grupo_968457" data-name="Grupo 968457" transform="translate(2761 7414)">
    <g transform="matrix(1, 0, 0, 1, -2761, -7414)" filter="url(#Elipse_4724)">
      <circle id="Elipse_4724-2" data-name="Elipse 4724" cx="41.5" cy="41.5" r="41.5" transform="translate(9 8)" fill="#fd9827"/>
    </g>
    <g id="XMLID_1021_" transform="translate(-2739 -7411.022)">
      <g id="XMLID_1170_" transform="translate(0.001 20.022)">
        <path id="XMLID_682_" d="M53.106,47.206l-8.379-2.245a3.253,3.253,0,0,0-3.035.742l-2.3-4.266a20.83,20.83,0,0,0-5.849-6.779l6.038-6.038a1.084,1.084,0,0,0,0-1.534L32.834,20.34a1.085,1.085,0,0,0-1.534,0L21.109,30.531a20.758,20.758,0,0,0-14.667,6.08L3.467,39.586a4.117,4.117,0,0,0,1.866,6.9L.092,58.4a1.084,1.084,0,0,0,1.429,1.429L13.44,54.587a4.121,4.121,0,0,0,6.9,1.869l1.181-1.181.473.473a16.136,16.136,0,0,0,13.949,9.571,3.254,3.254,0,0,0,2.389,3.522l8.379,2.245a3.252,3.252,0,0,0,3.984-2.3l1.066-3.978a1.084,1.084,0,0,0-2.095-.561L48.6,68.224a1.085,1.085,0,0,1-1.328.767L38.89,66.746a1.084,1.084,0,0,1-.767-1.328l4.715-17.6a1.086,1.086,0,0,1,1.328-.767L52.545,49.3a1.086,1.086,0,0,1,.767,1.328l-1.123,4.19a1.084,1.084,0,0,0,2.095.561l1.123-4.19a3.257,3.257,0,0,0-2.3-3.984ZM37.281,27.853,22.129,43.006l-.122-.122a4.523,4.523,0,0,0-2.215-1.222L35.441,26.013ZM32.067,22.64l1.84,1.84L9.754,48.633l-1.84-1.84ZM5,43.879a1.952,1.952,0,0,1,0-2.76l2.975-2.975a18.45,18.45,0,0,1,10.822-5.3L7.761,43.879a1.954,1.954,0,0,1-2.76,0Zm1.734,4.8,4.5,4.5L3.2,56.722Zm6.393,3.326-1.84-1.84,3.06-3.06a4.526,4.526,0,0,0,1.219,2.217l.122.122ZM18.8,54.923a1.952,1.952,0,1,1-2.76-2.76l1.181-1.181,2.76,2.76Zm17.677,8.245A13.972,13.972,0,0,1,23.9,54.7a1.085,1.085,0,0,0-.23-.339L17.1,47.791a2.385,2.385,0,1,1,3.373-3.373l6.569,6.569a1.084,1.084,0,0,0,1.534-1.534l-4.914-4.914,8.328-8.328a18.65,18.65,0,0,1,5.493,6.255l3.036,5.63Z" transform="translate(-0.001 -20.022)" fill="#12263f"/>
      </g>
      <g id="XMLID_928_" transform="translate(50.889 58.729)">
        <path id="XMLID_273_" d="M470.4,379.172a1.085,1.085,0,1,1,.767-.318A1.095,1.095,0,0,1,470.4,379.172Z" transform="translate(-469.32 -377.003)" fill="#12263f"/>
      </g>
    </g>
    <rect id="Rectángulo_337776" data-name="Rectángulo 337776" width="98" height="98" transform="translate(-2760 -7414)" fill="none"/>
  </g>
</svg>
