<svg xmlns="http://www.w3.org/2000/svg" xmlns:xlink="http://www.w3.org/1999/xlink" width="101" height="103" viewBox="0 0 101 103">
  <defs>
    <filter id="Elipse_4724" x="0" y="2" width="101" height="101" filterUnits="userSpaceOnUse">
      <feOffset dy="3" input="SourceAlpha"/>
      <feGaussianBlur stdDeviation="3" result="blur"/>
      <feFlood flood-opacity="0.161"/>
      <feComposite operator="in" in2="blur"/>
      <feComposite in="SourceGraphic"/>
    </filter>
  </defs>
  <g id="Grupo_968455" data-name="Grupo 968455" transform="translate(2488 7414)">
    <g transform="matrix(1, 0, 0, 1, -2488, -7414)" filter="url(#Elipse_4724)">
      <circle id="Elipse_4724-2" data-name="Elipse 4724" cx="41.5" cy="41.5" r="41.5" transform="translate(9 8)" fill="#fd9827"/>
    </g>
    <g id="Grupo_968319" data-name="Grupo 968319" transform="translate(-3710 -11618)">
      <g id="servicios-digitales_1_" data-name="servicios-digitales (1)" transform="translate(1246 4227)">
        <path id="Trazado_661845" data-name="Trazado 661845" d="M47.239,47.112H28.5a2.438,2.438,0,0,0-.5-.983l-4.48-5.223a.811.811,0,0,0-.616-.284H13.979v-.811A.811.811,0,0,0,13.168,39H1.811A.811.811,0,0,0,1,39.811V57.658a.811.811,0,0,0,.811.811H8.3a.811.811,0,0,0,.811-.811v-.811h4.056a.811.811,0,0,0,.811-.811v-.811h5.435l4.663,3.109a.811.811,0,0,0,.448.136.842.842,0,0,0,.174-.019l25.959-5.679a.811.811,0,0,0,.638-.793v-.811a4.061,4.061,0,0,0-4.056-4.056ZM7.49,56.847H2.622V40.622H7.49Zm4.867-1.622H9.112v-14.6h3.245ZM49.673,51.33,24.688,56.792l-4.58-3.054a.816.816,0,0,0-.449-.136H13.979V42.245h8.55l4.234,4.939a.811.811,0,0,1,.2.528v1.022a.811.811,0,0,1-.811.811H25.2a.811.811,0,0,1-.574-.238l-3.581-3.581L19.9,46.874l3.581,3.581a2.416,2.416,0,0,0,1.721.713h.95a2.434,2.434,0,0,0,2.434-2.434H47.239a2.434,2.434,0,0,1,2.434,2.434Z" transform="translate(0 -7.174)" fill="#12263f"/>
        <path id="Trazado_661846" data-name="Trazado 661846" d="M50.484,25.336H48.862V7.49a2.434,2.434,0,0,0-2.434-2.434H40.706A.641.641,0,0,0,40.668,5L38.374,2.7a.811.811,0,0,0-1.147,0l-.842.842A8.064,8.064,0,0,0,35.071,3V1.811A.811.811,0,0,0,34.26,1H31.015a.811.811,0,0,0-.811.811V3a8.064,8.064,0,0,0-1.313.545L28.048,2.7a.811.811,0,0,0-1.147,0L24.606,5a.644.644,0,0,0-.037.058H18.847A2.434,2.434,0,0,0,16.413,7.49v4.867H1.811A.811.811,0,0,0,1,13.168V22.9a.811.811,0,0,0,.811.811h14.6v1.622H14.791a.811.811,0,0,0-.811.811v3.245a2.434,2.434,0,0,0,2.434,2.434H48.862A2.434,2.434,0,0,0,51.3,29.393V26.148A.811.811,0,0,0,50.484,25.336ZM47.239,7.49V25.336H45.617V9.112a.811.811,0,0,0-.811-.811H40.372a8.064,8.064,0,0,0-.545-1.313l.309-.309h6.293A.811.811,0,0,1,47.239,7.49ZM22.092,22.9V13.168a.811.811,0,0,0-.811-.811V9.923H22.9v2.434a.811.811,0,0,0,.811.811H24.9a8.064,8.064,0,0,0,.545,1.313l-.842.842a.811.811,0,0,0,0,1.147L26.9,18.766a.811.811,0,0,0,1.147,0l.842-.842a8.056,8.056,0,0,0,1.313.545v1.189a.811.811,0,0,0,.811.811H34.26a.811.811,0,0,0,.811-.811V18.469a8.056,8.056,0,0,0,1.313-.546l.842.843a.811.811,0,0,0,1.147,0l2.295-2.295a.811.811,0,0,0,0-1.147l-.841-.842a8.064,8.064,0,0,0,.544-1.313h1.189a.811.811,0,0,0,.811-.811V9.923h1.622V25.336H21.28V23.714A.811.811,0,0,0,22.092,22.9ZM26.315,9.292a6.422,6.422,0,0,1,.833-2.006.811.811,0,0,0-.113-1.007l-.707-.707,1.147-1.147.707.707a.811.811,0,0,0,1.007.113A6.422,6.422,0,0,1,31.2,4.412a.811.811,0,0,0,.631-.792v-1h1.622v1a.811.811,0,0,0,.631.792,6.422,6.422,0,0,1,2.006.833.811.811,0,0,0,1.007-.113l.707-.707,1.147,1.147-.707.707a.811.811,0,0,0-.113,1.007,6.422,6.422,0,0,1,.833,2.006.811.811,0,0,0,.792.631h1v1.622h-1a.811.811,0,0,0-.792.631,6.422,6.422,0,0,1-.833,2.006.811.811,0,0,0,.113,1.007l.707.707L37.8,17.044l-.707-.707a.811.811,0,0,0-1.006-.113,6.435,6.435,0,0,1-2.006.833.811.811,0,0,0-.632.791v1H31.826v-1a.811.811,0,0,0-.632-.791,6.435,6.435,0,0,1-2.006-.833.811.811,0,0,0-1.006.113l-.707.707L26.328,15.9l.707-.707a.811.811,0,0,0,.113-1.007,6.422,6.422,0,0,1-.833-2.006.811.811,0,0,0-.792-.631h-1V9.923h1A.811.811,0,0,0,26.315,9.292Zm-8.279-1.8a.811.811,0,0,1,.811-.811h6.293l.309.309A8.064,8.064,0,0,0,24.9,8.3H20.469a.811.811,0,0,0-.811.811v3.245H18.036ZM2.622,13.979H20.469v8.112H2.622Zm15.413,9.735h1.622v1.622H18.036Zm31.637,5.679a.811.811,0,0,1-.811.811H16.413a.811.811,0,0,1-.811-.811V26.959H49.673Z" fill="#12263f"/>
        <path id="Trazado_661847" data-name="Trazado 661847" d="M38.867,16.735A4.867,4.867,0,1,0,34,11.867,4.867,4.867,0,0,0,38.867,16.735Zm0-8.112a3.245,3.245,0,1,1-3.245,3.245A3.245,3.245,0,0,1,38.867,8.622Z" transform="translate(-6.23 -1.133)" fill="#12263f"/>
      </g>
      <g id="fuente" transform="translate(1252.111 4176.435)">
        <path id="Trazado_661848" data-name="Trazado 661848" d="M293.552,65.488v-.313h-1.346v.313h.516v5.267h-.516v.313h1.346v-.313h-.516V65.488Z" transform="translate(-287.585 0.549)" fill="#12263f"/>
        <g id="Grupo_968318" data-name="Grupo 968318" transform="translate(-2 65.958)">
          <path id="Trazado_661849" data-name="Trazado 661849" d="M.068,93.587l1.846-4.169a.72.72,0,0,1,.681-.462h.068a.71.71,0,0,1,.673.462l1.846,4.169a.568.568,0,0,1,.061.235.552.552,0,0,1-.552.56.593.593,0,0,1-.56-.4l-.356-.832H1.445l-.371.87a.572.572,0,0,1-.537.363A.536.536,0,0,1,0,93.837.618.618,0,0,1,.068,93.587ZM3.344,92.12,2.61,90.372,1.876,92.12Z" transform="translate(0 -88.957)" fill="#12263f"/>
        </g>
      </g>
      <path id="Trazado_661850" data-name="Trazado 661850" d="M340.154,301.87h4.823a.75.75,0,0,0,0-1.5h-4.823a.75.75,0,1,0,0,1.5Z" transform="translate(920.04 3942.807)" fill="#12263f"/>
      <path id="Trazado_661851" data-name="Trazado 661851" d="M340.154,333.234h2.6a.75.75,0,1,0,0-1.5h-2.6a.75.75,0,1,0,0,1.5Z" transform="translate(920.04 3914.577)" fill="#12263f"/>
    </g>
    <rect id="Rectángulo_337778" data-name="Rectángulo 337778" width="98" height="98" transform="translate(-2487 -7414)" fill="none"/>
  </g>
</svg>
