<svg xmlns="http://www.w3.org/2000/svg" width="84" height="84" viewBox="0 0 84 84">
  <g id="Grupo_968461" data-name="Grupo 968461" transform="translate(12535 6985)">
    <g id="clasificacion-de-datos" transform="translate(-12522 -6972)">
      <path id="Trazado_658282" data-name="Trazado 658282" d="M17.579,5A12.579,12.579,0,1,0,30.158,17.579,12.593,12.593,0,0,0,17.579,5Zm0,23.361A10.782,10.782,0,1,1,28.361,17.579,10.794,10.794,0,0,1,17.579,28.361Z" transform="translate(-0.406 -0.406)" fill="#b5a29b"/>
      <path id="Trazado_658283" data-name="Trazado 658283" d="M18.7,53a2.7,2.7,0,1,0,2.7,2.7A2.7,2.7,0,0,0,18.7,53Zm0,3.594a.9.9,0,1,1,.9-.9A.9.9,0,0,1,18.7,56.594Z" transform="translate(-1.522 -5.278)" fill="#b5a29b"/>
      <path id="Trazado_658284" data-name="Trazado 658284" d="M18.7,16a2.7,2.7,0,1,0,2.7,2.7A2.7,2.7,0,0,0,18.7,16Zm0,3.594a.9.9,0,1,1,.9-.9A.9.9,0,0,1,18.7,19.594Z" transform="translate(-1.522 -1.522)" fill="#b5a29b"/>
      <path id="Trazado_658285" data-name="Trazado 658285" d="M10.7,16a2.7,2.7,0,1,0,2.7,2.7A2.7,2.7,0,0,0,10.7,16Zm0,3.594a.9.9,0,1,1,.9-.9A.9.9,0,0,1,10.7,19.594Z" transform="translate(-0.71 -1.522)" fill="#b5a29b"/>
      <path id="Trazado_658286" data-name="Trazado 658286" d="M24,18.7A2.7,2.7,0,1,0,26.7,16,2.7,2.7,0,0,0,24,18.7Zm3.594,0a.9.9,0,1,1-.9-.9A.9.9,0,0,1,27.594,18.7Z" transform="translate(-2.334 -1.522)" fill="#b5a29b"/>
      <path id="Trazado_658287" data-name="Trazado 658287" d="M47,49H57.782v1.8H47Z" transform="translate(-4.669 -4.872)" fill="#b5a29b"/>
      <path id="Trazado_658288" data-name="Trazado 658288" d="M47,53h7.188v1.8H47Z" transform="translate(-4.669 -5.278)" fill="#b5a29b"/>
      <path id="Trazado_658289" data-name="Trazado 658289" d="M57,53h1.8v1.8H57Z" transform="translate(-5.684 -5.278)" fill="#b5a29b"/>
      <path id="Trazado_658290" data-name="Trazado 658290" d="M47,57H57.782v1.8H47Z" transform="translate(-4.669 -5.684)" fill="#b5a29b"/>
      <path id="Trazado_658291" data-name="Trazado 658291" d="M47,27H57.782v1.8H47Z" transform="translate(-4.669 -2.639)" fill="#b5a29b"/>
      <path id="Trazado_658292" data-name="Trazado 658292" d="M47,31H57.782v1.8H47Z" transform="translate(-4.669 -3.045)" fill="#b5a29b"/>
      <path id="Trazado_658293" data-name="Trazado 658293" d="M57,35h1.8v1.8H57Z" transform="translate(-5.684 -3.451)" fill="#b5a29b"/>
      <path id="Trazado_658294" data-name="Trazado 658294" d="M47,35h7.188v1.8H47Z" transform="translate(-4.669 -3.451)" fill="#b5a29b"/>
      <path id="Trazado_658295" data-name="Trazado 658295" d="M41.433,17.173H54.012a2.7,2.7,0,0,0,2.7-2.7V3.7a2.7,2.7,0,0,0-2.7-2.7H41.433a2.7,2.7,0,0,0-2.7,2.7V8.188H34.771l-2.7,2.7A16.172,16.172,0,1,0,12.482,32.647l.305.512a5.645,5.645,0,0,1,.792,2.8L11.007,48.819a6.271,6.271,0,0,0-.123,1.234v.365a6.29,6.29,0,0,0,12.579,0v-.365a6.339,6.339,0,0,0-.122-1.234L20.768,35.956a5.636,5.636,0,0,1,.792-2.8l.305-.513c.461-.14.911-.3,1.354-.484L34.66,49.519h4.077v4.493a2.7,2.7,0,0,0,2.7,2.7H54.012a2.7,2.7,0,0,0,2.7-2.7V43.23a2.7,2.7,0,0,0-2.7-2.7H41.433a2.7,2.7,0,0,0-2.7,2.7v4.493H35.626L24.866,31.4a16.282,16.282,0,0,0,5.607-5.043l3.4,3.4h4.864v4.493a2.7,2.7,0,0,0,2.7,2.7H54.012a2.7,2.7,0,0,0,2.7-2.7V23.463a2.7,2.7,0,0,0-2.7-2.7H41.433a2.7,2.7,0,0,0-2.7,2.7v4.493H34.617l-3.178-3.178a16,16,0,0,0,1.284-12l2.793-2.792h3.222v4.493a2.7,2.7,0,0,0,2.7,2.7Zm-.9,26.057a.9.9,0,0,1,.9-.9H54.012a.9.9,0,0,1,.9.9V54.012a.9.9,0,0,1-.9.9H41.433a.9.9,0,0,1-.9-.9Zm0-19.767a.9.9,0,0,1,.9-.9H54.012a.9.9,0,0,1,.9.9V34.245a.9.9,0,0,1-.9.9H41.433a.9.9,0,0,1-.9-.9ZM21.578,49.17a4.492,4.492,0,0,1,.087.882v.365a4.493,4.493,0,0,1-8.985,0v-.365a4.461,4.461,0,0,1,.087-.881L15.214,36.94h3.935ZM19.03,35.143H15.315a7.429,7.429,0,0,0-.527-1.993,16.181,16.181,0,0,0,2.385.2,16.159,16.159,0,0,0,2.384-.2,7.462,7.462,0,0,0-.527,1.993Zm-1.857-3.594A14.376,14.376,0,1,1,31.549,17.173,14.393,14.393,0,0,1,17.173,31.549ZM40.534,3.7a.9.9,0,0,1,.9-.9H54.012a.9.9,0,0,1,.9.9V14.478a.9.9,0,0,1-.9.9H41.433a.9.9,0,0,1-.9-.9Z" fill="#b5a29b"/>
      <path id="Trazado_658296" data-name="Trazado 658296" d="M47,5H57.782V6.8H47Z" transform="translate(-4.669 -0.406)" fill="#b5a29b"/>
      <path id="Trazado_658297" data-name="Trazado 658297" d="M47,9h1.8v1.8H47Z" transform="translate(-4.669 -0.812)" fill="#b5a29b"/>
      <path id="Trazado_658298" data-name="Trazado 658298" d="M51,9h7.188v1.8H51Z" transform="translate(-5.075 -0.812)" fill="#b5a29b"/>
      <path id="Trazado_658299" data-name="Trazado 658299" d="M47,13H57.782v1.8H47Z" transform="translate(-4.669 -1.218)" fill="#b5a29b"/>
    </g>
    <rect id="Rectángulo_337777" data-name="Rectángulo 337777" width="84" height="84" transform="translate(-12535 -6985)" fill="none"/>
  </g>
</svg>
