<svg xmlns="http://www.w3.org/2000/svg" width="84" height="84" viewBox="0 0 84 84">
  <g id="Grupo_968463" data-name="Grupo 968463" transform="translate(12232 6985)">
    <g id="marcador" transform="translate(-12303.004 -6968)">
      <path id="Trazado_658315" data-name="Trazado 658315" d="M153,202.478v18.13a1.478,1.478,0,0,0,1.478,1.478h11.036A1.478,1.478,0,0,0,167,220.608v-18.13A1.478,1.478,0,0,0,165.518,201H154.482A1.478,1.478,0,0,0,153,202.478Zm2.956,1.478h8.08V219.13h-8.08Z" transform="translate(-50.482 -181.195)" fill="#b5a29b"/>
      <path id="Trazado_658316" data-name="Trazado 658316" d="M118.188,0a10.165,10.165,0,0,0-9.433,6.4h-7.318A4.439,4.439,0,0,0,97,10.839V48.97a1.479,1.479,0,0,0,1.9,1.418l10.618-3.128s10.731,3.189,11.035,3.189a1.478,1.478,0,0,0,1.478-1.478V10.839A4.439,4.439,0,0,0,117.6,6.4h-5.548a7.191,7.191,0,0,1,13.332,3.744V18.82a1.478,1.478,0,0,0,2.956,0V10.149A10.144,10.144,0,0,0,118.188,0ZM117.6,9.361a1.48,1.48,0,0,1,1.478,1.478V46.994c-9.957-2.934-9.252-2.753-9.558-2.753s.443-.193-9.558,2.753V10.839a1.48,1.48,0,0,1,1.478-1.478h6.632c-.04.522-.03.708-.03,2.562h-.887a1.478,1.478,0,1,0,0,2.956h4.73a1.478,1.478,0,0,0,0-2.956H111a23.486,23.486,0,0,1,.044-2.562Z" transform="translate(0)" fill="#b5a29b"/>
      <path id="Trazado_658317" data-name="Trazado 658317" d="M210.482,273A1.478,1.478,0,0,0,209,274.478v4.73a1.478,1.478,0,1,0,2.956,0v-4.73A1.478,1.478,0,0,0,210.482,273Z" transform="translate(-100.964 -246.101)" fill="#b5a29b"/>
    </g>
    <rect id="Rectángulo_337779" data-name="Rectángulo 337779" width="84" height="84" transform="translate(-12232 -6985)" fill="none"/>
  </g>
</svg>
