<svg xmlns="http://www.w3.org/2000/svg" width="84" height="84" viewBox="0 0 84 84">
  <g id="Grupo_968464" data-name="Grupo 968464" transform="translate(12085 6985)">
    <g id="codigo-de-barras_2_" data-name="codigo-de-barras (2)" transform="translate(-12071 -6995.274)">
      <g id="Grupo_960411" data-name="Grupo 960411" transform="translate(0 27.274)">
        <path id="Trazado_658318" data-name="Trazado 658318" d="M442.1,27.274H435.2a.827.827,0,0,0,0,1.654h6.08v6.08a.827.827,0,0,0,1.654,0V28.1A.827.827,0,0,0,442.1,27.274Z" transform="translate(-386.466 -27.274)" fill="#b5a29b"/>
        <path id="Trazado_658319" data-name="Trazado 658319" d="M.827,35.835a.827.827,0,0,0,.827-.827v-6.08h6.08a.827.827,0,0,0,0-1.654H.827A.827.827,0,0,0,0,28.1v6.907a.827.827,0,0,0,.827.827Z" transform="translate(0 -27.274)" fill="#b5a29b"/>
        <path id="Trazado_658320" data-name="Trazado 658320" d="M442.1,407.1a.827.827,0,0,0-.827.827V414H435.2a.827.827,0,1,0,0,1.654H442.1a.827.827,0,0,0,.827-.827v-6.907A.827.827,0,0,0,442.1,407.1Z" transform="translate(-386.466 -365.208)" fill="#b5a29b"/>
        <path id="Trazado_658321" data-name="Trazado 658321" d="M7.734,414H1.654v-6.08a.827.827,0,1,0-1.654,0v6.907a.827.827,0,0,0,.827.827H7.734a.827.827,0,1,0,0-1.654Z" transform="translate(0 -365.208)" fill="#b5a29b"/>
        <path id="Trazado_658322" data-name="Trazado 658322" d="M345.292,337.395a.827.827,0,0,0-.827.827v1.337a.827.827,0,0,0,1.654,0v-1.337A.827.827,0,0,0,345.292,337.395Z" transform="translate(-306.476 -303.194)" fill="#b5a29b"/>
        <path id="Trazado_658323" data-name="Trazado 658323" d="M306.906,337.395a.827.827,0,0,0-.827.827v1.337a.827.827,0,0,0,1.654,0v-1.337A.827.827,0,0,0,306.906,337.395Z" transform="translate(-272.324 -303.194)" fill="#b5a29b"/>
        <path id="Trazado_658324" data-name="Trazado 658324" d="M268.52,337.395a.827.827,0,0,0-.827.827v1.337a.827.827,0,1,0,1.654,0v-1.337A.827.827,0,0,0,268.52,337.395Z" transform="translate(-238.171 -303.194)" fill="#b5a29b"/>
        <path id="Trazado_658325" data-name="Trazado 658325" d="M230.134,337.395a.827.827,0,0,0-.827.827v1.337a.827.827,0,0,0,1.654,0v-1.337A.827.827,0,0,0,230.134,337.395Z" transform="translate(-204.018 -303.194)" fill="#b5a29b"/>
        <path id="Trazado_658326" data-name="Trazado 658326" d="M191.748,337.395a.827.827,0,0,0-.827.827v1.337a.827.827,0,0,0,1.654,0v-1.337A.827.827,0,0,0,191.748,337.395Z" transform="translate(-169.866 -303.194)" fill="#b5a29b"/>
        <path id="Trazado_658327" data-name="Trazado 658327" d="M153.362,337.395a.827.827,0,0,0-.827.827v1.337a.827.827,0,0,0,1.654,0v-1.337A.827.827,0,0,0,153.362,337.395Z" transform="translate(-135.713 -303.194)" fill="#b5a29b"/>
        <path id="Trazado_658328" data-name="Trazado 658328" d="M55.638,91.231h-4.3V74.567a.827.827,0,0,0-.827-.827H13.058a.827.827,0,0,0,0,1.654H49.686V91.231h-1.91V78.422a.827.827,0,0,0-.827-.827H9.516a.827.827,0,0,0-.827.827V91.231H6.779V75.394H9.187a.827.827,0,0,0,0-1.654H5.952a.827.827,0,0,0-.827.827V91.231H.827A.827.827,0,0,0,0,92.058v3.565a.827.827,0,0,0,.827.827h4.3v16.664a.827.827,0,0,0,.827.827H50.513a.827.827,0,0,0,.827-.827V96.45h4.3a.827.827,0,0,0,.827-.827V92.058a.827.827,0,0,0-.827-.827ZM10.343,79.249H46.122V91.231H43.876V82.7a.827.827,0,0,0-1.654,0v8.531H39.644V82.7a.827.827,0,0,0-1.654,0v8.531H35.41V82.7a.827.827,0,0,0-1.654,0v8.531h-2.58V82.7a.827.827,0,0,0-1.654,0v8.531H26.943V82.7a.827.827,0,0,0-1.654,0v8.531H22.71V82.7a.827.827,0,0,0-1.654,0v8.531h-2.58V82.7a.827.827,0,0,0-1.654,0v8.531H14.243V82.7a.827.827,0,0,0-1.654,0v8.531H10.343Zm39.342,33.038H6.779V96.45h1.91v12.809a.827.827,0,0,0,.827.827H40.057a.827.827,0,1,0,0-1.654H10.343V96.45h2.245v8.531a.827.827,0,1,0,1.654,0V96.45h2.578v2.961a.827.827,0,1,0,1.654,0V96.45h2.58v2.961a.827.827,0,1,0,1.654,0V96.45h2.58v2.961a.827.827,0,1,0,1.654,0V96.45h2.578v2.961a.827.827,0,1,0,1.654,0V96.45h2.58v2.961a.827.827,0,1,0,1.654,0V96.45h2.58v2.961a.827.827,0,1,0,1.654,0V96.45h2.578v8.531a.827.827,0,1,0,1.654,0V96.45h2.245v11.982H43.928a.827.827,0,0,0,0,1.654h3.021a.827.827,0,0,0,.827-.827V96.45h1.91ZM54.811,94.8H1.654V92.885H54.811Z" transform="translate(0 -68.616)" fill="#b5a29b"/>
      </g>
    </g>
    <rect id="Rectángulo_337780" data-name="Rectángulo 337780" width="84" height="84" transform="translate(-12085 -6985)" fill="none"/>
  </g>
</svg>
