<svg id="libro" xmlns="http://www.w3.org/2000/svg" width="87.542" height="87.542" viewBox="0 0 87.542 87.542">
  <path id="Trazado_661212" data-name="Trazado 661212" d="M43.771,0H24.8a1.459,1.459,0,0,0-1.459,1.459V11.672H1.459A1.459,1.459,0,0,0,0,13.131V86.083a1.459,1.459,0,0,0,1.459,1.459H43.771a1.459,1.459,0,0,0,1.459-1.459V1.459A1.459,1.459,0,0,0,43.771,0ZM42.312,75.87H26.263V72.952H42.312ZM2.918,21.886H23.345V65.657H2.918Zm39.394-5.836H26.263V11.672H42.312ZM2.918,68.575H23.345v4.377H2.918Zm23.345,1.459V18.968H42.312V70.034ZM42.312,2.918V8.754H26.263V2.918ZM23.345,14.59v4.377H2.918V14.59ZM2.918,75.87H23.345v8.754H2.918Zm23.345,8.754V78.788H42.312v5.836Zm0,0" fill="#fd9827"/>
  <path id="Trazado_661213" data-name="Trazado 661213" d="M290.263,132.208,272.755,65.092a1.458,1.458,0,0,0-1.788-1.042l-21.886,5.836a1.458,1.458,0,0,0-1.036,1.777l17.508,67.116a1.455,1.455,0,0,0,1.788,1.039l21.886-5.836A1.459,1.459,0,0,0,290.263,132.208Zm-36.7-50.965,19.067-5.083.686,2.626-19.065,5.091Zm20.489.374,8.462,32.46-19.059,5.085L254.99,86.7Zm9.205,35.285,1.494,5.726-19.067,5.083-1.488-5.724ZM270.3,67.247l1.589,6.091L252.823,78.42l-1.587-6.088Zm-2.294,69.377-1.589-6.091,19.067-5.085,1.587,6.088Zm0,0" transform="translate(-202.768 -52.329)" fill="#fd9827"/>
  <path id="Trazado_661214" data-name="Trazado 661214" d="M45.131,144H33.459A1.459,1.459,0,0,0,32,145.459v11.672a1.459,1.459,0,0,0,1.459,1.459H45.131a1.459,1.459,0,0,0,1.459-1.459V145.459A1.459,1.459,0,0,0,45.131,144Zm-1.459,11.672H34.918v-8.754h8.754Zm0,0" transform="translate(-26.164 -117.737)" fill="#fd9827"/>
</svg>
