<svg id="search" xmlns="http://www.w3.org/2000/svg" width="87.532" height="87.533" viewBox="0 0 87.532 87.533">
  <path id="Trazado_661211" data-name="Trazado 661211" d="M34.536,5.129a1.282,1.282,0,1,0,1.282,1.282A1.282,1.282,0,0,0,34.536,5.129ZM81.122,7.358H69.665V3.334A3.338,3.338,0,0,0,66.332,0H21.2a3.338,3.338,0,0,0-3.334,3.334V7.358H6.411A6.418,6.418,0,0,0,0,13.769V62.052A6.371,6.371,0,0,0,3.99,68L.945,73.27A7.047,7.047,0,0,0,13.15,80.317l6.843-11.853H36.4l-.977,7.258H33.99a2.658,2.658,0,0,0-2.554,1.942L29.63,84.175a2.649,2.649,0,0,0,2.553,3.358H55.349A2.65,2.65,0,0,0,57.9,84.175L56.1,77.664a2.657,2.657,0,0,0-2.554-1.942H52.114l-.977-7.258H81.122a6.418,6.418,0,0,0,6.411-6.411V13.769a6.418,6.418,0,0,0-6.411-6.411ZM69.665,15.052H79.839V58.206H69.665ZM20.432,3.334a.77.77,0,0,1,.769-.769H66.332a.77.77,0,0,1,.769.769v6.924H20.432Zm10.4,15.232a17.037,17.037,0,1,1-16.6,13.184,1.282,1.282,0,1,0-2.5-.58,19.785,19.785,0,0,0,5.586,18.622l-2.307,4a3.74,3.74,0,0,0-3.86,1.8L9.642,58.206H7.693V15.052H17.867V20.9A19.845,19.845,0,0,0,14.2,25.235a1.282,1.282,0,0,0,2.174,1.36,16.936,16.936,0,0,1,14.456-8.029Zm-7.979,34.94-1.967,3.406-3.535-2.041,1.97-3.412A19.627,19.627,0,0,0,22.849,53.506ZM2.564,62.052V13.769A3.851,3.851,0,0,1,6.411,9.923H17.867v2.564H7.095a1.968,1.968,0,0,0-1.966,1.966V58.8A1.968,1.968,0,0,0,7.095,60.77H8.162L5.3,65.732a3.875,3.875,0,0,1-2.733-3.679Zm18.571-.7L10.929,79.034a4.482,4.482,0,1,1-7.763-4.482L13.372,56.875a1.162,1.162,0,0,1,1.575-.428l.007,0,.012.006,5.73,3.309.014.009.007,0a1.16,1.16,0,0,1,.418,1.579ZM53.543,78.286a.085.085,0,0,1,.082.062h0l1.806,6.511a.1.1,0,0,1-.082.108H32.184a.094.094,0,0,1-.082-.108l1.806-6.511a.086.086,0,0,1,.082-.062H53.543ZM38.006,75.722l.977-7.258H48.55l.977,7.258ZM84.968,62.052A3.851,3.851,0,0,1,81.122,65.9H21.474l1.882-3.26a3.687,3.687,0,0,0,.495-1.869H54.837a1.282,1.282,0,1,0,0-2.564H23.1l2.194-3.8a19.6,19.6,0,1,0-4.859-35.429V12.822H67.1V58.206h-6.28a1.282,1.282,0,0,0,0,2.564H80.438A1.968,1.968,0,0,0,82.4,58.8V14.453a1.968,1.968,0,0,0-1.966-1.966H69.665V9.923H81.122a3.851,3.851,0,0,1,3.847,3.847ZM24.278,5.129a1.282,1.282,0,1,0,1.282,1.282A1.282,1.282,0,0,0,24.278,5.129Zm5.129,0a1.282,1.282,0,1,0,1.282,1.282A1.282,1.282,0,0,0,29.407,5.129Zm33.847,21.41H53.34a1.282,1.282,0,1,0,0,2.564h9.914a1.282,1.282,0,1,0,0-2.564Zm0,7.693H54.537a1.282,1.282,0,1,0,0,2.564h8.717a1.282,1.282,0,1,0,0-2.564ZM30.829,48.212A12.609,12.609,0,1,0,18.22,35.6,12.623,12.623,0,0,0,30.829,48.212Zm0-22.653A10.044,10.044,0,1,1,20.784,35.6,10.056,10.056,0,0,1,30.829,25.559ZM63.254,41.925H53.169a1.282,1.282,0,0,0,0,2.564H63.254a1.282,1.282,0,1,0,0-2.564Zm1.282-21.8a1.282,1.282,0,0,0-1.282-1.282H48.64a1.282,1.282,0,0,0,0,2.564H63.254A1.282,1.282,0,0,0,64.537,20.128Zm0,30.773a1.282,1.282,0,0,0-1.282-1.282H48.64a1.282,1.282,0,0,0,0,2.564H63.254A1.282,1.282,0,0,0,64.537,50.9Z" fill="#fd9827"/>
</svg>
