<svg id="Grupo_966931" data-name="Grupo 966931" xmlns="http://www.w3.org/2000/svg" xmlns:xlink="http://www.w3.org/1999/xlink" width="81.077" height="87.262" viewBox="0 0 81.077 87.262">
  <defs>
    <clipPath id="clip-path">
      <rect id="Rect치ngulo_35065" data-name="Rect치ngulo 35065" width="81.077" height="87.262" fill="#fd9827"/>
    </clipPath>
    <clipPath id="clip-path-2">
      <rect id="Rect치ngulo_35107" data-name="Rect치ngulo 35107" width="19.104" height="15.507" transform="translate(0 0)" fill="#fd9827"/>
    </clipPath>
  </defs>
  <g id="Grupo_158032" data-name="Grupo 158032" transform="translate(0 0)" clip-path="url(#clip-path)">
    <path id="Trazado_152225" data-name="Trazado 152225" d="M1,93.492a2.024,2.024,0,0,1-.831-1.826C.126,84.623.058,77.58,0,70.538c-.014-1.644.319-1.969,2-1.971H3.44V59.375c0-.227-.01-.456.012-.681a1.316,1.316,0,0,1,1.3-1.305,1.267,1.267,0,0,1,1.231,1.357c.019,2.9.01,5.793.012,8.689V68.5H20.538c-2.58-7.887-1.352-15.136,3.849-21.847h-1q-6.3,0-12.609,0c-1.447,0-1.8-.356-1.8-1.813q0-10.138,0-20.277c0-1.444.362-1.8,1.814-1.8q8.094,0,16.187,0c1.365,0,1.769.4,1.769,1.783q0,8.562,0,17.125v.973c8.893-5.133,17.715-5.351,25.88,1.034S64.659,58.658,61.842,68.5h7.016V67.466q0-12.567,0-25.134a4.156,4.156,0,0,1,.073-1.012,1.251,1.251,0,0,1,2.466.209c.025.283.014.567.014.851q0,12.524,0,25.049v1.138c.625,0,1.182,0,1.738,0,1.334.011,1.708.381,1.71,1.737.005,4.771.014,9.542-.012,14.313a1.871,1.871,0,0,0,.623,1.486c1.649,1.6,3.264,3.241,4.887,4.872.988.993.956,1.617-.113,2.517H79.4c-.32-.277-.658-.535-.957-.832q-5.063-5.049-10.114-10.107c-.2-.2-.4-.381-.564-.535l-5.488,5.5c1.135,1.132,2.321,2.3,3.5,3.486.994,1,.943,1.638-.177,2.493H14.633c-.612-.4-1.068-.9-.795-1.686s.93-.92,1.665-.872c.2.012.4,0,.6,0H61.911c-.042-.149-.041-.213-.072-.245q-.9-.911-1.8-1.814c-1.228-1.23-1.241-1.509-.128-2.817.029-.034.017-.1.01-.053l-2.464-2.53c-1.461,1.18-1.649,1.167-3.024-.206-.8-.8-1.639-1.576-2.4-2.419a.971.971,0,0,0-1.373-.224,21.894,21.894,0,0,1-28.515-8.821,1.181,1.181,0,0,0-1.19-.7c-5.821.02-11.641.012-17.462.015-.3,0-.593.035-.808.048V90.935c2.044,0,3.966.01,5.887-.005.721-.006,1.376.065,1.678.853.308.8-.191,1.267-.734,1.709ZM41.132,80.237A19.363,19.363,0,1,0,21.788,60.816,19.3,19.3,0,0,0,41.132,80.237M11.589,44.021H26.145V25.366H11.589Zm48.9,27.149c1.317,1.292,2.461,2.393,3.578,3.52a1.281,1.281,0,0,1,.074,2.016l-.378.445,2.49,2.535c.081-.061.176-.12.257-.193,1.008-.9,1.471-.893,2.439.069.7.7,1.4,1.4,2.106,2.1.365.363.733.722,1.193,1.176V71.17Zm-4.6,9.913,5.428-5.378-2.03-2.1-5.4,5.4,2,2.079m8.3.582L61.908,79.3l-2.335,2.342,2.294,2.429,2.322-2.406" transform="translate(0 -6.23)" fill="#fd9827"/>
    <path id="Trazado_152226" data-name="Trazado 152226" d="M38.737,13.594H8.58c-1.288,0-1.289,0-1.289,1.326V45.333c0,.227,0,.454,0,.681C7.28,47.181,6.853,47.746,6,47.73s-1.261-.58-1.262-1.764q0-15.759-.005-31.519a3.361,3.361,0,0,1,1.376-2.954,1.136,1.136,0,0,0,.342-.775c.05-.764.013-1.532.035-2.3A3.115,3.115,0,0,1,7.7,6.078a1.571,1.571,0,0,0,.481-.954c.074-.76,0-1.532.043-2.3A2.944,2.944,0,0,1,11.087.007C11.342-.005,11.6,0,11.853,0H65.607c2.6,0,3.669,1.065,3.67,3.666a7.391,7.391,0,0,1-.005.851A1.952,1.952,0,0,0,70.04,6.4a4.2,4.2,0,0,1,.917,1.925,4.154,4.154,0,0,1,.028,1.44,2.373,2.373,0,0,0,.825,2.209,3.248,3.248,0,0,1,.861,2.189c.073,5,.041,9.995.036,14.992,0,.966-.449,1.5-1.221,1.526-.811.023-1.325-.535-1.328-1.525-.01-4.26,0-8.519-.005-12.779,0-.71-.012-1.42,0-2.13.009-.471-.2-.678-.665-.659-.255.009-.511,0-.766,0H38.737m-29.6-2.621h59.3V9.467c0-1.411,0-1.412-1.379-1.412H11.523c-2.751,0-2.751,0-2.461,2.769a.792.792,0,0,0,.076.15M66.72,5.458V3.887c0-1.328,0-1.328-1.283-1.328H12.009c-.2,0-.437-.068-.588.017-.249.14-.606.363-.629.58a22.583,22.583,0,0,0-.03,2.3Z" transform="translate(-1.295 0)" fill="#fd9827"/>
    <path id="Trazado_152227" data-name="Trazado 152227" d="M61.064,25.318q-7.534,0-15.066,0a3.775,3.775,0,0,1-.848-.036,1.266,1.266,0,0,1,.053-2.5,4.26,4.26,0,0,1,.766-.021H76.1a4.876,4.876,0,0,1,.765.017,1.266,1.266,0,0,1,.028,2.51,4.4,4.4,0,0,1-.849.028H61.064" transform="translate(-12.075 -6.228)" fill="#fd9827"/>
    <path id="Trazado_152228" data-name="Trazado 152228" d="M60.964,32.887q-7.413,0-14.826,0a7.037,7.037,0,0,1-.935-.031,1.171,1.171,0,0,1-1.08-1.134A1.152,1.152,0,0,1,45,30.429a3.292,3.292,0,0,1,.924-.094q15.124-.007,30.249,0c.336,0,.784-.049.983.136.357.332.8.845.765,1.245s-.555.829-.959,1.1c-.238.163-.662.064-1,.065q-7.5,0-15,0" transform="translate(-12.074 -8.301)" fill="#fd9827"/>
    <path id="Trazado_152229" data-name="Trazado 152229" d="M55.926,40.495q-4.98,0-9.959,0a3.679,3.679,0,0,1-.926-.083,1.154,1.154,0,0,1-.922-1.26,1.167,1.167,0,0,1,1.039-1.168,5.074,5.074,0,0,1,.848-.041q9.874,0,19.748,0a4.925,4.925,0,0,1,.848.041,1.248,1.248,0,0,1,.123,2.429,3.642,3.642,0,0,1-.926.081q-4.937.009-9.874,0" transform="translate(-12.075 -10.384)" fill="#fd9827"/>
    <path id="Trazado_152230" data-name="Trazado 152230" d="M50.461,85.473a16.432,16.432,0,1,1,16.433-16.4,16.447,16.447,0,0,1-16.433,16.4m.039-2.557A13.876,13.876,0,1,0,36.585,69.081,13.864,13.864,0,0,0,50.5,82.916" transform="translate(-9.314 -14.399)" fill="#fd9827"/>
    <g id="Grupo_959923" data-name="Grupo 959923" transform="translate(31.596 45.889)">
      <g id="Grupo_158060" data-name="Grupo 158060" transform="translate(0 0)" clip-path="url(#clip-path-2)">
        <path id="Trazado_152544" data-name="Trazado 152544" d="M120.722,77.118a.2.2,0,0,0,.031-.077.5.5,0,0,1-.031.077" transform="translate(-101.687 -64.893)" fill="#fd9827"/>
        <path id="Trazado_152545" data-name="Trazado 152545" d="M15.441,16.208c0-.253,0-.251-.253-.274a2.1,2.1,0,0,1-1.952-1.442c-.478-1.29-.988-2.569-1.485-3.85Q10.075,6.307,8.4,1.972a.227.227,0,0,0-.267-.178,4.717,4.717,0,0,1-.633,0,.248.248,0,0,0-.293.193v0q-1.773,4.585-3.56,9.165c-.449,1.148-.877,2.3-1.382,3.43A2.1,2.1,0,0,1,.806,15.828c-.266.067-.537.1-.806.142v1.044c.068,0,.136-.01.2-.01H2.778c.963,0,1.927,0,2.89,0,.151,0,.192-.043.183-.187-.012-.2,0-.41,0-.615,0-.252,0-.252-.26-.268a4.367,4.367,0,0,1-1.432-.3c-.383-.161-.451-.284-.4-.7.01-.08.017-.161.035-.241a23.562,23.562,0,0,1,.87-2.666c.04-.114.116-.106.2-.106l4.607,0a.2.2,0,0,1,.225.156c.351.967.72,1.927,1.062,2.9.219.621.215.623-.433.806a5.969,5.969,0,0,1-1.161.161c-.118.009-.157.048-.152.168.011.241.013.485,0,.727-.008.148.045.171.179.171.9-.006,1.8,0,2.7,0,1.124,0,2.251,0,3.376,0,.13,0,.173-.033.166-.165-.008-.209,0-.421,0-.632M8.96,10.683q-1.8-.009-3.6,0c-.114,0-.171,0-.114-.147Q6.187,8.122,7.113,5.7c.009-.023.02-.044.045-.1.277.712.54,1.386.8,2.06.371.952.739,1.9,1.117,2.853.059.143.035.167-.116.166Z" transform="translate(2 -1.506)" fill="#fd9827"/>
      </g>
    </g>
  </g>
</svg>
