<svg id="Grupo_966898" data-name="Grupo 966898" xmlns="http://www.w3.org/2000/svg" xmlns:xlink="http://www.w3.org/1999/xlink" width="210.982" height="148.332" viewBox="0 0 210.982 148.332">
  <defs>
    <clipPath id="clip-path">
      <rect id="Rect치ngulo_34881" data-name="Rect치ngulo 34881" width="121.659" height="62.064" fill="#fd9827"/>
    </clipPath>
    <clipPath id="clip-path-2">
      <rect id="Rect치ngulo_35129" data-name="Rect치ngulo 35129" width="171.307" height="135.713" fill="none"/>
    </clipPath>
    <filter id="Trazado_152936" x="36.681" y="35.222" width="146.643" height="110.472" filterUnits="userSpaceOnUse">
      <feOffset dy="3" input="SourceAlpha"/>
      <feGaussianBlur stdDeviation="3" result="blur"/>
      <feFlood flood-opacity="0.161"/>
      <feComposite operator="in" in2="blur"/>
      <feComposite in="SourceGraphic"/>
    </filter>
  </defs>
  <g id="Grupo_966889" data-name="Grupo 966889" transform="translate(0 0)">
    <g id="Grupo_966885" data-name="Grupo 966885" transform="translate(76.364 8.04)">
      <g id="Grupo_158845" data-name="Grupo 158845" transform="translate(0 0)">
        <g id="Grupo_158521" data-name="Grupo 158521">
          <g id="Grupo_157916" data-name="Grupo 157916" transform="translate(0 0)">
            <path id="Trazado_145968" data-name="Trazado 145968" d="M40.279,80.559A40.279,40.279,0,1,0,0,40.279,40.279,40.279,0,0,0,40.279,80.559Z" transform="translate(49.397 51.693)" fill="#31313c" opacity="0.444" style="mix-blend-mode: multiply;isolation: isolate"/>
            <g id="Grupo_78276" data-name="Grupo 78276">
              <g id="Grupo_53306" data-name="Grupo 53306" transform="translate(0 92.265)">
                <path id="Trazado_99200" data-name="Trazado 99200" d="M416.407,51.273a1.1,1.1,0,1,0-1.1,1.048A1.073,1.073,0,0,0,416.407,51.273Z" transform="translate(-414.214 -50.224)" fill="#fff"/>
                <path id="Trazado_99201" data-name="Trazado 99201" d="M424.853,51.273a1.1,1.1,0,1,0-1.1,1.048A1.073,1.073,0,0,0,424.853,51.273Z" transform="translate(-412.793 -50.224)" fill="#fff"/>
                <path id="Trazado_99202" data-name="Trazado 99202" d="M433.3,51.273a1.1,1.1,0,1,0-1.1,1.048A1.073,1.073,0,0,0,433.3,51.273Z" transform="translate(-411.372 -50.224)" fill="#fff"/>
                <path id="Trazado_99203" data-name="Trazado 99203" d="M441.746,51.273a1.1,1.1,0,1,0-1.1,1.048A1.073,1.073,0,0,0,441.746,51.273Z" transform="translate(-409.952 -50.224)" fill="#fff"/>
                <path id="Trazado_99204" data-name="Trazado 99204" d="M450.192,51.273a1.1,1.1,0,1,0-1.1,1.048A1.073,1.073,0,0,0,450.192,51.273Z" transform="translate(-408.531 -50.224)" fill="#fff"/>
                <path id="Trazado_99205" data-name="Trazado 99205" d="M458.638,51.273a1.1,1.1,0,1,0-1.1,1.048A1.073,1.073,0,0,0,458.638,51.273Z" transform="translate(-407.11 -50.224)" fill="#fff"/>
                <path id="Trazado_99206" data-name="Trazado 99206" d="M467.085,51.273a1.1,1.1,0,1,0-1.1,1.048A1.074,1.074,0,0,0,467.085,51.273Z" transform="translate(-405.689 -50.224)" fill="#fff"/>
                <path id="Trazado_99207" data-name="Trazado 99207" d="M475.531,51.273a1.1,1.1,0,1,0-1.1,1.048A1.073,1.073,0,0,0,475.531,51.273Z" transform="translate(-404.268 -50.224)" fill="#fff"/>
                <path id="Trazado_99208" data-name="Trazado 99208" d="M483.977,51.273a1.1,1.1,0,1,0-1.1,1.048A1.073,1.073,0,0,0,483.977,51.273Z" transform="translate(-402.847 -50.224)" fill="#fff"/>
                <path id="Trazado_99209" data-name="Trazado 99209" d="M492.424,51.273a1.1,1.1,0,1,0-1.1,1.048A1.074,1.074,0,0,0,492.424,51.273Z" transform="translate(-401.427 -50.224)" fill="#fff"/>
                <path id="Trazado_99210" data-name="Trazado 99210" d="M500.87,51.273a1.1,1.1,0,1,0-1.1,1.048A1.073,1.073,0,0,0,500.87,51.273Z" transform="translate(-400.006 -50.224)" fill="#fff"/>
              </g>
              <g id="Grupo_53307" data-name="Grupo 53307" transform="translate(0 83.877)">
                <path id="Trazado_99211" data-name="Trazado 99211" d="M416.407,58.781a1.1,1.1,0,1,0-1.1,1.048A1.073,1.073,0,0,0,416.407,58.781Z" transform="translate(-414.214 -57.732)" fill="#fff"/>
                <path id="Trazado_99212" data-name="Trazado 99212" d="M424.853,58.781a1.1,1.1,0,1,0-1.1,1.048A1.073,1.073,0,0,0,424.853,58.781Z" transform="translate(-412.793 -57.732)" fill="#fff"/>
                <path id="Trazado_99213" data-name="Trazado 99213" d="M433.3,58.781a1.1,1.1,0,1,0-1.1,1.048A1.073,1.073,0,0,0,433.3,58.781Z" transform="translate(-411.372 -57.732)" fill="#fff"/>
                <path id="Trazado_99214" data-name="Trazado 99214" d="M441.746,58.781a1.1,1.1,0,1,0-1.1,1.048A1.073,1.073,0,0,0,441.746,58.781Z" transform="translate(-409.952 -57.732)" fill="#fff"/>
                <path id="Trazado_99215" data-name="Trazado 99215" d="M450.192,58.781a1.1,1.1,0,1,0-1.1,1.048A1.073,1.073,0,0,0,450.192,58.781Z" transform="translate(-408.531 -57.732)" fill="#fff"/>
                <path id="Trazado_99216" data-name="Trazado 99216" d="M458.638,58.781a1.1,1.1,0,1,0-1.1,1.048A1.073,1.073,0,0,0,458.638,58.781Z" transform="translate(-407.11 -57.732)" fill="#fff"/>
                <path id="Trazado_99217" data-name="Trazado 99217" d="M467.085,58.781a1.1,1.1,0,1,0-1.1,1.048A1.074,1.074,0,0,0,467.085,58.781Z" transform="translate(-405.689 -57.732)" fill="#fff"/>
                <path id="Trazado_99218" data-name="Trazado 99218" d="M475.531,58.781a1.1,1.1,0,1,0-1.1,1.048A1.073,1.073,0,0,0,475.531,58.781Z" transform="translate(-404.268 -57.732)" fill="#fff"/>
                <path id="Trazado_99219" data-name="Trazado 99219" d="M483.977,58.781a1.1,1.1,0,1,0-1.1,1.048A1.073,1.073,0,0,0,483.977,58.781Z" transform="translate(-402.847 -57.732)" fill="#fff"/>
                <path id="Trazado_99220" data-name="Trazado 99220" d="M492.424,58.781a1.1,1.1,0,1,0-1.1,1.048A1.074,1.074,0,0,0,492.424,58.781Z" transform="translate(-401.427 -57.732)" fill="#fff"/>
                <path id="Trazado_99221" data-name="Trazado 99221" d="M500.87,58.781a1.1,1.1,0,1,0-1.1,1.048A1.073,1.073,0,0,0,500.87,58.781Z" transform="translate(-400.006 -57.732)" fill="#fff"/>
              </g>
              <g id="Grupo_53308" data-name="Grupo 53308" transform="translate(0 75.489)">
                <ellipse id="Elipse_3955" data-name="Elipse 3955" cx="1.096" cy="1.048" rx="1.096" ry="1.048" transform="translate(0 0)" fill="#fff"/>
                <path id="Trazado_99222" data-name="Trazado 99222" d="M424.853,66.289a1.1,1.1,0,1,0-1.1,1.048A1.074,1.074,0,0,0,424.853,66.289Z" transform="translate(-412.793 -65.24)" fill="#fff"/>
                <ellipse id="Elipse_3956" data-name="Elipse 3956" cx="1.096" cy="1.048" rx="1.096" ry="1.048" transform="translate(19.734 0)" fill="#fff"/>
                <path id="Trazado_99223" data-name="Trazado 99223" d="M441.746,66.289a1.1,1.1,0,1,0-1.1,1.048A1.074,1.074,0,0,0,441.746,66.289Z" transform="translate(-409.952 -65.24)" fill="#fff"/>
                <path id="Trazado_99224" data-name="Trazado 99224" d="M450.192,66.289a1.1,1.1,0,1,0-1.1,1.048A1.074,1.074,0,0,0,450.192,66.289Z" transform="translate(-408.531 -65.24)" fill="#fff"/>
                <ellipse id="Elipse_3957" data-name="Elipse 3957" cx="1.096" cy="1.048" rx="1.096" ry="1.048" transform="translate(49.336 0)" fill="#fff"/>
                <path id="Trazado_99225" data-name="Trazado 99225" d="M467.085,66.289a1.1,1.1,0,1,0-1.1,1.048A1.075,1.075,0,0,0,467.085,66.289Z" transform="translate(-405.689 -65.24)" fill="#fff"/>
                <ellipse id="Elipse_3958" data-name="Elipse 3958" cx="1.096" cy="1.048" rx="1.096" ry="1.048" transform="translate(69.07 0)" fill="#fff"/>
                <ellipse id="Elipse_3959" data-name="Elipse 3959" cx="1.096" cy="1.048" rx="1.096" ry="1.048" transform="translate(78.937 0)" fill="#fff"/>
                <path id="Trazado_99226" data-name="Trazado 99226" d="M492.424,66.289a1.1,1.1,0,1,0-1.1,1.048A1.075,1.075,0,0,0,492.424,66.289Z" transform="translate(-401.427 -65.24)" fill="#fff"/>
                <path id="Trazado_99227" data-name="Trazado 99227" d="M500.87,66.289a1.1,1.1,0,1,0-1.1,1.048A1.074,1.074,0,0,0,500.87,66.289Z" transform="translate(-400.006 -65.24)" fill="#fff"/>
              </g>
              <g id="Grupo_53309" data-name="Grupo 53309" transform="translate(0 67.102)">
                <ellipse id="Elipse_3960" data-name="Elipse 3960" cx="1.096" cy="1.048" rx="1.096" ry="1.048" fill="#fff"/>
                <path id="Trazado_99228" data-name="Trazado 99228" d="M424.853,73.795a1.1,1.1,0,1,0-1.1,1.049A1.073,1.073,0,0,0,424.853,73.795Z" transform="translate(-412.793 -72.747)" fill="#fff"/>
                <ellipse id="Elipse_3961" data-name="Elipse 3961" cx="1.096" cy="1.048" rx="1.096" ry="1.048" transform="translate(19.734)" fill="#fff"/>
                <path id="Trazado_99229" data-name="Trazado 99229" d="M441.746,73.795a1.1,1.1,0,1,0-1.1,1.049A1.073,1.073,0,0,0,441.746,73.795Z" transform="translate(-409.952 -72.747)" fill="#fff"/>
                <path id="Trazado_99230" data-name="Trazado 99230" d="M450.192,73.795a1.1,1.1,0,1,0-1.1,1.049A1.073,1.073,0,0,0,450.192,73.795Z" transform="translate(-408.531 -72.747)" fill="#fff"/>
                <ellipse id="Elipse_3962" data-name="Elipse 3962" cx="1.096" cy="1.048" rx="1.096" ry="1.048" transform="translate(49.336)" fill="#fff"/>
                <path id="Trazado_99231" data-name="Trazado 99231" d="M467.085,73.795a1.1,1.1,0,1,0-1.1,1.049A1.074,1.074,0,0,0,467.085,73.795Z" transform="translate(-405.689 -72.747)" fill="#fff"/>
                <ellipse id="Elipse_3963" data-name="Elipse 3963" cx="1.096" cy="1.048" rx="1.096" ry="1.048" transform="translate(69.07)" fill="#fff"/>
                <ellipse id="Elipse_3964" data-name="Elipse 3964" cx="1.096" cy="1.048" rx="1.096" ry="1.048" transform="translate(78.937)" fill="#fff"/>
                <path id="Trazado_99232" data-name="Trazado 99232" d="M492.424,73.795a1.1,1.1,0,1,0-1.1,1.049A1.074,1.074,0,0,0,492.424,73.795Z" transform="translate(-401.427 -72.747)" fill="#fff"/>
                <path id="Trazado_99233" data-name="Trazado 99233" d="M500.87,73.795a1.1,1.1,0,1,0-1.1,1.049A1.073,1.073,0,0,0,500.87,73.795Z" transform="translate(-400.006 -72.747)" fill="#fff"/>
              </g>
              <g id="Grupo_53310" data-name="Grupo 53310" transform="translate(0 58.715)">
                <path id="Trazado_99234" data-name="Trazado 99234" d="M416.407,81.3a1.1,1.1,0,1,0-1.1,1.049A1.073,1.073,0,0,0,416.407,81.3Z" transform="translate(-414.214 -80.255)" fill="#fff"/>
                <path id="Trazado_99235" data-name="Trazado 99235" d="M424.853,81.3a1.1,1.1,0,1,0-1.1,1.049A1.073,1.073,0,0,0,424.853,81.3Z" transform="translate(-412.793 -80.255)" fill="#fff"/>
                <path id="Trazado_99236" data-name="Trazado 99236" d="M433.3,81.3a1.1,1.1,0,1,0-1.1,1.049A1.073,1.073,0,0,0,433.3,81.3Z" transform="translate(-411.372 -80.255)" fill="#fff"/>
                <path id="Trazado_99237" data-name="Trazado 99237" d="M441.746,81.3a1.1,1.1,0,1,0-1.1,1.049A1.073,1.073,0,0,0,441.746,81.3Z" transform="translate(-409.952 -80.255)" fill="#fff"/>
                <path id="Trazado_99238" data-name="Trazado 99238" d="M450.192,81.3a1.1,1.1,0,1,0-1.1,1.049A1.073,1.073,0,0,0,450.192,81.3Z" transform="translate(-408.531 -80.255)" fill="#fff"/>
                <path id="Trazado_99239" data-name="Trazado 99239" d="M458.638,81.3a1.1,1.1,0,1,0-1.1,1.049A1.073,1.073,0,0,0,458.638,81.3Z" transform="translate(-407.11 -80.255)" fill="#fff"/>
                <path id="Trazado_99240" data-name="Trazado 99240" d="M467.085,81.3a1.1,1.1,0,1,0-1.1,1.049A1.074,1.074,0,0,0,467.085,81.3Z" transform="translate(-405.689 -80.255)" fill="#fff"/>
                <path id="Trazado_99241" data-name="Trazado 99241" d="M475.531,81.3a1.1,1.1,0,1,0-1.1,1.049A1.073,1.073,0,0,0,475.531,81.3Z" transform="translate(-404.268 -80.255)" fill="#fff"/>
                <path id="Trazado_99242" data-name="Trazado 99242" d="M483.977,81.3a1.1,1.1,0,1,0-1.1,1.049A1.073,1.073,0,0,0,483.977,81.3Z" transform="translate(-402.847 -80.255)" fill="#fff"/>
                <path id="Trazado_99243" data-name="Trazado 99243" d="M492.424,81.3a1.1,1.1,0,1,0-1.1,1.049A1.074,1.074,0,0,0,492.424,81.3Z" transform="translate(-401.427 -80.255)" fill="#fff"/>
                <path id="Trazado_99244" data-name="Trazado 99244" d="M500.87,81.3a1.1,1.1,0,1,0-1.1,1.049A1.073,1.073,0,0,0,500.87,81.3Z" transform="translate(-400.006 -80.255)" fill="#fff"/>
              </g>
              <g id="Grupo_53311" data-name="Grupo 53311" transform="translate(0 50.327)">
                <ellipse id="Elipse_3965" data-name="Elipse 3965" cx="1.096" cy="1.048" rx="1.096" ry="1.048" fill="#fff"/>
                <path id="Trazado_99245" data-name="Trazado 99245" d="M424.853,88.811a1.1,1.1,0,1,0-1.1,1.049A1.073,1.073,0,0,0,424.853,88.811Z" transform="translate(-412.793 -87.763)" fill="#fff"/>
                <ellipse id="Elipse_3966" data-name="Elipse 3966" cx="1.096" cy="1.048" rx="1.096" ry="1.048" transform="translate(19.734)" fill="#fff"/>
                <path id="Trazado_99246" data-name="Trazado 99246" d="M441.746,88.811a1.1,1.1,0,1,0-1.1,1.049A1.073,1.073,0,0,0,441.746,88.811Z" transform="translate(-409.952 -87.763)" fill="#fff"/>
                <path id="Trazado_99247" data-name="Trazado 99247" d="M450.192,88.811a1.1,1.1,0,1,0-1.1,1.049A1.073,1.073,0,0,0,450.192,88.811Z" transform="translate(-408.531 -87.763)" fill="#fff"/>
                <ellipse id="Elipse_3967" data-name="Elipse 3967" cx="1.096" cy="1.048" rx="1.096" ry="1.048" transform="translate(49.336)" fill="#fff"/>
                <path id="Trazado_99248" data-name="Trazado 99248" d="M467.085,88.811a1.1,1.1,0,1,0-1.1,1.049A1.074,1.074,0,0,0,467.085,88.811Z" transform="translate(-405.689 -87.763)" fill="#fff"/>
                <ellipse id="Elipse_3968" data-name="Elipse 3968" cx="1.096" cy="1.048" rx="1.096" ry="1.048" transform="translate(69.07)" fill="#fff"/>
                <ellipse id="Elipse_3969" data-name="Elipse 3969" cx="1.096" cy="1.048" rx="1.096" ry="1.048" transform="translate(78.937)" fill="#fff"/>
                <path id="Trazado_99249" data-name="Trazado 99249" d="M492.424,88.811a1.1,1.1,0,1,0-1.1,1.049A1.074,1.074,0,0,0,492.424,88.811Z" transform="translate(-401.427 -87.763)" fill="#fff"/>
                <path id="Trazado_99250" data-name="Trazado 99250" d="M500.87,88.811a1.1,1.1,0,1,0-1.1,1.049A1.073,1.073,0,0,0,500.87,88.811Z" transform="translate(-400.006 -87.763)" fill="#fff"/>
              </g>
              <g id="Grupo_53312" data-name="Grupo 53312" transform="translate(0 41.939)">
                <ellipse id="Elipse_3970" data-name="Elipse 3970" cx="1.096" cy="1.048" rx="1.096" ry="1.048" transform="translate(0 0)" fill="#fff"/>
                <path id="Trazado_99251" data-name="Trazado 99251" d="M424.853,96.32a1.1,1.1,0,1,0-1.1,1.048A1.073,1.073,0,0,0,424.853,96.32Z" transform="translate(-412.793 -95.271)" fill="#fff"/>
                <ellipse id="Elipse_3971" data-name="Elipse 3971" cx="1.096" cy="1.048" rx="1.096" ry="1.048" transform="translate(19.734 0)" fill="#fff"/>
                <path id="Trazado_99252" data-name="Trazado 99252" d="M441.746,96.32a1.1,1.1,0,1,0-1.1,1.048A1.073,1.073,0,0,0,441.746,96.32Z" transform="translate(-409.952 -95.271)" fill="#fff"/>
                <path id="Trazado_99253" data-name="Trazado 99253" d="M450.192,96.32a1.1,1.1,0,1,0-1.1,1.048A1.073,1.073,0,0,0,450.192,96.32Z" transform="translate(-408.531 -95.271)" fill="#fff"/>
                <ellipse id="Elipse_3972" data-name="Elipse 3972" cx="1.096" cy="1.048" rx="1.096" ry="1.048" transform="translate(49.336 0)" fill="#fff"/>
                <path id="Trazado_99254" data-name="Trazado 99254" d="M467.085,96.32a1.1,1.1,0,1,0-1.1,1.048A1.074,1.074,0,0,0,467.085,96.32Z" transform="translate(-405.689 -95.271)" fill="#fff"/>
                <ellipse id="Elipse_3973" data-name="Elipse 3973" cx="1.096" cy="1.048" rx="1.096" ry="1.048" transform="translate(69.07 0)" fill="#fff"/>
                <ellipse id="Elipse_3974" data-name="Elipse 3974" cx="1.096" cy="1.048" rx="1.096" ry="1.048" transform="translate(78.937 0)" fill="#fff"/>
                <path id="Trazado_99255" data-name="Trazado 99255" d="M492.424,96.32a1.1,1.1,0,1,0-1.1,1.048A1.074,1.074,0,0,0,492.424,96.32Z" transform="translate(-401.427 -95.271)" fill="#fff"/>
                <path id="Trazado_99256" data-name="Trazado 99256" d="M500.87,96.32a1.1,1.1,0,1,0-1.1,1.048A1.073,1.073,0,0,0,500.87,96.32Z" transform="translate(-400.006 -95.271)" fill="#fff"/>
              </g>
              <g id="Grupo_53313" data-name="Grupo 53313" transform="translate(0 33.551)">
                <path id="Trazado_99257" data-name="Trazado 99257" d="M416.407,103.828a1.1,1.1,0,1,0-1.1,1.048A1.073,1.073,0,0,0,416.407,103.828Z" transform="translate(-414.214 -102.779)" fill="#fff"/>
                <path id="Trazado_99258" data-name="Trazado 99258" d="M424.853,103.828a1.1,1.1,0,1,0-1.1,1.048A1.073,1.073,0,0,0,424.853,103.828Z" transform="translate(-412.793 -102.779)" fill="#fff"/>
                <path id="Trazado_99259" data-name="Trazado 99259" d="M433.3,103.828a1.1,1.1,0,1,0-1.1,1.048A1.073,1.073,0,0,0,433.3,103.828Z" transform="translate(-411.372 -102.779)" fill="#fff"/>
                <path id="Trazado_99260" data-name="Trazado 99260" d="M441.746,103.828a1.1,1.1,0,1,0-1.1,1.048A1.073,1.073,0,0,0,441.746,103.828Z" transform="translate(-409.952 -102.779)" fill="#fff"/>
                <path id="Trazado_99261" data-name="Trazado 99261" d="M450.192,103.828a1.1,1.1,0,1,0-1.1,1.048A1.073,1.073,0,0,0,450.192,103.828Z" transform="translate(-408.531 -102.779)" fill="#fff"/>
                <path id="Trazado_99262" data-name="Trazado 99262" d="M458.638,103.828a1.1,1.1,0,1,0-1.1,1.048A1.073,1.073,0,0,0,458.638,103.828Z" transform="translate(-407.11 -102.779)" fill="#fff"/>
                <path id="Trazado_99263" data-name="Trazado 99263" d="M467.085,103.828a1.1,1.1,0,1,0-1.1,1.048A1.074,1.074,0,0,0,467.085,103.828Z" transform="translate(-405.689 -102.779)" fill="#fff"/>
                <path id="Trazado_99264" data-name="Trazado 99264" d="M475.531,103.828a1.1,1.1,0,1,0-1.1,1.048A1.073,1.073,0,0,0,475.531,103.828Z" transform="translate(-404.268 -102.779)" fill="#fff"/>
                <path id="Trazado_99265" data-name="Trazado 99265" d="M483.977,103.828a1.1,1.1,0,1,0-1.1,1.048A1.073,1.073,0,0,0,483.977,103.828Z" transform="translate(-402.847 -102.779)" fill="#fff"/>
                <path id="Trazado_99266" data-name="Trazado 99266" d="M492.424,103.828a1.1,1.1,0,1,0-1.1,1.048A1.074,1.074,0,0,0,492.424,103.828Z" transform="translate(-401.427 -102.779)" fill="#fff"/>
                <path id="Trazado_99267" data-name="Trazado 99267" d="M500.87,103.828a1.1,1.1,0,1,0-1.1,1.048A1.073,1.073,0,0,0,500.87,103.828Z" transform="translate(-400.006 -102.779)" fill="#fff"/>
              </g>
              <g id="Grupo_53314" data-name="Grupo 53314" transform="translate(0 25.163)">
                <ellipse id="Elipse_3975" data-name="Elipse 3975" cx="1.096" cy="1.048" rx="1.096" ry="1.048" transform="translate(0 0)" fill="#fff"/>
                <path id="Trazado_99268" data-name="Trazado 99268" d="M424.853,111.336a1.1,1.1,0,1,0-1.1,1.048A1.074,1.074,0,0,0,424.853,111.336Z" transform="translate(-412.793 -110.287)" fill="#fff"/>
                <ellipse id="Elipse_3976" data-name="Elipse 3976" cx="1.096" cy="1.048" rx="1.096" ry="1.048" transform="translate(19.734 0)" fill="#fff"/>
                <path id="Trazado_99269" data-name="Trazado 99269" d="M441.746,111.336a1.1,1.1,0,1,0-1.1,1.048A1.074,1.074,0,0,0,441.746,111.336Z" transform="translate(-409.952 -110.287)" fill="#fff"/>
                <path id="Trazado_99270" data-name="Trazado 99270" d="M450.192,111.336a1.1,1.1,0,1,0-1.1,1.048A1.074,1.074,0,0,0,450.192,111.336Z" transform="translate(-408.531 -110.287)" fill="#fff"/>
                <ellipse id="Elipse_3977" data-name="Elipse 3977" cx="1.096" cy="1.048" rx="1.096" ry="1.048" transform="translate(49.336 0)" fill="#fff"/>
                <path id="Trazado_99271" data-name="Trazado 99271" d="M467.085,111.336a1.1,1.1,0,1,0-1.1,1.048A1.075,1.075,0,0,0,467.085,111.336Z" transform="translate(-405.689 -110.287)" fill="#fff"/>
                <ellipse id="Elipse_3978" data-name="Elipse 3978" cx="1.096" cy="1.048" rx="1.096" ry="1.048" transform="translate(69.07 0)" fill="#fff"/>
                <ellipse id="Elipse_3979" data-name="Elipse 3979" cx="1.096" cy="1.048" rx="1.096" ry="1.048" transform="translate(78.937 0)" fill="#fff"/>
                <path id="Trazado_99272" data-name="Trazado 99272" d="M492.424,111.336a1.1,1.1,0,1,0-1.1,1.048A1.075,1.075,0,0,0,492.424,111.336Z" transform="translate(-401.427 -110.287)" fill="#fff"/>
                <path id="Trazado_99273" data-name="Trazado 99273" d="M500.87,111.336a1.1,1.1,0,1,0-1.1,1.048A1.074,1.074,0,0,0,500.87,111.336Z" transform="translate(-400.006 -110.287)" fill="#fff"/>
              </g>
              <g id="Grupo_53315" data-name="Grupo 53315" transform="translate(0 16.776)">
                <path id="Trazado_99274" data-name="Trazado 99274" d="M416.407,118.843a1.1,1.1,0,1,0-1.1,1.049A1.074,1.074,0,0,0,416.407,118.843Z" transform="translate(-414.214 -117.794)" fill="#fff"/>
                <path id="Trazado_99275" data-name="Trazado 99275" d="M424.853,118.843a1.1,1.1,0,1,0-1.1,1.049A1.074,1.074,0,0,0,424.853,118.843Z" transform="translate(-412.793 -117.794)" fill="#fff"/>
                <path id="Trazado_99276" data-name="Trazado 99276" d="M433.3,118.843a1.1,1.1,0,1,0-1.1,1.049A1.074,1.074,0,0,0,433.3,118.843Z" transform="translate(-411.372 -117.794)" fill="#fff"/>
                <path id="Trazado_99277" data-name="Trazado 99277" d="M441.746,118.843a1.1,1.1,0,1,0-1.1,1.049A1.074,1.074,0,0,0,441.746,118.843Z" transform="translate(-409.952 -117.794)" fill="#fff"/>
                <path id="Trazado_99278" data-name="Trazado 99278" d="M450.192,118.843a1.1,1.1,0,1,0-1.1,1.049A1.074,1.074,0,0,0,450.192,118.843Z" transform="translate(-408.531 -117.794)" fill="#fff"/>
                <path id="Trazado_99279" data-name="Trazado 99279" d="M458.638,118.843a1.1,1.1,0,1,0-1.1,1.049A1.074,1.074,0,0,0,458.638,118.843Z" transform="translate(-407.11 -117.794)" fill="#fff"/>
                <path id="Trazado_99280" data-name="Trazado 99280" d="M467.085,118.843a1.1,1.1,0,1,0-1.1,1.049A1.075,1.075,0,0,0,467.085,118.843Z" transform="translate(-405.689 -117.794)" fill="#fff"/>
                <path id="Trazado_99281" data-name="Trazado 99281" d="M475.531,118.843a1.1,1.1,0,1,0-1.1,1.049A1.074,1.074,0,0,0,475.531,118.843Z" transform="translate(-404.268 -117.794)" fill="#fff"/>
                <path id="Trazado_99282" data-name="Trazado 99282" d="M483.977,118.843a1.1,1.1,0,1,0-1.1,1.049A1.074,1.074,0,0,0,483.977,118.843Z" transform="translate(-402.847 -117.794)" fill="#fff"/>
                <path id="Trazado_99283" data-name="Trazado 99283" d="M492.424,118.843a1.1,1.1,0,1,0-1.1,1.049A1.075,1.075,0,0,0,492.424,118.843Z" transform="translate(-401.427 -117.794)" fill="#fff"/>
                <path id="Trazado_99284" data-name="Trazado 99284" d="M500.87,118.843a1.1,1.1,0,1,0-1.1,1.049A1.074,1.074,0,0,0,500.87,118.843Z" transform="translate(-400.006 -117.794)" fill="#fff"/>
              </g>
              <g id="Grupo_53316" data-name="Grupo 53316" transform="translate(0 8.388)">
                <ellipse id="Elipse_3980" data-name="Elipse 3980" cx="1.096" cy="1.048" rx="1.096" ry="1.048" fill="#fff"/>
                <path id="Trazado_99285" data-name="Trazado 99285" d="M424.853,126.35a1.1,1.1,0,1,0-1.1,1.049A1.073,1.073,0,0,0,424.853,126.35Z" transform="translate(-412.793 -125.302)" fill="#fff"/>
                <ellipse id="Elipse_3981" data-name="Elipse 3981" cx="1.096" cy="1.048" rx="1.096" ry="1.048" transform="translate(19.734)" fill="#fff"/>
                <path id="Trazado_99286" data-name="Trazado 99286" d="M441.746,126.35a1.1,1.1,0,1,0-1.1,1.049A1.073,1.073,0,0,0,441.746,126.35Z" transform="translate(-409.952 -125.302)" fill="#fff"/>
                <path id="Trazado_99287" data-name="Trazado 99287" d="M450.192,126.35a1.1,1.1,0,1,0-1.1,1.049A1.073,1.073,0,0,0,450.192,126.35Z" transform="translate(-408.531 -125.302)" fill="#fff"/>
                <ellipse id="Elipse_3982" data-name="Elipse 3982" cx="1.096" cy="1.048" rx="1.096" ry="1.048" transform="translate(49.336)" fill="#fff"/>
                <path id="Trazado_99288" data-name="Trazado 99288" d="M467.085,126.35a1.1,1.1,0,1,0-1.1,1.049A1.074,1.074,0,0,0,467.085,126.35Z" transform="translate(-405.689 -125.302)" fill="#fff"/>
                <ellipse id="Elipse_3983" data-name="Elipse 3983" cx="1.096" cy="1.048" rx="1.096" ry="1.048" transform="translate(69.07)" fill="#fff"/>
                <ellipse id="Elipse_3984" data-name="Elipse 3984" cx="1.096" cy="1.048" rx="1.096" ry="1.048" transform="translate(78.937)" fill="#fff"/>
                <path id="Trazado_99289" data-name="Trazado 99289" d="M492.424,126.35a1.1,1.1,0,1,0-1.1,1.049A1.074,1.074,0,0,0,492.424,126.35Z" transform="translate(-401.427 -125.302)" fill="#fff"/>
                <path id="Trazado_99290" data-name="Trazado 99290" d="M500.87,126.35a1.1,1.1,0,1,0-1.1,1.049A1.073,1.073,0,0,0,500.87,126.35Z" transform="translate(-400.006 -125.302)" fill="#fff"/>
              </g>
              <g id="Grupo_53317" data-name="Grupo 53317" transform="translate(0)">
                <ellipse id="Elipse_3985" data-name="Elipse 3985" cx="1.096" cy="1.048" rx="1.096" ry="1.048" fill="#fff"/>
                <path id="Trazado_99291" data-name="Trazado 99291" d="M424.853,133.858a1.1,1.1,0,1,0-1.1,1.049A1.073,1.073,0,0,0,424.853,133.858Z" transform="translate(-412.793 -132.81)" fill="#fff"/>
                <ellipse id="Elipse_3986" data-name="Elipse 3986" cx="1.096" cy="1.048" rx="1.096" ry="1.048" transform="translate(19.734)" fill="#fff"/>
                <path id="Trazado_99292" data-name="Trazado 99292" d="M441.746,133.858a1.1,1.1,0,1,0-1.1,1.049A1.073,1.073,0,0,0,441.746,133.858Z" transform="translate(-409.952 -132.81)" fill="#fff"/>
                <path id="Trazado_99293" data-name="Trazado 99293" d="M450.192,133.858a1.1,1.1,0,1,0-1.1,1.049A1.073,1.073,0,0,0,450.192,133.858Z" transform="translate(-408.531 -132.81)" fill="#fff"/>
                <ellipse id="Elipse_3987" data-name="Elipse 3987" cx="1.096" cy="1.048" rx="1.096" ry="1.048" transform="translate(49.336)" fill="#fff"/>
                <path id="Trazado_99294" data-name="Trazado 99294" d="M467.085,133.858a1.1,1.1,0,1,0-1.1,1.049A1.074,1.074,0,0,0,467.085,133.858Z" transform="translate(-405.689 -132.81)" fill="#fff"/>
                <ellipse id="Elipse_3988" data-name="Elipse 3988" cx="1.096" cy="1.048" rx="1.096" ry="1.048" transform="translate(69.07)" fill="#fff"/>
                <ellipse id="Elipse_3989" data-name="Elipse 3989" cx="1.096" cy="1.048" rx="1.096" ry="1.048" transform="translate(78.937)" fill="#fff"/>
                <path id="Trazado_99295" data-name="Trazado 99295" d="M492.424,133.858a1.1,1.1,0,1,0-1.1,1.049A1.074,1.074,0,0,0,492.424,133.858Z" transform="translate(-401.427 -132.81)" fill="#fff"/>
                <path id="Trazado_99296" data-name="Trazado 99296" d="M500.87,133.858a1.1,1.1,0,1,0-1.1,1.049A1.073,1.073,0,0,0,500.87,133.858Z" transform="translate(-400.006 -132.81)" fill="#fff"/>
              </g>
            </g>
          </g>
        </g>
      </g>
    </g>
    <g id="Grupo_966888" data-name="Grupo 966888">
      <g id="Grupo_157945" data-name="Grupo 157945" transform="translate(0.001)">
        <g id="Enmascarar_grupo_63" data-name="Enmascarar grupo 63" transform="translate(0)" opacity="0.311" clip-path="url(#clip-path)">
          <path id="Trazado_151731" data-name="Trazado 151731" d="M57.926,24.39A33.536,33.536,0,1,0,91.462,57.926,33.574,33.574,0,0,0,57.926,24.39m0-24.39A57.926,57.926,0,1,1,0,57.926,57.926,57.926,0,0,1,57.926,0Z" transform="translate(2.513 -57.926)" fill="#030201"/>
        </g>
      </g>
      <g id="Grupo_966888-2" data-name="Grupo 966888" transform="translate(0 4)">
        <g id="Grupo_158110" data-name="Grupo 158110" transform="translate(3.016 8.618)">
          <g id="Grupo_158109" data-name="Grupo 158109" clip-path="url(#clip-path-2)">
            <g transform="matrix(1, 0, 0, 1, -3.02, -12.62)" filter="url(#Trazado_152936)">
              <path id="Trazado_152936-2" data-name="Trazado 152936" d="M162.013,46.908l27.875,56.8c4.576,9.324-.619,21.491-9.175,21.491H105.461c-3.722,0-7.185-2.458-9.175-6.514L64.647,54.216c-4.576-9.324.62-21.492,9.175-21.492h75.251c3.722,0,7.185,2.459,9.175,6.515Z" transform="translate(-17.27 8.5)" fill="#785549"/>
            </g>
            <path id="Trazado_152937" data-name="Trazado 152937" d="M102.961,117.664,114.4,140.975c1.878,3.827-.254,8.82-3.766,8.82H79.751a4.337,4.337,0,0,1-3.766-2.674L63,120.663c-1.878-3.826.254-8.82,3.766-8.82H97.651a4.339,4.339,0,0,1,3.766,2.674Z" transform="translate(-20.074 -14.083)" fill="#fd9827"/>
            <path id="Trazado_152938" data-name="Trazado 152938" d="M94.982,119.978s1.2-2.569,3.49-.392l12.867,14.95s1.214,2.22-1.274,2.505H93.04s-3.676.237-2.792-3.248Z" transform="translate(-29.034 -14.947)" fill="#fff"/>
            <path id="Trazado_152939" data-name="Trazado 152939" d="M164.7,85.059,159.69,74.842l-.677-1.381a2.127,2.127,0,0,0-1.855-1.316H143.621a2.156,2.156,0,0,0-1.923,1.466,3.5,3.5,0,0,0,.068,2.879l5.691,11.6a2.126,2.126,0,0,0,1.855,1.317h13.536a2.156,2.156,0,0,0,1.924-1.466,3.5,3.5,0,0,0-.068-2.879" transform="translate(-45.566 -9.084)" fill="#785549"/>
            <path id="Trazado_152940" data-name="Trazado 152940" d="M85.806,11.489,99.142,38.661c2.189,4.46-.3,10.282-4.389,10.282h-36a5.058,5.058,0,0,1-4.389-3.116L39.225,14.985c-2.189-4.46.3-10.282,4.389-10.282h36a5.056,5.056,0,0,1,4.389,3.116Z" transform="translate(-8.106 -4.684)" fill="#fd9827"/>
            <path id="Trazado_152941" data-name="Trazado 152941" d="M45.342,8.57H93.3L90.149,2.408A5.605,5.605,0,0,0,87.176.356C84.965-.412,49.915.384,49.915.384s-5.483.674-4.574,8.186" transform="translate(-14.576 -0.003)" fill="#1a1a1a"/>
            <path id="Trazado_152942" data-name="Trazado 152942" d="M98.411,5.787c-.584.625-1.613.268-2.3-.8s-.769-2.436-.184-3.061,1.613-.268,2.3.8.768,2.436.184,3.061" transform="translate(-30.782 -0.204)" fill="#fff"/>
            <path id="Trazado_152943" data-name="Trazado 152943" d="M90.6,5.787c-.584.625-1.613.268-2.3-.8s-.769-2.436-.184-3.061,1.613-.268,2.3.8.768,2.436.184,3.061" transform="translate(-28.264 -0.204)" fill="#fff"/>
            <path id="Trazado_152944" data-name="Trazado 152944" d="M7.675,75.012c-1.478,1.582-4.083.678-5.82-2.019s-1.945-6.166-.467-7.748,4.083-.678,5.819,2.019,1.945,6.166.468,7.748" transform="translate(-0.13 -8.117)" fill="#c0c942"/>
            <path id="Trazado_152953" data-name="Trazado 152953" d="M178.783,61.144H158.311a3.645,3.645,0,0,1-3.182-2.26L152.5,53.009a5.99,5.99,0,0,1-.112-4.926,3.7,3.7,0,0,1,3.3-2.515h24.2a3.647,3.647,0,0,1,3.182,2.26L185.7,53.7a5.969,5.969,0,0,1,.242,4.588.253.253,0,0,1-.362.175.4.4,0,0,1-.136-.467,5.116,5.116,0,0,0-.212-3.932l-2.627-5.875a3.112,3.112,0,0,0-2.714-1.919h-24.2a3.16,3.16,0,0,0-2.82,2.149,5.132,5.132,0,0,0,.1,4.222l2.627,5.875a3.108,3.108,0,0,0,2.714,1.919h20.472a.365.365,0,0,1,0,.706" transform="translate(-48.947 -5.738)"/>
            <path id="Trazado_152954" data-name="Trazado 152954" d="M182.015,50.738H161.744a.365.365,0,0,1,0-.706h20.271a.365.365,0,0,1,0,.706" transform="translate(-52.025 -6.3)"/>
            <path id="Trazado_152955" data-name="Trazado 152955" d="M185.025,56.2h-20.27a.365.365,0,0,1,0-.706h20.27a.365.365,0,0,1,0,.706" transform="translate(-52.996 -6.987)"/>
            <path id="Trazado_152956" data-name="Trazado 152956" d="M112.633,83.617H92.363a.364.364,0,0,1,0-.705h20.27a.364.364,0,0,1,0,.705" transform="translate(-29.671 -10.44)"/>
            <path id="Trazado_152957" data-name="Trazado 152957" d="M115.644,89.078H95.372a.364.364,0,0,1,0-.705h20.272a.364.364,0,0,1,0,.705" transform="translate(-30.64 -11.127)"/>
            <path id="Trazado_152958" data-name="Trazado 152958" d="M127.054,107.628H106.783a.364.364,0,0,1,0-.705h20.271a.364.364,0,0,1,0,.705" transform="translate(-34.317 -13.463)"/>
            <path id="Trazado_152959" data-name="Trazado 152959" d="M130.063,113.089H109.792a.364.364,0,0,1,0-.705h20.271a.364.364,0,0,1,0,.705" transform="translate(-35.287 -14.151)"/>
            <path id="Trazado_152960" data-name="Trazado 152960" d="M92.241,10.1H52.007a.365.365,0,0,1,0-.706H92.241a.365.365,0,0,1,0,.706" transform="translate(-16.668 -1.183)"/>
            <path id="Trazado_152961" data-name="Trazado 152961" d="M109.629,20.538H92.3a.365.365,0,0,1,0-.706h17.325a.365.365,0,0,1,0,.706" transform="translate(-29.652 -2.497)"/>
            <path id="Trazado_152962" data-name="Trazado 152962" d="M115.05,28.876H97.726a.365.365,0,0,1,0-.706H115.05a.365.365,0,0,1,0,.706" transform="translate(-31.399 -3.547)"/>
            <path id="Trazado_152963" data-name="Trazado 152963" d="M120.175,37.213H102.851a.365.365,0,0,1,0-.706h17.324a.365.365,0,0,1,0,.706" transform="translate(-33.051 -4.597)"/>
            <path id="Trazado_152964" data-name="Trazado 152964" d="M106.417,5.787c-.584.625-1.613.268-2.3-.8s-.769-2.436-.184-3.061,1.613-.268,2.3.8.768,2.436.184,3.061" transform="translate(-33.362 -0.204)" fill="#ff4343"/>
            <path id="Trazado_152965" data-name="Trazado 152965" d="M97.583,6.4a1.479,1.479,0,0,1-.481-.086,2.736,2.736,0,0,1-1.327-1.149c-.781-1.213-.848-2.809-.149-3.558a1.217,1.217,0,0,1,1.357-.3,2.734,2.734,0,0,1,1.327,1.148c.781,1.214.848,2.809.149,3.558a1.17,1.17,0,0,1-.876.391M96.5,1.922a.7.7,0,0,0-.529.226,2.359,2.359,0,0,0,.22,2.565,2.178,2.178,0,0,0,1.049.917.771.771,0,0,0,.865-.166,2.359,2.359,0,0,0-.22-2.564,2.183,2.183,0,0,0-1.049-.918,1.037,1.037,0,0,0-.336-.06" transform="translate(-30.655 -0.153)"/>
            <path id="Trazado_152966" data-name="Trazado 152966" d="M148.544,59.821a1.459,1.459,0,0,1-.481-.086,2.736,2.736,0,0,1-1.327-1.149c-.782-1.213-.848-2.808-.149-3.558a1.216,1.216,0,0,1,1.357-.3,2.736,2.736,0,0,1,1.327,1.149c.781,1.213.848,2.808.149,3.558a1.173,1.173,0,0,1-.876.39m-1.079-4.475a.7.7,0,0,0-.529.226,2.359,2.359,0,0,0,.22,2.565,2.173,2.173,0,0,0,1.049.917.775.775,0,0,0,.865-.165,2.361,2.361,0,0,0-.22-2.565,2.176,2.176,0,0,0-1.049-.917,1.017,1.017,0,0,0-.336-.061" transform="translate(-47.074 -6.88)"/>
            <path id="Trazado_152967" data-name="Trazado 152967" d="M73.938,70.651c-.584.625-1.613.268-2.3-.8s-.769-2.436-.184-3.061,1.613-.268,2.3.8.768,2.436.184,3.061" transform="translate(-22.897 -8.371)" fill="#fff"/>
            <path id="Trazado_152968" data-name="Trazado 152968" d="M73.11,71.255A2.342,2.342,0,0,1,71.3,70.028a4.013,4.013,0,0,1-.632-1.894,2.214,2.214,0,0,1,.483-1.663,1.216,1.216,0,0,1,1.357-.305,2.732,2.732,0,0,1,1.327,1.149,4.01,4.01,0,0,1,.631,1.893,2.217,2.217,0,0,1-.482,1.664,1.167,1.167,0,0,1-.873.384m-1.081-4.469a.7.7,0,0,0-.529.227,1.426,1.426,0,0,0-.286,1.066,3.173,3.173,0,0,0,.506,1.5c.579.9,1.455,1.241,1.913.752a1.431,1.431,0,0,0,.286-1.066,3.184,3.184,0,0,0-.506-1.5,2.191,2.191,0,0,0-1.049-.918,1.037,1.037,0,0,0-.336-.06" transform="translate(-22.767 -8.32)"/>
            <path id="Trazado_152969" data-name="Trazado 152969" d="M5.772,76.086c-1.423,0-3.047-1.041-4.255-2.919a9.5,9.5,0,0,1-1.5-4.49,5,5,0,0,1,1.07-3.754,2.741,2.741,0,0,1,3.059-.665,6.514,6.514,0,0,1,3.146,2.73c1.829,2.842,2.023,6.54.432,8.245a2.6,2.6,0,0,1-1.949.853M3.039,64.766a2.138,2.138,0,0,0-1.606.7A4.22,4.22,0,0,0,.56,68.622a8.677,8.677,0,0,0,1.377,4.1c1.638,2.543,4.075,3.426,5.434,1.972s1.134-4.708-.5-7.251A5.952,5.952,0,0,0,4,64.939a2.924,2.924,0,0,0-.962-.173" transform="translate(0 -8.066)"/>
            <path id="Trazado_152970" data-name="Trazado 152970" d="M63.75,137.227A2.341,2.341,0,0,1,61.939,136a4.013,4.013,0,0,1-.631-1.893,2.215,2.215,0,0,1,.482-1.664c.7-.751,1.9-.37,2.685.843a4.009,4.009,0,0,1,.631,1.893,2.216,2.216,0,0,1-.482,1.664,1.168,1.168,0,0,1-.874.384m-1.084-4.467a.7.7,0,0,0-.526.225,1.43,1.43,0,0,0-.286,1.066,3.177,3.177,0,0,0,.506,1.5c.579.9,1.456,1.239,1.914.752a1.431,1.431,0,0,0,.286-1.066,3.191,3.191,0,0,0-.506-1.5,1.862,1.862,0,0,0-1.388-.975" transform="translate(-19.751 -16.628)"/>
            <path id="Trazado_152971" data-name="Trazado 152971" d="M133.653,90.042a2.342,2.342,0,0,1-1.811-1.227,3.928,3.928,0,0,1-.63-2.314,2,2,0,0,1,.481-1.244c.7-.75,1.9-.369,2.684.844a4.009,4.009,0,0,1,.631,1.893,2.217,2.217,0,0,1-.482,1.664,1.167,1.167,0,0,1-.873.384m-1.084-4.467a.7.7,0,0,0-.526.225,1.265,1.265,0,0,0-.285.767,3.06,3.06,0,0,0,.506,1.8c.578.9,1.455,1.241,1.913.752a1.431,1.431,0,0,0,.286-1.066,3.191,3.191,0,0,0-.506-1.5,1.861,1.861,0,0,0-1.387-.975" transform="translate(-42.274 -10.687)"/>
            <path id="Trazado_152972" data-name="Trazado 152972" d="M89.769,6.392a2.342,2.342,0,0,1-1.811-1.227c-.781-1.214-.848-2.81-.149-3.558s1.9-.371,2.685.843.848,2.81.149,3.558a1.167,1.167,0,0,1-.874.384M88.685,1.926a.7.7,0,0,0-.526.225,2.358,2.358,0,0,0,.22,2.564c.579.9,1.457,1.241,1.914.752a2.361,2.361,0,0,0-.22-2.565,1.863,1.863,0,0,0-1.388-.975" transform="translate(-28.136 -0.154)"/>
            <path id="Trazado_152973" data-name="Trazado 152973" d="M129.591,81.285a.261.261,0,0,1-.226-.155,26.464,26.464,0,0,1-1.552-3.6.4.4,0,0,1,.138-.466.253.253,0,0,1,.362.177,25.737,25.737,0,0,0,1.505,3.495.422.422,0,0,1-.073.49.233.233,0,0,1-.154.06m-2.575-7.374a.3.3,0,0,1-.264-.265,30,30,0,0,1-.533-4.061.335.335,0,0,1,.251-.379c.144-.019.283.129.294.323a29.082,29.082,0,0,0,.518,3.94.37.37,0,0,1-.2.43.213.213,0,0,1-.069.012m-.456-8.049a.176.176,0,0,1-.056-.008.361.361,0,0,1-.211-.418,7.455,7.455,0,0,1,1.641-3.623.233.233,0,0,1,.386.018.426.426,0,0,1-.014.5,6.7,6.7,0,0,0-1.478,3.252.3.3,0,0,1-.267.281m4.227-5.559a.282.282,0,0,1-.252-.216.4.4,0,0,1,.146-.462,15.006,15.006,0,0,1,3.056-1.217c.152-.045.294.079.327.268a.364.364,0,0,1-.209.42,14.6,14.6,0,0,0-2.963,1.178.224.224,0,0,1-.106.028m6.125-1.83a.31.31,0,0,1-.272-.317.341.341,0,0,1,.244-.387,24.154,24.154,0,0,1,3.018-.212l.171,0a.326.326,0,0,1,.267.361.319.319,0,0,1-.274.344l-.164,0a23.463,23.463,0,0,0-2.963.209l-.028,0" transform="translate(-40.667 -7.247)"/>
            <path id="Trazado_152974" data-name="Trazado 152974" d="M52.5,70.206H49.351a.364.364,0,0,1,0-.705H52.5a.364.364,0,0,1,0,.705m-6.3,0H43.052a.364.364,0,0,1,0-.705H46.2a.364.364,0,0,1,0,.705m-6.3,0h-3.15a.364.364,0,0,1,0-.705H39.9a.364.364,0,0,1,0,.705m-6.3,0h-3.15a.364.364,0,0,1,0-.705H33.6a.364.364,0,0,1,0,.705m-6.3,0h-3.15a.364.364,0,0,1,0-.705H27.3a.364.364,0,0,1,0,.705m-6.3,0h-3.15a.364.364,0,0,1,0-.705h3.15a.364.364,0,0,1,0,.705" transform="translate(-5.665 -8.751)"/>
            <path id="Trazado_152975" data-name="Trazado 152975" d="M55.122,135.317H51.973a.364.364,0,0,1,0-.705h3.149a.364.364,0,0,1,0,.705m-6.3,0H46.378a.364.364,0,0,1,0-.705h2.445a.364.364,0,0,1,0,.705" transform="translate(-14.855 -16.949)"/>
            <path id="Trazado_152976" data-name="Trazado 152976" d="M34.912,128.237a.267.267,0,0,1-.232-.164l-.542-1.1a.416.416,0,0,1,.085-.486.239.239,0,0,1,.378.109l.542,1.1a.417.417,0,0,1-.085.487.226.226,0,0,1-.146.055M32.685,123.7a.266.266,0,0,1-.231-.163L30.769,120.1a.417.417,0,0,1,.085-.487.24.24,0,0,1,.378.109l1.684,3.432a.418.418,0,0,1-.085.487.227.227,0,0,1-.146.054m-3.369-6.863a.267.267,0,0,1-.232-.164L27.4,113.24a.416.416,0,0,1,.085-.486.24.24,0,0,1,.378.109l1.684,3.431a.417.417,0,0,1-.085.487.225.225,0,0,1-.146.055m-3.369-6.864a.266.266,0,0,1-.231-.163l-1.685-3.432a.417.417,0,0,1,.085-.487.24.24,0,0,1,.378.109l1.684,3.432a.418.418,0,0,1-.085.487.227.227,0,0,1-.146.054m-3.369-6.863a.268.268,0,0,1-.232-.164l-1.684-3.433a.416.416,0,0,1,.085-.486.24.24,0,0,1,.378.109l1.684,3.432a.417.417,0,0,1-.085.487.225.225,0,0,1-.146.055M19.21,96.244a.266.266,0,0,1-.232-.163l-1.684-3.433a.417.417,0,0,1,.085-.487.24.24,0,0,1,.378.109L19.441,95.7a.417.417,0,0,1-.085.487.225.225,0,0,1-.146.054M15.842,89.38a.267.267,0,0,1-.232-.163l-1.684-3.433a.416.416,0,0,1,.085-.486.239.239,0,0,1,.378.109l1.684,3.432a.418.418,0,0,1-.085.487.227.227,0,0,1-.146.054m-3.369-6.863a.266.266,0,0,1-.232-.163l-1.684-3.433a.417.417,0,0,1,.085-.487.24.24,0,0,1,.378.109L12.7,81.976a.417.417,0,0,1-.085.487.23.23,0,0,1-.146.054" transform="translate(-3.388 -9.869)"/>
            <path id="Trazado_152978" data-name="Trazado 152978" d="M80.077,38.057a.264.264,0,0,1-.231-.164L68.319,14.406a.418.418,0,0,1,.085-.487.241.241,0,0,1,.378.109L80.308,37.515a.419.419,0,0,1-.085.488.238.238,0,0,1-.146.054" transform="translate(-21.999 -1.746)"/>
          </g>
        </g>
        <g id="Grupo_158034" data-name="Grupo 158034" transform="translate(50.807 0)">
          <g id="Grupo_158108" data-name="Grupo 158108">
            <path id="Trazado_152232" data-name="Trazado 152232" d="M486.638,126.946a32.282,32.282,0,1,1,20.959,13,31.927,31.927,0,0,1-20.959-13m4.438-22.335a22.061,22.061,0,1,0,25.358-18.145,22.051,22.051,0,0,0-25.358,18.145" transform="translate(-384.92 -60.9)" fill="#f2e6dc"/>
            <path id="Trazado_152233" data-name="Trazado 152233" d="M492.795,131.33a31.008,31.008,0,1,1,20.132,12.49,30.667,30.667,0,0,1-20.132-12.49m2.147-21.8a23.334,23.334,0,1,0,26.82-19.192,23.323,23.323,0,0,0-26.82,19.192" transform="translate(-390.042 -66.025)" fill="#fff"/>
            <path id="Trazado_152234" data-name="Trazado 152234" d="M518.872,90.474a23.375,23.375,0,0,0-20.438,17.593l-7.551-1.243a30.985,30.985,0,0,1,27.868-24Z" transform="translate(-393.162 -66.368)" fill="#c0c942"/>
            <path id="Trazado_152235" data-name="Trazado 152235" d="M494.721,223.135a23.327,23.327,0,0,0,36.832,20.888l4.941,5.847c-.158.117-.315.235-.476.35a30.958,30.958,0,0,1-48.849-28.328Z" transform="translate(-390.769 -177.801)" fill="#31313c"/>
            <path id="Trazado_152236" data-name="Trazado 152236" d="M663.195,95.738a23.21,23.21,0,0,0-11.343-5.264q-1.164-.192-2.32-.264l-.121-7.642a31.562,31.562,0,0,1,3.683.385,30.788,30.788,0,0,1,15.524,7.371Z" transform="translate(-520.132 -66.161)" fill="#785549"/>
            <path id="Trazado_152237" data-name="Trazado 152237" d="M733.763,137.351a32.911,32.911,0,0,1,5.387,23.972,32.323,32.323,0,0,1-9.213,18.076l-4.944-6.087a24.422,24.422,0,0,0,6.622-13.279,24.845,24.845,0,0,0-5.279-19.66l5.422-5.631a32.587,32.587,0,0,1,2,2.61" transform="translate(-580.669 -108.241)" fill="#fd9827"/>
            <path id="Trazado_152238" data-name="Trazado 152238" d="M249.29,390.68a65.613,65.613,0,0,1,9.976,14.737c6.174,12.515,6.908,32.823,6.784,39.511H231.141c-.129-2.854-.257-14.352-.386-17.207-2.63,1.386-12.71,15.658-14.168,17.188H175.07c8.238-11.113,22.606-27.419,32.721-35.583-.732-3.983-1.463-6.9-2.195-10.879l43.694-7.767" transform="translate(-140.219 -300.596)" fill="#363e44"/>
            <path id="Trazado_152239" data-name="Trazado 152239" d="M41,249.554C30.1,251.576-1.72,255.489.073,268.8c1.483,11.014,32.3,5.838,43.257,4.531Q42.164,261.445,41,249.554" transform="translate(0 -194.126)" fill="#f48462"/>
            <path id="Trazado_152240" data-name="Trazado 152240" d="M201.445,225.695l-3.591,26.686L262.5,236.847l-11.971-17.923,12.37-.8-.4-25.889L183.09,203.39l1.2,27.482Z" transform="translate(-146.642 -147.408)" fill="#fd9827"/>
            <path id="Trazado_152241" data-name="Trazado 152241" d="M507.744,212.81c3.66.13,28.568-.9,31.76,5.471,3.353,6.693-14.918,35.213-21.148,43.115a10.09,10.09,0,0,1-3.292,4.68c-2.14,1.619-3.461,1.032-5.985,2.39-4.261,2.291-4.639,6.337-6.26,5.778-1.112-.384-.994-2.751-.324-4.882.688-2.187,2.056-3.313,1.8-3.585-.285-.3-1.526,1.025-3.221,2.529-.787.7-1.766,3.945-3.363,3.645-1.273-.24-1.1-3.869.695-6.482,1.272-1.849,3.378-2.411,3.2-2.778-.137-.275-1.384.091-2.365.726-1.618,1.048-2.655,4.359-4.12,4.054-1.435-.3-1.23-3.467.271-5.975,1.265-2.114,3.645-2.629,3.42-3.086-.158-.322-1.271-.312-3.491.4-1.853.593-5.075,2.938-5.986,1.1-.766-1.55,2.558-4.093,6.057-5.872,2.318-1.179,4.8-2.1,6.214-2.691a18.131,18.131,0,0,0-3.192-1.593c-2.529-.964-3.563-.98-3.754-2.188-.2-1.244,1.908-1.742,4.363-1.67a17.307,17.307,0,0,1,6.274,1.767l7.681-13.94c-1.4.1-3.505.177-4.9.277-.066-6.636-.325-13.485-.323-21.182" transform="translate(-391.826 -163.042)" fill="#f48462"/>
            <path id="Trazado_152242" data-name="Trazado 152242" d="M607.9,276.054a.2.2,0,0,1-.176-.291l5.314-10.085a.2.2,0,0,1,.352.185l-5.314,10.085a.2.2,0,0,1-.176.106" transform="translate(-486.727 -207.388)" fill="#363e44"/>
            <path id="Trazado_152243" data-name="Trazado 152243" d="M281.274,318.984a.192.192,0,0,1-.035,0,.2.2,0,0,1-.161-.23l1.137-6.374a.2.2,0,0,1,.392.07l-1.137,6.374a.2.2,0,0,1-.2.164" transform="translate(-225.121 -243.999)" fill="#fff"/>
            <path id="Trazado_152244" data-name="Trazado 152244" d="M270.146,316.96a.2.2,0,0,1-.035,0,.2.2,0,0,1-.161-.23l1.137-6.374a.2.2,0,0,1,.392.07l-1.137,6.374a.2.2,0,0,1-.2.164" transform="translate(-216.209 -242.417)" fill="#fff"/>
            <path id="Trazado_152245" data-name="Trazado 152245" d="M250.3,325.612a3.456,3.456,0,0,1-2.849-1.5,3.413,3.413,0,0,1-.539-2.578l3.56-18.792a1.606,1.606,0,0,1,1.877-1.278l3.616.682a1.6,1.6,0,0,1,1.28,1.874l-3.56,18.792a3.451,3.451,0,0,1-3.385,2.8m1.748-23.78a1.209,1.209,0,0,0-1.185.982l-3.56,18.792a3.044,3.044,0,0,0,2.429,3.555,3.052,3.052,0,0,0,3.562-2.425l3.56-18.792a1.206,1.206,0,0,0-.963-1.409l-3.616-.683a1.237,1.237,0,0,0-.227-.021" transform="translate(-197.712 -234.612)" fill="#fff"/>
            <path id="Trazado_152246" data-name="Trazado 152246" d="M277.1,216.36l-4.013-.757,4.125-21.779,4.013.757Zm-3.548-1.074,3.23.61,3.977-21-3.231-.61Z" transform="translate(-218.723 -150.924)" fill="#fff"/>
            <path id="Trazado_152247" data-name="Trazado 152247" d="M17.695,300.118c9.124,1.913,30.833,5.356,32.939,5.776,3.936.786,12.372,2.227,12.4,4.977a2.829,2.829,0,0,1-1.555,2.353,2.857,2.857,0,0,1,.572,3.113,3,3,0,0,1-2.165,1.619,2.4,2.4,0,0,1,.922,2.256,2.518,2.518,0,0,1-2.769,1.873,2.8,2.8,0,0,1,.031,2.033,2.955,2.955,0,0,1-2.737,1.746c-3.5-.7-9.128-.889-15.848-1.532-15.782-1.508-22.756-2.841-30.248-4.948a12.56,12.56,0,0,1-8.99-10.267c5.857-3.036,11.592-5.963,17.449-9" transform="translate(-0.197 -233.486)" fill="#f48462"/>
            <path id="Trazado_152248" data-name="Trazado 152248" d="M104.625,300.9a.2.2,0,0,1-.04,0c-1.863-.382-5.988-1.192-9.978-1.974s-8.117-1.593-9.981-1.975a.2.2,0,1,1,.08-.389c1.863.382,5.988,1.192,9.978,1.974s8.117,1.593,9.981,1.975a.2.2,0,0,1-.04.393" transform="translate(-67.652 -231.871)" fill="#363e44"/>
            <path id="Trazado_152249" data-name="Trazado 152249" d="M285.7,347.426a.2.2,0,0,1-.052-.007.2.2,0,0,1-.141-.244l.459-1.7a.2.2,0,0,1,.385.1l-.459,1.7a.2.2,0,0,1-.192.147" transform="translate(-228.666 -270.124)" fill="#363e44"/>
            <path id="Trazado_152250" data-name="Trazado 152250" d="M279.878,369.177a.2.2,0,0,1-.192-.251l.459-1.7a.2.2,0,0,1,.385.1l-.459,1.7a.2.2,0,0,1-.192.147" transform="translate(-224.002 -287.138)" fill="#363e44"/>
            <path id="Trazado_152251" data-name="Trazado 152251" d="M274.192,391.391a.2.2,0,0,1-.052-.007.2.2,0,0,1-.141-.244l.459-1.7a.2.2,0,0,1,.385.1l-.459,1.7a.2.2,0,0,1-.192.147" transform="translate(-219.449 -304.514)" fill="#363e44"/>
            <path id="Trazado_152252" data-name="Trazado 152252" d="M268.623,411.431a.2.2,0,0,1-.052-.007.2.2,0,0,1-.141-.244l.459-1.7a.2.2,0,0,1,.385.1l-.459,1.7a.2.2,0,0,1-.192.147" transform="translate(-214.988 -320.19)" fill="#363e44"/>
            <path id="Trazado_152253" data-name="Trazado 152253" d="M361.7,9.168A9.185,9.185,0,1,1,352.517,0,9.176,9.176,0,0,1,361.7,9.168" transform="translate(-274.985)" fill="#363e44"/>
            <path id="Trazado_152254" data-name="Trazado 152254" d="M393.058,80.006c7.5.637,10.439,3.471,11.672,5.676,2.394,4.282,1.014,7.227,3.292,12.845a20.706,20.706,0,0,0,7.781,9.161,22.725,22.725,0,0,1-18.156,6.273,60.6,60.6,0,0,0-4.589-33.955" transform="translate(-314.812 -64.109)" fill="#363e44"/>
            <path id="Trazado_152255" data-name="Trazado 152255" d="M350.1,89.536c.5-.049,5.336-.444,8.247,2.854,2.166,2.454,2.426,5.6,2.062,10.953-.429,6.3-1.567,10-3.383,11.248-2.87,1.965-11.471-2.429-14.706-7.929a12.663,12.663,0,0,1,.4-13.011c2.461-3.917,7.06-4.085,7.382-4.116" transform="translate(-272.88 -71.713)" fill="#f8b8a4"/>
            <path id="Trazado_152256" data-name="Trazado 152256" d="M366.036,200.988h0a4.633,4.633,0,0,1-4.637-4.629V192a4.637,4.637,0,0,1,9.274,0v4.364a4.633,4.633,0,0,1-4.637,4.629" transform="translate(-289.455 -146.216)" fill="#f8b8a4"/>
            <path id="Trazado_152257" data-name="Trazado 152257" d="M361.076,184.742a7.912,7.912,0,0,1-1.711-.21c-3.748-.838-9.06-4.146-11.462-8.23a.2.2,0,0,1,.343-.2c2.347,3.991,7.541,7.224,11.206,8.043a4.325,4.325,0,0,0,3.274-.208.2.2,0,1,1,.225.328,3.3,3.3,0,0,1-1.875.477" transform="translate(-278.623 -137.493)" fill="#363e44"/>
            <path id="Trazado_152258" data-name="Trazado 152258" d="M360.07,85.078c1.935,4.355-4.888,8.873-10.891,7.171-3.511-1-6.789-4.632-6.069-6.843,1.24-3.8,14.972-4.8,16.959-.327" transform="translate(-274.727 -65.801)" fill="#363e44"/>
            <path id="Trazado_152259" data-name="Trazado 152259" d="M443.94,129.812a8.34,8.34,0,0,1-1.9,3.125c-.292.29-2.076-2.6-1.666-2.743a8.392,8.392,0,0,1,3.57-.382" transform="translate(-352.656 -101.482)" fill="#fff"/>
            <path id="Trazado_152260" data-name="Trazado 152260" d="M419.949,136.45a7.874,7.874,0,0,0,4.787-.969,5.886,5.886,0,0,0,.992-.8,3.28,3.28,0,0,0-1.665-2.742,5.931,5.931,0,0,0-1.217.587,7.846,7.846,0,0,0-2.9,3.926" transform="translate(-336.35 -103.157)" fill="#363e44"/>
            <path id="Trazado_152261" data-name="Trazado 152261" d="M248.884,64.966A20.874,20.874,0,1,1,228.009,44.13a20.855,20.855,0,0,1,20.874,20.836" transform="translate(-165.901 -35.361)" fill="#ea8262"/>
            <path id="Trazado_152262" data-name="Trazado 152262" d="M227.208,85.2a21.034,21.034,0,1,1,21.073-21.035A21.009,21.009,0,0,1,227.208,85.2m0-41.671a20.68,20.68,0,0,0-20.675,20.637A20.657,20.657,0,0,0,227.208,84.8a20.637,20.637,0,1,0,0-41.274" transform="translate(-165.1 -34.56)" fill="#fff"/>
            <path id="Trazado_152263" data-name="Trazado 152263" d="M267.3,221.074a17.553,17.553,0,0,1-11.034-3.846.2.2,0,1,1,.248-.311,17.367,17.367,0,0,0,18.441,1.984.2.2,0,1,1,.176.356,17.569,17.569,0,0,1-7.831,1.817" transform="translate(-205.189 -169.576)" fill="#fff"/>
            <path id="Trazado_152264" data-name="Trazado 152264" d="M376.217,92.225a.2.2,0,0,1-.192-.146A17.267,17.267,0,0,0,371.132,84a.2.2,0,1,1,.272-.29,17.662,17.662,0,0,1,5,8.267.2.2,0,0,1-.192.251" transform="translate(-297.2 -67.031)" fill="#fff"/>
            <path id="Trazado_152265" data-name="Trazado 152265" d="M290.821,63.085a.2.2,0,0,1-.107-.031,17.38,17.38,0,0,0-16.6-1.08.2.2,0,1,1-.168-.36,17.779,17.779,0,0,1,16.983,1.1.2.2,0,0,1-.107.366" transform="translate(-219.319 -48.05)" fill="#fff"/>
            <path id="Trazado_152266" data-name="Trazado 152266" d="M232.181,184.188a.2.2,0,0,1-.143-.06,17.807,17.807,0,0,1-4.006-6.419.2.2,0,0,1,.375-.133,17.408,17.408,0,0,0,3.916,6.275.2.2,0,0,1-.143.337" transform="translate(-182.628 -138.676)" fill="#fff"/>
            <path id="Trazado_152267" data-name="Trazado 152267" d="M342.417,133.355a32.587,32.587,0,0,1-13.84,3.368c-1.609,0,1.427-12.855,2.955-12.127a32.6,32.6,0,0,1,10.885,8.759" transform="translate(-262.801 -97.24)" fill="#fff"/>
            <path id="Trazado_152268" data-name="Trazado 152268" d="M249.7,115.659a23.115,23.115,0,0,0-4.972-1.731c-9.566-2.109-18.8,2.846-18.8,2.846s6.279,8.375,15.845,10.484a23,23,0,0,0,4.951.522,12.763,12.763,0,0,0,2.972-12.12" transform="translate(-180.953 -88.483)" fill="#363e44"/>
          </g>
        </g>
        <g id="Grupo_158114" data-name="Grupo 158114" transform="translate(0 57.501)">
          <g id="Grupo_158115" data-name="Grupo 158115" transform="translate(0 0)">
            <path id="Trazado_152982" data-name="Trazado 152982" d="M224.849,83.835H212.187a3.008,3.008,0,0,1-3.008-3.008V67.869h18.678V80.827a3.008,3.008,0,0,1-3.008,3.008" transform="translate(-185.776 -56.807)" fill="#ebc9b1"/>
            <path id="Trazado_152983" data-name="Trazado 152983" d="M74.106,208.133H6.022c-2.287,0-4.224-2.847-4.541-6.674-.386-4.661,1.756-8.823,4.541-8.823H74.106c2.785,0,4.927,4.162,4.541,8.823-.317,3.827-2.254,6.674-4.541,6.674" transform="translate(-1.436 -160.682)" fill="#d0c4bf"/>
            <path id="Trazado_152986" data-name="Trazado 152986" d="M104.334,228.4a1.825,1.825,0,1,1-1.825-1.824,1.825,1.825,0,0,1,1.825,1.824" transform="translate(-95.449 -188.942)" fill="#fff"/>
            <path id="Trazado_152987" data-name="Trazado 152987" d="M146.5,228.4a1.825,1.825,0,1,1-1.825-1.824A1.825,1.825,0,0,1,146.5,228.4" transform="translate(-130.556 -188.942)" fill="#fff"/>
            <path id="Trazado_152988" data-name="Trazado 152988" d="M188.67,228.4a1.825,1.825,0,1,1-1.824-1.824,1.825,1.825,0,0,1,1.824,1.824" transform="translate(-165.663 -188.942)" fill="#fff"/>
            <path id="Trazado_152989" data-name="Trazado 152989" d="M230.838,228.4a1.825,1.825,0,1,1-1.824-1.824,1.825,1.825,0,0,1,1.824,1.824" transform="translate(-200.77 -188.942)" fill="#fff"/>
            <path id="Trazado_152990" data-name="Trazado 152990" d="M273.006,228.4a1.825,1.825,0,1,1-1.824-1.824,1.825,1.825,0,0,1,1.824,1.824" transform="translate(-235.877 -188.942)" fill="#fff"/>
            <path id="Trazado_152991" data-name="Trazado 152991" d="M315.174,228.4a1.825,1.825,0,1,1-1.824-1.824,1.825,1.825,0,0,1,1.824,1.824" transform="translate(-270.984 -188.942)" fill="#fff"/>
            <path id="Trazado_152992" data-name="Trazado 152992" d="M357.342,228.4a1.825,1.825,0,1,1-1.825-1.824,1.825,1.825,0,0,1,1.825,1.824" transform="translate(-306.091 -188.942)" fill="#fff"/>
            <path id="Trazado_152993" data-name="Trazado 152993" d="M399.51,228.4a1.825,1.825,0,1,1-1.824-1.824,1.825,1.825,0,0,1,1.824,1.824" transform="translate(-341.199 -188.942)" fill="#fff"/>
            <path id="Trazado_152994" data-name="Trazado 152994" d="M441.678,228.4a1.825,1.825,0,1,1-1.824-1.824,1.825,1.825,0,0,1,1.824,1.824" transform="translate(-376.306 -188.942)" fill="#fff"/>
            <path id="Trazado_152995" data-name="Trazado 152995" d="M224.167,83.835h-11.3a3.689,3.689,0,0,1-3.689-3.689V67.869h18.678V80.146A3.689,3.689,0,0,1,224.167,83.835Z" transform="translate(-185.776 -56.807)" fill="none" stroke="#231f20" stroke-linecap="round" stroke-linejoin="round" stroke-width="1"/>
            <path id="Trazado_152996" data-name="Trazado 152996" d="M227.857,6.9a5.1,5.1,0,0,0-5.1-5.1h-8.487a5.1,5.1,0,0,0-5.1,5.1v5.967" transform="translate(-185.776 -1.803)" fill="none" stroke="#231f20" stroke-linecap="round" stroke-linejoin="round" stroke-width="1"/>
            <path id="Trazado_152997" data-name="Trazado 152997" d="M257.2,95.774a1.953,1.953,0,1,0-3.264,1.447V101.1h2.622V97.22a1.948,1.948,0,0,0,.641-1.447" transform="translate(-222.5 -78.413)" fill="#31313c"/>
          </g>
        </g>
      </g>
    </g>
  </g>
</svg>
