<svg xmlns="http://www.w3.org/2000/svg" xmlns:xlink="http://www.w3.org/1999/xlink" width="1240" height="787" viewBox="0 0 1240 787">
  <defs>
    <clipPath id="clip-path">
      <rect id="Rectángulo_337777" data-name="Rectángulo 337777" width="1240" height="787" fill="#c0c942" opacity="0.3"/>
    </clipPath>
    <clipPath id="clip-path-2">
      <rect id="Rectángulo_337776" data-name="Rectángulo 337776" width="99" height="45" fill="#fff" stroke="#707070" stroke-width="1"/>
    </clipPath>
  </defs>
  <g id="Enmascarar_grupo_952162" data-name="Enmascarar grupo 952162" clip-path="url(#clip-path)">
    <path id="Trazado_661889" data-name="Trazado 661889" d="M23,0H1217a23,23,0,0,1,23,23V764a23,23,0,0,1-23,23H23A23,23,0,0,1,0,764V23A23,23,0,0,1,23,0Z" fill="#fff0de"/>
    <path id="Trazado_661882" data-name="Trazado 661882" d="M1949.915,0,1797.778,434.859l41.9,199.265-300.14,165.741c-3.942-4.378-7.584-9.083-11.884-13.08-32.2-29.932-62.416-62.509-97.269-88.968-69.105-52.452-145.739-61.486-226.276-27.665q-42.042,17.656-82.983,37.9c-50.51,25.041-102.958,39.921-160.011,36.59-35.71-2.084-67.242-13.154-94.729-36.38-41.14-34.765-69.786-79.8-102.2-121.814-17.175-22.261-34.71-44.424-53.958-64.871-39.584-42.051-87.672-61.306-146.723-56.066-63.522,5.639-116.587,27.035-154.933,80.515-32,44.626-64.418,89.159-99.7,131.175C251.77,745.205,177.2,768.086,90.951,750.538,60.075,744.259,30.287,732.658,0,723.487L190.268,201.466Z" transform="translate(764.781 1571.164) rotate(-158)" fill="#fd9827" opacity="0.166"/>
    <path id="Trazado_661883" data-name="Trazado 661883" d="M985.312,112.531s-86.594,1.024-232.8,87.224-163.763-67.02-252.455-66.023-111.707,66.6-207.86,49.075S171.716,92.364,57.439,125.062,34.7,20.7,34.7,20.7L972.387,0Z" transform="matrix(-0.995, -0.105, 0.105, -0.995, 799.641, 815.266)" fill="none" stroke="#12263f" stroke-width="3" stroke-dasharray="11" opacity="0.15"/>
    <g id="Grupo_968454" data-name="Grupo 968454" transform="translate(70)" clip-path="url(#clip-path-2)">
      <g id="Grupo_968453" data-name="Grupo 968453" transform="translate(1 -52)">
        <path id="Sustracción_35" data-name="Sustracción 35" d="M48,96a48.354,48.354,0,0,1-9.674-.975A47.737,47.737,0,0,1,21.163,87.8,48.14,48.14,0,0,1,3.772,66.684a47.76,47.76,0,0,1-2.8-9.01,48.469,48.469,0,0,1,0-19.347A47.738,47.738,0,0,1,8.2,21.163,48.14,48.14,0,0,1,29.316,3.772a47.76,47.76,0,0,1,9.01-2.8,48.469,48.469,0,0,1,19.347,0A47.737,47.737,0,0,1,74.837,8.2,48.14,48.14,0,0,1,92.228,29.316a47.76,47.76,0,0,1,2.8,9.01,48.469,48.469,0,0,1,0,19.347A47.737,47.737,0,0,1,87.8,74.837,48.14,48.14,0,0,1,66.684,92.228a47.76,47.76,0,0,1-9.01,2.8A48.354,48.354,0,0,1,48,96Zm-.179-73.22a25.226,25.226,0,0,0-5.047.509,24.9,24.9,0,0,0-8.954,3.768,25.115,25.115,0,0,0-9.073,11.018,24.914,24.914,0,0,0-1.459,4.7,25.286,25.286,0,0,0,0,10.093,24.9,24.9,0,0,0,3.768,8.954,25.114,25.114,0,0,0,11.017,9.073,24.915,24.915,0,0,0,4.7,1.459,25.286,25.286,0,0,0,10.093,0,24.9,24.9,0,0,0,8.954-3.768,25.115,25.115,0,0,0,9.073-11.017,24.915,24.915,0,0,0,1.459-4.7,25.285,25.285,0,0,0,0-10.093,24.9,24.9,0,0,0-3.768-8.954,25.114,25.114,0,0,0-11.018-9.073,24.914,24.914,0,0,0-4.7-1.459A25.226,25.226,0,0,0,47.821,22.78Z" transform="translate(96 96) rotate(180)" fill="#fd9827"/>
      </g>
    </g>
    <path id="Trazado_661884" data-name="Trazado 661884" d="M1973.672,810.184l-153.99-440.469L1862.1,167.88,1558.3,0c-3.991,4.435-7.677,9.2-12.029,13.248-32.595,30.318-63.176,63.315-98.454,90.116-69.948,53.129-147.514,62.279-229.032,28.022Q1176.229,113.5,1134.791,93c-51.125-25.364-104.213-40.436-161.96-37.062-36.145,2.111-68.061,13.323-95.883,36.849C835.306,128,806.311,173.621,773.5,216.173c-17.384,22.548-35.132,45-54.615,65.708-40.066,42.594-88.74,62.1-148.511,56.789-64.3-5.711-118.008-27.384-156.821-81.554-32.387-45.2-65.2-90.31-100.915-132.867-57.8-68.886-133.286-92.062-220.583-74.288C60.807,56.323,30.656,68.074,0,77.363L192.587,606.119Z" transform="matrix(0.921, 0.391, -0.391, 0.921, -614.362, 308.775)" fill="#fd9827" opacity="0.166"/>
    <path id="Trazado_661885" data-name="Trazado 661885" d="M1196.361,0l-93.343,266.994,25.71,122.345L944.579,491.1c-2.419-2.688-4.653-5.577-7.292-8.031-19.758-18.377-38.295-38.379-59.679-54.625-42.4-32.2-89.417-37.751-138.83-16.986q-25.8,10.84-50.914,23.268c-30.99,15.374-63.169,24.511-98.174,22.466-21.909-1.279-41.256-8.076-58.121-22.337-25.241-21.345-42.817-49-62.7-74.791-10.537-13.668-21.3-27.276-33.105-39.83-24.286-25.819-53.791-37.641-90.021-34.424-38.974,3.462-71.532,16.6-95.058,49.435-19.632,27.4-39.524,54.742-61.171,80.539-35.038,41.756-80.793,55.8-133.708,45.03-18.943-3.855-37.22-10.978-55.8-16.609L116.738,123.7Z" transform="translate(526.815 -490.536) rotate(8)" fill="#fd9827" opacity="0.11"/>
    <path id="Trazado_661886" data-name="Trazado 661886" d="M1196.361,491.1l-93.343-266.995,25.71-122.345L944.579,0c-2.419,2.688-4.653,5.577-7.292,8.031-19.758,18.377-38.295,38.379-59.679,54.625-42.4,32.2-89.417,37.751-138.83,16.986q-25.8-10.84-50.914-23.268C656.875,41,624.7,31.863,589.691,33.908c-21.909,1.279-41.256,8.076-58.121,22.337-25.241,21.345-42.817,49-62.7,74.791-10.537,13.668-21.3,27.276-33.106,39.83-24.286,25.819-53.791,37.641-90.021,34.424-38.974-3.462-71.532-16.6-95.058-49.435-19.632-27.4-39.524-54.742-61.171-80.539-35.038-41.756-80.793-55.8-133.708-45.03C36.859,34.14,18.582,41.263,0,46.894L116.738,367.4Z" transform="translate(545.416 817.853) rotate(-8)" fill="#fd9827" opacity="0.11"/>
    <path id="Trazado_661887" data-name="Trazado 661887" d="M1863.595,765l-145.4-415.9,40.049-190.579L1471.389,0c-3.768,4.187-7.249,8.688-11.358,12.509-30.777,28.627-59.652,59.784-92.963,85.09-66.047,50.165-139.287,58.806-216.258,26.459q-40.182-16.886-79.309-36.245c-48.274-23.949-98.4-38.181-152.927-35-34.129,1.993-64.265,12.58-90.535,34.794-39.319,33.25-66.7,76.325-97.675,116.5-16.414,21.291-33.173,42.488-51.569,62.043C640.962,306.378,595,324.794,538.565,319.782c-60.71-5.393-111.426-25.856-148.074-77.005C359.91,200.1,328.924,157.5,295.2,117.32c-54.58-65.044-125.852-86.927-208.28-70.144C57.416,53.181,28.946,64.277,0,73.048L181.845,572.314Z" transform="matrix(0.921, 0.391, -0.391, 0.921, -372.398, 99.091)" fill="none" stroke="#31313c" stroke-width="3" opacity="0.04"/>
    <path id="Trazado_661888" data-name="Trazado 661888" d="M1370.008,0,1263.117,305.748l29.441,140.1L1081.68,562.382c-2.77-3.078-5.329-6.386-8.35-9.2-22.625-21.045-43.853-43.95-68.341-62.553-48.553-36.879-102.4-43.231-158.98-19.451q-29.539,12.414-58.3,26.645c-35.488,17.606-72.338,28.068-112.423,25.726-25.089-1.465-47.244-9.248-66.557-25.578-28.905-24.443-49.031-56.11-71.8-85.647-12.067-15.652-24.387-31.234-37.911-45.611-27.812-29.566-61.6-43.1-103.088-39.42-44.63,3.964-81.914,19.008-108.855,56.61-22.482,31.376-45.261,62.688-70.049,92.229C176.893,523.951,124.5,540.039,63.9,527.7c-21.693-4.415-42.622-12.572-63.9-19.02L133.682,141.65Z" transform="matrix(-0.891, -0.454, 0.454, -0.891, 725.106, 1261.156)" fill="none" stroke="#fff" stroke-width="1"/>
    <path id="Rectangle_652" data-name="Rectangle 652" d="M19.527,520.449H1220.473A19.4,19.4,0,0,0,1240,501.173V19.276A19.4,19.4,0,0,0,1220.473,0H19.527A19.4,19.4,0,0,0,0,19.276v481.9A19.4,19.4,0,0,0,19.527,520.449Z" transform="translate(0 48.552)" fill="none" opacity="0.238"/>
  </g>
</svg>
