<svg xmlns="http://www.w3.org/2000/svg" xmlns:xlink="http://www.w3.org/1999/xlink" width="1228" height="450" viewBox="0 0 1228 450">
  <defs>
    <clipPath id="clip-path">
      <path id="Rectangle_652" data-name="Rectangle 652" d="M1208.661,449.2H19.339C8.658,449.2,0,441.752,0,432.563V16.637C0,7.449,8.658,0,19.339,0H1208.661C1219.342,0,1228,7.449,1228,16.637V432.563C1228,441.752,1219.342,449.2,1208.661,449.2Z" transform="translate(0 0)" fill="none" opacity="0.238"/>
    </clipPath>
    <clipPath id="clip-path-2">
      <rect id="Rectángulo_34915" data-name="Rectángulo 34915" width="127.751" height="58.429" transform="translate(0 0)" fill="#fff" stroke="#707070" stroke-width="1"/>
    </clipPath>
  </defs>
  <g id="Grupo_159317" data-name="Grupo 159317" transform="translate(-180 -1205)">
    <rect id="Rectángulo_4750" data-name="Rectángulo 4750" width="1228" height="450" transform="translate(180 1205)" fill="#31313c" opacity="0.999"/>
    <g id="Grupo_159125" data-name="Grupo 159125" transform="translate(-7082 10030.137)">
      <g id="Grupo_80238" data-name="Grupo 80238" transform="translate(7262 -8825.137)" clip-path="url(#clip-path)">
        <path id="Trazado_151747" data-name="Trazado 151747" d="M1565.365,642.12l-122.133-349.1,33.64-159.967L1235.923,0c-3.165,3.515-6.088,7.292-9.54,10.5-25.852,24.029-50.106,50.181-78.086,71.422-55.477,42.108-117,49.36-181.651,22.209Q932.9,89.958,900.029,73.709c-40.549-20.1-82.653-32.048-128.454-29.374-28.667,1.673-53.981,10.559-76.047,29.205-33.027,27.909-56.023,64.065-82.044,97.79-13.788,17.871-27.865,35.663-43.317,52.078-31.777,33.758-70.382,49.216-117.787,45.009-50.994-4.527-93.595-21.7-124.378-64.636-25.687-35.825-51.714-71.576-80.038-105.305C202.118,43.879,142.251,25.511,73.014,39.6,48.228,44.639,24.314,53.952,0,61.314L152.745,480.386Z" transform="translate(47.232 451.488) rotate(-22)" fill="#fd9827" opacity="0.166"/>
        <path id="Trazado_151748" data-name="Trazado 151748" d="M975.777,112.446s-85.756-1.014-230.552-86.38S583.046,92.437,495.213,91.45,384.587,25.5,289.365,42.849,170.054,132.417,56.883,100.036,34.361,203.392,34.361,203.392l928.616,20.5Z" transform="matrix(0.995, -0.105, 0.105, 0.995, 359.54, 455.079)" fill="none" stroke="#12263f" stroke-width="3" stroke-dasharray="11" opacity="0.142"/>
        <g id="Grupo_80237" data-name="Grupo 80237" transform="translate(15.845 390.771)" clip-path="url(#clip-path-2)">
          <g id="Grupo_80236" data-name="Grupo 80236" transform="translate(2.971 1.98)">
            <path id="Sustracción_11" data-name="Sustracción 11" d="M61.9,123.79a62.353,62.353,0,0,1-12.474-1.257,61.557,61.557,0,0,1-22.132-9.313A62.076,62.076,0,0,1,4.864,85.987,61.585,61.585,0,0,1,1.257,74.369a62.5,62.5,0,0,1,0-24.948,61.556,61.556,0,0,1,9.313-22.132A62.076,62.076,0,0,1,37.8,4.864,61.587,61.587,0,0,1,49.421,1.257a62.5,62.5,0,0,1,24.948,0A61.557,61.557,0,0,1,96.5,10.571,62.076,62.076,0,0,1,118.926,37.8a61.586,61.586,0,0,1,3.607,11.618,62.5,62.5,0,0,1,0,24.948A61.555,61.555,0,0,1,113.219,96.5a62.076,62.076,0,0,1-27.232,22.425,61.586,61.586,0,0,1-11.618,3.607A62.353,62.353,0,0,1,61.9,123.79Zm-.23-94.416a32.529,32.529,0,0,0-6.508.656,32.114,32.114,0,0,0-11.546,4.859A32.385,32.385,0,0,0,31.912,49.1a32.127,32.127,0,0,0-1.882,6.061,32.605,32.605,0,0,0,0,13.015,32.113,32.113,0,0,0,4.859,11.546A32.384,32.384,0,0,0,49.1,91.417,32.128,32.128,0,0,0,55.157,93.3a32.606,32.606,0,0,0,13.015,0A32.114,32.114,0,0,0,79.718,88.44a32.385,32.385,0,0,0,11.7-14.207A32.126,32.126,0,0,0,93.3,68.172a32.6,32.6,0,0,0,0-13.015A32.113,32.113,0,0,0,88.44,43.61a32.384,32.384,0,0,0-14.207-11.7,32.126,32.126,0,0,0-6.061-1.882A32.528,32.528,0,0,0,61.665,29.374Z" transform="translate(0)" fill="#fd9827"/>
          </g>
        </g>
        <path id="Trazado_151749" data-name="Trazado 151749" d="M1845.56,0,1701.565,411.878l39.661,188.734L1457.149,757.594c-3.732-4.147-7.179-8.6-11.248-12.388-30.479-28.35-59.075-59.206-92.063-84.266-65.407-49.68-137.938-58.237-214.165-26.2q-39.793,16.723-78.542,35.894c-47.807,23.717-97.448,37.811-151.447,34.656-33.8-1.974-63.643-12.458-89.659-34.457-38.939-32.928-66.051-75.586-96.73-115.376-16.256-21.085-32.852-42.077-51.07-61.443-37.465-39.829-82.98-58.066-138.871-53.1-60.122,5.341-110.348,25.606-146.641,76.26-30.285,42.268-60.971,84.448-94.364,124.243C238.3,705.824,167.713,727.5,86.083,710.875,56.86,704.927,28.666,693.939,0,685.253L180.086,190.819Z" transform="translate(1624.073 691.914) rotate(157)" fill="#fd9827" opacity="0.166"/>
        <path id="Trazado_151750" data-name="Trazado 151750" d="M1845.56,0,1701.565,411.878l39.661,188.734L1457.149,757.594c-3.732-4.147-7.179-8.6-11.248-12.388-30.479-28.35-59.075-59.206-92.063-84.266-65.407-49.68-137.938-58.237-214.165-26.2q-39.793,16.723-78.542,35.894c-47.807,23.717-97.448,37.811-151.447,34.656-33.8-1.974-63.643-12.458-89.659-34.457-38.939-32.928-66.051-75.586-96.73-115.376-16.256-21.085-32.852-42.077-51.07-61.443-37.465-39.829-82.98-58.066-138.871-53.1-60.122,5.341-110.348,25.606-146.641,76.26-30.285,42.268-60.971,84.448-94.364,124.243C238.3,705.824,167.713,727.5,86.083,710.875,56.86,704.927,28.666,693.939,0,685.253L180.086,190.819Z" transform="translate(1771.991 639.817) rotate(157)" fill="none" stroke="#31313c" stroke-width="3" opacity="0.166"/>
        <path id="Trazado_151751" data-name="Trazado 151751" d="M1356.75,556.939,1250.893,254.151,1280.049,115.4,1071.212,0c-2.743,3.048-5.278,6.325-8.269,9.107-22.406,20.841-43.428,43.525-67.679,61.948-48.083,36.522-101.4,42.812-157.442,19.263q-29.254-12.294-57.74-26.387c-35.144-17.436-71.638-27.8-111.335-25.477C643.9,39.9,621.96,47.612,602.834,63.784c-28.625,24.207-48.557,55.567-71.11,84.818-11.951,15.5-24.151,30.932-37.544,45.169-27.542,29.28-61,42.687-102.09,39.038-44.2-3.926-81.121-18.824-107.8-56.062-22.264-31.073-44.823-62.081-69.371-91.336C175.181,38.059,123.293,22.127,63.283,34.345,41.8,38.717,21.073,46.8,0,53.181L132.388,416.66Z" transform="matrix(0.891, -0.454, 0.454, 0.891, 215.472, 512.51)" fill="none" stroke="#fff" stroke-width="1" opacity="0.81"/>
      </g>
    </g>
  </g>
</svg>
