<svg id="Grupo_159318" data-name="Grupo 159318" xmlns="http://www.w3.org/2000/svg" xmlns:xlink="http://www.w3.org/1999/xlink" width="1240" height="520.449" viewBox="0 0 1240 520.449">
  <defs>
    <clipPath id="clip-path">
      <path id="Rectangle_652" data-name="Rectangle 652" d="M19.527,520.449H1220.473A19.4,19.4,0,0,0,1240,501.173V19.276A19.4,19.4,0,0,0,1220.473,0H19.527A19.4,19.4,0,0,0,0,19.276v481.9A19.4,19.4,0,0,0,19.527,520.449Z" transform="translate(0 0)" fill="none" opacity="0.238"/>
    </clipPath>
    <clipPath id="clip-path-2">
      <rect id="Rectángulo_34915" data-name="Rectángulo 34915" width="129" height="59" transform="translate(0 0)" fill="#fff" stroke="#707070" stroke-width="1"/>
    </clipPath>
  </defs>
  <rect id="Rectángulo_34912" data-name="Rectángulo 34912" width="1240" height="519" transform="translate(0 1.448)" fill="#fff0de"/>
  <g id="Grupo_80238" data-name="Grupo 80238" clip-path="url(#clip-path)">
    <path id="Trazado_151747" data-name="Trazado 151747" d="M1580.662,0l-123.327,352.51L1491.3,514.042,1248,648.4c-3.2-3.549-6.148-7.363-9.634-10.6-26.1-24.263-50.6-50.672-78.849-72.12-56.019-42.519-118.14-49.843-183.426-22.426q-34.081,14.312-67.268,30.72c-40.945,20.3-83.461,32.361-129.71,29.661-28.947-1.689-54.508-10.663-76.79-29.491-33.35-28.182-56.57-64.691-82.846-98.746-13.922-18.046-28.137-36.012-43.74-52.587-32.088-34.088-71.07-49.7-118.939-45.449-51.493,4.571-94.509,21.915-125.594,65.268-25.938,36.175-52.22,72.275-80.82,106.334-46.294,55.13-106.746,73.678-176.659,59.453C48.7,603.321,24.552,593.916,0,586.482L154.237,163.315Z" transform="translate(949.413 1057.082) rotate(-158)" fill="#fd9827" opacity="0.166"/>
    <path id="Trazado_151748" data-name="Trazado 151748" d="M985.312,112.531s-86.594,1.024-232.8,87.224-163.763-67.02-252.455-66.023-111.707,66.6-207.86,49.076S171.716,92.364,57.439,125.062,34.7,20.7,34.7,20.7L972.387,0Z" transform="matrix(-0.995, -0.105, 0.105, -0.995, 853.315, 684.364)" fill="none" stroke="#12263f" stroke-width="3" stroke-dasharray="11" opacity="0.142"/>
    <g id="Grupo_80237" data-name="Grupo 80237" transform="translate(1095 -0.001)" clip-path="url(#clip-path-2)">
      <g id="Grupo_80236" data-name="Grupo 80236" transform="translate(1 -68)">
        <path id="Sustracción_11" data-name="Sustracción 11" d="M62.5,125a62.961,62.961,0,0,1-12.6-1.27,62.158,62.158,0,0,1-22.348-9.4,62.682,62.682,0,0,1-22.644-27.5A62.187,62.187,0,0,1,1.27,75.1a63.11,63.11,0,0,1,0-25.192,62.158,62.158,0,0,1,9.4-22.348,62.682,62.682,0,0,1,27.5-22.644A62.188,62.188,0,0,1,49.9,1.27a63.11,63.11,0,0,1,25.192,0,62.158,62.158,0,0,1,22.348,9.4,62.683,62.683,0,0,1,22.644,27.5A62.188,62.188,0,0,1,123.73,49.9a63.11,63.11,0,0,1,0,25.192,62.158,62.158,0,0,1-9.4,22.348,62.682,62.682,0,0,1-27.5,22.644A62.187,62.187,0,0,1,75.1,123.73,62.961,62.961,0,0,1,62.5,125Zm-.233-95.339a32.846,32.846,0,0,0-6.571.662A32.428,32.428,0,0,0,44.037,35.23,32.7,32.7,0,0,0,32.224,49.576a32.441,32.441,0,0,0-1.9,6.121,32.924,32.924,0,0,0,0,13.143A32.427,32.427,0,0,0,35.23,80.5,32.7,32.7,0,0,0,49.575,92.311a32.441,32.441,0,0,0,6.121,1.9,32.924,32.924,0,0,0,13.142,0A32.428,32.428,0,0,0,80.5,89.3,32.7,32.7,0,0,0,92.311,74.959a32.441,32.441,0,0,0,1.9-6.121,32.924,32.924,0,0,0,0-13.143A32.427,32.427,0,0,0,89.3,44.037,32.7,32.7,0,0,0,74.959,32.223a32.44,32.44,0,0,0-6.12-1.9A32.846,32.846,0,0,0,62.267,29.661Z" transform="translate(125 125) rotate(180)" fill="#fd9827"/>
      </g>
    </g>
    <path id="Trazado_151749" data-name="Trazado 151749" d="M1863.595,765l-145.4-415.9,40.049-190.579L1471.389,0c-3.768,4.187-7.249,8.688-11.358,12.509-30.777,28.627-59.652,59.784-92.963,85.09-66.047,50.165-139.286,58.806-216.258,26.459q-40.182-16.886-79.309-36.245c-48.274-23.949-98.4-38.181-152.927-35-34.129,1.993-64.265,12.58-90.535,34.794-39.319,33.25-66.7,76.325-97.675,116.5-16.414,21.291-33.173,42.488-51.569,62.043C640.962,306.379,595,324.795,538.565,319.783c-60.71-5.393-111.426-25.856-148.074-77.005C359.91,200.1,328.924,157.5,295.2,117.321c-54.58-65.044-125.853-86.927-208.28-70.144C57.415,53.182,28.946,64.278,0,73.049L181.845,572.315Z" transform="matrix(0.921, 0.391, -0.391, 0.921, -101.034, -5.508)" fill="#fd9827" opacity="0.166"/>
    <path id="Trazado_151750" data-name="Trazado 151750" d="M1863.595,765l-145.4-415.9,40.049-190.579L1471.389,0c-3.768,4.187-7.249,8.688-11.358,12.509-30.777,28.627-59.652,59.784-92.963,85.09-66.047,50.165-139.286,58.806-216.258,26.459q-40.182-16.886-79.309-36.245c-48.274-23.949-98.4-38.181-152.927-35-34.129,1.993-64.265,12.58-90.535,34.794-39.319,33.25-66.7,76.325-97.675,116.5-16.414,21.291-33.173,42.488-51.569,62.043C640.962,306.379,595,324.795,538.565,319.783c-60.71-5.393-111.426-25.856-148.074-77.005C359.91,200.1,328.924,157.5,295.2,117.321c-54.58-65.044-125.853-86.927-208.28-70.144C57.415,53.182,28.946,64.278,0,73.049L181.845,572.315Z" transform="matrix(0.921, 0.391, -0.391, 0.921, -250.398, -58.115)" fill="none" stroke="#31313c" stroke-width="3" opacity="0.166"/>
    <path id="Trazado_151751" data-name="Trazado 151751" d="M1370.008,0,1263.117,305.749l29.442,140.1L1081.68,562.383c-2.77-3.078-5.329-6.387-8.35-9.2-22.625-21.045-43.853-43.95-68.341-62.553-48.553-36.879-102.4-43.231-158.981-19.451q-29.539,12.414-58.3,26.645c-35.488,17.606-72.338,28.068-112.423,25.726-25.089-1.465-47.244-9.248-66.557-25.579-28.905-24.443-49.031-56.11-71.8-85.647-12.067-15.652-24.387-31.235-37.911-45.611-27.812-29.566-61.6-43.1-103.088-39.42-44.63,3.964-81.914,19.008-108.855,56.61-22.482,31.376-45.261,62.688-70.049,92.229C176.893,523.952,124.5,540.04,63.9,527.7,42.208,523.287,21.279,515.13,0,508.682L133.682,141.651Z" transform="matrix(-0.891, -0.454, 0.454, -0.891, 767.106, 1018.606)" fill="none" stroke="#fff" stroke-width="1" opacity="0.81"/>
  </g>
</svg>
