<svg xmlns="http://www.w3.org/2000/svg" xmlns:xlink="http://www.w3.org/1999/xlink" width="295" height="370.313" viewBox="0 0 295 370.313">
  <defs>
    <clipPath id="clip-path">
      <rect id="Rectángulo_34881" data-name="Rectángulo 34881" width="73.825" height="44.914" transform="translate(0 0)" fill="#12263f"/>
    </clipPath>
  </defs>
  <g id="Grupo_158219" data-name="Grupo 158219" transform="translate(8985 5908.5)">
    <rect id="Rectángulo_34943" data-name="Rectángulo 34943" width="295" height="370" transform="translate(-8985 -5908.5)" fill="#31313c"/>
    <g id="Grupo_80257" data-name="Grupo 80257" transform="translate(-8985 -5908.5)">
      <g id="Enmascarar_grupo_63" data-name="Enmascarar grupo 63" transform="translate(11.175 325.398)" clip-path="url(#clip-path)">
        <path id="Trazado_151731" data-name="Trazado 151731" d="M35.15,55.5A20.35,20.35,0,1,1,55.5,35.15,20.373,20.373,0,0,1,35.15,55.5m0,14.8A35.15,35.15,0,1,0,0,35.15,35.15,35.15,0,0,0,35.15,70.3Z" transform="translate(1.525 9.764)" fill="#fd9827"/>
      </g>
      <g id="Grupo_78301" data-name="Grupo 78301" transform="translate(0 0)">
        <path id="Trazado_145968" data-name="Trazado 145968" d="M29.047,58.095A29.047,29.047,0,1,1,58.095,29.047,29.047,29.047,0,0,1,29.047,58.095Z" transform="translate(4.464 2.276)" fill="#31313c" opacity="0.444" style="mix-blend-mode: multiply;isolation: isolate"/>
        <path id="Trazado_145969" data-name="Trazado 145969" d="M14.454,28.909A14.454,14.454,0,1,1,28.909,14.454,14.454,14.454,0,0,1,14.454,28.909Z" transform="translate(239.075 333.863)" fill="#fd9827" opacity="0.444" style="mix-blend-mode: multiply;isolation: isolate"/>
        <rect id="Rectángulo_34812" data-name="Rectángulo 34812" width="295" height="370.14" rx="11" fill="none"/>
        <path id="Trazado_145971" data-name="Trazado 145971" d="M5.457,10.914a5.457,5.457,0,1,1,5.457-5.457A5.457,5.457,0,0,1,5.457,10.914Z" transform="translate(262.526 10.815)" fill="#31313c" opacity="0.444" style="mix-blend-mode: multiply;isolation: isolate"/>
        <g id="Grupo_78276" data-name="Grupo 78276" transform="translate(12.563 6.063)">
          <g id="Grupo_53306" data-name="Grupo 53306" transform="translate(0 33.194)">
            <path id="Trazado_99200" data-name="Trazado 99200" d="M414.214,50.6a.395.395,0,1,1,.395.377A.386.386,0,0,1,414.214,50.6Z" transform="translate(-378.716 -50.224)" fill="#fff"/>
            <path id="Trazado_99201" data-name="Trazado 99201" d="M422.66,50.6a.395.395,0,1,1,.394.377A.386.386,0,0,1,422.66,50.6Z" transform="translate(-390.711 -50.224)" fill="#fff"/>
            <path id="Trazado_99202" data-name="Trazado 99202" d="M431.106,50.6a.395.395,0,1,1,.394.377A.386.386,0,0,1,431.106,50.6Z" transform="translate(-402.707 -50.224)" fill="#fff"/>
            <path id="Trazado_99203" data-name="Trazado 99203" d="M439.553,50.6a.395.395,0,1,1,.395.377A.386.386,0,0,1,439.553,50.6Z" transform="translate(-414.704 -50.224)" fill="#fff"/>
            <path id="Trazado_99204" data-name="Trazado 99204" d="M448,50.6a.395.395,0,1,1,.394.377A.386.386,0,0,1,448,50.6Z" transform="translate(-426.7 -50.224)" fill="#fff"/>
            <path id="Trazado_99205" data-name="Trazado 99205" d="M456.445,50.6a.395.395,0,1,1,.394.377A.386.386,0,0,1,456.445,50.6Z" transform="translate(-438.696 -50.224)" fill="#fff"/>
            <path id="Trazado_99206" data-name="Trazado 99206" d="M464.892,50.6a.395.395,0,1,1,.395.377A.386.386,0,0,1,464.892,50.6Z" transform="translate(-450.693 -50.224)" fill="#fff"/>
            <path id="Trazado_99207" data-name="Trazado 99207" d="M473.338,50.6a.395.395,0,1,1,.394.377A.386.386,0,0,1,473.338,50.6Z" transform="translate(-462.689 -50.224)" fill="#fff"/>
            <path id="Trazado_99208" data-name="Trazado 99208" d="M481.784,50.6a.395.395,0,1,1,.394.377A.386.386,0,0,1,481.784,50.6Z" transform="translate(-474.684 -50.224)" fill="#fff"/>
            <path id="Trazado_99209" data-name="Trazado 99209" d="M490.231,50.6a.395.395,0,1,1,.395.377A.386.386,0,0,1,490.231,50.6Z" transform="translate(-486.681 -50.224)" fill="#fff"/>
            <path id="Trazado_99210" data-name="Trazado 99210" d="M498.677,50.6a.395.395,0,1,1,.395.377A.386.386,0,0,1,498.677,50.6Z" transform="translate(-498.677 -50.224)" fill="#fff"/>
          </g>
          <g id="Grupo_53307" data-name="Grupo 53307" transform="translate(0 30.176)">
            <path id="Trazado_99211" data-name="Trazado 99211" d="M414.214,58.109a.395.395,0,1,1,.395.377A.386.386,0,0,1,414.214,58.109Z" transform="translate(-378.716 -57.732)" fill="#fff"/>
            <path id="Trazado_99212" data-name="Trazado 99212" d="M422.66,58.109a.395.395,0,1,1,.394.377A.386.386,0,0,1,422.66,58.109Z" transform="translate(-390.711 -57.732)" fill="#fff"/>
            <path id="Trazado_99213" data-name="Trazado 99213" d="M431.106,58.109a.395.395,0,1,1,.394.377A.386.386,0,0,1,431.106,58.109Z" transform="translate(-402.707 -57.732)" fill="#fff"/>
            <path id="Trazado_99214" data-name="Trazado 99214" d="M439.553,58.109a.395.395,0,1,1,.395.377A.386.386,0,0,1,439.553,58.109Z" transform="translate(-414.704 -57.732)" fill="#fff"/>
            <path id="Trazado_99215" data-name="Trazado 99215" d="M448,58.109a.395.395,0,1,1,.394.377A.386.386,0,0,1,448,58.109Z" transform="translate(-426.7 -57.732)" fill="#fff"/>
            <path id="Trazado_99216" data-name="Trazado 99216" d="M456.445,58.109a.395.395,0,1,1,.394.377A.386.386,0,0,1,456.445,58.109Z" transform="translate(-438.696 -57.732)" fill="#fff"/>
            <path id="Trazado_99217" data-name="Trazado 99217" d="M464.892,58.109a.395.395,0,1,1,.395.377A.386.386,0,0,1,464.892,58.109Z" transform="translate(-450.693 -57.732)" fill="#fff"/>
            <path id="Trazado_99218" data-name="Trazado 99218" d="M473.338,58.109a.395.395,0,1,1,.394.377A.386.386,0,0,1,473.338,58.109Z" transform="translate(-462.689 -57.732)" fill="#fff"/>
            <path id="Trazado_99219" data-name="Trazado 99219" d="M481.784,58.109a.395.395,0,1,1,.394.377A.386.386,0,0,1,481.784,58.109Z" transform="translate(-474.684 -57.732)" fill="#fff"/>
            <path id="Trazado_99220" data-name="Trazado 99220" d="M490.231,58.109a.395.395,0,1,1,.395.377A.386.386,0,0,1,490.231,58.109Z" transform="translate(-486.681 -57.732)" fill="#fff"/>
            <path id="Trazado_99221" data-name="Trazado 99221" d="M498.677,58.109a.395.395,0,1,1,.395.377A.386.386,0,0,1,498.677,58.109Z" transform="translate(-498.677 -57.732)" fill="#fff"/>
          </g>
          <g id="Grupo_53308" data-name="Grupo 53308" transform="translate(0 27.158)">
            <ellipse id="Elipse_3955" data-name="Elipse 3955" cx="0.394" cy="0.377" rx="0.394" ry="0.377" transform="translate(35.498 0)" fill="#fff"/>
            <path id="Trazado_99222" data-name="Trazado 99222" d="M422.66,65.617a.395.395,0,1,1,.394.377A.386.386,0,0,1,422.66,65.617Z" transform="translate(-390.711 -65.24)" fill="#fff"/>
            <ellipse id="Elipse_3956" data-name="Elipse 3956" cx="0.394" cy="0.377" rx="0.394" ry="0.377" transform="translate(28.399 0)" fill="#fff"/>
            <path id="Trazado_99223" data-name="Trazado 99223" d="M439.553,65.617a.395.395,0,1,1,.395.377A.386.386,0,0,1,439.553,65.617Z" transform="translate(-414.704 -65.24)" fill="#fff"/>
            <path id="Trazado_99224" data-name="Trazado 99224" d="M448,65.617a.395.395,0,1,1,.394.377A.386.386,0,0,1,448,65.617Z" transform="translate(-426.7 -65.24)" fill="#fff"/>
            <ellipse id="Elipse_3957" data-name="Elipse 3957" cx="0.394" cy="0.377" rx="0.394" ry="0.377" transform="translate(17.749 0)" fill="#fff"/>
            <path id="Trazado_99225" data-name="Trazado 99225" d="M464.892,65.617a.395.395,0,1,1,.395.377A.387.387,0,0,1,464.892,65.617Z" transform="translate(-450.693 -65.24)" fill="#fff"/>
            <ellipse id="Elipse_3958" data-name="Elipse 3958" cx="0.394" cy="0.377" rx="0.394" ry="0.377" transform="translate(10.649 0)" fill="#fff"/>
            <ellipse id="Elipse_3959" data-name="Elipse 3959" cx="0.394" cy="0.377" rx="0.394" ry="0.377" transform="translate(7.1 0)" fill="#fff"/>
            <path id="Trazado_99226" data-name="Trazado 99226" d="M490.231,65.617a.395.395,0,1,1,.395.377A.387.387,0,0,1,490.231,65.617Z" transform="translate(-486.681 -65.24)" fill="#fff"/>
            <path id="Trazado_99227" data-name="Trazado 99227" d="M498.677,65.617a.395.395,0,1,1,.395.377A.386.386,0,0,1,498.677,65.617Z" transform="translate(-498.677 -65.24)" fill="#fff"/>
          </g>
          <g id="Grupo_53309" data-name="Grupo 53309" transform="translate(0 24.141)">
            <ellipse id="Elipse_3960" data-name="Elipse 3960" cx="0.394" cy="0.377" rx="0.394" ry="0.377" transform="translate(35.498 0)" fill="#fff"/>
            <path id="Trazado_99228" data-name="Trazado 99228" d="M422.66,73.124a.395.395,0,1,1,.394.377A.386.386,0,0,1,422.66,73.124Z" transform="translate(-390.711 -72.747)" fill="#fff"/>
            <ellipse id="Elipse_3961" data-name="Elipse 3961" cx="0.394" cy="0.377" rx="0.394" ry="0.377" transform="translate(28.399 0)" fill="#fff"/>
            <path id="Trazado_99229" data-name="Trazado 99229" d="M439.553,73.124a.395.395,0,1,1,.395.377A.386.386,0,0,1,439.553,73.124Z" transform="translate(-414.704 -72.747)" fill="#fff"/>
            <path id="Trazado_99230" data-name="Trazado 99230" d="M448,73.124a.395.395,0,1,1,.394.377A.386.386,0,0,1,448,73.124Z" transform="translate(-426.7 -72.747)" fill="#fff"/>
            <ellipse id="Elipse_3962" data-name="Elipse 3962" cx="0.394" cy="0.377" rx="0.394" ry="0.377" transform="translate(17.749 0)" fill="#fff"/>
            <path id="Trazado_99231" data-name="Trazado 99231" d="M464.892,73.124a.395.395,0,1,1,.395.377A.386.386,0,0,1,464.892,73.124Z" transform="translate(-450.693 -72.747)" fill="#fff"/>
            <ellipse id="Elipse_3963" data-name="Elipse 3963" cx="0.394" cy="0.377" rx="0.394" ry="0.377" transform="translate(10.649 0)" fill="#fff"/>
            <ellipse id="Elipse_3964" data-name="Elipse 3964" cx="0.394" cy="0.377" rx="0.394" ry="0.377" transform="translate(7.1 0)" fill="#fff"/>
            <path id="Trazado_99232" data-name="Trazado 99232" d="M490.231,73.124a.395.395,0,1,1,.395.377A.386.386,0,0,1,490.231,73.124Z" transform="translate(-486.681 -72.747)" fill="#fff"/>
            <path id="Trazado_99233" data-name="Trazado 99233" d="M498.677,73.124a.395.395,0,1,1,.395.377A.386.386,0,0,1,498.677,73.124Z" transform="translate(-498.677 -72.747)" fill="#fff"/>
          </g>
          <g id="Grupo_53310" data-name="Grupo 53310" transform="translate(0 21.124)">
            <path id="Trazado_99234" data-name="Trazado 99234" d="M414.214,80.632a.395.395,0,1,1,.395.377A.386.386,0,0,1,414.214,80.632Z" transform="translate(-378.716 -80.255)" fill="#fff"/>
            <path id="Trazado_99235" data-name="Trazado 99235" d="M422.66,80.632a.395.395,0,1,1,.394.377A.386.386,0,0,1,422.66,80.632Z" transform="translate(-390.711 -80.255)" fill="#fff"/>
            <path id="Trazado_99236" data-name="Trazado 99236" d="M431.106,80.632a.395.395,0,1,1,.394.377A.386.386,0,0,1,431.106,80.632Z" transform="translate(-402.707 -80.255)" fill="#fff"/>
            <path id="Trazado_99237" data-name="Trazado 99237" d="M439.553,80.632a.395.395,0,1,1,.395.377A.386.386,0,0,1,439.553,80.632Z" transform="translate(-414.704 -80.255)" fill="#fff"/>
            <path id="Trazado_99238" data-name="Trazado 99238" d="M448,80.632a.395.395,0,1,1,.394.377A.386.386,0,0,1,448,80.632Z" transform="translate(-426.7 -80.255)" fill="#fff"/>
            <path id="Trazado_99239" data-name="Trazado 99239" d="M456.445,80.632a.395.395,0,1,1,.394.377A.386.386,0,0,1,456.445,80.632Z" transform="translate(-438.696 -80.255)" fill="#fff"/>
            <path id="Trazado_99240" data-name="Trazado 99240" d="M464.892,80.632a.395.395,0,1,1,.395.377A.386.386,0,0,1,464.892,80.632Z" transform="translate(-450.693 -80.255)" fill="#fff"/>
            <path id="Trazado_99241" data-name="Trazado 99241" d="M473.338,80.632a.395.395,0,1,1,.394.377A.386.386,0,0,1,473.338,80.632Z" transform="translate(-462.689 -80.255)" fill="#fff"/>
            <path id="Trazado_99242" data-name="Trazado 99242" d="M481.784,80.632a.395.395,0,1,1,.394.377A.386.386,0,0,1,481.784,80.632Z" transform="translate(-474.684 -80.255)" fill="#fff"/>
            <path id="Trazado_99243" data-name="Trazado 99243" d="M490.231,80.632a.395.395,0,1,1,.395.377A.386.386,0,0,1,490.231,80.632Z" transform="translate(-486.681 -80.255)" fill="#fff"/>
            <path id="Trazado_99244" data-name="Trazado 99244" d="M498.677,80.632a.395.395,0,1,1,.395.377A.386.386,0,0,1,498.677,80.632Z" transform="translate(-498.677 -80.255)" fill="#fff"/>
          </g>
          <g id="Grupo_53311" data-name="Grupo 53311" transform="translate(0 18.106)">
            <ellipse id="Elipse_3965" data-name="Elipse 3965" cx="0.394" cy="0.377" rx="0.394" ry="0.377" transform="translate(35.498 0)" fill="#fff"/>
            <path id="Trazado_99245" data-name="Trazado 99245" d="M422.66,88.14a.395.395,0,1,1,.394.377A.386.386,0,0,1,422.66,88.14Z" transform="translate(-390.711 -87.763)" fill="#fff"/>
            <ellipse id="Elipse_3966" data-name="Elipse 3966" cx="0.394" cy="0.377" rx="0.394" ry="0.377" transform="translate(28.399 0)" fill="#fff"/>
            <path id="Trazado_99246" data-name="Trazado 99246" d="M439.553,88.14a.395.395,0,1,1,.395.377A.386.386,0,0,1,439.553,88.14Z" transform="translate(-414.704 -87.763)" fill="#fff"/>
            <path id="Trazado_99247" data-name="Trazado 99247" d="M448,88.14a.395.395,0,1,1,.394.377A.386.386,0,0,1,448,88.14Z" transform="translate(-426.7 -87.763)" fill="#fff"/>
            <ellipse id="Elipse_3967" data-name="Elipse 3967" cx="0.394" cy="0.377" rx="0.394" ry="0.377" transform="translate(17.749 0)" fill="#fff"/>
            <path id="Trazado_99248" data-name="Trazado 99248" d="M464.892,88.14a.395.395,0,1,1,.395.377A.386.386,0,0,1,464.892,88.14Z" transform="translate(-450.693 -87.763)" fill="#fff"/>
            <ellipse id="Elipse_3968" data-name="Elipse 3968" cx="0.394" cy="0.377" rx="0.394" ry="0.377" transform="translate(10.649 0)" fill="#fff"/>
            <ellipse id="Elipse_3969" data-name="Elipse 3969" cx="0.394" cy="0.377" rx="0.394" ry="0.377" transform="translate(7.1 0)" fill="#fff"/>
            <path id="Trazado_99249" data-name="Trazado 99249" d="M490.231,88.14a.395.395,0,1,1,.395.377A.386.386,0,0,1,490.231,88.14Z" transform="translate(-486.681 -87.763)" fill="#fff"/>
            <path id="Trazado_99250" data-name="Trazado 99250" d="M498.677,88.14a.395.395,0,1,1,.395.377A.386.386,0,0,1,498.677,88.14Z" transform="translate(-498.677 -87.763)" fill="#fff"/>
          </g>
          <g id="Grupo_53312" data-name="Grupo 53312" transform="translate(0 15.088)">
            <ellipse id="Elipse_3970" data-name="Elipse 3970" cx="0.394" cy="0.377" rx="0.394" ry="0.377" transform="translate(35.498 0)" fill="#fff"/>
            <path id="Trazado_99251" data-name="Trazado 99251" d="M422.66,95.648a.395.395,0,1,1,.394.377A.386.386,0,0,1,422.66,95.648Z" transform="translate(-390.711 -95.271)" fill="#fff"/>
            <ellipse id="Elipse_3971" data-name="Elipse 3971" cx="0.394" cy="0.377" rx="0.394" ry="0.377" transform="translate(28.399 0)" fill="#fff"/>
            <path id="Trazado_99252" data-name="Trazado 99252" d="M439.553,95.648a.395.395,0,1,1,.395.377A.386.386,0,0,1,439.553,95.648Z" transform="translate(-414.704 -95.271)" fill="#fff"/>
            <path id="Trazado_99253" data-name="Trazado 99253" d="M448,95.648a.395.395,0,1,1,.394.377A.386.386,0,0,1,448,95.648Z" transform="translate(-426.7 -95.271)" fill="#fff"/>
            <ellipse id="Elipse_3972" data-name="Elipse 3972" cx="0.394" cy="0.377" rx="0.394" ry="0.377" transform="translate(17.749 0)" fill="#fff"/>
            <path id="Trazado_99254" data-name="Trazado 99254" d="M464.892,95.648a.395.395,0,1,1,.395.377A.386.386,0,0,1,464.892,95.648Z" transform="translate(-450.693 -95.271)" fill="#fff"/>
            <ellipse id="Elipse_3973" data-name="Elipse 3973" cx="0.394" cy="0.377" rx="0.394" ry="0.377" transform="translate(10.649 0)" fill="#fff"/>
            <ellipse id="Elipse_3974" data-name="Elipse 3974" cx="0.394" cy="0.377" rx="0.394" ry="0.377" transform="translate(7.1 0)" fill="#fff"/>
            <path id="Trazado_99255" data-name="Trazado 99255" d="M490.231,95.648a.395.395,0,1,1,.395.377A.386.386,0,0,1,490.231,95.648Z" transform="translate(-486.681 -95.271)" fill="#fff"/>
            <path id="Trazado_99256" data-name="Trazado 99256" d="M498.677,95.648a.395.395,0,1,1,.395.377A.386.386,0,0,1,498.677,95.648Z" transform="translate(-498.677 -95.271)" fill="#fff"/>
          </g>
          <g id="Grupo_53313" data-name="Grupo 53313" transform="translate(0 12.071)">
            <path id="Trazado_99257" data-name="Trazado 99257" d="M414.214,103.156a.395.395,0,1,1,.395.377A.386.386,0,0,1,414.214,103.156Z" transform="translate(-378.716 -102.779)" fill="#fff"/>
            <path id="Trazado_99258" data-name="Trazado 99258" d="M422.66,103.156a.395.395,0,1,1,.394.377A.386.386,0,0,1,422.66,103.156Z" transform="translate(-390.711 -102.779)" fill="#fff"/>
            <path id="Trazado_99259" data-name="Trazado 99259" d="M431.106,103.156a.395.395,0,1,1,.394.377A.386.386,0,0,1,431.106,103.156Z" transform="translate(-402.707 -102.779)" fill="#fff"/>
            <path id="Trazado_99260" data-name="Trazado 99260" d="M439.553,103.156a.395.395,0,1,1,.395.377A.386.386,0,0,1,439.553,103.156Z" transform="translate(-414.704 -102.779)" fill="#fff"/>
            <path id="Trazado_99261" data-name="Trazado 99261" d="M448,103.156a.395.395,0,1,1,.394.377A.386.386,0,0,1,448,103.156Z" transform="translate(-426.7 -102.779)" fill="#fff"/>
            <path id="Trazado_99262" data-name="Trazado 99262" d="M456.445,103.156a.395.395,0,1,1,.394.377A.386.386,0,0,1,456.445,103.156Z" transform="translate(-438.696 -102.779)" fill="#fff"/>
            <path id="Trazado_99263" data-name="Trazado 99263" d="M464.892,103.156a.395.395,0,1,1,.395.377A.386.386,0,0,1,464.892,103.156Z" transform="translate(-450.693 -102.779)" fill="#fff"/>
            <path id="Trazado_99264" data-name="Trazado 99264" d="M473.338,103.156a.395.395,0,1,1,.394.377A.386.386,0,0,1,473.338,103.156Z" transform="translate(-462.689 -102.779)" fill="#fff"/>
            <path id="Trazado_99265" data-name="Trazado 99265" d="M481.784,103.156a.395.395,0,1,1,.394.377A.386.386,0,0,1,481.784,103.156Z" transform="translate(-474.684 -102.779)" fill="#fff"/>
            <path id="Trazado_99266" data-name="Trazado 99266" d="M490.231,103.156a.395.395,0,1,1,.395.377A.386.386,0,0,1,490.231,103.156Z" transform="translate(-486.681 -102.779)" fill="#fff"/>
            <path id="Trazado_99267" data-name="Trazado 99267" d="M498.677,103.156a.395.395,0,1,1,.395.377A.386.386,0,0,1,498.677,103.156Z" transform="translate(-498.677 -102.779)" fill="#fff"/>
          </g>
          <g id="Grupo_53314" data-name="Grupo 53314" transform="translate(0 9.053)">
            <ellipse id="Elipse_3975" data-name="Elipse 3975" cx="0.394" cy="0.377" rx="0.394" ry="0.377" transform="translate(35.498 0)" fill="#fff"/>
            <path id="Trazado_99268" data-name="Trazado 99268" d="M422.66,110.664a.395.395,0,1,1,.394.377A.386.386,0,0,1,422.66,110.664Z" transform="translate(-390.711 -110.287)" fill="#fff"/>
            <ellipse id="Elipse_3976" data-name="Elipse 3976" cx="0.394" cy="0.377" rx="0.394" ry="0.377" transform="translate(28.399 0)" fill="#fff"/>
            <path id="Trazado_99269" data-name="Trazado 99269" d="M439.553,110.664a.395.395,0,1,1,.395.377A.386.386,0,0,1,439.553,110.664Z" transform="translate(-414.704 -110.287)" fill="#fff"/>
            <path id="Trazado_99270" data-name="Trazado 99270" d="M448,110.664a.395.395,0,1,1,.394.377A.386.386,0,0,1,448,110.664Z" transform="translate(-426.7 -110.287)" fill="#fff"/>
            <ellipse id="Elipse_3977" data-name="Elipse 3977" cx="0.394" cy="0.377" rx="0.394" ry="0.377" transform="translate(17.749 0)" fill="#fff"/>
            <path id="Trazado_99271" data-name="Trazado 99271" d="M464.892,110.664a.395.395,0,1,1,.395.377A.387.387,0,0,1,464.892,110.664Z" transform="translate(-450.693 -110.287)" fill="#fff"/>
            <ellipse id="Elipse_3978" data-name="Elipse 3978" cx="0.394" cy="0.377" rx="0.394" ry="0.377" transform="translate(10.649 0)" fill="#fff"/>
            <ellipse id="Elipse_3979" data-name="Elipse 3979" cx="0.394" cy="0.377" rx="0.394" ry="0.377" transform="translate(7.1 0)" fill="#fff"/>
            <path id="Trazado_99272" data-name="Trazado 99272" d="M490.231,110.664a.395.395,0,1,1,.395.377A.387.387,0,0,1,490.231,110.664Z" transform="translate(-486.681 -110.287)" fill="#fff"/>
            <path id="Trazado_99273" data-name="Trazado 99273" d="M498.677,110.664a.395.395,0,1,1,.395.377A.386.386,0,0,1,498.677,110.664Z" transform="translate(-498.677 -110.287)" fill="#fff"/>
          </g>
          <g id="Grupo_53315" data-name="Grupo 53315" transform="translate(0 6.035)">
            <path id="Trazado_99274" data-name="Trazado 99274" d="M414.214,118.171a.395.395,0,1,1,.395.377A.386.386,0,0,1,414.214,118.171Z" transform="translate(-378.716 -117.794)" fill="#fff"/>
            <path id="Trazado_99275" data-name="Trazado 99275" d="M422.66,118.171a.395.395,0,1,1,.394.377A.386.386,0,0,1,422.66,118.171Z" transform="translate(-390.711 -117.794)" fill="#fff"/>
            <path id="Trazado_99276" data-name="Trazado 99276" d="M431.106,118.171a.395.395,0,1,1,.394.377A.386.386,0,0,1,431.106,118.171Z" transform="translate(-402.707 -117.794)" fill="#fff"/>
            <path id="Trazado_99277" data-name="Trazado 99277" d="M439.553,118.171a.395.395,0,1,1,.395.377A.386.386,0,0,1,439.553,118.171Z" transform="translate(-414.704 -117.794)" fill="#fff"/>
            <path id="Trazado_99278" data-name="Trazado 99278" d="M448,118.171a.395.395,0,1,1,.394.377A.386.386,0,0,1,448,118.171Z" transform="translate(-426.7 -117.794)" fill="#fff"/>
            <path id="Trazado_99279" data-name="Trazado 99279" d="M456.445,118.171a.395.395,0,1,1,.394.377A.386.386,0,0,1,456.445,118.171Z" transform="translate(-438.696 -117.794)" fill="#fff"/>
            <path id="Trazado_99280" data-name="Trazado 99280" d="M464.892,118.171a.395.395,0,1,1,.395.377A.387.387,0,0,1,464.892,118.171Z" transform="translate(-450.693 -117.794)" fill="#fff"/>
            <path id="Trazado_99281" data-name="Trazado 99281" d="M473.338,118.171a.395.395,0,1,1,.394.377A.386.386,0,0,1,473.338,118.171Z" transform="translate(-462.689 -117.794)" fill="#fff"/>
            <path id="Trazado_99282" data-name="Trazado 99282" d="M481.784,118.171a.395.395,0,1,1,.394.377A.386.386,0,0,1,481.784,118.171Z" transform="translate(-474.684 -117.794)" fill="#fff"/>
            <path id="Trazado_99283" data-name="Trazado 99283" d="M490.231,118.171a.395.395,0,1,1,.395.377A.387.387,0,0,1,490.231,118.171Z" transform="translate(-486.681 -117.794)" fill="#fff"/>
            <path id="Trazado_99284" data-name="Trazado 99284" d="M498.677,118.171a.395.395,0,1,1,.395.377A.386.386,0,0,1,498.677,118.171Z" transform="translate(-498.677 -117.794)" fill="#fff"/>
          </g>
          <g id="Grupo_53316" data-name="Grupo 53316" transform="translate(0 3.018)">
            <ellipse id="Elipse_3980" data-name="Elipse 3980" cx="0.394" cy="0.377" rx="0.394" ry="0.377" transform="translate(35.498 0)" fill="#fff"/>
            <path id="Trazado_99285" data-name="Trazado 99285" d="M422.66,125.679a.395.395,0,1,1,.394.377A.386.386,0,0,1,422.66,125.679Z" transform="translate(-390.711 -125.302)" fill="#fff"/>
            <ellipse id="Elipse_3981" data-name="Elipse 3981" cx="0.394" cy="0.377" rx="0.394" ry="0.377" transform="translate(28.399 0)" fill="#fff"/>
            <path id="Trazado_99286" data-name="Trazado 99286" d="M439.553,125.679a.395.395,0,1,1,.395.377A.386.386,0,0,1,439.553,125.679Z" transform="translate(-414.704 -125.302)" fill="#fff"/>
            <path id="Trazado_99287" data-name="Trazado 99287" d="M448,125.679a.395.395,0,1,1,.394.377A.386.386,0,0,1,448,125.679Z" transform="translate(-426.7 -125.302)" fill="#fff"/>
            <ellipse id="Elipse_3982" data-name="Elipse 3982" cx="0.394" cy="0.377" rx="0.394" ry="0.377" transform="translate(17.749 0)" fill="#fff"/>
            <path id="Trazado_99288" data-name="Trazado 99288" d="M464.892,125.679a.395.395,0,1,1,.395.377A.386.386,0,0,1,464.892,125.679Z" transform="translate(-450.693 -125.302)" fill="#fff"/>
            <ellipse id="Elipse_3983" data-name="Elipse 3983" cx="0.394" cy="0.377" rx="0.394" ry="0.377" transform="translate(10.649 0)" fill="#fff"/>
            <ellipse id="Elipse_3984" data-name="Elipse 3984" cx="0.394" cy="0.377" rx="0.394" ry="0.377" transform="translate(7.1 0)" fill="#fff"/>
            <path id="Trazado_99289" data-name="Trazado 99289" d="M490.231,125.679a.395.395,0,1,1,.395.377A.386.386,0,0,1,490.231,125.679Z" transform="translate(-486.681 -125.302)" fill="#fff"/>
            <path id="Trazado_99290" data-name="Trazado 99290" d="M498.677,125.679a.395.395,0,1,1,.395.377A.386.386,0,0,1,498.677,125.679Z" transform="translate(-498.677 -125.302)" fill="#fff"/>
          </g>
          <g id="Grupo_53317" data-name="Grupo 53317" transform="translate(0 0)">
            <ellipse id="Elipse_3985" data-name="Elipse 3985" cx="0.394" cy="0.377" rx="0.394" ry="0.377" transform="translate(35.498 0)" fill="#fff"/>
            <path id="Trazado_99291" data-name="Trazado 99291" d="M422.66,133.187a.395.395,0,1,1,.394.377A.386.386,0,0,1,422.66,133.187Z" transform="translate(-390.711 -132.81)" fill="#fff"/>
            <ellipse id="Elipse_3986" data-name="Elipse 3986" cx="0.394" cy="0.377" rx="0.394" ry="0.377" transform="translate(28.399 0)" fill="#fff"/>
            <path id="Trazado_99292" data-name="Trazado 99292" d="M439.553,133.187a.395.395,0,1,1,.395.377A.386.386,0,0,1,439.553,133.187Z" transform="translate(-414.704 -132.81)" fill="#fff"/>
            <path id="Trazado_99293" data-name="Trazado 99293" d="M448,133.187a.395.395,0,1,1,.394.377A.386.386,0,0,1,448,133.187Z" transform="translate(-426.7 -132.81)" fill="#fff"/>
            <ellipse id="Elipse_3987" data-name="Elipse 3987" cx="0.394" cy="0.377" rx="0.394" ry="0.377" transform="translate(17.749 0)" fill="#fff"/>
            <path id="Trazado_99294" data-name="Trazado 99294" d="M464.892,133.187a.395.395,0,1,1,.395.377A.386.386,0,0,1,464.892,133.187Z" transform="translate(-450.693 -132.81)" fill="#fff"/>
            <ellipse id="Elipse_3988" data-name="Elipse 3988" cx="0.394" cy="0.377" rx="0.394" ry="0.377" transform="translate(10.649 0)" fill="#fff"/>
            <ellipse id="Elipse_3989" data-name="Elipse 3989" cx="0.394" cy="0.377" rx="0.394" ry="0.377" transform="translate(7.1 0)" fill="#fff"/>
            <path id="Trazado_99295" data-name="Trazado 99295" d="M490.231,133.187a.395.395,0,1,1,.395.377A.386.386,0,0,1,490.231,133.187Z" transform="translate(-486.681 -132.81)" fill="#fff"/>
            <path id="Trazado_99296" data-name="Trazado 99296" d="M498.677,133.187a.395.395,0,1,1,.395.377A.386.386,0,0,1,498.677,133.187Z" transform="translate(-498.677 -132.81)" fill="#fff"/>
          </g>
        </g>
        <line id="Línea_138" data-name="Línea 138" y1="77.169" transform="translate(289.298 126.229)" fill="none" stroke="#fff" stroke-width="1" stroke-dasharray="8"/>
      </g>
    </g>
  </g>
</svg>
