<svg xmlns="http://www.w3.org/2000/svg" xmlns:xlink="http://www.w3.org/1999/xlink" width="65" height="65" viewBox="0 0 65 65">
  <defs>
    <clipPath id="clip-path">
      <rect id="Rect치ngulo_35649" data-name="Rect치ngulo 35649" width="50.2" height="50.208" fill="#31313c"/>
    </clipPath>
  </defs>
  <g id="Grupo_158839" data-name="Grupo 158839" transform="translate(-1094.5 -2151)">
    <rect id="Rect치ngulo_35651" data-name="Rect치ngulo 35651" width="65" height="65" transform="translate(1094.5 2151)" fill="none"/>
    <g id="Grupo_158838" data-name="Grupo 158838" transform="translate(1102.259 2158.76)">
      <g id="Grupo_158837" data-name="Grupo 158837" clip-path="url(#clip-path)">
        <path id="Trazado_154257" data-name="Trazado 154257" d="M4.913,50.208c-.257-.237-.509-.48-.346-.877s.5-.409.859-.408q3.578.008,7.157,0h.611a5.954,5.954,0,0,1-.419-3.207,24.265,24.265,0,0,1,.251-5.275,12.158,12.158,0,0,1,7.549-8.989c.337-.142.513-.29.459-.666a4.234,4.234,0,0,1,0-.588c0-.851,0-.851-.834-1.38.057.346.088.641.159.926a.689.689,0,0,1-.283.854.676.676,0,0,1-.847-.137,14.316,14.316,0,0,1-2.894-3.109l-.3-.429c-1.182,1.853-2.8,2.664-4.938,2.028-1.866-.555-2.615-1.849-2.868-4.736-.159.066-.3.118-.441.185a10.787,10.787,0,0,0-6.478,9.785c-.082,1.646-.019,3.3-.015,4.95a1.508,1.508,0,0,0,1.612,1.635c1.421.014,2.843,0,4.264.005.567,0,.867.224.868.633s-.32.648-.866.649c-1.421,0-2.843.01-4.264,0a2.764,2.764,0,0,1-2.893-2.9C.024,37.149,0,35.138.107,33.134A10.763,10.763,0,0,1,1.929,27.87a1.784,1.784,0,0,0,.266-1c.041-1.5.129-3,.221-4.5.1-1.565.23-3.128.32-4.693a.927.927,0,0,0-.223-.593,2.843,2.843,0,0,1,.207-4.013,1.027,1.027,0,0,0,.287-.656C3.04,10.964,3,9.509,3.047,8.056A8.4,8.4,0,0,1,8.953.527a2.366,2.366,0,0,1,1.893.214.636.636,0,0,0,.71.03A3.285,3.285,0,0,1,14.031.529a9.831,9.831,0,0,1,5.8,4.153.946.946,0,0,1,.2.621c-.043.2-.261.475-.433.5a.945.945,0,0,1-.705-.259c-.36-.373-.621-.84-.971-1.226a8.462,8.462,0,0,0-4.265-2.551,2.146,2.146,0,0,0-1.934.417c-.52.4-.7.391-1.169-.075A1.25,1.25,0,0,0,9.2,1.8,7.069,7.069,0,0,0,4.352,7.875c-.1,1.559-.018,3.13-.018,4.749A4.231,4.231,0,0,0,7.555,10.4c.119-.213.2-.447.324-.659A2.015,2.015,0,0,1,9.7,8.628c1.519-.012,3.039-.017,4.558-.034a2.084,2.084,0,0,1,2.016,1.211c.209.4.471.771.74,1.207A11.033,11.033,0,0,1,25.1,7.807a9.224,9.224,0,0,1,7.631,3.88.675.675,0,0,0,.137-.124,28.08,28.08,0,0,1,5.068-5.625c.435-.407.868-.292,1.131.257.473.984.891,2,1.432,2.945a5.151,5.151,0,0,0,3.659,2.774,18.138,18.138,0,0,0,2.086.106c0-.305.014-.542,0-.776a20.164,20.164,0,0,0-.32-3.788C45.012,4.092,42.6,2.21,39.29,1.523a8.867,8.867,0,0,0-8.558,2.446,12.951,12.951,0,0,0-1.15,1.459c-.313.422-.645.547-.985.328s-.372-.606-.094-1.033a9.9,9.9,0,0,1,8.1-4.7,10.051,10.051,0,0,1,7.255,2.105,9.553,9.553,0,0,1,3.671,7.533c.009.408,0,.817,0,1.225a6.276,6.276,0,0,0,.315,2.244,3.015,3.015,0,0,1-1.99,3.938.518.518,0,0,0-.3.249c-1.019,2.683-1.017,2.685-2.848,4.643.773.493,1.587.94,2.319,1.494a12.2,12.2,0,0,1,5.1,8.584,1.031,1.031,0,0,0,.079.224v7.549c-.037.087-.08.172-.111.261A2.6,2.6,0,0,1,47.7,42.023c-1.727.091-3.462.043-5.194.029a.624.624,0,0,1-.62-.805c.11-.377.4-.473.762-.471,1.552.006,3.1.012,4.657,0a1.508,1.508,0,0,0,1.617-1.63c.005-1.994.07-3.99-.015-5.98a10.794,10.794,0,0,0-6.39-9.8c-.165-.082-.343-.141-.563-.23,0,.682.008,1.286,0,1.889a4.09,4.09,0,0,1-5.406,3.9,4.045,4.045,0,0,1-2.73-3.655c-.02-.464,0-.929,0-1.425a6.757,6.757,0,0,1-.932.391.571.571,0,0,0-.467.517,6.657,6.657,0,0,1-2.351,3.913,2.061,2.061,0,0,0-.894,2.011.786.786,0,0,0,.548.815,11.9,11.9,0,0,1,7.541,9.524,38.086,38.086,0,0,1,.186,5.083,4.942,4.942,0,0,1-.43,2.829h.606q3.726,0,7.451,0c.357,0,.694.012.862.4s-.094.636-.334.881ZM20.981,32.634c-3.963,1.8-6.354,4.76-6.823,9.073a52.082,52.082,0,0,0-.094,5.678,1.5,1.5,0,0,0,1.66,1.539q9.384,0,18.768,0a1.527,1.527,0,0,0,1.672-1.632c.012-1.519.03-3.039-.006-4.557a10.852,10.852,0,0,0-3.2-7.616,10.467,10.467,0,0,0-3.725-2.448c-.743,2.65-2.052,3.853-4.145,3.84s-3.407-1.23-4.107-3.878M33.15,19.276c0-.8.009-1.565,0-2.332a7.463,7.463,0,0,0-1.2-4.078A7.882,7.882,0,0,0,24.406,9.12c-3.935.248-6.858,2.069-8.374,5.762a12.071,12.071,0,0,0,1.261,11.583c.413.651.933,1.233,1.4,1.847a.368.368,0,0,0,.11-.292,16.358,16.358,0,0,1,1.484-8.338,18.337,18.337,0,0,1,4.637-6c.687-.619,1.042-.54,1.432.287a26,26,0,0,0,1.557,3.041,4.893,4.893,0,0,0,5.232,2.268M31.3,20.611a5.328,5.328,0,0,1-3.691-1.836,27,27,0,0,1-1.826-2.88,8.788,8.788,0,0,1-.4-.858A15.311,15.311,0,0,0,20.036,26.4a.9.9,0,0,0,.186.527,6.249,6.249,0,0,0,9.82-.063c1.459-1.891,1.324-4.049,1.258-6.256m6.882-13.1a21.875,21.875,0,0,0-4.348,4.927,1.124,1.124,0,0,0-.085,1.168,10.6,10.6,0,0,1,.687,4.755,4.123,4.123,0,0,0,.293,2.1,1.558,1.558,0,0,1,.144.714.555.555,0,0,0,.409.573,6.606,6.606,0,0,0,7.45-1.606c1.828-2,1.783-4.412,1.65-6.861a6.4,6.4,0,0,1-5.146-3.65c-.381-.682-.7-1.4-1.055-2.12M16.159,12c-.355-.553-.706-1.046-1-1.571a.954.954,0,0,0-.943-.55c-1.436.021-2.873.031-4.309.019a.944.944,0,0,0-.98.638,5.43,5.43,0,0,1-3.114,3.01.443.443,0,0,0-.332.5c.017.848,0,1.7.009,2.546a6.779,6.779,0,0,0,4.222,6.227,6.585,6.585,0,0,0,4.6.2A13.007,13.007,0,0,1,16.159,12m6.18,18.063c0,.91-.033,1.74.008,2.566a2.741,2.741,0,0,0,2.387,2.575,2.667,2.667,0,0,0,3.032-2.03,22.268,22.268,0,0,0,.174-3.129,7.851,7.851,0,0,1-5.6.019M40.622,23.1a8.193,8.193,0,0,1-5.523-.022c0,.752-.017,1.435,0,2.118a2.766,2.766,0,0,0,2.58,2.657,2.728,2.728,0,0,0,2.924-2.378,22.056,22.056,0,0,0,.015-2.375M14.667,24.27a8.253,8.253,0,0,1-5.044-.087,2.9,2.9,0,0,0,2.251,3.628,2.651,2.651,0,0,0,2.709-1.1,1.862,1.862,0,0,0,.084-2.44M7.422,22.99A8.145,8.145,0,0,1,4.37,18.229c-.025-.111-.144-.2-.219-.3l-.134.041c-.185,2.6-.37,5.206-.548,7.723l3.952-2.7M4.177,13.967c-.64-.035-1.05.395-1.108,1.108a1.38,1.38,0,0,0,1.108,1.487Zm41.544,1.739a1.588,1.588,0,0,0,1.018-1.628c-.011-.811-.2-.953-1.018-.739ZM32.668,20.645v2.313a1.643,1.643,0,0,0,.926-1.5c.049-.768-.106-.9-.926-.814" transform="translate(-0.009 0)" fill="#31313c"/>
        <path id="Trazado_154258" data-name="Trazado 154258" d="M.394,127.25c-.244-.24-.507-.475-.343-.872s.489-.421.849-.412c.454.01.908.007,1.362,0,.365,0,.722-.011.9.4s-.1.627-.319.881Z" transform="translate(0 -77.042)" fill="#31313c"/>
        <path id="Trazado_154259" data-name="Trazado 154259" d="M122.082,127.24c-.226-.247-.5-.473-.332-.874s.529-.417.9-.409.713.022,1.067,0a.951.951,0,0,1,.918.405v.882Z" transform="translate(-74.432 -77.032)" fill="#31313c"/>
        <path id="Trazado_154260" data-name="Trazado 154260" d="M26,105.822a.717.717,0,0,1-.76.71.745.745,0,0,1-.724-.758.76.76,0,0,1,.771-.718.736.736,0,0,1,.712.766" transform="translate(-14.995 -64.254)" fill="#31313c"/>
        <path id="Trazado_154261" data-name="Trazado 154261" d="M101.978,105.8a.72.72,0,0,1-.738.733.745.745,0,0,1-.746-.735.756.756,0,0,1,.747-.741.738.738,0,0,1,.736.743" transform="translate(-61.464 -64.254)" fill="#31313c"/>
        <path id="Trazado_154262" data-name="Trazado 154262" d="M57.47,54.867a.869.869,0,1,1-.849-1.063.965.965,0,0,1,.849,1.063" transform="translate(-34.115 -32.907)" fill="#31313c"/>
        <path id="Trazado_154263" data-name="Trazado 154263" d="M71.3,54.86a.983.983,0,0,1,.867-1.054A1.094,1.094,0,1,1,71.3,54.86" transform="translate(-43.609 -32.908)" fill="#31313c"/>
        <path id="Trazado_154264" data-name="Trazado 154264" d="M88.344,36.077a1,1,0,0,1,.891-1.094,1.13,1.13,0,1,1-.891,1.094" transform="translate(-54.032 -21.396)" fill="#31313c"/>
        <path id="Trazado_154265" data-name="Trazado 154265" d="M106.263,36.079a1.026,1.026,0,0,1-.884,1.108,1.131,1.131,0,0,1-.009-2.206,1.017,1.017,0,0,1,.893,1.1" transform="translate(-63.909 -21.395)" fill="#31313c"/>
        <path id="Trazado_154266" data-name="Trazado 154266" d="M22.4,37.612a.95.95,0,0,1-.849,1.065,1.081,1.081,0,0,1-.022-2.107.94.94,0,0,1,.87,1.042" transform="translate(-12.662 -22.366)" fill="#31313c"/>
      </g>
    </g>
  </g>
</svg>
