<svg xmlns="http://www.w3.org/2000/svg" xmlns:xlink="http://www.w3.org/1999/xlink" width="65" height="65" viewBox="0 0 65 65">
  <defs>
    <clipPath id="clip-path">
      <rect id="Rect치ngulo_35648" data-name="Rect치ngulo 35648" width="39.802" height="63.086" fill="#31313c"/>
    </clipPath>
  </defs>
  <g id="Grupo_158840" data-name="Grupo 158840" transform="translate(-450.5 -2151)">
    <rect id="Rect치ngulo_35650" data-name="Rect치ngulo 35650" width="65" height="65" transform="translate(450.5 2151)" fill="none"/>
    <g id="Grupo_158836" data-name="Grupo 158836" transform="translate(462.661 2151.914)">
      <g id="Grupo_158835" data-name="Grupo 158835" clip-path="url(#clip-path)">
        <path id="Trazado_154248" data-name="Trazado 154248" d="M35.052,0A12.563,12.563,0,0,1,36.268.39,5.42,5.42,0,0,1,39.76,5.128c.029.306.033.615.033.923q0,25.495.009,50.99a5.551,5.551,0,0,1-3.226,5.483,5.968,5.968,0,0,1-2.13.514c-1.185.085-2.381.035-3.571.025-.664,0-1.059-.381-1.043-.948a.921.921,0,0,1,1.037-.892c1.088-.011,2.176,0,3.264,0a3.683,3.683,0,0,0,3.8-3.627c.009-.164.008-.328.008-.493q0-25.556,0-51.113a4.09,4.09,0,0,0-.8-2.714,3.784,3.784,0,0,0-3.126-1.426q-10.994.013-21.989,0-3.111,0-6.221,0A3.7,3.7,0,0,0,1.854,5.813c-.011,2.935,0,5.871,0,8.806a3.658,3.658,0,0,1-.046.735.821.821,0,0,1-.882.7.822.822,0,0,1-.877-.706A3.8,3.8,0,0,1,0,14.612q0-4.249,0-8.5C0,2.815,1.45.938,4.65.074c.036-.01.064-.048.1-.073Z" transform="translate(-0.001 -0.001)" fill="#31313c"/>
        <path id="Trazado_154249" data-name="Trazado 154249" d="M0,61.315q0-9.33,0-18.659a6.145,6.145,0,0,1,.018-.677A.855.855,0,0,1,.9,41.136.87.87,0,0,1,1.833,42a6.939,6.939,0,0,1,.016.738q0,18.444,0,36.889a4.221,4.221,0,0,0,.564,2.418A3.728,3.728,0,0,0,5.736,83.8q10.04-.008,20.08,0c.185,0,.37-.007.554,0a.921.921,0,1,1,.03,1.842c-.1.008-.205,0-.308,0q-10.194,0-20.388,0A5.5,5.5,0,0,1,.14,81.257a8.157,8.157,0,0,1-.134-1.713Q-.008,70.429,0,61.315" transform="translate(0 -22.577)" fill="#31313c"/>
        <path id="Trazado_154250" data-name="Trazado 154250" d="M18.42,57.863c.171-.558.258-.959.415-1.33.3-.716.639-1.421.978-2.121a.729.729,0,0,0-.152-.942c-.908-.892-1.8-1.8-2.7-2.7a.616.616,0,0,0-1.005.017c-.952.964-1.924,1.909-2.869,2.879a1.986,1.986,0,0,0-.374,2.486,33.149,33.149,0,0,0,6.938,9.489c.718.676.837,1.206.379,1.662s-.928.357-1.64-.314A34.667,34.667,0,0,1,11.05,56.96a3.83,3.83,0,0,1,.76-4.635q1.426-1.448,2.876-2.872a2.373,2.373,0,0,1,3.552-.007q1.387,1.356,2.743,2.743a2.424,2.424,0,0,1,.513,2.986c-.311.691-.626,1.382-.962,2.061a.8.8,0,0,0,.17,1.046q2.5,2.468,4.964,4.964a.8.8,0,0,0,1.049.16c.7-.341,1.409-.664,2.12-.983a2.382,2.382,0,0,1,2.88.5q1.431,1.4,2.83,2.831a2.347,2.347,0,0,1,.022,3.419c-1.012,1.048-2.04,2.083-3.094,3.089a3.7,3.7,0,0,1-4.384.66c-1.592-.844-3.131-1.787-4.676-2.715a.936.936,0,0,1-.4-1.4c.314-.444.827-.478,1.417-.127,1.391.827,2.776,1.668,4.192,2.453a2.051,2.051,0,0,0,2.827-.443q1.31-1.3,2.613-2.613c.493-.5.5-.7.028-1.175-.852-.861-1.72-1.706-2.563-2.576a.792.792,0,0,0-1.043-.181c-.7.345-1.409.663-2.119.984a2.4,2.4,0,0,1-2.889-.478c-1.752-1.732-3.512-3.457-5.21-5.24a6.485,6.485,0,0,1-.845-1.552" transform="translate(-5.812 -26.703)" fill="#31313c"/>
        <path id="Trazado_154251" data-name="Trazado 154251" d="M53.752,56.866a.894.894,0,0,1-.734.962.883.883,0,0,1-1.061-.624A24.7,24.7,0,0,0,51,54.877a12.313,12.313,0,0,0-7.224-6.128c-.136-.046-.276-.082-.408-.136a.92.92,0,0,1-.6-1.177.859.859,0,0,1,1.141-.555,22.1,22.1,0,0,1,3.265,1.4,14.012,14.012,0,0,1,6.467,8.136c.05.156.08.317.113.448" transform="translate(-23.444 -25.697)" fill="#31313c"/>
        <path id="Trazado_154252" data-name="Trazado 154252" d="M64.667,48.42a3.789,3.789,0,0,1,.778.491,20.276,20.276,0,0,1,4.56,8.054.922.922,0,0,1-.589,1.234.9.9,0,0,1-1.146-.658A20.047,20.047,0,0,0,64.087,50.1a1.319,1.319,0,0,1-.147-1.059c.066-.243.452-.4.728-.62" transform="translate(-35.069 -26.576)" fill="#31313c"/>
        <path id="Trazado_154253" data-name="Trazado 154253" d="M41.778,57.98a3.743,3.743,0,0,1,.4.088A8.141,8.141,0,0,1,47.6,63.5a.926.926,0,1,1-1.742.579A6.413,6.413,0,0,0,41.6,59.818a.928.928,0,0,1,.18-1.838" transform="translate(-22.42 -31.823)" fill="#31313c"/>
        <path id="Trazado_154254" data-name="Trazado 154254" d="M44.761,36.385c.1.022.216.043.333.077a20.306,20.306,0,0,1,5.645,2.646c.377.252.631.623.443,1.036a1.679,1.679,0,0,1-.772.671.788.788,0,0,1-.624-.14,20.134,20.134,0,0,0-5.258-2.47.872.872,0,0,1-.68-1.025.917.917,0,0,1,.913-.8" transform="translate(-24.06 -19.97)" fill="#31313c"/>
        <path id="Trazado_154255" data-name="Trazado 154255" d="M36.036,8.19c.942,0,1.885-.005,2.827,0,.711.005,1.119.365,1.1.95-.017.556-.415.891-1.1.893q-2.889.009-5.777,0c-.711,0-1.117-.365-1.1-.951.016-.556.413-.887,1.1-.892.983-.007,1.966,0,2.95,0" transform="translate(-17.558 -4.494)" fill="#31313c"/>
        <path id="Trazado_154256" data-name="Trazado 154256" d="M54.285,9.135A.909.909,0,1,1,53.36,8.2a.917.917,0,0,1,.925.933" transform="translate(-28.798 -4.502)" fill="#31313c"/>
      </g>
    </g>
  </g>
</svg>
