<svg xmlns="http://www.w3.org/2000/svg" xmlns:xlink="http://www.w3.org/1999/xlink" width="84" height="92" viewBox="0 0 84 92">
  <defs>
    <clipPath id="clip-path">
      <rect id="Rectángulo_34949" data-name="Rectángulo 34949" width="83" height="51" transform="translate(0)" fill="#12263f"/>
    </clipPath>
    <clipPath id="clip-path-2">
      <rect id="Rectángulo_35034" data-name="Rectángulo 35034" width="67.901" height="58.372" fill="#fd9827"/>
    </clipPath>
  </defs>
  <g id="Grupo_157988" data-name="Grupo 157988" transform="translate(-823 -540)">
    <g id="Rectángulo_34947" data-name="Rectángulo 34947" transform="translate(823 540)" fill="none" stroke="#31313c" stroke-width="3">
      <rect width="84" height="92" rx="8" stroke="none"/>
      <rect x="1.5" y="1.5" width="81" height="89" rx="6.5" fill="none"/>
    </g>
    <g id="Enmascarar_grupo_68" data-name="Enmascarar grupo 68" transform="translate(823 623) rotate(-90)" clip-path="url(#clip-path)">
      <path id="Trazado_151731" data-name="Trazado 151731" d="M39.7,16.715A22.983,22.983,0,1,1,16.715,39.7,23.009,23.009,0,0,1,39.7,16.715M39.7,0A39.7,39.7,0,1,0,79.4,39.7,39.7,39.7,0,0,0,39.7,0Z" transform="translate(1.54 -33.33)" fill="#fd9827"/>
    </g>
    <g id="Grupo_157985" data-name="Grupo 157985" transform="translate(831 557)">
      <g id="Grupo_157984" data-name="Grupo 157984" transform="translate(0 0)" clip-path="url(#clip-path-2)">
        <path id="Trazado_151771" data-name="Trazado 151771" d="M67.806,55.772q-13.56-22.5-27.1-45.01c-1.09-1.821-2.61-1.853-3.726.016-7.407,12.4-14.892,24.76-22.351,37.132q-2.478,4.109-4.951,8.219a1.714,1.714,0,0,0,.389,2.456,2.4,2.4,0,0,0,1.4.3q13.694,0,27.389,0,13.628,0,27.256,0a4.413,4.413,0,0,0,.923-.061,1.641,1.641,0,0,0,1.185-2.3,6.129,6.129,0,0,0-.418-.749M37.585,23.3a3.46,3.46,0,0,1,3.765.852,2.788,2.788,0,0,1,.458,1.819c-.029,4.687-.4,9.361-.5,14.044-.013.6-.078,1.2-.041,1.789.094,1.49-.618,2.094-2.108,2.333a3.1,3.1,0,0,1-1.561-.2,1.653,1.653,0,0,1-1.143-1.675c-.073-2.783-.17-5.566-.235-7.61-.2-3.386-.289-6.036-.324-8.688a2.4,2.4,0,0,1,1.693-2.67m1.328,30.019A3.161,3.161,0,0,1,38.926,47a3.161,3.161,0,0,1-.012,6.322" transform="translate(-4.896 -4.92)" fill="#fff0de"/>
        <path id="Trazado_151772" data-name="Trazado 151772" d="M44.637,11.978q-2.664-4.42-5.33-8.837A5.974,5.974,0,0,0,34.244.007,6.062,6.062,0,0,0,28.52,3.264c-6.145,10.2-12.346,20.368-18.421,30.61C6.69,39.621,2.843,45.117,0,51.194v1.99a14.337,14.337,0,0,0,.506,1.474,6.056,6.056,0,0,0,5.957,3.714q27.484-.008,54.968,0c.221,0,.442,0,.663-.012a5.857,5.857,0,0,0,3.577-1.375,6.073,6.073,0,0,0,1.2-8.117Q55.759,30.418,44.637,11.978M62.143,53.9a4.444,4.444,0,0,1-.922.061q-13.628,0-27.257,0-13.694,0-27.389,0a2.4,2.4,0,0,1-1.4-.3,1.714,1.714,0,0,1-.389-2.456q2.466-4.115,4.951-8.218C17.2,30.618,24.681,18.262,32.087,5.858c1.116-1.87,2.636-1.837,3.726-.017q13.492,22.539,27.1,45.011a6.123,6.123,0,0,1,.418.749,1.641,1.641,0,0,1-1.185,2.3" transform="translate(0 0)" fill="#31313c"/>
        <path id="Trazado_151773" data-name="Trazado 151773" d="M65.7,57.361a1.654,1.654,0,0,0,1.143,1.675,3.109,3.109,0,0,0,1.561.2c1.49-.239,2.2-.843,2.108-2.334-.037-.593.028-1.192.041-1.789.1-4.684.475-9.358.5-14.044a2.791,2.791,0,0,0-.459-1.82,3.46,3.46,0,0,0-3.764-.852,2.4,2.4,0,0,0-1.693,2.669c.034,2.652.126,5.3.324,8.688.065,2.044.162,4.827.235,7.61" transform="translate(-34.142 -20.012)" fill="#31313c"/>
        <path id="Trazado_151774" data-name="Trazado 151774" d="M68.043,88.431a3.161,3.161,0,0,0-.012,6.322,3.161,3.161,0,0,0,.012-6.322" transform="translate(-34.013 -46.351)" fill="#31313c"/>
      </g>
    </g>
  </g>
</svg>
