<svg xmlns="http://www.w3.org/2000/svg" xmlns:xlink="http://www.w3.org/1999/xlink" width="84" height="70" viewBox="0 0 84 70">
  <defs>
    <clipPath id="clip-path">
      <rect id="Rect치ngulo_35034" data-name="Rect치ngulo 35034" width="49.9" height="42.897" fill="#fd9827"/>
    </clipPath>
  </defs>
  <g id="Grupo_968441" data-name="Grupo 968441" transform="translate(-180.273 -497)">
    <g id="Rect치ngulo_337069" data-name="Rect치ngulo 337069" transform="translate(180.273 497)" fill="none" stroke="#31313c" stroke-width="3">
      <rect width="84" height="70" rx="8" stroke="none"/>
      <rect x="1.5" y="1.5" width="81" height="67" rx="6.5" fill="none"/>
    </g>
    <g id="Grupo_960340" data-name="Grupo 960340" transform="translate(197.273 510)">
      <g id="Grupo_157984" data-name="Grupo 157984" transform="translate(0 0)" clip-path="url(#clip-path)">
        <path id="Trazado_151771" data-name="Trazado 151771" d="M52.306,43.475Q42.341,26.941,32.393,10.4c-.8-1.338-1.918-1.362-2.738.012C24.212,19.524,18.711,28.6,13.229,37.7q-1.821,3.02-3.639,6.04a1.259,1.259,0,0,0,.286,1.8,1.763,1.763,0,0,0,1.03.222q10.064,0,20.128,0,10.015,0,20.03,0a3.243,3.243,0,0,0,.678-.045,1.206,1.206,0,0,0,.871-1.689,4.5,4.5,0,0,0-.307-.551M30.1,19.612a2.543,2.543,0,0,1,2.767.626,2.049,2.049,0,0,1,.337,1.337c-.021,3.444-.294,6.879-.37,10.321-.009.439-.057.879-.03,1.315.069,1.095-.454,1.539-1.549,1.715a2.277,2.277,0,0,1-1.147-.144,1.215,1.215,0,0,1-.84-1.231c-.054-2.045-.125-4.09-.172-5.592-.145-2.488-.213-4.436-.238-6.384A1.766,1.766,0,0,1,30.1,19.612m.976,22.061a2.323,2.323,0,0,1,.009-4.646,2.323,2.323,0,0,1-.009,4.646" transform="translate(-6.074 -6.104)" fill="#ebc9b1"/>
        <path id="Trazado_151772" data-name="Trazado 151772" d="M32.8,8.8q-1.958-3.248-3.917-6.495A4.39,4.39,0,0,0,25.166,0,4.455,4.455,0,0,0,20.959,2.4c-4.516,7.5-9.073,14.968-13.537,22.5C4.917,29.118,2.089,33.156,0,37.622v1.462a10.536,10.536,0,0,0,.372,1.083A4.451,4.451,0,0,0,4.75,42.9q20.2-.006,40.4,0c.162,0,.325,0,.487-.009a4.3,4.3,0,0,0,2.629-1.011,4.463,4.463,0,0,0,.882-5.966Q40.977,22.354,32.8,8.8M45.669,39.611a3.266,3.266,0,0,1-.678.045q-10.015,0-20.031,0-10.064,0-20.128,0a1.761,1.761,0,0,1-1.03-.222,1.259,1.259,0,0,1-.286-1.8q1.812-3.024,3.639-6.04C12.637,22.5,18.138,13.42,23.581,4.305c.82-1.374,1.937-1.35,2.738-.012q9.915,16.564,19.913,33.078a4.5,4.5,0,0,1,.307.55,1.206,1.206,0,0,1-.871,1.69" transform="translate(0 0)" fill="#31313c"/>
        <path id="Trazado_151773" data-name="Trazado 151773" d="M65.549,52.276a1.215,1.215,0,0,0,.84,1.231,2.285,2.285,0,0,0,1.147.144c1.095-.176,1.618-.62,1.549-1.715-.027-.436.021-.876.03-1.315.076-3.442.349-6.877.37-10.321a2.051,2.051,0,0,0-.337-1.337,2.543,2.543,0,0,0-2.766-.626A1.766,1.766,0,0,0,65.138,40.3c.025,1.949.092,3.9.238,6.385.048,1.5.119,3.547.173,5.592" transform="translate(-42.359 -24.828)" fill="#31313c"/>
        <path id="Trazado_151774" data-name="Trazado 151774" d="M67.208,88.431a2.323,2.323,0,0,0-.009,4.646,2.323,2.323,0,0,0,.009-4.646" transform="translate(-42.199 -57.507)" fill="#31313c"/>
      </g>
    </g>
  </g>
</svg>
