<svg id="Grupo_960253" data-name="Grupo 960253" xmlns="http://www.w3.org/2000/svg" xmlns:xlink="http://www.w3.org/1999/xlink" width="89.422" height="103.822" viewBox="0 0 89.422 103.822">
  <defs>
    <clipPath id="clip-path">
      <rect id="Rectángulo_34870" data-name="Rectángulo 34870" width="89.422" height="103.822" fill="none"/>
    </clipPath>
  </defs>
  <g id="Grupo_80182" data-name="Grupo 80182" transform="translate(0 0)" clip-path="url(#clip-path)">
    <path id="Trazado_151723" data-name="Trazado 151723" d="M23.449,75.01l15.662,18s-15.232,16.716-23.8,8.572A16.092,16.092,0,0,1,13.6,96.776c-1.039-8.947,2.564-25.624,2.564-25.624Z" transform="translate(36.9 0)" fill="#08101a"/>
    <path id="Trazado_151724" data-name="Trazado 151724" d="M2.061,40.291,7.148,46.5l.8.994,22.6,27.6.777.971,6.733,8.219.857,1.051L52.2,101.579a.184.184,0,0,0-.011-.045c-.172-.538-1.68-6.207,4.16-15.877a27.069,27.069,0,0,1,7.11-7.075C73.625,71.1,89.422,64.866,89.422,64.866S76.014,50.361,59.212,30.861C47.793,17.625,35.746,0,35.746,0S17.915,9.715,10.2,17.431c-5.213,5.212-14.288,12.71-8.139,22.86" transform="translate(0 0)" fill="#31313c"/>
    <path id="Trazado_151725" data-name="Trazado 151725" d="M22.14,84.286,23,85.337a33.248,33.248,0,0,1,3.612-8.115c5.464-8.7,15.076-13.739,24.369-17.328.686-.263.389-1.372-.3-1.109-9.59,3.7-19.431,8.893-25.055,17.854a33.079,33.079,0,0,0-3.486,7.647" transform="translate(15.915 0)" fill="#fff"/>
    <path id="Trazado_151726" data-name="Trazado 151726" d="M31.179,75.1l.777.972A50.283,50.283,0,0,1,58.5,50.75c.675-.274.377-1.383-.309-1.109A51.553,51.553,0,0,0,31.179,75.1" transform="translate(-0.634 0)" fill="#fff"/>
    <path id="Trazado_151727" data-name="Trazado 151727" d="M53.681,46.5l.8.994A50.3,50.3,0,0,1,81.9,20.186c.663-.286.366-1.383-.308-1.109A51.585,51.585,0,0,0,53.681,46.5" transform="translate(-46.533 0)" fill="#fff"/>
  </g>
</svg>
