<svg xmlns="http://www.w3.org/2000/svg" width="143.271" height="160.339" viewBox="0 0 143.271 160.339">
  <g id="Grupo_158226" data-name="Grupo 158226" transform="translate(55.732) rotate(25)">
    <g id="Grupo_80184" data-name="Grupo 80184">
      <path id="Trazado_151717" data-name="Trazado 151717" d="M0,131.875S12.254,101.48,15.559,70.009c3.3-31.433,0-53.436,0-53.436S43.435,14,62.294,9.715A347.763,347.763,0,0,0,96.585,0s.163,30.986-2.286,49.721c-5.193,39.72-14.1,57.865-14.1,57.865s-8.417,7.6-34.481,14.716C18.86,129.64,0,131.875,0,131.875" fill="#fff"/>
      <path id="Trazado_151718" data-name="Trazado 151718" d="M37.718,30.861a.571.571,0,0,1-.065-1.139c.132-.015,13.238-1.547,23.567-3.8s21.169-5.854,21.278-5.89a.571.571,0,1,1,.361,1.084c-.109.036-11.008,3.656-21.4,5.922s-23.546,3.8-23.678,3.819a.5.5,0,0,1-.067,0" fill="#31313c"/>
      <path id="Trazado_151719" data-name="Trazado 151719" d="M28.444,60.008a.571.571,0,0,1-.069-1.138c.191-.024,19.176-2.379,29.508-4.633s27-7.3,27.166-7.349a.572.572,0,0,1,.333,1.094c-.168.051-16.875,5.107-27.255,7.371S28.706,59.98,28.515,60a.574.574,0,0,1-.071,0" fill="#31313c"/>
      <path id="Trazado_151720" data-name="Trazado 151720" d="M27.086,71.723a.571.571,0,0,1-.069-1.137c.191-.024,19.177-2.379,29.508-4.634s27-7.3,27.166-7.348a.572.572,0,0,1,.333,1.094c-.168.051-16.874,5.107-27.255,7.371S27.348,71.695,27.158,71.72l-.072,0" fill="#31313c"/>
      <path id="Trazado_151721" data-name="Trazado 151721" d="M25.907,83.725a.572.572,0,0,1-.069-1.139c.191-.023,19.177-2.378,29.507-4.632s27-7.3,27.167-7.349a.572.572,0,0,1,.333,1.094c-.169.051-16.877,5.107-27.256,7.371s-29.42,4.627-29.61,4.65a.451.451,0,0,1-.072,0" fill="#31313c"/>
      <path id="Trazado_151722" data-name="Trazado 151722" d="M24.236,95.727a.571.571,0,0,1-.069-1.138c.191-.024,19.176-2.379,29.507-4.633a.571.571,0,0,1,.244,1.116C43.535,93.338,24.5,95.7,24.307,95.723a.574.574,0,0,1-.071,0" fill="#31313c"/>
    </g>
  </g>
</svg>
