<svg xmlns="http://www.w3.org/2000/svg" xmlns:xlink="http://www.w3.org/1999/xlink" width="1328" height="1115.677" viewBox="0 0 1328 1115.677">
  <defs>
    <linearGradient id="linear-gradient" x1="0.5" x2="0.5" y2="1" gradientUnits="objectBoundingBox">
      <stop offset="0" stop-color="#fd9827"/>
      <stop offset="1" stop-color="#31313c"/>
    </linearGradient>
  </defs>
  <path id="Trazado_153136" data-name="Trazado 153136" d="M6028,2461.435v-881.87h.3V1345.758c3.4,3.778,6.541,7.839,10.249,11.288,27.771,25.831,53.827,53.946,83.885,76.781,59.6,45.267,125.685,53.063,195.14,23.875q36.258-15.237,71.564-32.705c43.56-21.61,88.791-34.452,137.993-31.578,30.8,1.8,57.989,11.352,81.694,31.4,35.479,30,60.184,68.871,88.137,105.126,14.812,19.212,29.934,38.339,46.533,55.985,34.137,36.291,75.608,52.908,126.534,48.386,54.781-4.866,100.545-23.331,133.614-69.485,27.595-38.513,55.555-76.946,85.981-113.205,49.25-58.692,113.563-78.438,187.94-63.294,26.627,5.419,52.316,15.431,78.436,23.346V2461.435Z" transform="translate(-6027.999 -1345.758)" opacity="0.129" fill="url(#linear-gradient)"/>
</svg>
