<svg id="Grupo_159263" data-name="Grupo 159263" xmlns="http://www.w3.org/2000/svg" xmlns:xlink="http://www.w3.org/1999/xlink" width="1240" height="331.635" viewBox="0 0 1240 331.635">
  <defs>
    <clipPath id="clip-path">
      <path id="Rectangle_652" data-name="Rectangle 652" d="M19.527,331.635H1220.473c10.785,0,19.527-5.5,19.527-12.283V12.283C1240,5.5,1231.257,0,1220.473,0H19.527C8.743,0,0,5.5,0,12.283v307.07C0,326.136,8.743,331.635,19.527,331.635Z" transform="translate(0 0)" fill="none" opacity="0.238"/>
    </clipPath>
    <clipPath id="clip-path-2">
      <rect id="Rectángulo_34915" data-name="Rectángulo 34915" width="129" height="53.685" fill="#fff" stroke="#707070" stroke-width="1"/>
    </clipPath>
  </defs>
  <rect id="Rectángulo_34912" data-name="Rectángulo 34912" width="1240" height="330.187" transform="translate(0 1.448)" fill="#fff0de"/>
  <g id="Grupo_80238" data-name="Grupo 80238" transform="translate(0 0)" clip-path="url(#clip-path)">
    <g id="Grupo_80237" data-name="Grupo 80237" transform="translate(1095 -0.001)" clip-path="url(#clip-path-2)">
      <g id="Grupo_80236" data-name="Grupo 80236" transform="translate(1 -61.874)">
        <path id="Sustracción_11" data-name="Sustracción 11" d="M62.5,113.74a68.985,68.985,0,0,1-12.6-1.155,66.775,66.775,0,0,1-11.732-3.314,64.681,64.681,0,0,1-10.617-5.243,62.07,62.07,0,0,1-9.25-6.944,58.838,58.838,0,0,1-7.632-8.417,55.477,55.477,0,0,1-5.762-9.66A52.927,52.927,0,0,1,1.27,68.331a52.362,52.362,0,0,1,0-22.923A52.926,52.926,0,0,1,4.912,34.734a55.476,55.476,0,0,1,5.762-9.66,58.838,58.838,0,0,1,7.632-8.417,62.069,62.069,0,0,1,9.25-6.944A64.68,64.68,0,0,1,38.172,4.469,66.776,66.776,0,0,1,49.9,1.155a69.238,69.238,0,0,1,25.192,0A66.775,66.775,0,0,1,86.828,4.469,64.679,64.679,0,0,1,97.444,9.713a62.07,62.07,0,0,1,9.25,6.944,58.838,58.838,0,0,1,7.632,8.417,55.477,55.477,0,0,1,5.762,9.66,52.927,52.927,0,0,1,3.642,10.675,52.362,52.362,0,0,1,0,22.923,52.927,52.927,0,0,1-3.642,10.675,55.478,55.478,0,0,1-5.762,9.66,58.838,58.838,0,0,1-7.632,8.417,62.07,62.07,0,0,1-9.25,6.944,64.681,64.681,0,0,1-10.617,5.243A66.774,66.774,0,0,1,75.1,112.585,68.985,68.985,0,0,1,62.5,113.74Zm-.233-86.751a35.989,35.989,0,0,0-6.571.6,34.834,34.834,0,0,0-6.121,1.729,33.744,33.744,0,0,0-5.539,2.735,32.382,32.382,0,0,0-4.826,3.623A30.694,30.694,0,0,0,35.23,40.07a28.941,28.941,0,0,0-3.006,5.04,27.609,27.609,0,0,0-1.9,5.569,27.317,27.317,0,0,0,0,11.959,27.61,27.61,0,0,0,1.9,5.569,28.943,28.943,0,0,0,3.006,5.04,30.694,30.694,0,0,0,3.981,4.391,32.381,32.381,0,0,0,4.826,3.623A33.744,33.744,0,0,0,49.575,84,34.834,34.834,0,0,0,55.7,85.725a36.12,36.12,0,0,0,13.142,0A34.833,34.833,0,0,0,74.959,84,33.744,33.744,0,0,0,80.5,81.26a32.381,32.381,0,0,0,4.826-3.623A30.7,30.7,0,0,0,89.3,73.247a28.943,28.943,0,0,0,3.006-5.04,27.61,27.61,0,0,0,1.9-5.569,27.317,27.317,0,0,0,0-11.959,27.609,27.609,0,0,0-1.9-5.569A28.943,28.943,0,0,0,89.3,40.07a30.7,30.7,0,0,0-3.981-4.391A32.383,32.383,0,0,0,80.5,32.056a33.744,33.744,0,0,0-5.539-2.735,34.833,34.833,0,0,0-6.12-1.729A35.988,35.988,0,0,0,62.267,26.989Z" transform="translate(125 113.74) rotate(180)" fill="#fd9827"/>
      </g>
    </g>
    <g id="Grupo_159230" data-name="Grupo 159230" transform="translate(-552.098 -227.115)">
      <path id="Trazado_151747" data-name="Trazado 151747" d="M1561.513-47.193l-132.8,329.071L1457.2,429.837,1212.771,561.4c-3.044-3.174-5.84-6.6-9.18-9.48-25.016-21.568-48.371-45.165-75.6-64.069-53.981-37.474-115.087-42.287-180.406-14.951q-34.1,14.27-67.379,30.446c-41.062,20.008-83.419,32.466-129,31.422-28.529-.653-53.485-8.132-74.9-24.8-32.047-24.956-53.831-57.912-78.709-88.507-13.182-16.213-26.654-32.343-41.542-47.146-30.616-30.444-68.616-43.625-116.013-38.208-50.985,5.828-94,23.175-126.048,64.143-26.742,34.185-53.821,68.312-83.125,100.629-47.433,52.309-107.7,71.312-176.286,60.376-24.553-3.913-48.1-11.834-72.109-17.924L148.01,148.1Z" transform="translate(1496.436 1089.011) rotate(-158)" fill="#fd9827" opacity="0.166"/>
      <path id="Trazado_151748" data-name="Trazado 151748" d="M983.334,93.694s-86.519,1.744-233.393,81.633-162.974-59.516-251.588-57.776S386.132,179.26,290.238,164.2,170.727,82.943,56.256,113.8,34.514,18.943,34.514,18.943L971.475-8.69Z" transform="matrix(-0.995, -0.105, 0.105, -0.995, 1400.414, 747.879)" fill="none" stroke="#12263f" stroke-width="3" stroke-dasharray="11" opacity="0.142"/>
      <path id="Trazado_151749" data-name="Trazado 151749" d="M1813.224,648.435,1683.3,268.987l45.672-177.33L1451.2-45.466c-3.852,3.99-7.43,8.259-11.607,11.923-31.281,27.439-60.769,57.154-94.441,81.607-66.763,48.476-139.276,58.83-214.141,31.446q-39.082-14.3-77.044-30.909c-46.834-20.557-95.81-32.078-149.69-27.37-33.724,2.947-63.789,13.7-90.418,35.072C774,88.289,745.6,128.962,713.748,167.078c-16.878,20.2-34.093,40.32-52.87,58.979-38.614,38.374-84.538,56.873-140.037,54.073-59.7-3.014-109.056-20.273-143.543-66.331C348.52,175.366,319.341,137.029,287.387,101,235.665,42.694,166.081,24.79,84.243,42.962c-29.3,6.5-57.735,17.674-86.567,26.714L160.845,524.943Z" transform="matrix(0.921, 0.391, -0.391, 0.921, 446.884, 117.687)" fill="#fd9827" opacity="0.166"/>
      <path id="Trazado_151750" data-name="Trazado 151750" d="M1813.224,648.435,1683.3,268.987l45.672-177.33L1451.2-45.466c-3.852,3.99-7.43,8.259-11.607,11.923-31.281,27.439-60.769,57.154-94.441,81.607-66.763,48.476-139.276,58.83-214.141,31.446q-39.082-14.3-77.044-30.909c-46.834-20.557-95.81-32.078-149.69-27.37-33.724,2.947-63.789,13.7-90.418,35.072C774,88.289,745.6,128.962,713.748,167.078c-16.878,20.2-34.093,40.32-52.87,58.979-38.614,38.374-84.538,56.873-140.037,54.073-59.7-3.014-109.056-20.273-143.543-66.331C348.52,175.366,319.341,137.029,287.387,101,235.665,42.694,166.081,24.79,84.243,42.962c-29.3,6.5-57.735,17.674-86.567,26.714L160.845,524.943Z" transform="matrix(0.921, 0.391, -0.391, 0.921, 297.521, 69.819)" fill="none" stroke="#31313c" stroke-width="3" opacity="0.166"/>
      <path id="Trazado_151751" data-name="Trazado 151751" d="M1345.4-47.628,1229.348,240.149l23.79,129.011L1041.929,485.042c-2.606-2.757-5-5.736-7.86-8.234-21.438-18.715-41.437-39.209-64.793-55.59-46.308-32.472-98.919-36.408-155.32-12.267q-29.443,12.6-58.192,26.864c-35.471,17.64-72.018,28.7-111.273,27.983-24.57-.446-46.03-6.865-64.389-21.324-27.478-21.642-46.076-50.311-67.351-76.906-11.273-14.093-22.8-28.112-35.545-40.968-26.218-26.438-58.884-37.777-99.738-32.845-43.946,5.307-81.086,20.634-108.9,56.528-23.208,29.952-46.7,59.854-72.109,88.185-41.121,45.859-93.13,62.705-152.152,53.458C23.18,486.618,2.937,479.807-17.712,474.6L126.861,128.94Z" transform="matrix(-0.891, -0.454, 0.454, -0.891, 1313.897, 1054.008)" fill="none" stroke="#fff" stroke-width="1" opacity="0.81"/>
    </g>
  </g>
</svg>
