<svg xmlns="http://www.w3.org/2000/svg" xmlns:xlink="http://www.w3.org/1999/xlink" width="1328.672" height="1635.18" viewBox="0 0 1328.672 1635.18">
  <defs>
    <linearGradient id="linear-gradient" x1="0.5" x2="0.5" y2="1" gradientUnits="objectBoundingBox">
      <stop offset="0" stop-color="#fd9827"/>
      <stop offset="1" stop-color="#31313c"/>
    </linearGradient>
  </defs>
  <path id="Trazado_151768" data-name="Trazado 151768" d="M7355.327,2980.938,7356,1542.971h-.3V1345.758c-3.4,3.187-6.541,6.612-10.249,9.521-27.771,21.788-53.827,45.5-83.885,64.763-59.6,38.182-125.685,44.758-195.14,20.139q-36.258-12.852-71.564-27.586c-43.56-18.228-88.791-29.06-137.993-26.635-30.8,1.517-57.989,9.575-81.694,26.483-35.479,25.307-60.184,58.092-88.137,88.673-14.812,16.2-29.934,32.338-46.533,47.222-34.137,30.611-75.608,44.627-126.534,40.813-54.781-4.1-100.545-19.68-133.614-58.61-27.595-32.485-55.555-64.9-85.981-95.487-49.25-49.506-113.562-66.162-187.94-53.388-26.627,4.571-52.316,13.016-78.436,19.692l-.672,1579.582Z" transform="translate(-6027.327 -1345.758)" opacity="0.129" fill="url(#linear-gradient)"/>
</svg>
