<svg xmlns="http://www.w3.org/2000/svg" xmlns:xlink="http://www.w3.org/1999/xlink" width="400" height="298" viewBox="0 0 400 298">
  <defs>
    <clipPath id="clip-path">
      <rect id="Rectángulo_337081" data-name="Rectángulo 337081" width="400" height="298" rx="10" transform="translate(0.273)" fill="#fff" stroke="#707070" stroke-width="1" opacity="0.45"/>
    </clipPath>
    <clipPath id="clip-path-2">
      <rect id="Rectángulo_337079" data-name="Rectángulo 337079" width="736" height="298" rx="10" transform="translate(-0.448)" fill="#c0c942" stroke="#138af8" stroke-linecap="round" stroke-width="4" opacity="0.31"/>
    </clipPath>
    <clipPath id="clip-path-3">
      <rect id="Rectángulo_35890" data-name="Rectángulo 35890" width="77.767" height="44.307" transform="translate(0 0)" fill="#fff" stroke="#707070" stroke-width="1"/>
    </clipPath>
    <clipPath id="clip-path-4">
      <rect id="Rectángulo_337080" data-name="Rectángulo 337080" width="71.876" height="32.458" transform="translate(0 0)" fill="#fff" stroke="#707070" stroke-width="1"/>
    </clipPath>
    <clipPath id="clip-path-5">
      <rect id="Rectángulo_337087" data-name="Rectángulo 337087" width="71.876" height="32.458" transform="translate(0)" fill="#fff" stroke="#707070" stroke-width="1"/>
    </clipPath>
  </defs>
  <g id="Grupo_968454" data-name="Grupo 968454" transform="translate(6926 10024.087)">
    <g id="Grupo_968395" data-name="Grupo 968395">
      <g id="Grupo_960375" data-name="Grupo 960375" transform="translate(-53 1)">
        <g id="Enmascarar_grupo_952138" data-name="Enmascarar grupo 952138" transform="translate(-6873.273 -10025.087)" clip-path="url(#clip-path)">
          <g id="Enmascarar_grupo_952137" data-name="Enmascarar grupo 952137" transform="translate(-335.279)" clip-path="url(#clip-path-2)">
            <rect id="Rectángulo_35889" data-name="Rectángulo 35889" width="747.53" height="456.232" rx="23" transform="translate(-2.782 -148.456)" fill="#fff0de"/>
            <g id="Grupo_901958" data-name="Grupo 901958" transform="translate(6.864 -6.594)" clip-path="url(#clip-path-3)">
              <g id="Grupo_901957" data-name="Grupo 901957" transform="translate(1.808 -51.065)">
                <path id="Sustracción_14" data-name="Sustracción 14" d="M37.678,0a30.766,30.766,0,0,0-7.593.954,32.342,32.342,0,0,0-7.073,2.735,36.136,36.136,0,0,0-6.4,4.327,41.225,41.225,0,0,0-5.576,5.731,46.619,46.619,0,0,0-4.6,6.946,51.488,51.488,0,0,0-3.474,7.973,55.424,55.424,0,0,0-2.2,8.81,58.826,58.826,0,0,0,0,18.918,55.424,55.424,0,0,0,2.2,8.81,51.488,51.488,0,0,0,3.474,7.973,46.62,46.62,0,0,0,4.6,6.946,41.224,41.224,0,0,0,5.576,5.731,36.136,36.136,0,0,0,6.4,4.327,32.342,32.342,0,0,0,7.073,2.735,30.711,30.711,0,0,0,15.187,0,32.341,32.341,0,0,0,7.073-2.735,36.136,36.136,0,0,0,6.4-4.327,41.225,41.225,0,0,0,5.576-5.731,46.62,46.62,0,0,0,4.6-6.946A51.49,51.49,0,0,0,72.395,65.2a55.425,55.425,0,0,0,2.2-8.81,58.826,58.826,0,0,0,0-18.918,55.425,55.425,0,0,0-2.2-8.81,51.49,51.49,0,0,0-3.474-7.973,46.619,46.619,0,0,0-4.6-6.946,41.225,41.225,0,0,0-5.576-5.731,36.136,36.136,0,0,0-6.4-4.327A32.341,32.341,0,0,0,45.271.954,30.766,30.766,0,0,0,37.678,0Zm-.14,71.6a16.05,16.05,0,0,1-3.961-.5,16.872,16.872,0,0,1-3.69-1.427,18.853,18.853,0,0,1-3.339-2.258,21.508,21.508,0,0,1-2.909-2.99,24.319,24.319,0,0,1-2.4-3.624,26.861,26.861,0,0,1-1.812-4.159,28.913,28.913,0,0,1-1.145-4.6,30.689,30.689,0,0,1,0-9.87,28.914,28.914,0,0,1,1.145-4.6,26.862,26.862,0,0,1,1.812-4.159,24.319,24.319,0,0,1,2.4-3.624,21.506,21.506,0,0,1,2.909-2.99,18.852,18.852,0,0,1,3.339-2.258,16.872,16.872,0,0,1,3.69-1.427,16.022,16.022,0,0,1,7.923,0,16.871,16.871,0,0,1,3.69,1.427,18.852,18.852,0,0,1,3.339,2.258,21.507,21.507,0,0,1,2.909,2.99,24.32,24.32,0,0,1,2.4,3.624,26.862,26.862,0,0,1,1.812,4.159,28.914,28.914,0,0,1,1.145,4.6,30.689,30.689,0,0,1,0,9.87,28.913,28.913,0,0,1-1.145,4.6A26.862,26.862,0,0,1,53.837,60.8a24.32,24.32,0,0,1-2.4,3.624,21.508,21.508,0,0,1-2.909,2.99,18.852,18.852,0,0,1-3.339,2.258A16.871,16.871,0,0,1,41.5,71.1,16.05,16.05,0,0,1,37.538,71.6Z" transform="translate(0 0)" fill="#fd9827"/>
              </g>
            </g>
            <path id="Rectangle_652" data-name="Rectangle 652" d="M735.758,390.836H11.772C5.271,390.836,0,384.356,0,376.361V14.475C0,6.481,5.271,0,11.772,0H735.758c6.5,0,11.772,6.481,11.772,14.475V376.361C747.53,384.356,742.259,390.836,735.758,390.836Z" transform="translate(-2.782 -149.544)" fill="none" opacity="0.238"/>
            <g id="Grupo_960355" data-name="Grupo 960355" transform="translate(-226.145 -253.757)" opacity="0.45">
              <path id="Trazado_156609" data-name="Trazado 156609" d="M1022.149,382.068l-64.206-250.6L988.932,11.65,833.4-73.052c-2.316,2.767-4.484,5.715-6.978,8.272-18.677,19.154-36.388,39.786-56.355,57-39.589,34.132-81.442,42.9-123.621,26.478Q624.427,10.127,603.113-.026c-26.293-12.566-54.059-19.032-85.077-14.514-19.414,2.828-36.942,10.788-52.787,25.763-23.716,22.414-41.1,50.352-60.393,76.665-10.224,13.943-20.639,27.845-31.909,40.806-23.177,26.657-50.007,40.2-81.749,39.737-34.145-.5-61.973-10.8-80.5-40.74-15.457-24.986-31.147-49.9-48.491-73.191C134.138,16.8,94.73,6.582,47.32,20.819c-16.973,5.1-33.579,13.292-50.353,20.072l81.21,300.491Z" transform="translate(191.208 482.033) rotate(-22)" fill="#fd9827" opacity="0.15"/>
              <path id="Trazado_156610" data-name="Trazado 156610" d="M593.757,69.244s-52.328.566-139.38-61.776S354.356,60.211,300.761,60.829s-66.5-48.184-124.888-33.574S101.656,96.884,33.083,74.141,17.729,152.7,17.729,152.7l566.482,1.071Z" transform="matrix(0.995, -0.105, 0.105, 0.995, 442.38, 449.956)" fill="none" stroke="#12263f" stroke-width="3" stroke-dasharray="11" opacity="0.05"/>
              <path id="Trazado_156612" data-name="Trazado 156612" d="M1164.111-105.339l-113.1,310.667L1065.909,342,878.049,472.738a106.311,106.311,0,0,0-6.438-8.506C853.887,445.022,837.486,423.866,818,407.21c-38.637-33.02-83.985-35.411-133.851-7.751q-26.032,14.439-51.536,30.624c-31.469,20.015-63.579,33.051-97.514,33.635-21.24.367-39.525-5.739-54.773-20.519-22.821-22.123-37.65-52.038-54.885-79.652-9.132-14.633-18.485-29.179-28.949-42.442-21.519-27.277-49.284-38.242-84.85-31.585-38.259,7.162-71.07,24.768-96.717,63.975-21.4,32.715-43.05,65.388-66.281,96.452-37.6,50.282-83.346,70.018-134.008,62.185-18.136-2.8-35.352-9.367-52.989-14.213L101.981,124.592Z" transform="translate(1298.3 584.391) rotate(157)" fill="none" stroke="#31313c" stroke-width="3" opacity="0.05"/>
              <path id="Trazado_156613" data-name="Trazado 156613" d="M834.212,319.068,784.828,105.2,811.869,2.5,685.287-68.816c-1.939,2.384-3.758,4.92-5.84,7.125-15.591,16.517-30.408,34.29-47.033,49.16-32.962,29.478-67.444,37.28-101.859,23.538Q512.589,3.834,495.223-4.7c-21.422-10.558-44.135-15.887-69.665-11.8C409.579-13.935,395.081-7,381.87,5.922c-19.772,19.342-34.417,43.361-50.611,66-8.581,12-17.318,23.963-26.744,35.131-19.386,22.967-41.6,34.744-67.655,34.576-28.03-.182-50.743-8.786-65.555-34.262-12.36-21.258-24.911-42.451-38.842-62.248-22.549-32.045-54.771-40.5-93.89-27.976-14,4.48-27.749,11.611-41.613,17.531l62.68,256.412Z" transform="matrix(0.891, -0.454, 0.454, 0.891, 356.191, 496.503)" fill="none" stroke="#fff" stroke-width="1" opacity="0.81"/>
              <path id="Trazado_156626" data-name="Trazado 156626" d="M1164.111-105.339l-113.1,310.667L1065.909,342,878.049,472.738a106.311,106.311,0,0,0-6.438-8.506C853.887,445.022,837.486,423.866,818,407.21c-38.637-33.02-83.985-35.411-133.851-7.751q-26.032,14.439-51.536,30.624c-31.469,20.015-63.579,33.051-97.514,33.635-21.24.367-39.525-5.739-54.773-20.519-22.821-22.123-37.65-52.038-54.885-79.652-9.132-14.633-18.485-29.179-28.949-42.442-21.519-27.277-49.284-38.242-84.85-31.585-38.259,7.162-71.07,24.768-96.717,63.975-21.4,32.715-43.05,65.388-66.281,96.452-37.6,50.282-83.346,70.018-134.008,62.185-18.136-2.8-35.352-9.367-52.989-14.213L101.981,124.592Z" transform="translate(1208.257 623.894) rotate(157)" fill="#fd9827" opacity="0.15"/>
            </g>
          </g>
        </g>
        <g id="Grupo_960358" data-name="Grupo 960358" transform="translate(-6856.149 -10025.086)" clip-path="url(#clip-path-4)">
          <g id="Grupo_960357" data-name="Grupo 960357" transform="translate(1.671 -37.409)">
            <path id="Sustracción_31" data-name="Sustracción 31" d="M34.824,0a35.514,35.514,0,0,0-7.018.7A34.848,34.848,0,0,0,5.947,15.159,34.251,34.251,0,0,0,2.737,21a34.033,34.033,0,0,0,0,26.767,34.251,34.251,0,0,0,3.211,5.841A34.871,34.871,0,0,0,27.805,68.068a35.6,35.6,0,0,0,14.036,0A34.848,34.848,0,0,0,63.7,53.608a34.252,34.252,0,0,0,3.211-5.841,34.033,34.033,0,0,0,0-26.767A34.252,34.252,0,0,0,63.7,15.159,34.871,34.871,0,0,0,41.842.7,35.514,35.514,0,0,0,34.824,0Zm-.13,52.449a18.527,18.527,0,0,1-3.661-.364,18.18,18.18,0,0,1-11.4-7.544,17.869,17.869,0,0,1-1.675-3.047,17.755,17.755,0,0,1,0-13.964,17.869,17.869,0,0,1,1.675-3.047,18.192,18.192,0,0,1,11.4-7.544,18.575,18.575,0,0,1,7.323,0,18.18,18.18,0,0,1,11.4,7.544,17.869,17.869,0,0,1,1.675,3.047,17.755,17.755,0,0,1,0,13.964,17.869,17.869,0,0,1-1.675,3.047,18.192,18.192,0,0,1-11.4,7.544A18.527,18.527,0,0,1,34.694,52.449Z" transform="translate(0 0)" fill="#fd9827"/>
          </g>
        </g>
        <g id="Grupo_960364" data-name="Grupo 960364" transform="translate(-6578.273 -9759.545)" clip-path="url(#clip-path-5)">
          <g id="Grupo_960363" data-name="Grupo 960363" transform="translate(1.671 1.1)">
            <path id="Sustracción_32" data-name="Sustracción 32" d="M34.824,68.767a35.514,35.514,0,0,1-7.018-.7A34.848,34.848,0,0,1,5.947,53.608a34.251,34.251,0,0,1-3.211-5.841A34.033,34.033,0,0,1,2.737,21a34.251,34.251,0,0,1,3.211-5.841A34.871,34.871,0,0,1,27.805.7,35.6,35.6,0,0,1,41.842.7,34.848,34.848,0,0,1,63.7,15.159,34.253,34.253,0,0,1,66.911,21a34.033,34.033,0,0,1,0,26.767A34.252,34.252,0,0,1,63.7,53.608,34.871,34.871,0,0,1,41.842,68.068,35.514,35.514,0,0,1,34.824,68.767Zm-.13-52.449a18.527,18.527,0,0,0-3.661.364,18.18,18.18,0,0,0-11.4,7.544,17.869,17.869,0,0,0-1.675,3.047,17.755,17.755,0,0,0,0,13.964,17.869,17.869,0,0,0,1.675,3.047,18.192,18.192,0,0,0,11.4,7.544,18.575,18.575,0,0,0,7.323,0,18.18,18.18,0,0,0,11.4-7.544,17.869,17.869,0,0,0,1.675-3.047,17.755,17.755,0,0,0,0-13.964,17.869,17.869,0,0,0-1.675-3.047,18.192,18.192,0,0,0-11.4-7.544A18.527,18.527,0,0,0,34.694,16.318Z" transform="translate(0)" fill="#fd9827"/>
          </g>
        </g>
      </g>
    </g>
  </g>
</svg>
