<svg xmlns="http://www.w3.org/2000/svg" xmlns:xlink="http://www.w3.org/1999/xlink" width="295" height="349" viewBox="0 0 295 349">
  <defs>
    <clipPath id="clip-path">
      <rect id="Rectángulo_34881" data-name="Rectángulo 34881" width="73.825" height="38.914" transform="translate(0 0)" fill="#12263f"/>
    </clipPath>
  </defs>
  <g id="Grupo_968452" data-name="Grupo 968452" transform="translate(5050 4830)">
    <rect id="Rectángulo_337739" data-name="Rectángulo 337739" width="295" height="349" transform="translate(-5050 -4830)" fill="#f7d6b1"/>
    <g id="Enmascarar_grupo_63" data-name="Enmascarar grupo 63" transform="translate(-4839.56 -4519.914)" clip-path="url(#clip-path)">
      <path id="Trazado_151731" data-name="Trazado 151731" d="M35.15,55.5A20.35,20.35,0,1,0,14.8,35.15,20.373,20.373,0,0,0,35.15,55.5m0,14.8A35.15,35.15,0,1,1,70.3,35.15,35.15,35.15,0,0,1,35.15,70.3Z" transform="translate(1.999 9.764)" fill="#fd9827"/>
    </g>
    <path id="Trazado_145969" data-name="Trazado 145969" d="M9.684,19.368A9.684,9.684,0,1,0,0,9.684,9.684,9.684,0,0,0,9.684,19.368Z" transform="translate(-4781.571 -4821.48)" fill="#fd9827" opacity="0.444" style="mix-blend-mode: multiply;isolation: isolate"/>
    <path id="Trazado_145971" data-name="Trazado 145971" d="M5.457,10.914A5.457,5.457,0,1,0,0,5.457,5.457,5.457,0,0,0,5.457,10.914Z" transform="translate(-5042 -4823.937)" fill="#31313c" opacity="0.444" style="mix-blend-mode: multiply;isolation: isolate"/>
    <line id="Línea_138" data-name="Línea 138" y1="77.169" transform="translate(-5038.857 -4697.729)" fill="none" stroke="#fff" stroke-width="1" stroke-dasharray="8"/>
    <path id="Trazado_661854" data-name="Trazado 661854" d="M21.7,43.408A21.7,21.7,0,1,0,0,21.7,21.7,21.7,0,0,0,21.7,43.408Z" transform="translate(-5040.753 -4527.565)" fill="#31313c" opacity="0.444" style="mix-blend-mode: multiply;isolation: isolate"/>
    <g id="Grupo_968329" data-name="Grupo 968329" transform="translate(-5030.511 -4524.735)">
      <g id="Grupo_53306" data-name="Grupo 53306" transform="translate(0 24.802)">
        <path id="Trazado_99200" data-name="Trazado 99200" d="M414.8,50.506a.3.3,0,1,0-.295.282A.288.288,0,0,0,414.8,50.506Z" transform="translate(-414.214 -50.224)" fill="#fff"/>
        <path id="Trazado_99201" data-name="Trazado 99201" d="M423.249,50.506a.3.3,0,1,0-.295.282A.288.288,0,0,0,423.249,50.506Z" transform="translate(-420.008 -50.224)" fill="#fff"/>
        <path id="Trazado_99202" data-name="Trazado 99202" d="M431.7,50.506a.3.3,0,1,0-.295.282A.288.288,0,0,0,431.7,50.506Z" transform="translate(-425.801 -50.224)" fill="#fff"/>
        <path id="Trazado_99203" data-name="Trazado 99203" d="M440.142,50.506a.3.3,0,1,0-.295.282A.288.288,0,0,0,440.142,50.506Z" transform="translate(-431.596 -50.224)" fill="#fff"/>
        <path id="Trazado_99204" data-name="Trazado 99204" d="M448.588,50.506a.3.3,0,1,0-.295.282A.288.288,0,0,0,448.588,50.506Z" transform="translate(-437.389 -50.224)" fill="#fff"/>
        <path id="Trazado_99205" data-name="Trazado 99205" d="M457.034,50.506a.3.3,0,1,0-.295.282A.288.288,0,0,0,457.034,50.506Z" transform="translate(-443.183 -50.224)" fill="#fff"/>
        <path id="Trazado_99206" data-name="Trazado 99206" d="M465.481,50.506a.3.3,0,1,0-.295.282A.289.289,0,0,0,465.481,50.506Z" transform="translate(-448.977 -50.224)" fill="#fff"/>
        <path id="Trazado_99207" data-name="Trazado 99207" d="M473.928,50.506a.3.3,0,1,0-.295.282A.288.288,0,0,0,473.928,50.506Z" transform="translate(-454.771 -50.224)" fill="#fff"/>
        <path id="Trazado_99208" data-name="Trazado 99208" d="M482.373,50.506a.3.3,0,1,0-.295.282A.288.288,0,0,0,482.373,50.506Z" transform="translate(-460.565 -50.224)" fill="#fff"/>
        <path id="Trazado_99209" data-name="Trazado 99209" d="M490.82,50.506a.295.295,0,1,0-.295.282A.289.289,0,0,0,490.82,50.506Z" transform="translate(-466.359 -50.224)" fill="#fff"/>
        <path id="Trazado_99210" data-name="Trazado 99210" d="M499.267,50.506a.295.295,0,1,0-.295.282A.288.288,0,0,0,499.267,50.506Z" transform="translate(-472.153 -50.224)" fill="#fff"/>
      </g>
      <g id="Grupo_53307" data-name="Grupo 53307" transform="translate(0 22.547)">
        <path id="Trazado_99211" data-name="Trazado 99211" d="M414.8,58.014a.3.3,0,1,0-.295.282A.288.288,0,0,0,414.8,58.014Z" transform="translate(-414.214 -57.732)" fill="#fff"/>
        <path id="Trazado_99212" data-name="Trazado 99212" d="M423.249,58.014a.3.3,0,1,0-.295.282A.288.288,0,0,0,423.249,58.014Z" transform="translate(-420.008 -57.732)" fill="#fff"/>
        <path id="Trazado_99213" data-name="Trazado 99213" d="M431.7,58.014a.3.3,0,1,0-.295.282A.288.288,0,0,0,431.7,58.014Z" transform="translate(-425.801 -57.732)" fill="#fff"/>
        <path id="Trazado_99214" data-name="Trazado 99214" d="M440.142,58.014a.3.3,0,1,0-.295.282A.288.288,0,0,0,440.142,58.014Z" transform="translate(-431.596 -57.732)" fill="#fff"/>
        <path id="Trazado_99215" data-name="Trazado 99215" d="M448.588,58.014a.3.3,0,1,0-.295.282A.288.288,0,0,0,448.588,58.014Z" transform="translate(-437.389 -57.732)" fill="#fff"/>
        <path id="Trazado_99216" data-name="Trazado 99216" d="M457.034,58.014a.3.3,0,1,0-.295.282A.288.288,0,0,0,457.034,58.014Z" transform="translate(-443.183 -57.732)" fill="#fff"/>
        <path id="Trazado_99217" data-name="Trazado 99217" d="M465.481,58.014a.3.3,0,1,0-.295.282A.289.289,0,0,0,465.481,58.014Z" transform="translate(-448.977 -57.732)" fill="#fff"/>
        <path id="Trazado_99218" data-name="Trazado 99218" d="M473.928,58.014a.3.3,0,1,0-.295.282A.288.288,0,0,0,473.928,58.014Z" transform="translate(-454.771 -57.732)" fill="#fff"/>
        <path id="Trazado_99219" data-name="Trazado 99219" d="M482.373,58.014a.3.3,0,1,0-.295.282A.288.288,0,0,0,482.373,58.014Z" transform="translate(-460.565 -57.732)" fill="#fff"/>
        <path id="Trazado_99220" data-name="Trazado 99220" d="M490.82,58.014a.295.295,0,1,0-.295.282A.289.289,0,0,0,490.82,58.014Z" transform="translate(-466.359 -57.732)" fill="#fff"/>
        <path id="Trazado_99221" data-name="Trazado 99221" d="M499.267,58.014a.295.295,0,1,0-.295.282A.288.288,0,0,0,499.267,58.014Z" transform="translate(-472.153 -57.732)" fill="#fff"/>
      </g>
      <g id="Grupo_53308" data-name="Grupo 53308" transform="translate(0 20.292)">
        <ellipse id="Elipse_3955" data-name="Elipse 3955" cx="0.295" cy="0.282" rx="0.295" ry="0.282" transform="translate(0 0)" fill="#fff"/>
        <path id="Trazado_99222" data-name="Trazado 99222" d="M423.249,65.522a.3.3,0,1,0-.295.282A.289.289,0,0,0,423.249,65.522Z" transform="translate(-420.008 -65.24)" fill="#fff"/>
        <ellipse id="Elipse_3956" data-name="Elipse 3956" cx="0.295" cy="0.282" rx="0.295" ry="0.282" transform="translate(5.305 0)" fill="#fff"/>
        <path id="Trazado_99223" data-name="Trazado 99223" d="M440.142,65.522a.3.3,0,1,0-.295.282A.289.289,0,0,0,440.142,65.522Z" transform="translate(-431.596 -65.24)" fill="#fff"/>
        <path id="Trazado_99224" data-name="Trazado 99224" d="M448.588,65.522a.3.3,0,1,0-.295.282A.289.289,0,0,0,448.588,65.522Z" transform="translate(-437.389 -65.24)" fill="#fff"/>
        <ellipse id="Elipse_3957" data-name="Elipse 3957" cx="0.295" cy="0.282" rx="0.295" ry="0.282" transform="translate(13.262 0)" fill="#fff"/>
        <path id="Trazado_99225" data-name="Trazado 99225" d="M465.481,65.522a.3.3,0,1,0-.295.282A.289.289,0,0,0,465.481,65.522Z" transform="translate(-448.977 -65.24)" fill="#fff"/>
        <ellipse id="Elipse_3958" data-name="Elipse 3958" cx="0.295" cy="0.282" rx="0.295" ry="0.282" transform="translate(18.567 0)" fill="#fff"/>
        <ellipse id="Elipse_3959" data-name="Elipse 3959" cx="0.295" cy="0.282" rx="0.295" ry="0.282" transform="translate(21.219 0)" fill="#fff"/>
        <path id="Trazado_99226" data-name="Trazado 99226" d="M490.82,65.522a.295.295,0,1,0-.295.282A.289.289,0,0,0,490.82,65.522Z" transform="translate(-466.359 -65.24)" fill="#fff"/>
        <path id="Trazado_99227" data-name="Trazado 99227" d="M499.267,65.522a.295.295,0,1,0-.295.282A.289.289,0,0,0,499.267,65.522Z" transform="translate(-472.153 -65.24)" fill="#fff"/>
      </g>
      <g id="Grupo_53309" data-name="Grupo 53309" transform="translate(0 18.038)">
        <ellipse id="Elipse_3960" data-name="Elipse 3960" cx="0.295" cy="0.282" rx="0.295" ry="0.282" transform="translate(0 0)" fill="#fff"/>
        <path id="Trazado_99228" data-name="Trazado 99228" d="M423.249,73.029a.295.295,0,1,0-.295.282A.288.288,0,0,0,423.249,73.029Z" transform="translate(-420.008 -72.747)" fill="#fff"/>
        <ellipse id="Elipse_3961" data-name="Elipse 3961" cx="0.295" cy="0.282" rx="0.295" ry="0.282" transform="translate(5.305 0)" fill="#fff"/>
        <path id="Trazado_99229" data-name="Trazado 99229" d="M440.142,73.029a.295.295,0,1,0-.295.282A.288.288,0,0,0,440.142,73.029Z" transform="translate(-431.596 -72.747)" fill="#fff"/>
        <path id="Trazado_99230" data-name="Trazado 99230" d="M448.588,73.029a.3.3,0,1,0-.295.282A.288.288,0,0,0,448.588,73.029Z" transform="translate(-437.389 -72.747)" fill="#fff"/>
        <ellipse id="Elipse_3962" data-name="Elipse 3962" cx="0.295" cy="0.282" rx="0.295" ry="0.282" transform="translate(13.262 0)" fill="#fff"/>
        <path id="Trazado_99231" data-name="Trazado 99231" d="M465.481,73.029a.3.3,0,1,0-.295.282A.289.289,0,0,0,465.481,73.029Z" transform="translate(-448.977 -72.747)" fill="#fff"/>
        <ellipse id="Elipse_3963" data-name="Elipse 3963" cx="0.295" cy="0.282" rx="0.295" ry="0.282" transform="translate(18.567 0)" fill="#fff"/>
        <ellipse id="Elipse_3964" data-name="Elipse 3964" cx="0.295" cy="0.282" rx="0.295" ry="0.282" transform="translate(21.219 0)" fill="#fff"/>
        <path id="Trazado_99232" data-name="Trazado 99232" d="M490.82,73.029a.295.295,0,1,0-.295.282A.289.289,0,0,0,490.82,73.029Z" transform="translate(-466.359 -72.747)" fill="#fff"/>
        <path id="Trazado_99233" data-name="Trazado 99233" d="M499.267,73.029a.295.295,0,1,0-.295.282A.288.288,0,0,0,499.267,73.029Z" transform="translate(-472.153 -72.747)" fill="#fff"/>
      </g>
      <g id="Grupo_53310" data-name="Grupo 53310" transform="translate(0 15.783)">
        <path id="Trazado_99234" data-name="Trazado 99234" d="M414.8,80.537a.295.295,0,1,0-.295.282A.288.288,0,0,0,414.8,80.537Z" transform="translate(-414.214 -80.255)" fill="#fff"/>
        <path id="Trazado_99235" data-name="Trazado 99235" d="M423.249,80.537a.295.295,0,1,0-.295.282A.288.288,0,0,0,423.249,80.537Z" transform="translate(-420.008 -80.255)" fill="#fff"/>
        <path id="Trazado_99236" data-name="Trazado 99236" d="M431.7,80.537a.3.3,0,1,0-.295.282A.288.288,0,0,0,431.7,80.537Z" transform="translate(-425.801 -80.255)" fill="#fff"/>
        <path id="Trazado_99237" data-name="Trazado 99237" d="M440.142,80.537a.295.295,0,1,0-.295.282A.288.288,0,0,0,440.142,80.537Z" transform="translate(-431.596 -80.255)" fill="#fff"/>
        <path id="Trazado_99238" data-name="Trazado 99238" d="M448.588,80.537a.3.3,0,1,0-.295.282A.288.288,0,0,0,448.588,80.537Z" transform="translate(-437.389 -80.255)" fill="#fff"/>
        <path id="Trazado_99239" data-name="Trazado 99239" d="M457.034,80.537a.295.295,0,1,0-.295.282A.288.288,0,0,0,457.034,80.537Z" transform="translate(-443.183 -80.255)" fill="#fff"/>
        <path id="Trazado_99240" data-name="Trazado 99240" d="M465.481,80.537a.3.3,0,1,0-.295.282A.289.289,0,0,0,465.481,80.537Z" transform="translate(-448.977 -80.255)" fill="#fff"/>
        <path id="Trazado_99241" data-name="Trazado 99241" d="M473.928,80.537a.3.3,0,1,0-.295.282A.288.288,0,0,0,473.928,80.537Z" transform="translate(-454.771 -80.255)" fill="#fff"/>
        <path id="Trazado_99242" data-name="Trazado 99242" d="M482.373,80.537a.295.295,0,1,0-.295.282A.288.288,0,0,0,482.373,80.537Z" transform="translate(-460.565 -80.255)" fill="#fff"/>
        <path id="Trazado_99243" data-name="Trazado 99243" d="M490.82,80.537a.295.295,0,1,0-.295.282A.289.289,0,0,0,490.82,80.537Z" transform="translate(-466.359 -80.255)" fill="#fff"/>
        <path id="Trazado_99244" data-name="Trazado 99244" d="M499.267,80.537a.295.295,0,1,0-.295.282A.288.288,0,0,0,499.267,80.537Z" transform="translate(-472.153 -80.255)" fill="#fff"/>
      </g>
      <g id="Grupo_53311" data-name="Grupo 53311" transform="translate(0 13.529)">
        <ellipse id="Elipse_3965" data-name="Elipse 3965" cx="0.295" cy="0.282" rx="0.295" ry="0.282" transform="translate(0 0)" fill="#fff"/>
        <path id="Trazado_99245" data-name="Trazado 99245" d="M423.249,88.045a.295.295,0,1,0-.295.282A.288.288,0,0,0,423.249,88.045Z" transform="translate(-420.008 -87.763)" fill="#fff"/>
        <ellipse id="Elipse_3966" data-name="Elipse 3966" cx="0.295" cy="0.282" rx="0.295" ry="0.282" transform="translate(5.305 0)" fill="#fff"/>
        <path id="Trazado_99246" data-name="Trazado 99246" d="M440.142,88.045a.295.295,0,1,0-.295.282A.288.288,0,0,0,440.142,88.045Z" transform="translate(-431.596 -87.763)" fill="#fff"/>
        <path id="Trazado_99247" data-name="Trazado 99247" d="M448.588,88.045a.3.3,0,1,0-.295.282A.288.288,0,0,0,448.588,88.045Z" transform="translate(-437.389 -87.763)" fill="#fff"/>
        <ellipse id="Elipse_3967" data-name="Elipse 3967" cx="0.295" cy="0.282" rx="0.295" ry="0.282" transform="translate(13.262 0)" fill="#fff"/>
        <path id="Trazado_99248" data-name="Trazado 99248" d="M465.481,88.045a.3.3,0,1,0-.295.282A.289.289,0,0,0,465.481,88.045Z" transform="translate(-448.977 -87.763)" fill="#fff"/>
        <ellipse id="Elipse_3968" data-name="Elipse 3968" cx="0.295" cy="0.282" rx="0.295" ry="0.282" transform="translate(18.567 0)" fill="#fff"/>
        <ellipse id="Elipse_3969" data-name="Elipse 3969" cx="0.295" cy="0.282" rx="0.295" ry="0.282" transform="translate(21.219 0)" fill="#fff"/>
        <path id="Trazado_99249" data-name="Trazado 99249" d="M490.82,88.045a.295.295,0,1,0-.295.282A.289.289,0,0,0,490.82,88.045Z" transform="translate(-466.359 -87.763)" fill="#fff"/>
        <path id="Trazado_99250" data-name="Trazado 99250" d="M499.267,88.045a.295.295,0,1,0-.295.282A.288.288,0,0,0,499.267,88.045Z" transform="translate(-472.153 -87.763)" fill="#fff"/>
      </g>
      <g id="Grupo_53312" data-name="Grupo 53312" transform="translate(0 11.274)">
        <ellipse id="Elipse_3970" data-name="Elipse 3970" cx="0.295" cy="0.282" rx="0.295" ry="0.282" transform="translate(0 0)" fill="#fff"/>
        <path id="Trazado_99251" data-name="Trazado 99251" d="M423.249,95.553a.3.3,0,1,0-.295.282A.288.288,0,0,0,423.249,95.553Z" transform="translate(-420.008 -95.271)" fill="#fff"/>
        <ellipse id="Elipse_3971" data-name="Elipse 3971" cx="0.295" cy="0.282" rx="0.295" ry="0.282" transform="translate(5.305 0)" fill="#fff"/>
        <path id="Trazado_99252" data-name="Trazado 99252" d="M440.142,95.553a.3.3,0,1,0-.295.282A.288.288,0,0,0,440.142,95.553Z" transform="translate(-431.596 -95.271)" fill="#fff"/>
        <path id="Trazado_99253" data-name="Trazado 99253" d="M448.588,95.553a.3.3,0,1,0-.295.282A.288.288,0,0,0,448.588,95.553Z" transform="translate(-437.389 -95.271)" fill="#fff"/>
        <ellipse id="Elipse_3972" data-name="Elipse 3972" cx="0.295" cy="0.282" rx="0.295" ry="0.282" transform="translate(13.262 0)" fill="#fff"/>
        <path id="Trazado_99254" data-name="Trazado 99254" d="M465.481,95.553a.3.3,0,1,0-.295.282A.289.289,0,0,0,465.481,95.553Z" transform="translate(-448.977 -95.271)" fill="#fff"/>
        <ellipse id="Elipse_3973" data-name="Elipse 3973" cx="0.295" cy="0.282" rx="0.295" ry="0.282" transform="translate(18.567 0)" fill="#fff"/>
        <ellipse id="Elipse_3974" data-name="Elipse 3974" cx="0.295" cy="0.282" rx="0.295" ry="0.282" transform="translate(21.219 0)" fill="#fff"/>
        <path id="Trazado_99255" data-name="Trazado 99255" d="M490.82,95.553a.295.295,0,1,0-.295.282A.289.289,0,0,0,490.82,95.553Z" transform="translate(-466.359 -95.271)" fill="#fff"/>
        <path id="Trazado_99256" data-name="Trazado 99256" d="M499.267,95.553a.295.295,0,1,0-.295.282A.288.288,0,0,0,499.267,95.553Z" transform="translate(-472.153 -95.271)" fill="#fff"/>
      </g>
      <g id="Grupo_53313" data-name="Grupo 53313" transform="translate(0 9.019)">
        <path id="Trazado_99257" data-name="Trazado 99257" d="M414.8,103.061a.3.3,0,1,0-.295.282A.289.289,0,0,0,414.8,103.061Z" transform="translate(-414.214 -102.779)" fill="#fff"/>
        <path id="Trazado_99258" data-name="Trazado 99258" d="M423.249,103.061a.3.3,0,1,0-.295.282A.288.288,0,0,0,423.249,103.061Z" transform="translate(-420.008 -102.779)" fill="#fff"/>
        <path id="Trazado_99259" data-name="Trazado 99259" d="M431.7,103.061a.3.3,0,1,0-.295.282A.288.288,0,0,0,431.7,103.061Z" transform="translate(-425.801 -102.779)" fill="#fff"/>
        <path id="Trazado_99260" data-name="Trazado 99260" d="M440.142,103.061a.3.3,0,1,0-.295.282A.289.289,0,0,0,440.142,103.061Z" transform="translate(-431.596 -102.779)" fill="#fff"/>
        <path id="Trazado_99261" data-name="Trazado 99261" d="M448.588,103.061a.3.3,0,1,0-.295.282A.288.288,0,0,0,448.588,103.061Z" transform="translate(-437.389 -102.779)" fill="#fff"/>
        <path id="Trazado_99262" data-name="Trazado 99262" d="M457.034,103.061a.3.3,0,1,0-.295.282A.288.288,0,0,0,457.034,103.061Z" transform="translate(-443.183 -102.779)" fill="#fff"/>
        <path id="Trazado_99263" data-name="Trazado 99263" d="M465.481,103.061a.3.3,0,1,0-.295.282A.289.289,0,0,0,465.481,103.061Z" transform="translate(-448.977 -102.779)" fill="#fff"/>
        <path id="Trazado_99264" data-name="Trazado 99264" d="M473.928,103.061a.3.3,0,1,0-.295.282A.288.288,0,0,0,473.928,103.061Z" transform="translate(-454.771 -102.779)" fill="#fff"/>
        <path id="Trazado_99265" data-name="Trazado 99265" d="M482.373,103.061a.3.3,0,1,0-.295.282A.288.288,0,0,0,482.373,103.061Z" transform="translate(-460.565 -102.779)" fill="#fff"/>
        <path id="Trazado_99266" data-name="Trazado 99266" d="M490.82,103.061a.295.295,0,1,0-.295.282A.289.289,0,0,0,490.82,103.061Z" transform="translate(-466.359 -102.779)" fill="#fff"/>
        <path id="Trazado_99267" data-name="Trazado 99267" d="M499.267,103.061a.295.295,0,1,0-.295.282A.288.288,0,0,0,499.267,103.061Z" transform="translate(-472.153 -102.779)" fill="#fff"/>
      </g>
      <g id="Grupo_53314" data-name="Grupo 53314" transform="translate(0 6.764)">
        <ellipse id="Elipse_3975" data-name="Elipse 3975" cx="0.295" cy="0.282" rx="0.295" ry="0.282" transform="translate(0 0)" fill="#fff"/>
        <path id="Trazado_99268" data-name="Trazado 99268" d="M423.249,110.569a.3.3,0,1,0-.295.282A.289.289,0,0,0,423.249,110.569Z" transform="translate(-420.008 -110.287)" fill="#fff"/>
        <ellipse id="Elipse_3976" data-name="Elipse 3976" cx="0.295" cy="0.282" rx="0.295" ry="0.282" transform="translate(5.305 0)" fill="#fff"/>
        <path id="Trazado_99269" data-name="Trazado 99269" d="M440.142,110.569a.3.3,0,1,0-.295.282A.289.289,0,0,0,440.142,110.569Z" transform="translate(-431.596 -110.287)" fill="#fff"/>
        <path id="Trazado_99270" data-name="Trazado 99270" d="M448.588,110.569a.3.3,0,1,0-.295.282A.289.289,0,0,0,448.588,110.569Z" transform="translate(-437.389 -110.287)" fill="#fff"/>
        <ellipse id="Elipse_3977" data-name="Elipse 3977" cx="0.295" cy="0.282" rx="0.295" ry="0.282" transform="translate(13.262 0)" fill="#fff"/>
        <path id="Trazado_99271" data-name="Trazado 99271" d="M465.481,110.569a.3.3,0,1,0-.295.282A.289.289,0,0,0,465.481,110.569Z" transform="translate(-448.977 -110.287)" fill="#fff"/>
        <ellipse id="Elipse_3978" data-name="Elipse 3978" cx="0.295" cy="0.282" rx="0.295" ry="0.282" transform="translate(18.567 0)" fill="#fff"/>
        <ellipse id="Elipse_3979" data-name="Elipse 3979" cx="0.295" cy="0.282" rx="0.295" ry="0.282" transform="translate(21.219 0)" fill="#fff"/>
        <path id="Trazado_99272" data-name="Trazado 99272" d="M490.82,110.569a.295.295,0,1,0-.295.282A.289.289,0,0,0,490.82,110.569Z" transform="translate(-466.359 -110.287)" fill="#fff"/>
        <path id="Trazado_99273" data-name="Trazado 99273" d="M499.267,110.569a.295.295,0,1,0-.295.282A.289.289,0,0,0,499.267,110.569Z" transform="translate(-472.153 -110.287)" fill="#fff"/>
      </g>
      <g id="Grupo_53315" data-name="Grupo 53315" transform="translate(0 4.509)">
        <path id="Trazado_99274" data-name="Trazado 99274" d="M414.8,118.076a.295.295,0,1,0-.295.282A.289.289,0,0,0,414.8,118.076Z" transform="translate(-414.214 -117.794)" fill="#fff"/>
        <path id="Trazado_99275" data-name="Trazado 99275" d="M423.249,118.076a.295.295,0,1,0-.295.282A.289.289,0,0,0,423.249,118.076Z" transform="translate(-420.008 -117.794)" fill="#fff"/>
        <path id="Trazado_99276" data-name="Trazado 99276" d="M431.7,118.076a.3.3,0,1,0-.295.282A.289.289,0,0,0,431.7,118.076Z" transform="translate(-425.801 -117.794)" fill="#fff"/>
        <path id="Trazado_99277" data-name="Trazado 99277" d="M440.142,118.076a.295.295,0,1,0-.295.282A.289.289,0,0,0,440.142,118.076Z" transform="translate(-431.596 -117.794)" fill="#fff"/>
        <path id="Trazado_99278" data-name="Trazado 99278" d="M448.588,118.076a.3.3,0,1,0-.295.282A.289.289,0,0,0,448.588,118.076Z" transform="translate(-437.389 -117.794)" fill="#fff"/>
        <path id="Trazado_99279" data-name="Trazado 99279" d="M457.034,118.076a.295.295,0,1,0-.295.282A.289.289,0,0,0,457.034,118.076Z" transform="translate(-443.183 -117.794)" fill="#fff"/>
        <path id="Trazado_99280" data-name="Trazado 99280" d="M465.481,118.076a.3.3,0,1,0-.295.282A.289.289,0,0,0,465.481,118.076Z" transform="translate(-448.977 -117.794)" fill="#fff"/>
        <path id="Trazado_99281" data-name="Trazado 99281" d="M473.928,118.076a.3.3,0,1,0-.295.282A.289.289,0,0,0,473.928,118.076Z" transform="translate(-454.771 -117.794)" fill="#fff"/>
        <path id="Trazado_99282" data-name="Trazado 99282" d="M482.373,118.076a.295.295,0,1,0-.295.282A.289.289,0,0,0,482.373,118.076Z" transform="translate(-460.565 -117.794)" fill="#fff"/>
        <path id="Trazado_99283" data-name="Trazado 99283" d="M490.82,118.076a.295.295,0,1,0-.295.282A.289.289,0,0,0,490.82,118.076Z" transform="translate(-466.359 -117.794)" fill="#fff"/>
        <path id="Trazado_99284" data-name="Trazado 99284" d="M499.267,118.076a.295.295,0,1,0-.295.282A.289.289,0,0,0,499.267,118.076Z" transform="translate(-472.153 -117.794)" fill="#fff"/>
      </g>
      <g id="Grupo_53316" data-name="Grupo 53316" transform="translate(0 2.255)">
        <ellipse id="Elipse_3980" data-name="Elipse 3980" cx="0.295" cy="0.282" rx="0.295" ry="0.282" fill="#fff"/>
        <path id="Trazado_99285" data-name="Trazado 99285" d="M423.249,125.584a.295.295,0,1,0-.295.282A.288.288,0,0,0,423.249,125.584Z" transform="translate(-420.008 -125.302)" fill="#fff"/>
        <ellipse id="Elipse_3981" data-name="Elipse 3981" cx="0.295" cy="0.282" rx="0.295" ry="0.282" transform="translate(5.305)" fill="#fff"/>
        <path id="Trazado_99286" data-name="Trazado 99286" d="M440.142,125.584a.295.295,0,1,0-.295.282A.288.288,0,0,0,440.142,125.584Z" transform="translate(-431.596 -125.302)" fill="#fff"/>
        <path id="Trazado_99287" data-name="Trazado 99287" d="M448.588,125.584a.3.3,0,1,0-.295.282A.288.288,0,0,0,448.588,125.584Z" transform="translate(-437.389 -125.302)" fill="#fff"/>
        <ellipse id="Elipse_3982" data-name="Elipse 3982" cx="0.295" cy="0.282" rx="0.295" ry="0.282" transform="translate(13.262)" fill="#fff"/>
        <path id="Trazado_99288" data-name="Trazado 99288" d="M465.481,125.584a.3.3,0,1,0-.295.282A.289.289,0,0,0,465.481,125.584Z" transform="translate(-448.977 -125.302)" fill="#fff"/>
        <ellipse id="Elipse_3983" data-name="Elipse 3983" cx="0.295" cy="0.282" rx="0.295" ry="0.282" transform="translate(18.567)" fill="#fff"/>
        <ellipse id="Elipse_3984" data-name="Elipse 3984" cx="0.295" cy="0.282" rx="0.295" ry="0.282" transform="translate(21.219)" fill="#fff"/>
        <path id="Trazado_99289" data-name="Trazado 99289" d="M490.82,125.584a.295.295,0,1,0-.295.282A.289.289,0,0,0,490.82,125.584Z" transform="translate(-466.359 -125.302)" fill="#fff"/>
        <path id="Trazado_99290" data-name="Trazado 99290" d="M499.267,125.584a.295.295,0,1,0-.295.282A.288.288,0,0,0,499.267,125.584Z" transform="translate(-472.153 -125.302)" fill="#fff"/>
      </g>
      <g id="Grupo_53317" data-name="Grupo 53317">
        <ellipse id="Elipse_3985" data-name="Elipse 3985" cx="0.295" cy="0.282" rx="0.295" ry="0.282" fill="#fff"/>
        <path id="Trazado_99291" data-name="Trazado 99291" d="M423.249,133.092a.295.295,0,1,0-.295.282A.288.288,0,0,0,423.249,133.092Z" transform="translate(-420.008 -132.81)" fill="#fff"/>
        <ellipse id="Elipse_3986" data-name="Elipse 3986" cx="0.295" cy="0.282" rx="0.295" ry="0.282" transform="translate(5.305)" fill="#fff"/>
        <path id="Trazado_99292" data-name="Trazado 99292" d="M440.142,133.092a.295.295,0,1,0-.295.282A.288.288,0,0,0,440.142,133.092Z" transform="translate(-431.596 -132.81)" fill="#fff"/>
        <path id="Trazado_99293" data-name="Trazado 99293" d="M448.588,133.092a.3.3,0,1,0-.295.282A.288.288,0,0,0,448.588,133.092Z" transform="translate(-437.389 -132.81)" fill="#fff"/>
        <ellipse id="Elipse_3987" data-name="Elipse 3987" cx="0.295" cy="0.282" rx="0.295" ry="0.282" transform="translate(13.262)" fill="#fff"/>
        <path id="Trazado_99294" data-name="Trazado 99294" d="M465.481,133.092a.3.3,0,1,0-.295.282A.289.289,0,0,0,465.481,133.092Z" transform="translate(-448.977 -132.81)" fill="#fff"/>
        <ellipse id="Elipse_3988" data-name="Elipse 3988" cx="0.295" cy="0.282" rx="0.295" ry="0.282" transform="translate(18.567)" fill="#fff"/>
        <ellipse id="Elipse_3989" data-name="Elipse 3989" cx="0.295" cy="0.282" rx="0.295" ry="0.282" transform="translate(21.219)" fill="#fff"/>
        <path id="Trazado_99295" data-name="Trazado 99295" d="M490.82,133.092a.295.295,0,1,0-.295.282A.289.289,0,0,0,490.82,133.092Z" transform="translate(-466.359 -132.81)" fill="#fff"/>
        <path id="Trazado_99296" data-name="Trazado 99296" d="M499.267,133.092a.295.295,0,1,0-.295.282A.288.288,0,0,0,499.267,133.092Z" transform="translate(-472.153 -132.81)" fill="#fff"/>
      </g>
    </g>
  </g>
</svg>
