<svg id="Grupo_960260" data-name="Grupo 960260" xmlns="http://www.w3.org/2000/svg" xmlns:xlink="http://www.w3.org/1999/xlink" width="208.354" height="215.491" viewBox="0 0 208.354 215.491">
  <defs>
    <clipPath id="clip-path">
      <rect id="Rectángulo_35774" data-name="Rectángulo 35774" width="208.354" height="215.491" fill="none"/>
    </clipPath>
    <clipPath id="clip-path-3">
      <rect id="Rectángulo_35736" data-name="Rectángulo 35736" width="194.582" height="199.278" fill="none"/>
    </clipPath>
    <clipPath id="clip-path-5">
      <path id="Trazado_154595" data-name="Trazado 154595" d="M101.442,31.249,86.8,130.836H200.53L185.887,31.249Z" transform="translate(-86.8 -31.249)" fill="none"/>
    </clipPath>
    <clipPath id="clip-path-6">
      <rect id="Rectángulo_35746" data-name="Rectángulo 35746" width="113.733" height="41.644" fill="none"/>
    </clipPath>
    <clipPath id="clip-path-9">
      <path id="Trazado_154602" data-name="Trazado 154602" d="M136.066,49.206a.938.938,0,0,0-.918,1.12l.41,2.038,5.709,28.381a1.824,1.824,0,0,0,1.791,1.47h50.181a1.824,1.824,0,0,0,1.792-1.47L200.6,53.02l.543-2.694a.937.937,0,0,0-.917-1.12Z" transform="translate(-135.13 -49.206)" fill="none"/>
    </clipPath>
    <clipPath id="clip-path-10">
      <rect id="Rectángulo_35748" data-name="Rectángulo 35748" width="65.047" height="29.852" fill="none"/>
    </clipPath>
    <clipPath id="clip-path-12">
      <path id="Trazado_154608" data-name="Trazado 154608" d="M134.485,63.947a.944.944,0,0,0-.938,1.12l.523,2.541L139.808,95.4a1.861,1.861,0,0,0,1.836,1.461h51.385a1.86,1.86,0,0,0,1.835-1.461l5.719-27.7.542-2.635a.943.943,0,0,0-.937-1.12Z" transform="translate(-133.528 -63.947)" fill="none"/>
    </clipPath>
    <clipPath id="clip-path-13">
      <rect id="Rectángulo_35750" data-name="Rectángulo 35750" width="66.513" height="29.25" fill="none"/>
    </clipPath>
    <clipPath id="clip-path-15">
      <path id="Trazado_154622" data-name="Trazado 154622" d="M129.742,102.187a.956.956,0,0,0-1.007,1.1l1.648,7.4,5.053,22.663A1.968,1.968,0,0,0,137.4,134.8h55a1.969,1.969,0,0,0,1.964-1.451l2.477-11.117,4.224-18.942a.956.956,0,0,0-1.007-1.1Z" transform="translate(-128.715 -102.187)" fill="none"/>
    </clipPath>
    <clipPath id="clip-path-16">
      <rect id="Rectángulo_35752" data-name="Rectángulo 35752" width="66.453" height="24.113" fill="none"/>
    </clipPath>
    <clipPath id="clip-path-18">
      <path id="Trazado_154628" data-name="Trazado 154628" d="M198.613,169.625l-76.386,3.513c-.7.03-1.2.582-1.041,1.14l.4,1.356,8.245,27.977a2.114,2.114,0,0,0,2.2,1.332l59.739-2.743a2.118,2.118,0,0,0,2.067-1.53l5.216-26.462.7-3.543c.111-.551-.4-1.042-1.08-1.042h-.059" transform="translate(-121.155 -169.624)" fill="none"/>
    </clipPath>
    <clipPath id="clip-path-19">
      <rect id="Rectángulo_35754" data-name="Rectángulo 35754" width="77.467" height="30.738" fill="none"/>
    </clipPath>
    <clipPath id="clip-path-21">
      <path id="Trazado_154634" data-name="Trazado 154634" d="M122.211,186.84l.721,3.676,5.156,26.284a2.163,2.163,0,0,0,2.1,1.539l60.922,3.183a2.153,2.153,0,0,0,2.25-1.312l7.47-24.306,1.5-4.875c.173-.553-.34-1.105-1.056-1.145l-77.9-4.071-.079,0c-.677,0-1.2.482-1.09,1.028" transform="translate(-122.197 -185.812)" fill="none"/>
    </clipPath>
    <clipPath id="clip-path-22">
      <rect id="Rectángulo_35756" data-name="Rectángulo 35756" width="77.901" height="31.011" fill="none"/>
    </clipPath>
    <clipPath id="clip-path-24">
      <path id="Trazado_154646" data-name="Trazado 154646" d="M72.117,240.842,91.637,296.2h89.18l19.52-55.357Z" transform="translate(-72.117 -240.842)" fill="none"/>
    </clipPath>
    <clipPath id="clip-path-25">
      <rect id="Rectángulo_35759" data-name="Rectángulo 35759" width="128.22" height="55.357" fill="none"/>
    </clipPath>
    <clipPath id="clip-path-29">
      <path id="Trazado_154662" data-name="Trazado 154662" d="M168.521,76.736l-.143,1.11-8.744-1.127a.984.984,0,0,0-1.187.985l3.111,32.14,59.221,7.633,11.159-30.3a.984.984,0,0,0-.9-1.254l-48.3-6.225-.408-1.159a1.94,1.94,0,0,0-1.608-1.218l-10.971-1.414a1.306,1.306,0,0,0-.163-.01,1.03,1.03,0,0,0-1.067.84" transform="translate(-158.443 -75.896)" fill="none"/>
    </clipPath>
    <clipPath id="clip-path-30">
      <rect id="Rectángulo_35762" data-name="Rectángulo 35762" width="73.547" height="41.581" fill="none"/>
    </clipPath>
    <clipPath id="clip-path-32">
      <path id="Trazado_154666" data-name="Trazado 154666" d="M156.412,81.833l3.035,31.332a2.049,2.049,0,0,0,1.845,1.732l57.068,7.352a2.046,2.046,0,0,0,2.225-1.2l.78-2.112,10.1-27.429a.986.986,0,0,0-.9-1.254l-24.4-3.143L157.6,80.847a1.176,1.176,0,0,0-.154-.01.969.969,0,0,0-1.035,1" transform="translate(-156.409 -80.837)" fill="none"/>
    </clipPath>
    <clipPath id="clip-path-33">
      <rect id="Rectángulo_35765" data-name="Rectángulo 35765" width="34.87" height="31.825" fill="none"/>
    </clipPath>
    <clipPath id="clip-path-36">
      <rect id="Rectángulo_35766" data-name="Rectángulo 35766" width="57.771" height="53.421" fill="none"/>
    </clipPath>
    <clipPath id="clip-path-37">
      <rect id="Rectángulo_35767" data-name="Rectángulo 35767" width="42.044" height="31.273" fill="none"/>
    </clipPath>
    <clipPath id="clip-path-38">
      <rect id="Rectángulo_35768" data-name="Rectángulo 35768" width="0.015" height="0.005" fill="none"/>
    </clipPath>
    <clipPath id="clip-path-40">
      <rect id="Rectángulo_35770" data-name="Rectángulo 35770" width="26.743" height="21.092" fill="none"/>
    </clipPath>
    <clipPath id="clip-path-41">
      <rect id="Rectángulo_35771" data-name="Rectángulo 35771" width="82.766" height="53.133" fill="none"/>
    </clipPath>
    <clipPath id="clip-path-42">
      <rect id="Rectángulo_35772" data-name="Rectángulo 35772" width="6.419" height="6.752" fill="none"/>
    </clipPath>
  </defs>
  <g id="Grupo_159059" data-name="Grupo 159059" clip-path="url(#clip-path)">
    <g id="Grupo_158962" data-name="Grupo 158962">
      <g id="Grupo_158961" data-name="Grupo 158961" clip-path="url(#clip-path)">
        <path id="Trazado_154570" data-name="Trazado 154570" d="M77.519,2.076s23.051-4.672,44.027,0c12.822,2.856,39.846,9.63,46.223,24.985s-24.326,28.457-9.239,44.034c6.506,6.718,37.738,15.583,35.981,59.169S146.995,200.425,83.4,199.24s-100.291-59.006-75.7-87.484S42.888,83.2,31.739,60.009s4.33-51.3,45.78-57.933" transform="translate(0 0)" fill="#fd9827"/>
        <g id="Grupo_158960" data-name="Grupo 158960" opacity="0.7">
          <g id="Grupo_158959" data-name="Grupo 158959">
            <g id="Grupo_158958" data-name="Grupo 158958" clip-path="url(#clip-path-3)">
              <path id="Trazado_154571" data-name="Trazado 154571" d="M77.519,2.076s23.051-4.672,44.027,0c12.822,2.856,39.846,9.63,46.223,24.985s-24.326,28.457-9.239,44.034c6.506,6.718,37.738,15.583,35.981,59.169S146.995,200.425,83.4,199.24s-100.291-59.006-75.7-87.484S42.888,83.2,31.739,60.009s4.33-51.3,45.78-57.933" transform="translate(0 0)" fill="#fff"/>
            </g>
          </g>
        </g>
      </g>
    </g>
    <path id="Trazado_154572" data-name="Trazado 154572" d="M46.031,145.853l4.293,12.553-20.588,7.04-5.094-14.9,20.587-7.04Z" transform="translate(-12.484 -72.699)" fill="none" stroke="#263238" stroke-linecap="round" stroke-linejoin="round" stroke-width="1"/>
    <path id="Trazado_154573" data-name="Trazado 154573" d="M52.315,159.348l2.156,6.3-20.588,7.041L32.826,169.6l4.15-6.287,6.754,2.629,4.823-8.133Z" transform="translate(-16.629 -79.945)" fill="none" stroke="#263238" stroke-linecap="round" stroke-linejoin="round" stroke-width="1"/>
    <g id="Grupo_158964" data-name="Grupo 158964">
      <g id="Grupo_158963" data-name="Grupo 158963" clip-path="url(#clip-path)">
        <path id="Trazado_154574" data-name="Trazado 154574" d="M41.793,157.763a2.241,2.241,0,1,1-2.845-1.395A2.241,2.241,0,0,1,41.793,157.763Z" transform="translate(-18.962 -79.152)" fill="none" stroke="#263238" stroke-linecap="round" stroke-linejoin="round" stroke-width="1"/>
        <path id="Trazado_154575" data-name="Trazado 154575" d="M291.876,349.806l-2.838,12.96-21.254-4.654,3.368-15.38,21.254,4.655Z" transform="translate(-135.655 -173.621)" fill="none" stroke="#263238" stroke-linecap="round" stroke-linejoin="round" stroke-width="1"/>
        <line id="Línea_180" data-name="Línea 180" x2="14.602" y2="3.198" transform="translate(136.342 181.172)" fill="none" stroke="#263238" stroke-linecap="round" stroke-linejoin="round" stroke-width="1"/>
        <path id="Trazado_154576" data-name="Trazado 154576" d="M278.629,353.37s-1.486,6.784,6.1,8.445,9.068-5.124,9.068-5.124" transform="translate(-141.089 -179.011)" fill="none" stroke="#263238" stroke-linecap="round" stroke-linejoin="round" stroke-width="1"/>
        <path id="Trazado_154577" data-name="Trazado 154577" d="M278.717,352.838a.654.654,0,1,1-.5-.779.653.653,0,0,1,.5.779" transform="translate(-140.538 -178.339)" fill="#fff"/>
        <path id="Trazado_154578" data-name="Trazado 154578" d="M278.717,352.838a.654.654,0,1,1-.5-.779A.653.653,0,0,1,278.717,352.838Z" transform="translate(-140.538 -178.339)" fill="none" stroke="#263238" stroke-linecap="round" stroke-linejoin="round" stroke-width="1"/>
        <path id="Trazado_154579" data-name="Trazado 154579" d="M309.448,359.568a.654.654,0,1,1-.5-.779.654.654,0,0,1,.5.779" transform="translate(-156.106 -181.749)" fill="#fff"/>
        <path id="Trazado_154580" data-name="Trazado 154580" d="M309.448,359.568a.654.654,0,1,1-.5-.779A.654.654,0,0,1,309.448,359.568Z" transform="translate(-156.106 -181.749)" fill="none" stroke="#263238" stroke-linecap="round" stroke-linejoin="round" stroke-width="1"/>
        <rect id="Rectángulo_35738" data-name="Rectángulo 35738" width="1.15" height="1.15" transform="translate(135.37 181.581) rotate(-77.634)" fill="#fff"/>
        <rect id="Rectángulo_35739" data-name="Rectángulo 35739" width="1.15" height="1.15" transform="translate(135.37 181.581) rotate(-77.634)" fill="none" stroke="#263238" stroke-linecap="round" stroke-linejoin="round" stroke-width="1"/>
        <rect id="Rectángulo_35740" data-name="Rectángulo 35740" width="1.15" height="1.15" transform="translate(142.951 183.242) rotate(-77.634)" fill="#fff"/>
        <rect id="Rectángulo_35741" data-name="Rectángulo 35741" width="1.15" height="1.15" transform="translate(142.951 183.242) rotate(-77.634)" fill="none" stroke="#263238" stroke-linecap="round" stroke-linejoin="round" stroke-width="1"/>
        <rect id="Rectángulo_35742" data-name="Rectángulo 35742" width="1.15" height="1.15" transform="matrix(0.214, -0.977, 0.977, 0.214, 150.533, 184.903)" fill="#fff"/>
        <rect id="Rectángulo_35743" data-name="Rectángulo 35743" width="1.15" height="1.15" transform="matrix(0.214, -0.977, 0.977, 0.214, 150.533, 184.903)" fill="none" stroke="#263238" stroke-linecap="round" stroke-linejoin="round" stroke-width="1"/>
        <path id="Trazado_154581" data-name="Trazado 154581" d="M91.357,59.969,85.985,72.1l-19.9-8.81,6.375-14.4L92.36,57.7Z" transform="translate(-33.48 -24.769)" fill="none" stroke="#263238" stroke-linecap="round" stroke-linejoin="round" stroke-width="1"/>
        <path id="Trazado_154582" data-name="Trazado 154582" d="M91.143,78.462c-.381.861-1.756,1.087-3.069.506S86,77.217,86.386,76.355s1.756-1.087,3.069-.506,2.07,1.752,1.688,2.613" transform="translate(-43.711 -38.261)" fill="#263238"/>
        <path id="Trazado_154583" data-name="Trazado 154583" d="M92.251,62.268l-5.308,7.573-.454-.2L90.369,64.1l1.008-1.438a3.22,3.22,0,0,0,.871-.394Z" transform="translate(-43.813 -31.544)" fill="#263238"/>
        <path id="Trazado_154584" data-name="Trazado 154584" d="M92.232,62.272,90.941,64.1a2.809,2.809,0,0,1-.588,0,4.146,4.146,0,0,1-1.662-.5,2.1,2.1,0,0,0-2.234.155A2.977,2.977,0,0,1,89.5,62.66a3.138,3.138,0,0,0,1.861.006,3.23,3.23,0,0,0,.871-.394" transform="translate(-43.798 -31.546)" fill="#263238"/>
        <path id="Trazado_154585" data-name="Trazado 154585" d="M360.385,260.5l-4.631,12.433-20.389-7.6,5.5-14.754,20.39,7.6Z" transform="translate(-169.89 -126.939)" fill="none" stroke="#263238" stroke-linecap="round" stroke-linejoin="round" stroke-width="1"/>
        <path id="Trazado_154586" data-name="Trazado 154586" d="M353.021,265.142l-5.113,2.338,2.337,5.114" transform="translate(-176.244 -134.316)" fill="none" stroke="#263238" stroke-linecap="round" stroke-linejoin="round" stroke-width="1"/>
        <path id="Trazado_154587" data-name="Trazado 154587" d="M363.778,276.74l5.114-2.338-2.338-5.114" transform="translate(-184.283 -136.417)" fill="none" stroke="#263238" stroke-linecap="round" stroke-linejoin="round" stroke-width="1"/>
        <line id="Línea_181" data-name="Línea 181" x1="4.566" y2="6.805" transform="translate(175.853 132.172)" fill="none" stroke="#263238" stroke-linecap="round" stroke-linejoin="round" stroke-width="1"/>
        <path id="Trazado_154588" data-name="Trazado 154588" d="M319.194,26.5,314.65,38.964l-20.442-7.453L299.6,16.72l20.442,7.453Z" transform="translate(-149.041 -8.47)" fill="none" stroke="#263238" stroke-linecap="round" stroke-linejoin="round" stroke-width="1"/>
        <path id="Trazado_154589" data-name="Trazado 154589" d="M311.288,34.152s-.244-1.4-2.309-1.091c-1.905.283-2.446,2.427-.839,3.012,1.89.689,3.373-.906,5.211-2.478,1.92-1.643,3.665-3.411,3.885-3.62,0,0-4.329,7.742-4.889,8.762s1.129.647,1.435.194" transform="translate(-155.618 -15.185)" fill="none" stroke="#263238" stroke-linecap="round" stroke-linejoin="round" stroke-width="1"/>
        <path id="Trazado_154590" data-name="Trazado 154590" d="M326.446,42.667a2.556,2.556,0,0,0-3.437.584,1.021,1.021,0,0,0,.234,1.681c1.33.485,2.155-.1,3.556-2.136,0,0-1.94,2.725-1.525,2.876a1.069,1.069,0,0,0,1.082-.241" transform="translate(-163.465 -21.397)" fill="none" stroke="#263238" stroke-linecap="round" stroke-linejoin="round" stroke-width="1"/>
        <line id="Línea_182" data-name="Línea 182" x2="3.426" y2="1.249" transform="translate(157.145 19.142)" fill="none" stroke="#263238" stroke-linecap="round" stroke-linejoin="round" stroke-width="1"/>
        <path id="Trazado_154591" data-name="Trazado 154591" d="M49.579,310.122l-21.256-4.649,2.9-13.261,21.329,4.665Z" transform="translate(-14.348 -148.029)" fill="none" stroke="#263238" stroke-linecap="round" stroke-linejoin="round" stroke-width="1"/>
        <line id="Línea_183" data-name="Línea 183" x2="12.423" y2="2.717" transform="translate(21.694 147.502)" fill="none" stroke="#263238" stroke-linecap="round" stroke-linejoin="round" stroke-width="1"/>
        <line id="Línea_184" data-name="Línea 184" x2="14.17" y2="3.1" transform="translate(19.686 148.312)" fill="none" stroke="#263238" stroke-linecap="round" stroke-linejoin="round" stroke-width="1"/>
        <line id="Línea_185" data-name="Línea 185" x2="14.17" y2="3.1" transform="translate(19.425 149.504)" fill="none" stroke="#263238" stroke-linecap="round" stroke-linejoin="round" stroke-width="1"/>
        <line id="Línea_186" data-name="Línea 186" x2="14.17" y2="3.1" transform="translate(19.164 150.696)" fill="none" stroke="#263238" stroke-linecap="round" stroke-linejoin="round" stroke-width="1"/>
        <line id="Línea_187" data-name="Línea 187" x2="14.17" y2="3.1" transform="translate(18.904 151.888)" fill="none" stroke="#263238" stroke-linecap="round" stroke-linejoin="round" stroke-width="1"/>
        <line id="Línea_188" data-name="Línea 188" x2="14.17" y2="3.1" transform="translate(18.643 153.08)" fill="none" stroke="#263238" stroke-linecap="round" stroke-linejoin="round" stroke-width="1"/>
        <line id="Línea_189" data-name="Línea 189" x2="14.17" y2="3.1" transform="translate(18.382 154.272)" fill="none" stroke="#263238" stroke-linecap="round" stroke-linejoin="round" stroke-width="1"/>
        <line id="Línea_190" data-name="Línea 190" x2="12.423" y2="2.717" transform="translate(18.121 155.464)" fill="none" stroke="#263238" stroke-linecap="round" stroke-linejoin="round" stroke-width="1"/>
      </g>
    </g>
    <path id="Trazado_154592" data-name="Trazado 154592" d="M190.8,77.358H111.282L101.359,28h99.362Z" transform="translate(-51.347 -14.184)" fill="#263238"/>
    <path id="Trazado_154593" data-name="Trazado 154593" d="M101.442,31.25,86.8,130.836H200.53L185.887,31.25" transform="translate(-43.971 -15.831)" fill="#fd9827"/>
    <g id="Grupo_158972" data-name="Grupo 158972" transform="translate(42.829 15.419)">
      <g id="Grupo_158971" data-name="Grupo 158971" clip-path="url(#clip-path-5)">
        <g id="Grupo_158970" data-name="Grupo 158970" transform="translate(-0.002 57.941)" opacity="0.3">
          <g id="Grupo_158969" data-name="Grupo 158969">
            <g id="Grupo_158968" data-name="Grupo 158968" clip-path="url(#clip-path-6)">
              <g id="Grupo_158967" data-name="Grupo 158967" opacity="0.7">
                <g id="Grupo_158966" data-name="Grupo 158966">
                  <g id="Grupo_158965" data-name="Grupo 158965" clip-path="url(#clip-path-6)">
                    <path id="Trazado_154594" data-name="Trazado 154594" d="M200.529,190.321H86.8l6.123-41.644H194.406Z" transform="translate(-86.797 -148.676)"/>
                  </g>
                </g>
              </g>
            </g>
          </g>
        </g>
      </g>
    </g>
    <path id="Trazado_154596" data-name="Trazado 154596" d="M101.442,31.25,86.8,130.836H200.53L185.887,31.25" transform="translate(-43.971 -15.831)" fill="none" stroke="#263238" stroke-linecap="round" stroke-linejoin="round" stroke-width="1"/>
    <path id="Trazado_154597" data-name="Trazado 154597" d="M187.071,31.25H108.815L95.245,130.836h105.4Z" transform="translate(-48.249 -15.831)" fill="#263238"/>
    <g id="Grupo_158974" data-name="Grupo 158974">
      <g id="Grupo_158973" data-name="Grupo 158973" clip-path="url(#clip-path)">
        <path id="Trazado_154598" data-name="Trazado 154598" d="M200.249,44.494H157.771l-.482-1.087a1.669,1.669,0,0,0-1.526-.993h-9.648a.972.972,0,0,0-.972.972v1.109h-7.689a.935.935,0,0,0-.917,1.119l6.274,31.208h52.078l6.274-31.208a.935.935,0,0,0-.916-1.119" transform="translate(-69.158 -21.486)" fill="#bfbfbf"/>
        <path id="Trazado_154599" data-name="Trazado 154599" d="M200.249,44.494H157.771l-.482-1.087a1.669,1.669,0,0,0-1.526-.993h-9.648a.972.972,0,0,0-.972.972v1.109h-7.689a.935.935,0,0,0-.917,1.119l6.274,31.208h52.078l6.274-31.208A.935.935,0,0,0,200.249,44.494Z" transform="translate(-69.158 -21.486)" fill="none" stroke="#263238" stroke-linecap="round" stroke-linejoin="round" stroke-width="1"/>
        <path id="Trazado_154600" data-name="Trazado 154600" d="M201.148,50.326l-.543,2.694L195.03,80.745a1.824,1.824,0,0,1-1.791,1.47H143.058a1.824,1.824,0,0,1-1.791-1.47l-5.709-28.381-.41-2.038a.938.938,0,0,1,.918-1.12H200.23a.938.938,0,0,1,.918,1.12" transform="translate(-68.455 -24.927)" fill="#fff"/>
      </g>
    </g>
    <g id="Grupo_158979" data-name="Grupo 158979" transform="translate(66.675 24.279)">
      <g id="Grupo_158978" data-name="Grupo 158978" clip-path="url(#clip-path-9)">
        <g id="Grupo_158977" data-name="Grupo 158977" transform="translate(0.428 3.158)" opacity="0.4">
          <g id="Grupo_158976" data-name="Grupo 158976">
            <g id="Grupo_158975" data-name="Grupo 158975" clip-path="url(#clip-path-10)">
              <path id="Trazado_154601" data-name="Trazado 154601" d="M201.044,56.262l-5.576,27.725a1.824,1.824,0,0,1-1.791,1.47H143.5a1.824,1.824,0,0,1-1.791-1.47L136,55.606Z" transform="translate(-135.997 -55.606)" fill="#fd9827"/>
            </g>
          </g>
        </g>
      </g>
    </g>
    <g id="Grupo_158981" data-name="Grupo 158981">
      <g id="Grupo_158980" data-name="Grupo 158980" clip-path="url(#clip-path)">
        <path id="Trazado_154603" data-name="Trazado 154603" d="M201.148,50.326l-.543,2.694L195.03,80.745a1.824,1.824,0,0,1-1.791,1.47H143.058a1.824,1.824,0,0,1-1.791-1.47l-5.709-28.381-.41-2.038a.938.938,0,0,1,.918-1.12H200.23A.938.938,0,0,1,201.148,50.326Z" transform="translate(-68.455 -24.927)" fill="none" stroke="#263238" stroke-linecap="round" stroke-linejoin="round" stroke-width="1"/>
        <path id="Trazado_154604" data-name="Trazado 154604" d="M200.206,59.07h-43.5l-.493-1.085a1.712,1.712,0,0,0-1.563-.99h-9.88a.982.982,0,0,0-.995.969V59.07h-7.873a.939.939,0,0,0-.938,1.116L141.393,91.3h53.326l6.425-31.115a.939.939,0,0,0-.938-1.116" transform="translate(-68.363 -28.873)" fill="#bfbfbf"/>
        <path id="Trazado_154605" data-name="Trazado 154605" d="M200.206,59.07h-43.5l-.493-1.085a1.712,1.712,0,0,0-1.563-.99h-9.88a.982.982,0,0,0-.995.969V59.07h-7.873a.939.939,0,0,0-.938,1.116L141.393,91.3h53.326l6.425-31.115A.939.939,0,0,0,200.206,59.07Z" transform="translate(-68.363 -28.873)" fill="none" stroke="#263238" stroke-linecap="round" stroke-linejoin="round" stroke-width="1"/>
        <path id="Trazado_154606" data-name="Trazado 154606" d="M201.126,65.066l-.543,2.635-5.719,27.7a1.861,1.861,0,0,1-1.836,1.461H141.645a1.861,1.861,0,0,1-1.836-1.461l-5.738-27.789-.523-2.541a.944.944,0,0,1,.938-1.12h65.7a.944.944,0,0,1,.938,1.12" transform="translate(-67.643 -32.394)" fill="#fff"/>
      </g>
    </g>
    <g id="Grupo_158986" data-name="Grupo 158986" transform="translate(65.885 31.553)">
      <g id="Grupo_158985" data-name="Grupo 158985" clip-path="url(#clip-path-12)">
        <g id="Grupo_158984" data-name="Grupo 158984" transform="translate(0.542 3.661)" opacity="0.4">
          <g id="Grupo_158983" data-name="Grupo 158983">
            <g id="Grupo_158982" data-name="Grupo 158982" clip-path="url(#clip-path-13)">
              <path id="Trazado_154607" data-name="Trazado 154607" d="M201.14,71.46l-5.719,27.7a1.861,1.861,0,0,1-1.836,1.461H142.2a1.861,1.861,0,0,1-1.836-1.461l-5.738-27.789Z" transform="translate(-134.627 -71.366)" fill="#fd9827"/>
            </g>
          </g>
        </g>
      </g>
    </g>
    <g id="Grupo_158988" data-name="Grupo 158988">
      <g id="Grupo_158987" data-name="Grupo 158987" clip-path="url(#clip-path)">
        <path id="Trazado_154609" data-name="Trazado 154609" d="M201.126,65.066l-.543,2.635-5.719,27.7a1.861,1.861,0,0,1-1.836,1.461H141.645a1.861,1.861,0,0,1-1.836-1.461l-5.738-27.789-.523-2.541a.944.944,0,0,1,.938-1.12h65.7A.944.944,0,0,1,201.126,65.066Z" transform="translate(-67.643 -32.394)" fill="none" stroke="#263238" stroke-linecap="round" stroke-linejoin="round" stroke-width="1"/>
        <path id="Trazado_154610" data-name="Trazado 154610" d="M200.163,73.646H155.65l-.5-1.081a1.756,1.756,0,0,0-1.6-.988h-10.11a.993.993,0,0,0-1.018.966v1.1H134.36a.944.944,0,0,0-.961,1.112l6.575,31.023h54.574l6.575-31.023a.944.944,0,0,0-.96-1.112" transform="translate(-67.568 -36.26)" fill="#bfbfbf"/>
        <path id="Trazado_154611" data-name="Trazado 154611" d="M200.163,73.646H155.65l-.5-1.081a1.756,1.756,0,0,0-1.6-.988h-10.11a.993.993,0,0,0-1.018.966v1.1H134.36a.944.944,0,0,0-.961,1.112l6.575,31.023h54.574l6.575-31.023A.944.944,0,0,0,200.163,73.646Z" transform="translate(-67.568 -36.26)" fill="none" stroke="#263238" stroke-linecap="round" stroke-linejoin="round" stroke-width="1"/>
        <path id="Trazado_154612" data-name="Trazado 154612" d="M200.144,78.694H132.9a.944.944,0,0,0-.96,1.112l6.41,30.242a1.893,1.893,0,0,0,1.877,1.459h52.587a1.893,1.893,0,0,0,1.877-1.459l6.41-30.242a.944.944,0,0,0-.96-1.112" transform="translate(-66.83 -39.865)" fill="#fff"/>
        <path id="Trazado_154613" data-name="Trazado 154613" d="M200.144,78.694H132.9a.944.944,0,0,0-.96,1.112l6.41,30.242a1.893,1.893,0,0,0,1.877,1.459h52.587a1.893,1.893,0,0,0,1.877-1.459l6.41-30.242A.944.944,0,0,0,200.144,78.694Z" transform="translate(-66.83 -39.865)" fill="none" stroke="#263238" stroke-linecap="round" stroke-linejoin="round" stroke-width="1"/>
        <path id="Trazado_154614" data-name="Trazado 154614" d="M200.12,85.222H154.589l-.516-1.078a1.8,1.8,0,0,0-1.636-.984H142.1a1,1,0,0,0-1.042.963v1.1h-8.242a.95.95,0,0,0-.982,1.109l6.725,30.929h55.822L201.1,86.332a.95.95,0,0,0-.982-1.109" transform="translate(-66.772 -42.127)" fill="#bfbfbf"/>
        <path id="Trazado_154615" data-name="Trazado 154615" d="M200.12,85.222H154.589l-.516-1.078a1.8,1.8,0,0,0-1.636-.984H142.1a1,1,0,0,0-1.042.963v1.1h-8.242a.95.95,0,0,0-.982,1.109l6.725,30.929h55.822L201.1,86.332A.95.95,0,0,0,200.12,85.222Z" transform="translate(-66.772 -42.127)" fill="none" stroke="#263238" stroke-linecap="round" stroke-linejoin="round" stroke-width="1"/>
        <path id="Trazado_154616" data-name="Trazado 154616" d="M200.1,90.438H131.322a.949.949,0,0,0-.982,1.109L136.9,121.7a1.927,1.927,0,0,0,1.92,1.454h53.79a1.927,1.927,0,0,0,1.92-1.454l6.556-30.151a.949.949,0,0,0-.982-1.109" transform="translate(-66.018 -45.814)" fill="#fff"/>
        <path id="Trazado_154617" data-name="Trazado 154617" d="M200.1,90.438H131.322a.949.949,0,0,0-.982,1.109L136.9,121.7a1.927,1.927,0,0,0,1.92,1.454h53.79a1.927,1.927,0,0,0,1.92-1.454l6.556-30.151A.949.949,0,0,0,200.1,90.438Z" transform="translate(-66.018 -45.814)" fill="none" stroke="#263238" stroke-linecap="round" stroke-linejoin="round" stroke-width="1"/>
        <path id="Trazado_154618" data-name="Trazado 154618" d="M200.076,96.8H153.527L153,95.724a1.847,1.847,0,0,0-1.672-.982H140.755a1.016,1.016,0,0,0-1.065.96v1.1h-8.426a.955.955,0,0,0-1,1.106l6.876,30.837h57.07L201.08,97.9a.955.955,0,0,0-1-1.106" transform="translate(-65.977 -47.995)" fill="#bfbfbf"/>
        <path id="Trazado_154619" data-name="Trazado 154619" d="M200.076,96.8H153.527L153,95.724a1.847,1.847,0,0,0-1.672-.982H140.755a1.016,1.016,0,0,0-1.065.96v1.1h-8.426a.955.955,0,0,0-1,1.106l6.876,30.837h57.07L201.08,97.9A.955.955,0,0,0,200.076,96.8Z" transform="translate(-65.977 -47.995)" fill="none" stroke="#263238" stroke-linecap="round" stroke-linejoin="round" stroke-width="1"/>
        <path id="Trazado_154620" data-name="Trazado 154620" d="M200.054,102.186H129.742a.956.956,0,0,0-1.007,1.105l1.648,7.4,5.053,22.663A1.968,1.968,0,0,0,137.4,134.8h55a1.968,1.968,0,0,0,1.964-1.451l2.477-11.117,4.224-18.942a.956.956,0,0,0-1.007-1.105" transform="translate(-65.205 -51.766)" fill="#fff"/>
      </g>
    </g>
    <g id="Grupo_158993" data-name="Grupo 158993" transform="translate(63.51 50.421)">
      <g id="Grupo_158992" data-name="Grupo 158992" clip-path="url(#clip-path-15)">
        <g id="Grupo_158991" data-name="Grupo 158991" transform="translate(1.669 8.501)" opacity="0.4">
          <g id="Grupo_158990" data-name="Grupo 158990">
            <g id="Grupo_158989" data-name="Grupo 158989" clip-path="url(#clip-path-16)">
              <path id="Trazado_154621" data-name="Trazado 154621" d="M132.1,119.416l5.053,22.663a1.968,1.968,0,0,0,1.964,1.451h55a1.968,1.968,0,0,0,1.964-1.451l2.477-11.117Z" transform="translate(-132.097 -119.416)" fill="#fd9827"/>
            </g>
          </g>
        </g>
      </g>
    </g>
    <g id="Grupo_158995" data-name="Grupo 158995">
      <g id="Grupo_158994" data-name="Grupo 158994" clip-path="url(#clip-path)">
        <path id="Trazado_154623" data-name="Trazado 154623" d="M200.054,102.186H129.742a.956.956,0,0,0-1.007,1.105l1.648,7.4,5.053,22.663A1.968,1.968,0,0,0,137.4,134.8h55a1.968,1.968,0,0,0,1.964-1.451l2.477-11.117,4.224-18.942A.956.956,0,0,0,200.054,102.186Z" transform="translate(-65.205 -51.766)" fill="none" stroke="#263238" stroke-linecap="round" stroke-linejoin="round" stroke-width="1"/>
        <path id="Trazado_154624" data-name="Trazado 154624" d="M147.887,168.065l-.622-1.035a2.047,2.047,0,0,0-1.861-.885l-11.486.528a1.069,1.069,0,0,0-1.113,1l.05,1.082-9.153.421c-.7.032-1.205.583-1.041,1.141l8.868,30.091,62-2.849,6.07-30.778c.113-.57-.438-1.073-1.141-1.041Z" transform="translate(-62.122 -83.96)" fill="#bfbfbf"/>
        <path id="Trazado_154625" data-name="Trazado 154625" d="M147.887,168.065l-.622-1.035a2.047,2.047,0,0,0-1.861-.885l-11.486.528a1.069,1.069,0,0,0-1.113,1l.05,1.082-9.153.421c-.7.032-1.205.583-1.041,1.141l8.868,30.091,62-2.849,6.07-30.778c.113-.57-.438-1.073-1.141-1.041Z" transform="translate(-62.122 -83.96)" fill="none" stroke="#263238" stroke-linecap="round" stroke-linejoin="round" stroke-width="1"/>
        <path id="Trazado_154626" data-name="Trazado 154626" d="M199.752,170.666l-.7,3.543-5.215,26.462a2.119,2.119,0,0,1-2.067,1.53l-59.738,2.743a2.115,2.115,0,0,1-2.2-1.332l-8.245-27.977-.4-1.357c-.163-.558.34-1.11,1.041-1.14l76.386-3.513c.706-.03,1.253.474,1.14,1.041" transform="translate(-61.375 -85.928)" fill="#fff"/>
      </g>
    </g>
    <g id="Grupo_159000" data-name="Grupo 159000" transform="translate(59.78 83.695)">
      <g id="Grupo_158999" data-name="Grupo 158999" clip-path="url(#clip-path-18)">
        <g id="Grupo_158998" data-name="Grupo 158998" transform="translate(0.43 4.585)" opacity="0.4">
          <g id="Grupo_158997" data-name="Grupo 158997">
            <g id="Grupo_158996" data-name="Grupo 158996" clip-path="url(#clip-path-19)">
              <path id="Trazado_154627" data-name="Trazado 154627" d="M199.494,178.916l-5.215,26.462a2.119,2.119,0,0,1-2.067,1.53l-59.738,2.743a2.115,2.115,0,0,1-2.2-1.332l-8.245-27.977Z" transform="translate(-122.027 -178.916)" fill="#fd9827"/>
            </g>
          </g>
        </g>
      </g>
    </g>
    <g id="Grupo_159002" data-name="Grupo 159002">
      <g id="Grupo_159001" data-name="Grupo 159001" clip-path="url(#clip-path)">
        <path id="Trazado_154629" data-name="Trazado 154629" d="M199.752,170.666l-.7,3.543-5.215,26.462a2.119,2.119,0,0,1-2.067,1.53l-59.738,2.743a2.115,2.115,0,0,1-2.2-1.332l-8.245-27.977-.4-1.357c-.163-.558.34-1.11,1.041-1.14l76.386-3.513C199.318,169.6,199.866,170.1,199.752,170.666Z" transform="translate(-61.375 -85.928)" fill="none" stroke="#263238" stroke-linecap="round" stroke-linejoin="round" stroke-width="1"/>
        <path id="Trazado_154630" data-name="Trazado 154630" d="M149.948,181.54l-.529-1.088a2.1,2.1,0,0,0-1.8-1.062l-11.713-.612a1.084,1.084,0,0,0-1.229.883l-.056,1.079-9.334-.488c-.717-.038-1.281.459-1.169,1.029l6.031,30.731,63.223,3.305,9.2-29.935c.17-.555-.339-1.108-1.056-1.146Z" transform="translate(-62.867 -90.564)" fill="#bfbfbf"/>
        <path id="Trazado_154631" data-name="Trazado 154631" d="M149.948,181.54l-.529-1.088a2.1,2.1,0,0,0-1.8-1.062l-11.713-.612a1.084,1.084,0,0,0-1.229.883l-.056,1.079-9.334-.488c-.717-.038-1.281.459-1.169,1.029l6.031,30.731,63.223,3.305,9.2-29.935c.17-.555-.339-1.108-1.056-1.146Z" transform="translate(-62.867 -90.564)" fill="none" stroke="#263238" stroke-linecap="round" stroke-linejoin="round" stroke-width="1"/>
        <path id="Trazado_154632" data-name="Trazado 154632" d="M202.333,191.029l-1.5,4.875-7.47,24.306a2.153,2.153,0,0,1-2.25,1.313l-60.922-3.183a2.163,2.163,0,0,1-2.1-1.539l-5.156-26.284-.72-3.676c-.113-.567.454-1.066,1.169-1.026l77.9,4.071c.715.039,1.229.592,1.056,1.145" transform="translate(-61.903 -94.129)" fill="#fff"/>
      </g>
    </g>
    <g id="Grupo_159007" data-name="Grupo 159007" transform="translate(60.294 91.683)">
      <g id="Grupo_159006" data-name="Grupo 159006" clip-path="url(#clip-path-21)">
        <g id="Grupo_159005" data-name="Grupo 159005" transform="translate(0.735 4.704)" opacity="0.4">
          <g id="Grupo_159004" data-name="Grupo 159004">
            <g id="Grupo_159003" data-name="Grupo 159003" clip-path="url(#clip-path-22)">
              <path id="Trazado_154633" data-name="Trazado 154633" d="M201.588,200.734l-7.47,24.306a2.153,2.153,0,0,1-2.25,1.313l-60.922-3.183a2.163,2.163,0,0,1-2.1-1.539l-5.156-26.284Z" transform="translate(-123.687 -195.346)" fill="#fd9827"/>
            </g>
          </g>
        </g>
      </g>
    </g>
    <g id="Grupo_159009" data-name="Grupo 159009">
      <g id="Grupo_159008" data-name="Grupo 159008" clip-path="url(#clip-path)">
        <path id="Trazado_154635" data-name="Trazado 154635" d="M202.333,191.029l-1.5,4.875-7.47,24.306a2.153,2.153,0,0,1-2.25,1.313l-60.922-3.183a2.163,2.163,0,0,1-2.1-1.539l-5.156-26.284-.72-3.676c-.113-.567.454-1.066,1.169-1.026l77.9,4.071C201.993,189.924,202.506,190.477,202.333,191.029Z" transform="translate(-61.903 -94.129)" fill="none" stroke="#263238" stroke-linecap="round" stroke-linejoin="round" stroke-width="1"/>
        <path id="Trazado_154636" data-name="Trazado 154636" d="M147.163,198.255l-.6-1.055a2.155,2.155,0,0,0-1.892-.964h-11.96a1.1,1.1,0,0,0-1.2.943v1.077h-9.531c-.732,0-1.28.524-1.136,1.086l7.777,30.282h64.557l7.778-30.282c.144-.562-.4-1.086-1.136-1.086Z" transform="translate(-61.205 -99.409)" fill="#bfbfbf"/>
        <path id="Trazado_154637" data-name="Trazado 154637" d="M147.163,198.255l-.6-1.055a2.155,2.155,0,0,0-1.892-.964h-11.96a1.1,1.1,0,0,0-1.2.943v1.077h-9.531c-.732,0-1.28.524-1.136,1.086l7.777,30.282h64.557l7.778-30.282c.144-.562-.4-1.086-1.136-1.086Z" transform="translate(-61.205 -99.409)" fill="none" stroke="#263238" stroke-linecap="round" stroke-linejoin="round" stroke-width="1"/>
        <path id="Trazado_154638" data-name="Trazado 154638" d="M191.129,236.675H128.921a2.2,2.2,0,0,1-2.221-1.424l-7.582-29.519c-.144-.562.4-1.086,1.136-1.086H199.8c.732,0,1.28.525,1.136,1.086l-7.582,29.519a2.2,2.2,0,0,1-2.221,1.424" transform="translate(-60.332 -103.67)" fill="#fff"/>
        <path id="Trazado_154639" data-name="Trazado 154639" d="M191.129,236.675H128.921a2.2,2.2,0,0,1-2.221-1.424l-7.582-29.519c-.144-.562.4-1.086,1.136-1.086H199.8c.732,0,1.28.525,1.136,1.086l-7.582,29.519A2.2,2.2,0,0,1,191.129,236.675Z" transform="translate(-60.332 -103.67)" fill="none" stroke="#263238" stroke-linecap="round" stroke-linejoin="round" stroke-width="1"/>
        <path id="Trazado_154640" data-name="Trazado 154640" d="M146.1,212.831l-.608-1.052a2.209,2.209,0,0,0-1.928-.961H131.374a1.113,1.113,0,0,0-1.228.94v1.073H120.43c-.746,0-1.305.523-1.158,1.083L127.2,244.1h65.805l7.928-30.189c.147-.56-.412-1.083-1.158-1.083Z" transform="translate(-60.409 -106.797)" fill="#bfbfbf"/>
        <path id="Trazado_154641" data-name="Trazado 154641" d="M146.1,212.831l-.608-1.052a2.209,2.209,0,0,0-1.928-.961H131.374a1.113,1.113,0,0,0-1.228.94v1.073H120.43c-.746,0-1.305.523-1.158,1.083L127.2,244.1h65.805l7.928-30.189c.147-.56-.412-1.083-1.158-1.083Z" transform="translate(-60.409 -106.797)" fill="none" stroke="#263238" stroke-linecap="round" stroke-linejoin="round" stroke-width="1"/>
        <path id="Trazado_154642" data-name="Trazado 154642" d="M190.917,251.321h-63.41a2.243,2.243,0,0,1-2.264-1.42l-7.728-29.428c-.147-.56.412-1.083,1.158-1.083h81.078c.746,0,1.305.523,1.158,1.083L193.181,249.9a2.243,2.243,0,0,1-2.264,1.42" transform="translate(-59.519 -111.139)" fill="#fff"/>
        <path id="Trazado_154643" data-name="Trazado 154643" d="M190.917,251.321h-63.41a2.243,2.243,0,0,1-2.264-1.42l-7.728-29.428c-.147-.56.412-1.083,1.158-1.083h81.078c.746,0,1.305.523,1.158,1.083L193.181,249.9A2.243,2.243,0,0,1,190.917,251.321Z" transform="translate(-59.519 -111.139)" fill="none" stroke="#263238" stroke-linecap="round" stroke-linejoin="round" stroke-width="1"/>
        <path id="Trazado_154644" data-name="Trazado 154644" d="M180.816,296.2H91.636l-19.52-55.357H200.336Z" transform="translate(-36.533 -122.007)" fill="#fd9827"/>
      </g>
    </g>
    <g id="Grupo_159017" data-name="Grupo 159017" transform="translate(35.584 118.836)">
      <g id="Grupo_159016" data-name="Grupo 159016" clip-path="url(#clip-path-24)">
        <g id="Grupo_159015" data-name="Grupo 159015" transform="translate(0)" opacity="0.3">
          <g id="Grupo_159014" data-name="Grupo 159014">
            <g id="Grupo_159013" data-name="Grupo 159013" clip-path="url(#clip-path-25)">
              <g id="Grupo_159012" data-name="Grupo 159012" opacity="0.7">
                <g id="Grupo_159011" data-name="Grupo 159011">
                  <g id="Grupo_159010" data-name="Grupo 159010" clip-path="url(#clip-path-25)">
                    <path id="Trazado_154645" data-name="Trazado 154645" d="M180.816,296.2H91.636l-19.52-55.357H200.336Z" transform="translate(-72.116 -240.842)"/>
                  </g>
                </g>
              </g>
            </g>
          </g>
        </g>
      </g>
    </g>
    <g id="Grupo_159019" data-name="Grupo 159019">
      <g id="Grupo_159018" data-name="Grupo 159018" clip-path="url(#clip-path)">
        <path id="Trazado_154647" data-name="Trazado 154647" d="M180.816,296.2H91.636l-19.52-55.357H200.336Z" transform="translate(-36.533 -122.007)" fill="none" stroke="#263238" stroke-linecap="round" stroke-linejoin="round" stroke-width="1"/>
        <path id="Trazado_154648" data-name="Trazado 154648" d="M198.639,226.08H73.814l-1.7,7.284H200.336Z" transform="translate(-36.533 -114.528)" fill="#fd9827"/>
        <path id="Trazado_154649" data-name="Trazado 154649" d="M198.639,226.08H73.814l-1.7,7.284H200.336Z" transform="translate(-36.533 -114.528)" fill="none" stroke="#263238" stroke-linecap="round" stroke-linejoin="round" stroke-width="1"/>
        <path id="Trazado_154650" data-name="Trazado 154650" d="M138.033,292.243l-1.25,11.817h64.4l-1.25-11.817H197.1l.811,8.436H140.064l.811-8.436Z" transform="translate(-69.292 -148.045)" fill="#bfbfbf"/>
        <path id="Trazado_154651" data-name="Trazado 154651" d="M138.033,292.243l-1.25,11.817h64.4l-1.25-11.817H197.1l.811,8.436H140.064l.811-8.436Z" transform="translate(-69.292 -148.045)" fill="none" stroke="#263238" stroke-linecap="round" stroke-linejoin="round" stroke-width="1"/>
        <path id="Trazado_154652" data-name="Trazado 154652" d="M200.7,318.909H137.268l-.485-2.716h64.4Z" transform="translate(-69.292 -160.178)" fill="#757575"/>
        <path id="Trazado_154653" data-name="Trazado 154653" d="M200.7,318.909H137.268l-.485-2.716h64.4Z" transform="translate(-69.292 -160.178)" fill="none" stroke="#263238" stroke-linecap="round" stroke-linejoin="round" stroke-width="1"/>
        <path id="Trazado_154654" data-name="Trazado 154654" d="M258.609,292.243l-.4,3.133.4,5.3h.811Z" transform="translate(-130.805 -148.045)" fill="#757575"/>
        <path id="Trazado_154655" data-name="Trazado 154655" d="M258.609,292.243l-.4,3.133.4,5.3h.811Z" transform="translate(-130.805 -148.045)" fill="none" stroke="#263238" stroke-linecap="round" stroke-linejoin="round" stroke-width="1"/>
        <path id="Trazado_154656" data-name="Trazado 154656" d="M144.244,292.243l.4,3.133-.4,5.3h-.811Z" transform="translate(-72.661 -148.045)" fill="#757575"/>
        <path id="Trazado_154657" data-name="Trazado 154657" d="M144.244,292.243l.4,3.133-.4,5.3h-.811Z" transform="translate(-72.661 -148.045)" fill="none" stroke="#263238" stroke-linecap="round" stroke-linejoin="round" stroke-width="1"/>
        <path id="Trazado_154658" data-name="Trazado 154658" d="M199.46,269.932h-41.5L155.978,259.9H201.44Z" transform="translate(-79.016 -131.663)" fill="#fff"/>
        <path id="Trazado_154659" data-name="Trazado 154659" d="M199.46,269.932h-41.5L155.978,259.9H201.44Z" transform="translate(-79.016 -131.663)" fill="none" stroke="#263238" stroke-linecap="round" stroke-linejoin="round" stroke-width="1"/>
      </g>
    </g>
    <g id="Grupo_159021" data-name="Grupo 159021">
      <g id="Grupo_159020" data-name="Grupo 159020" clip-path="url(#clip-path)">
        <path id="Trazado_154660" data-name="Trazado 154660" d="M182.736,79.7l-.407-1.159a1.94,1.94,0,0,0-1.608-1.218l-10.971-1.414a1.054,1.054,0,0,0-1.23.83l-.143,1.11-8.744-1.127a.984.984,0,0,0-1.187.985l3.111,32.14,59.221,7.633,11.159-30.3a.984.984,0,0,0-.9-1.254Z" transform="translate(-80.264 -38.447)" fill="#fff"/>
      </g>
    </g>
    <g id="Grupo_159026" data-name="Grupo 159026" transform="translate(78.178 37.448)">
      <g id="Grupo_159025" data-name="Grupo 159025" clip-path="url(#clip-path-29)">
        <g id="Grupo_159024" data-name="Grupo 159024" transform="translate(0 0)" opacity="0.4">
          <g id="Grupo_159023" data-name="Grupo 159023">
            <g id="Grupo_159022" data-name="Grupo 159022" clip-path="url(#clip-path-30)">
              <path id="Trazado_154661" data-name="Trazado 154661" d="M182.736,79.7l-.407-1.159a1.94,1.94,0,0,0-1.608-1.218l-10.971-1.414a1.054,1.054,0,0,0-1.23.83l-.143,1.11-8.744-1.127a.984.984,0,0,0-1.187.985l3.111,32.14,59.221,7.633,11.159-30.3a.984.984,0,0,0-.9-1.254Z" transform="translate(-158.443 -75.896)" fill="#fd9827"/>
            </g>
          </g>
        </g>
      </g>
    </g>
    <g id="Grupo_159028" data-name="Grupo 159028">
      <g id="Grupo_159027" data-name="Grupo 159027" clip-path="url(#clip-path)">
        <path id="Trazado_154663" data-name="Trazado 154663" d="M182.736,79.7l-.407-1.159a1.94,1.94,0,0,0-1.608-1.218l-10.971-1.414a1.054,1.054,0,0,0-1.23.83l-.143,1.11-8.744-1.127a.984.984,0,0,0-1.187.985l3.111,32.14,59.221,7.633,11.159-30.3a.984.984,0,0,0-.9-1.254Z" transform="translate(-80.264 -38.447)" fill="none" stroke="#263238" stroke-linecap="round" stroke-linejoin="round" stroke-width="1"/>
        <path id="Trazado_154664" data-name="Trazado 154664" d="M231.467,91.5l-10.1,27.429-.78,2.112a2.046,2.046,0,0,1-2.225,1.2L161.293,114.9a2.049,2.049,0,0,1-1.845-1.732l-3.035-31.332a.99.99,0,0,1,1.189-.987l48.562,6.261,24.4,3.143a.986.986,0,0,1,.9,1.253" transform="translate(-79.234 -40.95)" fill="#fff"/>
      </g>
    </g>
    <g id="Grupo_159036" data-name="Grupo 159036" transform="translate(77.175 39.886)">
      <g id="Grupo_159035" data-name="Grupo 159035" clip-path="url(#clip-path-32)">
        <g id="Grupo_159034" data-name="Grupo 159034" transform="translate(40.24 6.271)" opacity="0.3">
          <g id="Grupo_159033" data-name="Grupo 159033">
            <g id="Grupo_159032" data-name="Grupo 159032" clip-path="url(#clip-path-33)">
              <g id="Grupo_159031" data-name="Grupo 159031" opacity="0.7">
                <g id="Grupo_159030" data-name="Grupo 159030">
                  <g id="Grupo_159029" data-name="Grupo 159029" clip-path="url(#clip-path-33)">
                    <path id="Trazado_154665" data-name="Trazado 154665" d="M272.78,97.942l-10.1,27.429c-7.159-1.692-7.431-6.153-8.63-8.462-1.322-2.546-9.706-3.9-12.049-4.308a6.358,6.358,0,0,1-3.77-2.783c-2.112-5.931,8.911-11.1,8.911-11.1a22.549,22.549,0,0,1,.336-5.171l24.4,3.143a.986.986,0,0,1,.9,1.253" transform="translate(-237.962 -93.546)"/>
                  </g>
                </g>
              </g>
            </g>
          </g>
        </g>
      </g>
    </g>
    <g id="Grupo_159047" data-name="Grupo 159047">
      <g id="Grupo_159046" data-name="Grupo 159046" clip-path="url(#clip-path)">
        <path id="Trazado_154667" data-name="Trazado 154667" d="M231.467,91.5l-10.1,27.429-.78,2.112a2.046,2.046,0,0,1-2.225,1.2L161.293,114.9a2.049,2.049,0,0,1-1.845-1.732l-3.035-31.332a.99.99,0,0,1,1.189-.987l48.562,6.261,24.4,3.143A.986.986,0,0,1,231.467,91.5Z" transform="translate(-79.234 -40.95)" fill="none" stroke="#263238" stroke-linecap="round" stroke-linejoin="round" stroke-width="1"/>
        <path id="Trazado_154668" data-name="Trazado 154668" d="M178.168,99.967l.781,19.39,7.027.911.825-19.325Z" transform="translate(-90.257 -50.642)" fill="#fd9827"/>
        <path id="Trazado_154669" data-name="Trazado 154669" d="M178.168,99.967l.781,19.39,7.027.911.825-19.325Z" transform="translate(-90.257 -50.642)" fill="none" stroke="#263238" stroke-linecap="round" stroke-linejoin="round" stroke-width="1"/>
        <path id="Trazado_154670" data-name="Trazado 154670" d="M185.04,120.851a2.508,2.508,0,0,0-.342-2.03,7.454,7.454,0,0,0-1.426-1.564,6.979,6.979,0,0,0,2.653.876c-.01-1.01-.973-1.712-1.833-2.242a1.392,1.392,0,0,1,1.194.09.964.964,0,0,0-.35-.835c.107.092.278-.053.272-.194a.915.915,0,0,0-.175-.381,1.873,1.873,0,0,1-.153-.951q.025-1.741.051-3.482a.55.55,0,0,0,.406.447c-.014-.459-.057-.918-.1-1.376q-.165-1.742-.33-3.484" transform="translate(-92.842 -53.558)" fill="none" stroke="#263238" stroke-linecap="round" stroke-linejoin="round" stroke-width="1"/>
        <path id="Trazado_154671" data-name="Trazado 154671" d="M324.649,146.848s-39.82-35.624-42.358-37.868-4.392-2.147-5.759-3.514-2.049-2.342-7.612-2.245-12.981-2.927-14.64-4-4-.293-5.563-.9-5.563-.076-8,0-2.635-2.418-1.659-5.249,8.394-4.587,9.37-4S253.3,88,253.3,88c-.585-2.05-.39-7.027-.39-7.027s-4.1-1.757-5.66-2.343a10,10,0,0,0-3.709-.39,8.672,8.672,0,0,1,1.269-3.072c.781-.833,4.49-1.613,8.1-4.151s5.856-3.123,6.442-2.928a37.134,37.134,0,0,0,5.661,1.367c1.074,0,2.635-.976,4.2-.684s4.392,2.733,5.661,3.026a10.646,10.646,0,0,0,3.318.557c.732,0,3.709,2.176,3.709,2.176a15.377,15.377,0,0,1,3.611,1.171c1.854.878,3.807,5.075,4.685,6.442s.976,4.685.976,4.685a8.8,8.8,0,0,1,3.221,3.026c.878,1.757,33.184,19.129,33.184,19.129s5.108,19.975-2.928,37.868" transform="translate(-120.823 -34.473)" fill="#fff"/>
        <g id="Grupo_159039" data-name="Grupo 159039" transform="translate(117.682 33.576)" opacity="0.4">
          <g id="Grupo_159038" data-name="Grupo 159038">
            <g id="Grupo_159037" data-name="Grupo 159037" clip-path="url(#clip-path-36)">
              <path id="Trazado_154672" data-name="Trazado 154672" d="M296.275,121.469c-7.135-6.385-13.056-11.674-13.983-12.493-2.541-2.245-4.391-2.146-5.758-3.513s-2.053-2.339-7.613-2.245-12.982-2.926-14.64-4-4-.291-5.566-.9-5.561-.074-8,0-2.635-2.418-1.658-5.25,8.393-4.584,9.37-4S253.3,88,253.3,88c-.587-2.053-.39-7.031-.39-7.031s-4.1-1.757-5.659-2.339a9.965,9.965,0,0,0-3.711-.39,8.706,8.706,0,0,1,1.268-3.074c.78-.834,4.49-1.613,8.1-4.15s5.857-3.123,6.439-2.931a36.879,36.879,0,0,0,5.664,1.367c.814,0,1.914-.562,3.084-.706-.947.528-1.6,1.535-1.426,2.072.281.849,1.076,3.01,1.12,3.148-.212-.207-5.329-5.26-8.635-5-2.857.222-5.758,5.033-5.27,8.566s-.7,3.533-.054,6.168,1.224,6.345.247,7.811-2.926-1.14-2.926-1.14a4.756,4.756,0,0,0-2.472,4.066c0,2.832,2.936,3.025,4.707,3.321s8.191,3.824,12.592,4.011l4.4.183s-2.541-3.459-1.465-3.632a7,7,0,0,1,6.439,3.449c2.151,3.306,3.75,4.051,7.682,5.679,2.27.938,8.4,7.554,13.233,14.023" transform="translate(-238.504 -68.048)" fill="#fd9827"/>
            </g>
          </g>
        </g>
        <g id="Grupo_159042" data-name="Grupo 159042" transform="translate(152.909 36.802)" opacity="0.4">
          <g id="Grupo_159041" data-name="Grupo 159041">
            <g id="Grupo_159040" data-name="Grupo 159040" clip-path="url(#clip-path-37)">
              <path id="Trazado_154673" data-name="Trazado 154673" d="M351.941,105.859c-.6-.281-19.737-9.3-20.7-10.648-.977-1.367-2.146-1.678-3.222-3.035s-4.683-2.235-5.171-4.09-1.076-7.485-1.954-8.181a16.347,16.347,0,0,0-2.339-1.431l1.451,3.617s-3.306-4.683-4.09-4.811.849,3.4.706,3.3c-.094-.069-3.725-3.454-6.725-5.99a4.636,4.636,0,0,0,1.14.518,10.754,10.754,0,0,0,3.321.558c.73,0,3.711,2.176,3.711,2.176a15.317,15.317,0,0,1,3.612,1.169c1.85.878,3.8,5.077,4.683,6.444s.977,4.683.977,4.683a8.8,8.8,0,0,1,3.222,3.025c.518,1.041,12.059,7.559,21.38,12.7" transform="translate(-309.897 -74.586)" fill="#fd9827"/>
            </g>
          </g>
        </g>
        <g id="Grupo_159045" data-name="Grupo 159045" transform="translate(194.953 68.075)" opacity="0.4">
          <g id="Grupo_159044" data-name="Grupo 159044">
            <g id="Grupo_159043" data-name="Grupo 159043" clip-path="url(#clip-path-38)">
              <path id="Trazado_154674" data-name="Trazado 154674" d="M395.122,137.971a.038.038,0,0,1-.015,0h.01Z" transform="translate(-395.107 -137.966)" fill="#fd9827"/>
            </g>
          </g>
        </g>
        <path id="Trazado_154675" data-name="Trazado 154675" d="M324.649,146.848s-39.82-35.624-42.358-37.868-4.392-2.147-5.759-3.514-2.049-2.342-7.612-2.245-12.981-2.927-14.64-4-4-.293-5.563-.9-5.563-.076-8,0-2.635-2.418-1.659-5.249,8.394-4.587,9.37-4S253.3,88,253.3,88c-.585-2.05-.39-7.027-.39-7.027s-4.1-1.757-5.66-2.343a10,10,0,0,0-3.709-.39,8.672,8.672,0,0,1,1.269-3.072c.781-.833,4.49-1.613,8.1-4.151s5.856-3.123,6.442-2.928a37.134,37.134,0,0,0,5.661,1.367c1.074,0,2.635-.976,4.2-.684s4.392,2.733,5.661,3.026a10.646,10.646,0,0,0,3.318.557c.732,0,3.709,2.176,3.709,2.176a15.377,15.377,0,0,1,3.611,1.171c1.854.878,3.807,5.075,4.685,6.442s.976,4.685.976,4.685a8.8,8.8,0,0,1,3.221,3.026c.878,1.757,33.184,19.129,33.184,19.129" transform="translate(-120.823 -34.473)" fill="none" stroke="#263238" stroke-linecap="round" stroke-linejoin="round" stroke-width="1"/>
        <path id="Trazado_154676" data-name="Trazado 154676" d="M267.706,89.739s.455-3.839,0-4.376" transform="translate(-135.615 -43.243)" fill="none" stroke="#263238" stroke-linecap="round" stroke-linejoin="round" stroke-width="1"/>
        <path id="Trazado_154677" data-name="Trazado 154677" d="M292.1,75.176s6.637,5.622,7.157,5.966" transform="translate(-147.974 -38.083)" fill="none" stroke="#263238" stroke-linecap="round" stroke-linejoin="round" stroke-width="1"/>
        <path id="Trazado_154678" data-name="Trazado 154678" d="M304.739,71.344c.911.57,8.274,7.1,10.682,8.593" transform="translate(-154.375 -36.142)" fill="none" stroke="#263238" stroke-linecap="round" stroke-linejoin="round" stroke-width="1"/>
        <path id="Trazado_154679" data-name="Trazado 154679" d="M342.372,103.995c-.716-.423-2.6-1.334-2.8-2.05" transform="translate(-172.022 -51.644)" fill="none" stroke="#263238" stroke-linecap="round" stroke-linejoin="round" stroke-width="1"/>
        <path id="Trazado_154680" data-name="Trazado 154680" d="M268.5,108.473a4.607,4.607,0,0,1,0,2.375" transform="translate(-136.016 -54.951)" fill="none" stroke="#263238" stroke-linecap="round" stroke-linejoin="round" stroke-width="1"/>
        <path id="Trazado_154681" data-name="Trazado 154681" d="M256.432,118.693a3.882,3.882,0,0,0,1.236,4.229" transform="translate(-129.807 -60.128)" fill="none" stroke="#263238" stroke-linecap="round" stroke-linejoin="round" stroke-width="1"/>
        <path id="Trazado_154682" data-name="Trazado 154682" d="M273.227,69.9a4.994,4.994,0,0,0-1.3,2.6" transform="translate(-137.752 -35.411)" fill="none" stroke="#263238" stroke-linecap="round" stroke-linejoin="round" stroke-width="1"/>
        <path id="Trazado_154683" data-name="Trazado 154683" d="M253.992,85.362a4.474,4.474,0,0,0,2.538,2.6" transform="translate(-128.668 -43.243)" fill="none" stroke="#263238" stroke-linecap="round" stroke-linejoin="round" stroke-width="1"/>
        <path id="Trazado_154684" data-name="Trazado 154684" d="M308.913,136.315a47.947,47.947,0,0,0-4.174-5.226" transform="translate(-154.375 -66.407)" fill="none" stroke="#263238" stroke-linecap="round" stroke-linejoin="round" stroke-width="1"/>
      </g>
    </g>
    <g id="Grupo_159058" data-name="Grupo 159058">
      <g id="Grupo_159057" data-name="Grupo 159057" clip-path="url(#clip-path)">
        <path id="Trazado_154685" data-name="Trazado 154685" d="M36.533,347.846s31.876-20.952,33.828-23.655a20.914,20.914,0,0,1,3.514-3.933s.911-7.808,3.253-11.842a95.243,95.243,0,0,0,4.294-9.109c1.041-2.082,5.986-3.643,7.418-4.424s3.9-2.342,5.335-2.342a8.009,8.009,0,0,1,3.123.911s4.815-2.473,7.027-.911c0,0,5.466.261,6.767.13a8.1,8.1,0,0,1,3.254.781s3.253-2.335,5.465-1.428,3.264,1.3,3.324,2.6-.548,5.726-.548,5.726H121.5a69.452,69.452,0,0,0-4.034,5.688c-.39.949-2.473,6.154-2.473,6.154s2.733-2.082,4.424-3.643,4.685-4.555,7.808-5.336,5.336.965,5.336,2.825c0,0-3.644,2.9-4.424,3.812s-2.191,3.253-3.763,4.945-5.216,8.719-8.339,12.1-16.787,10.671-19.91,11.712c0,0-19,13.273-27.327,24.465,0,0-22.64.13-32.266-15.225" transform="translate(-18.507 -147.828)" fill="#fff"/>
        <g id="Grupo_159050" data-name="Grupo 159050" transform="translate(56.036 187.607)" opacity="0.4">
          <g id="Grupo_159049" data-name="Grupo 159049">
            <g id="Grupo_159048" data-name="Grupo 159048" clip-path="url(#clip-path-40)">
              <path id="Trazado_154686" data-name="Trazado 154686" d="M137.365,380.528a6.073,6.073,0,0,0,2.946.474,47.781,47.781,0,0,1-5.161,2.388,183.571,183.571,0,0,0-21.582,17.921c3.153-5.018,9.207-11.28,11.457-12.582,3.133-1.826,9.153-7.717,9.153-7.717s2.285-1.4,3.187-.484" transform="translate(-113.567 -380.219)" fill="#fd9827"/>
            </g>
          </g>
        </g>
        <g id="Grupo_159053" data-name="Grupo 159053" transform="translate(22.419 143.985)" opacity="0.4">
          <g id="Grupo_159052" data-name="Grupo 159052">
            <g id="Grupo_159051" data-name="Grupo 159051" clip-path="url(#clip-path-41)">
              <path id="Trazado_154687" data-name="Trazado 154687" d="M123.93,308.546a37.631,37.631,0,0,1,4.273-3.617,21.855,21.855,0,0,0-3.868,5.961c-.6,3.271-6.247,10.016-6.247,10.016,1.821-5.852.257-7.026.77-8.719a42.242,42.242,0,0,0,.844-5.842s.987-1.7,2.028-2.092,3.775-7.288,4.283-8.22-3.37-2.452-4.411-2.581-1.431,1.687-3.513,2.581a22.668,22.668,0,0,0-5.66,3.488c-.928.928-2.635,5.191-2.743,5.452.074-.3,1.253-5.048,1.559-6,.257-.789,2.758-2.245,3.686-2.763-1.539.715-2.4-.641-3.686-1.875a5.588,5.588,0,0,0-5.674-1.056,12.086,12.086,0,0,0-3.76,2.25,11.8,11.8,0,0,0-4.426-.395c-1.071.326-3.592,1.456-3.592,1.456s-2.28-1.312-6.025,2.383c-1.564,1.544-6.77,13.342-5.99,11.911.76-1.387,4.179-5.625,4.391-5.886-.242.553-7.145,16.056-8.556,17.018-1.431.982-1.821,4.48-6.893,7.347-4.826,2.719-23.437,14.418-25.283,15.577,8.812-5.852,27.937-18.676,29.432-20.753a21.029,21.029,0,0,1,3.513-3.933s.913-7.811,3.257-11.842,3.252-7.031,4.293-9.113,5.985-3.641,7.416-4.421,3.908-2.344,5.339-2.344a8,8,0,0,1,3.123.913s4.816-2.477,7.026-.913c0,0,5.467.262,6.765.128a8.129,8.129,0,0,1,3.257.785s3.252-2.339,5.462-1.431,3.266,1.3,3.326,2.6-.547,5.725-.547,5.725l-1.087,0s-3.641,4.742-4.031,5.689-2.472,6.153-2.472,6.153,2.729-2.082,4.421-3.641" transform="translate(-45.437 -291.812)" fill="#fd9827"/>
            </g>
          </g>
        </g>
        <g id="Grupo_159056" data-name="Grupo 159056" transform="translate(107.638 158.013)" opacity="0.4">
          <g id="Grupo_159055" data-name="Grupo 159055">
            <g id="Grupo_159054" data-name="Grupo 159054" clip-path="url(#clip-path-42)">
              <path id="Trazado_154688" data-name="Trazado 154688" d="M224.566,320.436s-3.641,2.9-4.426,3.814c-.469.548-1.164,1.613-1.993,2.743a21.653,21.653,0,0,0,.834-4.046,6.7,6.7,0,0,1,3.123-2.472,5.924,5.924,0,0,1,2.452-.187.746.746,0,0,1,.01.148" transform="translate(-218.147 -320.241)" fill="#fd9827"/>
            </g>
          </g>
        </g>
        <path id="Trazado_154689" data-name="Trazado 154689" d="M36.533,347.846s31.876-20.952,33.828-23.655a20.914,20.914,0,0,1,3.514-3.933s.911-7.808,3.253-11.842a95.243,95.243,0,0,0,4.294-9.109c1.041-2.082,5.986-3.643,7.418-4.424s3.9-2.342,5.335-2.342a8.009,8.009,0,0,1,3.123.911s4.815-2.473,7.027-.911c0,0,5.466.261,6.767.13a8.1,8.1,0,0,1,3.254.781s3.253-2.335,5.465-1.428,3.264,1.3,3.324,2.6-.548,5.726-.548,5.726H121.5a69.452,69.452,0,0,0-4.034,5.688c-.39.949-2.473,6.154-2.473,6.154s2.733-2.082,4.424-3.643,4.685-4.555,7.808-5.336,5.336.965,5.336,2.825c0,0-3.644,2.9-4.424,3.812s-2.191,3.253-3.763,4.945-5.216,8.719-8.339,12.1-16.787,10.671-19.91,11.712c0,0-19,13.273-27.327,24.465" transform="translate(-18.507 -147.828)" fill="none" stroke="#263238" stroke-linecap="round" stroke-linejoin="round" stroke-width="1"/>
        <path id="Trazado_154690" data-name="Trazado 154690" d="M194.751,333.11a13.823,13.823,0,0,1-.781,7.418" transform="translate(-98.262 -168.748)" fill="none" stroke="#263238" stroke-linecap="round" stroke-linejoin="round" stroke-width="1"/>
        <path id="Trazado_154691" data-name="Trazado 154691" d="M185.266,298.125a16.265,16.265,0,0,0,4.424-2.993" transform="translate(-93.853 -149.509)" fill="none" stroke="#263238" stroke-linecap="round" stroke-linejoin="round" stroke-width="1"/>
        <path id="Trazado_154692" data-name="Trazado 154692" d="M208.739,306.3a9.341,9.341,0,0,0,.846-2.733" transform="translate(-105.744 -153.784)" fill="none" stroke="#263238" stroke-linecap="round" stroke-linejoin="round" stroke-width="1"/>
        <path id="Trazado_154693" data-name="Trazado 154693" d="M169.45,293.283a6.7,6.7,0,0,0-4.359,1.5" transform="translate(-83.632 -148.571)" fill="none" stroke="#263238" stroke-linecap="round" stroke-linejoin="round" stroke-width="1"/>
        <path id="Trazado_154694" data-name="Trazado 154694" d="M150.6,295.132s-3.9,1.822-5.27,1.822-3.579,1.822-3.579,2.343" transform="translate(-71.808 -149.509)" fill="none" stroke="#263238" stroke-linecap="round" stroke-linejoin="round" stroke-width="1"/>
        <path id="Trazado_154695" data-name="Trazado 154695" d="M112.212,343.65a27.072,27.072,0,0,0,2.8-5.66" transform="translate(-56.845 -171.22)" fill="none" stroke="#263238" stroke-linecap="round" stroke-linejoin="round" stroke-width="1"/>
        <path id="Trazado_154696" data-name="Trazado 154696" d="M178.7,303.572a5.327,5.327,0,0,0-3.318,2.733c-.846,2.082-4.75,9.3-4.75,9.3" transform="translate(-86.438 -153.784)" fill="none" stroke="#263238" stroke-linecap="round" stroke-linejoin="round" stroke-width="1"/>
        <path id="Trazado_154697" data-name="Trazado 154697" d="M155.247,301.2c-.521,1.236-6.376,12.1-6.376,12.1" transform="translate(-75.415 -152.582)" fill="none" stroke="#263238" stroke-linecap="round" stroke-linejoin="round" stroke-width="1"/>
      </g>
    </g>
  </g>
</svg>
