<svg xmlns="http://www.w3.org/2000/svg" width="84" height="84" viewBox="0 0 84 84">
  <g id="Grupo_968462" data-name="Grupo 968462" transform="translate(12386 6985)">
    <g id="binario" transform="translate(-12370 -6978.666)">
      <g id="Grupo_960410" data-name="Grupo 960410" transform="translate(0 10.666)">
        <g id="Grupo_960409" data-name="Grupo 960409" transform="translate(0 0)">
          <path id="Trazado_658300" data-name="Trazado 658300" d="M1.261,13.189H2.523V24.54a1.261,1.261,0,1,0,2.522,0V11.927a1.262,1.262,0,0,0-1.261-1.261H1.261a1.261,1.261,0,0,0,0,2.523Z" transform="translate(0 -10.666)" fill="#b5a29b"/>
          <path id="Trazado_658301" data-name="Trazado 658301" d="M110.451,160h-2.522a1.261,1.261,0,0,0,0,2.523h1.261v11.351a1.261,1.261,0,0,0,2.523,0V161.261A1.262,1.262,0,0,0,110.451,160Z" transform="translate(-94.055 -142.343)" fill="#b5a29b"/>
          <path id="Trazado_658302" data-name="Trazado 658302" d="M91.639,10.667H86.594a1.262,1.262,0,0,0-1.261,1.261V24.54A1.262,1.262,0,0,0,86.594,25.8h5.045A1.262,1.262,0,0,0,92.9,24.54V11.928A1.262,1.262,0,0,0,91.639,10.667ZM90.378,23.279H87.856V13.189h2.522Z" transform="translate(-75.243 -10.667)" fill="#b5a29b"/>
          <path id="Trazado_658303" data-name="Trazado 658303" d="M6.306,160H1.261A1.262,1.262,0,0,0,0,161.261v12.612a1.262,1.262,0,0,0,1.261,1.261H6.306a1.262,1.262,0,0,0,1.261-1.261V161.261A1.262,1.262,0,0,0,6.306,160ZM5.045,172.612H2.522v-10.09H5.045v10.09Z" transform="translate(0 -142.343)" fill="#b5a29b"/>
          <path id="Trazado_658304" data-name="Trazado 658304" d="M302.451,160h-2.522a1.261,1.261,0,0,0,0,2.523h1.261v11.351a1.261,1.261,0,0,0,2.523,0V161.261A1.262,1.262,0,0,0,302.451,160Z" transform="translate(-263.353 -142.343)" fill="#b5a29b"/>
          <path id="Trazado_658305" data-name="Trazado 658305" d="M198.305,160H193.26A1.262,1.262,0,0,0,192,161.261v12.612a1.262,1.262,0,0,0,1.261,1.261h5.045a1.262,1.262,0,0,0,1.261-1.261V161.261A1.262,1.262,0,0,0,198.305,160Zm-1.261,12.612h-2.522v-10.09h2.522Z" transform="translate(-169.297 -142.343)" fill="#b5a29b"/>
          <path id="Trazado_658306" data-name="Trazado 658306" d="M390.305,160H385.26A1.262,1.262,0,0,0,384,161.261v12.612a1.262,1.262,0,0,0,1.261,1.261h5.045a1.262,1.262,0,0,0,1.261-1.261V161.261A1.262,1.262,0,0,0,390.305,160Zm-1.261,12.612h-2.522v-10.09h2.522Z" transform="translate(-338.595 -142.343)" fill="#b5a29b"/>
          <path id="Trazado_658307" data-name="Trazado 658307" d="M283.639,10.667h-5.045a1.262,1.262,0,0,0-1.261,1.261V24.54a1.262,1.262,0,0,0,1.261,1.261h5.045A1.262,1.262,0,0,0,284.9,24.54V11.928A1.262,1.262,0,0,0,283.639,10.667Zm-1.261,12.612h-2.522V13.189h2.522Z" transform="translate(-244.541 -10.667)" fill="#b5a29b"/>
          <path id="Trazado_658308" data-name="Trazado 658308" d="M193.262,13.189h1.261V24.54a1.261,1.261,0,1,0,2.523,0V11.927a1.262,1.262,0,0,0-1.261-1.261h-2.522a1.261,1.261,0,0,0,0,2.523Z" transform="translate(-169.299 -10.666)" fill="#b5a29b"/>
          <path id="Trazado_658309" data-name="Trazado 658309" d="M385.262,13.189h1.261V24.54a1.261,1.261,0,0,0,2.523,0V11.927a1.262,1.262,0,0,0-1.261-1.261h-2.522a1.261,1.261,0,0,0,0,2.523Z" transform="translate(-338.597 -10.666)" fill="#b5a29b"/>
          <path id="Trazado_658310" data-name="Trazado 658310" d="M3.784,309.333H1.261a1.261,1.261,0,1,0,0,2.523H2.523v11.351a1.261,1.261,0,0,0,2.523,0V310.594A1.262,1.262,0,0,0,3.784,309.333Z" transform="translate(0 -274.019)" fill="#b5a29b"/>
          <path id="Trazado_658311" data-name="Trazado 658311" d="M91.639,309.333H86.594a1.262,1.262,0,0,0-1.261,1.261v12.612a1.262,1.262,0,0,0,1.261,1.261h5.045a1.262,1.262,0,0,0,1.261-1.261V310.594A1.262,1.262,0,0,0,91.639,309.333Zm-1.261,12.612H87.856v-10.09h2.522Z" transform="translate(-75.243 -274.019)" fill="#b5a29b"/>
          <path id="Trazado_658312" data-name="Trazado 658312" d="M283.639,309.333h-5.045a1.262,1.262,0,0,0-1.261,1.261v12.612a1.262,1.262,0,0,0,1.261,1.261h5.045a1.262,1.262,0,0,0,1.261-1.261V310.594A1.262,1.262,0,0,0,283.639,309.333Zm-1.261,12.612h-2.522v-10.09h2.522Z" transform="translate(-244.541 -274.019)" fill="#b5a29b"/>
          <path id="Trazado_658313" data-name="Trazado 658313" d="M195.784,309.333h-2.522a1.261,1.261,0,0,0,0,2.523h1.261v11.351a1.261,1.261,0,0,0,2.523,0V310.594A1.262,1.262,0,0,0,195.784,309.333Z" transform="translate(-169.298 -274.019)" fill="#b5a29b"/>
          <path id="Trazado_658314" data-name="Trazado 658314" d="M387.784,309.333h-2.522a1.261,1.261,0,0,0,0,2.523h1.261v11.351a1.261,1.261,0,1,0,2.523,0V310.594A1.262,1.262,0,0,0,387.784,309.333Z" transform="translate(-338.596 -274.019)" fill="#b5a29b"/>
        </g>
      </g>
    </g>
    <rect id="Rectángulo_337778" data-name="Rectángulo 337778" width="84" height="84" transform="translate(-12386 -6985)" fill="none"/>
  </g>
</svg>
