<svg xmlns="http://www.w3.org/2000/svg" xmlns:xlink="http://www.w3.org/1999/xlink" width="178.939" height="131.035" viewBox="0 0 178.939 131.035">
  <defs>
    <clipPath id="clip-path">
      <rect id="Rect치ngulo_34881" data-name="Rect치ngulo 34881" width="151.064" height="77.065" fill="#31313c"/>
    </clipPath>
    <clipPath id="clip-path-2">
      <rect id="Rect치ngulo_35652" data-name="Rect치ngulo 35652" width="58.371" height="85.038" fill="none"/>
    </clipPath>
  </defs>
  <g id="Grupo_960342" data-name="Grupo 960342" transform="translate(-224.5 -891.938)">
    <g id="Grupo_158845" data-name="Grupo 158845" transform="translate(224.5 891.938)">
      <g id="Grupo_158521" data-name="Grupo 158521" transform="translate(0)">
        <g id="Grupo_157916" data-name="Grupo 157916" transform="translate(0)">
          <g id="Enmascarar_grupo_63" data-name="Enmascarar grupo 63" transform="translate(0 53.97)" opacity="0.311" clip-path="url(#clip-path)">
            <path id="Trazado_151731" data-name="Trazado 151731" d="M71.927,113.568a41.642,41.642,0,1,1,41.642-41.642,41.689,41.689,0,0,1-41.642,41.642m0,30.285A71.927,71.927,0,1,0,0,71.927,71.927,71.927,0,0,0,71.927,143.853Z" transform="translate(3.12 5.139)" fill="#31313c"/>
          </g>
          <path id="Trazado_145968" data-name="Trazado 145968" d="M30.947,0A30.947,30.947,0,1,1,0,30.947,30.947,30.947,0,0,1,30.947,0Z" transform="translate(117.046 0)" fill="#31313c" opacity="0.444" style="mix-blend-mode: multiply;isolation: isolate"/>
          <g id="Grupo_78276" data-name="Grupo 78276" transform="translate(79.094 29.111)">
            <g id="Grupo_53306" data-name="Grupo 53306">
              <path id="Trazado_99200" data-name="Trazado 99200" d="M415.9,51.029a.843.843,0,1,1-.843-.805A.825.825,0,0,1,415.9,51.029Z" transform="translate(-414.214 -50.224)" fill="#fff"/>
              <path id="Trazado_99201" data-name="Trazado 99201" d="M424.345,51.029a.843.843,0,1,1-.842-.805A.824.824,0,0,1,424.345,51.029Z" transform="translate(-415.08 -50.224)" fill="#fff"/>
              <path id="Trazado_99202" data-name="Trazado 99202" d="M432.791,51.029a.843.843,0,1,1-.842-.805A.824.824,0,0,1,432.791,51.029Z" transform="translate(-415.945 -50.224)" fill="#fff"/>
              <path id="Trazado_99203" data-name="Trazado 99203" d="M441.238,51.029a.843.843,0,1,1-.843-.805A.825.825,0,0,1,441.238,51.029Z" transform="translate(-416.81 -50.224)" fill="#fff"/>
              <path id="Trazado_99204" data-name="Trazado 99204" d="M449.684,51.029a.843.843,0,1,1-.842-.805A.825.825,0,0,1,449.684,51.029Z" transform="translate(-417.676 -50.224)" fill="#fff"/>
              <path id="Trazado_99205" data-name="Trazado 99205" d="M458.13,51.029a.843.843,0,1,1-.842-.805A.824.824,0,0,1,458.13,51.029Z" transform="translate(-418.541 -50.224)" fill="#fff"/>
              <path id="Trazado_99206" data-name="Trazado 99206" d="M466.577,51.029a.843.843,0,1,1-.843-.805A.825.825,0,0,1,466.577,51.029Z" transform="translate(-419.406 -50.224)" fill="#fff"/>
              <path id="Trazado_99207" data-name="Trazado 99207" d="M475.023,51.029a.843.843,0,1,1-.842-.805A.824.824,0,0,1,475.023,51.029Z" transform="translate(-420.272 -50.224)" fill="#fff"/>
              <path id="Trazado_99208" data-name="Trazado 99208" d="M483.469,51.029a.843.843,0,1,1-.842-.805A.824.824,0,0,1,483.469,51.029Z" transform="translate(-421.137 -50.224)" fill="#fff"/>
              <path id="Trazado_99209" data-name="Trazado 99209" d="M491.916,51.029a.843.843,0,1,1-.843-.805A.825.825,0,0,1,491.916,51.029Z" transform="translate(-422.003 -50.224)" fill="#fff"/>
              <path id="Trazado_99210" data-name="Trazado 99210" d="M500.362,51.029a.843.843,0,1,1-.843-.805A.825.825,0,0,1,500.362,51.029Z" transform="translate(-422.868 -50.224)" fill="#fff"/>
            </g>
            <g id="Grupo_53307" data-name="Grupo 53307" transform="translate(0 6.444)">
              <path id="Trazado_99211" data-name="Trazado 99211" d="M415.9,58.537a.843.843,0,1,1-.843-.805A.825.825,0,0,1,415.9,58.537Z" transform="translate(-414.214 -57.732)" fill="#fff"/>
              <path id="Trazado_99212" data-name="Trazado 99212" d="M424.345,58.537a.843.843,0,1,1-.842-.805A.824.824,0,0,1,424.345,58.537Z" transform="translate(-415.08 -57.732)" fill="#fff"/>
              <path id="Trazado_99213" data-name="Trazado 99213" d="M432.791,58.537a.843.843,0,1,1-.842-.805A.824.824,0,0,1,432.791,58.537Z" transform="translate(-415.945 -57.732)" fill="#fff"/>
              <path id="Trazado_99214" data-name="Trazado 99214" d="M441.238,58.537a.843.843,0,1,1-.843-.805A.825.825,0,0,1,441.238,58.537Z" transform="translate(-416.81 -57.732)" fill="#fff"/>
              <path id="Trazado_99215" data-name="Trazado 99215" d="M449.684,58.537a.843.843,0,1,1-.842-.805A.825.825,0,0,1,449.684,58.537Z" transform="translate(-417.676 -57.732)" fill="#fff"/>
              <path id="Trazado_99216" data-name="Trazado 99216" d="M458.13,58.537a.843.843,0,1,1-.842-.805A.824.824,0,0,1,458.13,58.537Z" transform="translate(-418.541 -57.732)" fill="#fff"/>
              <path id="Trazado_99217" data-name="Trazado 99217" d="M466.577,58.537a.843.843,0,1,1-.843-.805A.825.825,0,0,1,466.577,58.537Z" transform="translate(-419.406 -57.732)" fill="#fff"/>
              <path id="Trazado_99218" data-name="Trazado 99218" d="M475.023,58.537a.843.843,0,1,1-.842-.805A.824.824,0,0,1,475.023,58.537Z" transform="translate(-420.272 -57.732)" fill="#fff"/>
              <path id="Trazado_99219" data-name="Trazado 99219" d="M483.469,58.537a.843.843,0,1,1-.842-.805A.824.824,0,0,1,483.469,58.537Z" transform="translate(-421.137 -57.732)" fill="#fff"/>
              <path id="Trazado_99220" data-name="Trazado 99220" d="M491.916,58.537a.843.843,0,1,1-.843-.805A.825.825,0,0,1,491.916,58.537Z" transform="translate(-422.003 -57.732)" fill="#fff"/>
              <path id="Trazado_99221" data-name="Trazado 99221" d="M500.362,58.537a.843.843,0,1,1-.843-.805A.825.825,0,0,1,500.362,58.537Z" transform="translate(-422.868 -57.732)" fill="#fff"/>
            </g>
            <g id="Grupo_53308" data-name="Grupo 53308" transform="translate(0 12.889)">
              <ellipse id="Elipse_3955" data-name="Elipse 3955" cx="0.842" cy="0.806" rx="0.842" ry="0.806" fill="#fff"/>
              <path id="Trazado_99222" data-name="Trazado 99222" d="M424.345,66.045a.843.843,0,1,1-.842-.805A.825.825,0,0,1,424.345,66.045Z" transform="translate(-415.079 -65.24)" fill="#fff"/>
              <ellipse id="Elipse_3956" data-name="Elipse 3956" cx="0.842" cy="0.806" rx="0.842" ry="0.806" transform="translate(15.162)" fill="#fff"/>
              <path id="Trazado_99223" data-name="Trazado 99223" d="M441.238,66.045a.843.843,0,1,1-.843-.805A.825.825,0,0,1,441.238,66.045Z" transform="translate(-416.81 -65.24)" fill="#fff"/>
              <path id="Trazado_99224" data-name="Trazado 99224" d="M449.684,66.045a.843.843,0,1,1-.842-.805A.825.825,0,0,1,449.684,66.045Z" transform="translate(-417.676 -65.24)" fill="#fff"/>
              <ellipse id="Elipse_3957" data-name="Elipse 3957" cx="0.842" cy="0.806" rx="0.842" ry="0.806" transform="translate(37.905)" fill="#fff"/>
              <path id="Trazado_99225" data-name="Trazado 99225" d="M466.577,66.045a.843.843,0,1,1-.843-.805A.826.826,0,0,1,466.577,66.045Z" transform="translate(-419.406 -65.24)" fill="#fff"/>
              <ellipse id="Elipse_3958" data-name="Elipse 3958" cx="0.842" cy="0.806" rx="0.842" ry="0.806" transform="translate(53.066)" fill="#fff"/>
              <ellipse id="Elipse_3959" data-name="Elipse 3959" cx="0.842" cy="0.806" rx="0.842" ry="0.806" transform="translate(60.647)" fill="#fff"/>
              <path id="Trazado_99226" data-name="Trazado 99226" d="M491.916,66.045a.843.843,0,1,1-.843-.805A.826.826,0,0,1,491.916,66.045Z" transform="translate(-422.003 -65.24)" fill="#fff"/>
              <path id="Trazado_99227" data-name="Trazado 99227" d="M500.362,66.045a.843.843,0,1,1-.843-.805A.825.825,0,0,1,500.362,66.045Z" transform="translate(-422.868 -65.24)" fill="#fff"/>
            </g>
            <g id="Grupo_53309" data-name="Grupo 53309" transform="translate(0 19.332)">
              <ellipse id="Elipse_3960" data-name="Elipse 3960" cx="0.842" cy="0.806" rx="0.842" ry="0.806" transform="translate(0 0)" fill="#fff"/>
              <path id="Trazado_99228" data-name="Trazado 99228" d="M424.345,73.553a.843.843,0,1,1-.842-.806A.824.824,0,0,1,424.345,73.553Z" transform="translate(-415.079 -72.747)" fill="#fff"/>
              <ellipse id="Elipse_3961" data-name="Elipse 3961" cx="0.842" cy="0.806" rx="0.842" ry="0.806" transform="translate(15.162 0)" fill="#fff"/>
              <path id="Trazado_99229" data-name="Trazado 99229" d="M441.238,73.553a.843.843,0,1,1-.843-.806A.824.824,0,0,1,441.238,73.553Z" transform="translate(-416.81 -72.747)" fill="#fff"/>
              <path id="Trazado_99230" data-name="Trazado 99230" d="M449.684,73.553a.843.843,0,1,1-.842-.806A.824.824,0,0,1,449.684,73.553Z" transform="translate(-417.676 -72.747)" fill="#fff"/>
              <ellipse id="Elipse_3962" data-name="Elipse 3962" cx="0.842" cy="0.806" rx="0.842" ry="0.806" transform="translate(37.905 0)" fill="#fff"/>
              <path id="Trazado_99231" data-name="Trazado 99231" d="M466.577,73.553a.843.843,0,1,1-.843-.806A.825.825,0,0,1,466.577,73.553Z" transform="translate(-419.406 -72.747)" fill="#fff"/>
              <ellipse id="Elipse_3963" data-name="Elipse 3963" cx="0.842" cy="0.806" rx="0.842" ry="0.806" transform="translate(53.066 0)" fill="#fff"/>
              <ellipse id="Elipse_3964" data-name="Elipse 3964" cx="0.842" cy="0.806" rx="0.842" ry="0.806" transform="translate(60.647 0)" fill="#fff"/>
              <path id="Trazado_99232" data-name="Trazado 99232" d="M491.916,73.553a.843.843,0,1,1-.843-.806A.825.825,0,0,1,491.916,73.553Z" transform="translate(-422.003 -72.747)" fill="#fff"/>
              <path id="Trazado_99233" data-name="Trazado 99233" d="M500.362,73.553a.843.843,0,1,1-.843-.806A.824.824,0,0,1,500.362,73.553Z" transform="translate(-422.868 -72.747)" fill="#fff"/>
            </g>
            <g id="Grupo_53310" data-name="Grupo 53310" transform="translate(0 25.777)">
              <path id="Trazado_99234" data-name="Trazado 99234" d="M415.9,81.061a.843.843,0,1,1-.843-.806A.824.824,0,0,1,415.9,81.061Z" transform="translate(-414.214 -80.255)" fill="#fff"/>
              <path id="Trazado_99235" data-name="Trazado 99235" d="M424.345,81.061a.843.843,0,1,1-.842-.806A.824.824,0,0,1,424.345,81.061Z" transform="translate(-415.08 -80.255)" fill="#fff"/>
              <path id="Trazado_99236" data-name="Trazado 99236" d="M432.791,81.061a.843.843,0,1,1-.842-.806A.824.824,0,0,1,432.791,81.061Z" transform="translate(-415.945 -80.255)" fill="#fff"/>
              <path id="Trazado_99237" data-name="Trazado 99237" d="M441.238,81.061a.843.843,0,1,1-.843-.806A.824.824,0,0,1,441.238,81.061Z" transform="translate(-416.81 -80.255)" fill="#fff"/>
              <path id="Trazado_99238" data-name="Trazado 99238" d="M449.684,81.061a.843.843,0,1,1-.842-.806A.824.824,0,0,1,449.684,81.061Z" transform="translate(-417.676 -80.255)" fill="#fff"/>
              <path id="Trazado_99239" data-name="Trazado 99239" d="M458.13,81.061a.843.843,0,1,1-.842-.806A.824.824,0,0,1,458.13,81.061Z" transform="translate(-418.541 -80.255)" fill="#fff"/>
              <path id="Trazado_99240" data-name="Trazado 99240" d="M466.577,81.061a.843.843,0,1,1-.843-.806A.825.825,0,0,1,466.577,81.061Z" transform="translate(-419.406 -80.255)" fill="#fff"/>
              <path id="Trazado_99241" data-name="Trazado 99241" d="M475.023,81.061a.843.843,0,1,1-.842-.806A.824.824,0,0,1,475.023,81.061Z" transform="translate(-420.272 -80.255)" fill="#fff"/>
              <path id="Trazado_99242" data-name="Trazado 99242" d="M483.469,81.061a.843.843,0,1,1-.842-.806A.824.824,0,0,1,483.469,81.061Z" transform="translate(-421.137 -80.255)" fill="#fff"/>
              <path id="Trazado_99243" data-name="Trazado 99243" d="M491.916,81.061a.843.843,0,1,1-.843-.806A.825.825,0,0,1,491.916,81.061Z" transform="translate(-422.003 -80.255)" fill="#fff"/>
              <path id="Trazado_99244" data-name="Trazado 99244" d="M500.362,81.061a.843.843,0,1,1-.843-.806A.824.824,0,0,1,500.362,81.061Z" transform="translate(-422.868 -80.255)" fill="#fff"/>
            </g>
            <g id="Grupo_53311" data-name="Grupo 53311" transform="translate(0 32.221)">
              <ellipse id="Elipse_3965" data-name="Elipse 3965" cx="0.842" cy="0.806" rx="0.842" ry="0.806" transform="translate(0 0)" fill="#fff"/>
              <path id="Trazado_99245" data-name="Trazado 99245" d="M424.345,88.569a.843.843,0,1,1-.842-.806A.824.824,0,0,1,424.345,88.569Z" transform="translate(-415.079 -87.763)" fill="#fff"/>
              <ellipse id="Elipse_3966" data-name="Elipse 3966" cx="0.842" cy="0.806" rx="0.842" ry="0.806" transform="translate(15.162 0)" fill="#fff"/>
              <path id="Trazado_99246" data-name="Trazado 99246" d="M441.238,88.569a.843.843,0,1,1-.843-.806A.824.824,0,0,1,441.238,88.569Z" transform="translate(-416.81 -87.763)" fill="#fff"/>
              <path id="Trazado_99247" data-name="Trazado 99247" d="M449.684,88.569a.843.843,0,1,1-.842-.806A.824.824,0,0,1,449.684,88.569Z" transform="translate(-417.676 -87.763)" fill="#fff"/>
              <ellipse id="Elipse_3967" data-name="Elipse 3967" cx="0.842" cy="0.806" rx="0.842" ry="0.806" transform="translate(37.905 0)" fill="#fff"/>
              <path id="Trazado_99248" data-name="Trazado 99248" d="M466.577,88.569a.843.843,0,1,1-.843-.806A.825.825,0,0,1,466.577,88.569Z" transform="translate(-419.406 -87.763)" fill="#fff"/>
              <ellipse id="Elipse_3968" data-name="Elipse 3968" cx="0.842" cy="0.806" rx="0.842" ry="0.806" transform="translate(53.066 0)" fill="#fff"/>
              <ellipse id="Elipse_3969" data-name="Elipse 3969" cx="0.842" cy="0.806" rx="0.842" ry="0.806" transform="translate(60.647 0)" fill="#fff"/>
              <path id="Trazado_99249" data-name="Trazado 99249" d="M491.916,88.569a.843.843,0,1,1-.843-.806A.825.825,0,0,1,491.916,88.569Z" transform="translate(-422.003 -87.763)" fill="#fff"/>
              <path id="Trazado_99250" data-name="Trazado 99250" d="M500.362,88.569a.843.843,0,1,1-.843-.806A.824.824,0,0,1,500.362,88.569Z" transform="translate(-422.868 -87.763)" fill="#fff"/>
            </g>
            <g id="Grupo_53312" data-name="Grupo 53312" transform="translate(0 38.665)">
              <ellipse id="Elipse_3970" data-name="Elipse 3970" cx="0.842" cy="0.806" rx="0.842" ry="0.806" fill="#fff"/>
              <path id="Trazado_99251" data-name="Trazado 99251" d="M424.345,96.076a.843.843,0,1,1-.842-.805A.824.824,0,0,1,424.345,96.076Z" transform="translate(-415.079 -95.271)" fill="#fff"/>
              <ellipse id="Elipse_3971" data-name="Elipse 3971" cx="0.842" cy="0.806" rx="0.842" ry="0.806" transform="translate(15.162)" fill="#fff"/>
              <path id="Trazado_99252" data-name="Trazado 99252" d="M441.238,96.076a.843.843,0,1,1-.843-.805A.825.825,0,0,1,441.238,96.076Z" transform="translate(-416.81 -95.271)" fill="#fff"/>
              <path id="Trazado_99253" data-name="Trazado 99253" d="M449.684,96.076a.843.843,0,1,1-.842-.805A.825.825,0,0,1,449.684,96.076Z" transform="translate(-417.676 -95.271)" fill="#fff"/>
              <ellipse id="Elipse_3972" data-name="Elipse 3972" cx="0.842" cy="0.806" rx="0.842" ry="0.806" transform="translate(37.905)" fill="#fff"/>
              <path id="Trazado_99254" data-name="Trazado 99254" d="M466.577,96.076a.843.843,0,1,1-.843-.805A.825.825,0,0,1,466.577,96.076Z" transform="translate(-419.406 -95.271)" fill="#fff"/>
              <ellipse id="Elipse_3973" data-name="Elipse 3973" cx="0.842" cy="0.806" rx="0.842" ry="0.806" transform="translate(53.066)" fill="#fff"/>
              <ellipse id="Elipse_3974" data-name="Elipse 3974" cx="0.842" cy="0.806" rx="0.842" ry="0.806" transform="translate(60.647)" fill="#fff"/>
              <path id="Trazado_99255" data-name="Trazado 99255" d="M491.916,96.076a.843.843,0,1,1-.843-.805A.825.825,0,0,1,491.916,96.076Z" transform="translate(-422.003 -95.271)" fill="#fff"/>
              <path id="Trazado_99256" data-name="Trazado 99256" d="M500.362,96.076a.843.843,0,1,1-.843-.805A.825.825,0,0,1,500.362,96.076Z" transform="translate(-422.868 -95.271)" fill="#fff"/>
            </g>
            <g id="Grupo_53313" data-name="Grupo 53313" transform="translate(0 45.11)">
              <path id="Trazado_99257" data-name="Trazado 99257" d="M415.9,103.584a.843.843,0,1,1-.843-.805A.824.824,0,0,1,415.9,103.584Z" transform="translate(-414.214 -102.779)" fill="#fff"/>
              <path id="Trazado_99258" data-name="Trazado 99258" d="M424.345,103.584a.843.843,0,1,1-.842-.805A.824.824,0,0,1,424.345,103.584Z" transform="translate(-415.08 -102.779)" fill="#fff"/>
              <path id="Trazado_99259" data-name="Trazado 99259" d="M432.791,103.584a.843.843,0,1,1-.842-.805A.824.824,0,0,1,432.791,103.584Z" transform="translate(-415.945 -102.779)" fill="#fff"/>
              <path id="Trazado_99260" data-name="Trazado 99260" d="M441.238,103.584a.843.843,0,1,1-.843-.805A.825.825,0,0,1,441.238,103.584Z" transform="translate(-416.81 -102.779)" fill="#fff"/>
              <path id="Trazado_99261" data-name="Trazado 99261" d="M449.684,103.584a.843.843,0,1,1-.842-.805A.825.825,0,0,1,449.684,103.584Z" transform="translate(-417.676 -102.779)" fill="#fff"/>
              <path id="Trazado_99262" data-name="Trazado 99262" d="M458.13,103.584a.843.843,0,1,1-.842-.805A.824.824,0,0,1,458.13,103.584Z" transform="translate(-418.541 -102.779)" fill="#fff"/>
              <path id="Trazado_99263" data-name="Trazado 99263" d="M466.577,103.584a.843.843,0,1,1-.843-.805A.825.825,0,0,1,466.577,103.584Z" transform="translate(-419.406 -102.779)" fill="#fff"/>
              <path id="Trazado_99264" data-name="Trazado 99264" d="M475.023,103.584a.843.843,0,1,1-.842-.805A.824.824,0,0,1,475.023,103.584Z" transform="translate(-420.272 -102.779)" fill="#fff"/>
              <path id="Trazado_99265" data-name="Trazado 99265" d="M483.469,103.584a.843.843,0,1,1-.842-.805A.824.824,0,0,1,483.469,103.584Z" transform="translate(-421.137 -102.779)" fill="#fff"/>
              <path id="Trazado_99266" data-name="Trazado 99266" d="M491.916,103.584a.843.843,0,1,1-.843-.805A.825.825,0,0,1,491.916,103.584Z" transform="translate(-422.003 -102.779)" fill="#fff"/>
              <path id="Trazado_99267" data-name="Trazado 99267" d="M500.362,103.584a.843.843,0,1,1-.843-.805A.825.825,0,0,1,500.362,103.584Z" transform="translate(-422.868 -102.779)" fill="#fff"/>
            </g>
            <g id="Grupo_53314" data-name="Grupo 53314" transform="translate(0 51.554)">
              <ellipse id="Elipse_3975" data-name="Elipse 3975" cx="0.842" cy="0.806" rx="0.842" ry="0.806" fill="#fff"/>
              <path id="Trazado_99268" data-name="Trazado 99268" d="M424.345,111.092a.843.843,0,1,1-.842-.805A.825.825,0,0,1,424.345,111.092Z" transform="translate(-415.079 -110.287)" fill="#fff"/>
              <ellipse id="Elipse_3976" data-name="Elipse 3976" cx="0.842" cy="0.806" rx="0.842" ry="0.806" transform="translate(15.162)" fill="#fff"/>
              <path id="Trazado_99269" data-name="Trazado 99269" d="M441.238,111.092a.843.843,0,1,1-.843-.805A.825.825,0,0,1,441.238,111.092Z" transform="translate(-416.81 -110.287)" fill="#fff"/>
              <path id="Trazado_99270" data-name="Trazado 99270" d="M449.684,111.092a.843.843,0,1,1-.842-.805A.825.825,0,0,1,449.684,111.092Z" transform="translate(-417.676 -110.287)" fill="#fff"/>
              <ellipse id="Elipse_3977" data-name="Elipse 3977" cx="0.842" cy="0.806" rx="0.842" ry="0.806" transform="translate(37.905)" fill="#fff"/>
              <path id="Trazado_99271" data-name="Trazado 99271" d="M466.577,111.092a.843.843,0,1,1-.843-.805A.826.826,0,0,1,466.577,111.092Z" transform="translate(-419.406 -110.287)" fill="#fff"/>
              <ellipse id="Elipse_3978" data-name="Elipse 3978" cx="0.842" cy="0.806" rx="0.842" ry="0.806" transform="translate(53.066)" fill="#fff"/>
              <ellipse id="Elipse_3979" data-name="Elipse 3979" cx="0.842" cy="0.806" rx="0.842" ry="0.806" transform="translate(60.647)" fill="#fff"/>
              <path id="Trazado_99272" data-name="Trazado 99272" d="M491.916,111.092a.843.843,0,1,1-.843-.805A.826.826,0,0,1,491.916,111.092Z" transform="translate(-422.003 -110.287)" fill="#fff"/>
              <path id="Trazado_99273" data-name="Trazado 99273" d="M500.362,111.092a.843.843,0,1,1-.843-.805A.825.825,0,0,1,500.362,111.092Z" transform="translate(-422.868 -110.287)" fill="#fff"/>
            </g>
            <g id="Grupo_53315" data-name="Grupo 53315" transform="translate(0 57.998)">
              <path id="Trazado_99274" data-name="Trazado 99274" d="M415.9,118.6a.843.843,0,1,1-.843-.806A.825.825,0,0,1,415.9,118.6Z" transform="translate(-414.214 -117.794)" fill="#fff"/>
              <path id="Trazado_99275" data-name="Trazado 99275" d="M424.345,118.6a.843.843,0,1,1-.842-.806A.825.825,0,0,1,424.345,118.6Z" transform="translate(-415.08 -117.794)" fill="#fff"/>
              <path id="Trazado_99276" data-name="Trazado 99276" d="M432.791,118.6a.843.843,0,1,1-.842-.806A.825.825,0,0,1,432.791,118.6Z" transform="translate(-415.945 -117.794)" fill="#fff"/>
              <path id="Trazado_99277" data-name="Trazado 99277" d="M441.238,118.6a.843.843,0,1,1-.843-.806A.825.825,0,0,1,441.238,118.6Z" transform="translate(-416.81 -117.794)" fill="#fff"/>
              <path id="Trazado_99278" data-name="Trazado 99278" d="M449.684,118.6a.843.843,0,1,1-.842-.806A.825.825,0,0,1,449.684,118.6Z" transform="translate(-417.676 -117.794)" fill="#fff"/>
              <path id="Trazado_99279" data-name="Trazado 99279" d="M458.13,118.6a.843.843,0,1,1-.842-.806A.825.825,0,0,1,458.13,118.6Z" transform="translate(-418.541 -117.794)" fill="#fff"/>
              <path id="Trazado_99280" data-name="Trazado 99280" d="M466.577,118.6a.843.843,0,1,1-.843-.806A.826.826,0,0,1,466.577,118.6Z" transform="translate(-419.406 -117.794)" fill="#fff"/>
              <path id="Trazado_99281" data-name="Trazado 99281" d="M475.023,118.6a.843.843,0,1,1-.842-.806A.825.825,0,0,1,475.023,118.6Z" transform="translate(-420.272 -117.794)" fill="#fff"/>
              <path id="Trazado_99282" data-name="Trazado 99282" d="M483.469,118.6a.843.843,0,1,1-.842-.806A.825.825,0,0,1,483.469,118.6Z" transform="translate(-421.137 -117.794)" fill="#fff"/>
              <path id="Trazado_99283" data-name="Trazado 99283" d="M491.916,118.6a.843.843,0,1,1-.843-.806A.826.826,0,0,1,491.916,118.6Z" transform="translate(-422.003 -117.794)" fill="#fff"/>
              <path id="Trazado_99284" data-name="Trazado 99284" d="M500.362,118.6a.843.843,0,1,1-.843-.806A.825.825,0,0,1,500.362,118.6Z" transform="translate(-422.868 -117.794)" fill="#fff"/>
            </g>
            <g id="Grupo_53316" data-name="Grupo 53316" transform="translate(0 64.442)">
              <ellipse id="Elipse_3980" data-name="Elipse 3980" cx="0.842" cy="0.806" rx="0.842" ry="0.806" transform="translate(0 0)" fill="#fff"/>
              <path id="Trazado_99285" data-name="Trazado 99285" d="M424.345,126.108a.843.843,0,1,1-.842-.806A.824.824,0,0,1,424.345,126.108Z" transform="translate(-415.079 -125.302)" fill="#fff"/>
              <ellipse id="Elipse_3981" data-name="Elipse 3981" cx="0.842" cy="0.806" rx="0.842" ry="0.806" transform="translate(15.162 0)" fill="#fff"/>
              <path id="Trazado_99286" data-name="Trazado 99286" d="M441.238,126.108a.843.843,0,1,1-.843-.806A.824.824,0,0,1,441.238,126.108Z" transform="translate(-416.81 -125.302)" fill="#fff"/>
              <path id="Trazado_99287" data-name="Trazado 99287" d="M449.684,126.108a.843.843,0,1,1-.842-.806A.824.824,0,0,1,449.684,126.108Z" transform="translate(-417.676 -125.302)" fill="#fff"/>
              <ellipse id="Elipse_3982" data-name="Elipse 3982" cx="0.842" cy="0.806" rx="0.842" ry="0.806" transform="translate(37.905 0)" fill="#fff"/>
              <path id="Trazado_99288" data-name="Trazado 99288" d="M466.577,126.108a.843.843,0,1,1-.843-.806A.825.825,0,0,1,466.577,126.108Z" transform="translate(-419.406 -125.302)" fill="#fff"/>
              <ellipse id="Elipse_3983" data-name="Elipse 3983" cx="0.842" cy="0.806" rx="0.842" ry="0.806" transform="translate(53.066 0)" fill="#fff"/>
              <ellipse id="Elipse_3984" data-name="Elipse 3984" cx="0.842" cy="0.806" rx="0.842" ry="0.806" transform="translate(60.647 0)" fill="#fff"/>
              <path id="Trazado_99289" data-name="Trazado 99289" d="M491.916,126.108a.843.843,0,1,1-.843-.806A.825.825,0,0,1,491.916,126.108Z" transform="translate(-422.003 -125.302)" fill="#fff"/>
              <path id="Trazado_99290" data-name="Trazado 99290" d="M500.362,126.108a.843.843,0,1,1-.843-.806A.824.824,0,0,1,500.362,126.108Z" transform="translate(-422.868 -125.302)" fill="#fff"/>
            </g>
            <g id="Grupo_53317" data-name="Grupo 53317" transform="translate(0 70.887)">
              <ellipse id="Elipse_3985" data-name="Elipse 3985" cx="0.842" cy="0.806" rx="0.842" ry="0.806" transform="translate(0 0)" fill="#fff"/>
              <path id="Trazado_99291" data-name="Trazado 99291" d="M424.345,133.616a.843.843,0,1,1-.842-.806A.824.824,0,0,1,424.345,133.616Z" transform="translate(-415.079 -132.81)" fill="#fff"/>
              <ellipse id="Elipse_3986" data-name="Elipse 3986" cx="0.842" cy="0.806" rx="0.842" ry="0.806" transform="translate(15.162 0)" fill="#fff"/>
              <path id="Trazado_99292" data-name="Trazado 99292" d="M441.238,133.616a.843.843,0,1,1-.843-.806A.824.824,0,0,1,441.238,133.616Z" transform="translate(-416.81 -132.81)" fill="#fff"/>
              <path id="Trazado_99293" data-name="Trazado 99293" d="M449.684,133.616a.843.843,0,1,1-.842-.806A.824.824,0,0,1,449.684,133.616Z" transform="translate(-417.676 -132.81)" fill="#fff"/>
              <ellipse id="Elipse_3987" data-name="Elipse 3987" cx="0.842" cy="0.806" rx="0.842" ry="0.806" transform="translate(37.905 0)" fill="#fff"/>
              <path id="Trazado_99294" data-name="Trazado 99294" d="M466.577,133.616a.843.843,0,1,1-.843-.806A.825.825,0,0,1,466.577,133.616Z" transform="translate(-419.406 -132.81)" fill="#fff"/>
              <ellipse id="Elipse_3988" data-name="Elipse 3988" cx="0.842" cy="0.806" rx="0.842" ry="0.806" transform="translate(53.066 0)" fill="#fff"/>
              <ellipse id="Elipse_3989" data-name="Elipse 3989" cx="0.842" cy="0.806" rx="0.842" ry="0.806" transform="translate(60.647 0)" fill="#fff"/>
              <path id="Trazado_99295" data-name="Trazado 99295" d="M491.916,133.616a.843.843,0,1,1-.843-.806A.825.825,0,0,1,491.916,133.616Z" transform="translate(-422.003 -132.81)" fill="#fff"/>
              <path id="Trazado_99296" data-name="Trazado 99296" d="M500.362,133.616a.843.843,0,1,1-.843-.806A.824.824,0,0,1,500.362,133.616Z" transform="translate(-422.868 -132.81)" fill="#fff"/>
            </g>
          </g>
        </g>
      </g>
    </g>
    <g id="Grupo_960341" data-name="Grupo 960341" transform="translate(229.126 909.717)">
      <g id="_x34_0_Online_Library" transform="translate(11.266 0)">
        <g id="_x34_0_Online_Library_1_" transform="translate(0 0)">
          <g id="Grupo_960339" data-name="Grupo 960339" transform="translate(0)">
            <g id="Grupo_960276" data-name="Grupo 960276" transform="translate(5.831 17.546)">
              <g id="Grupo_960275" data-name="Grupo 960275">
                <path id="Trazado_658223" data-name="Trazado 658223" d="M136.381,115.214v68.868H24.09V115.214a7.891,7.891,0,0,1,7.891-7.891H128.49A7.891,7.891,0,0,1,136.381,115.214Z" transform="translate(-24.09 -107.323)" fill="#eef0ee"/>
              </g>
            </g>
            <g id="Grupo_960278" data-name="Grupo 960278" transform="translate(11.092 22.806)">
              <g id="Grupo_960277" data-name="Grupo 960277">
                <path id="Trazado_658224" data-name="Trazado 658224" d="M45.824,191.347V133a3.946,3.946,0,0,1,3.946-3.946h93.878A3.946,3.946,0,0,1,147.593,133v58.346a3.946,3.946,0,0,1-3.946,3.946H49.769a3.946,3.946,0,0,1-3.945-3.946Z" transform="translate(-45.824 -129.055)" fill="#4ba4c7"/>
              </g>
            </g>
            <g id="Grupo_960281" data-name="Grupo 960281" transform="translate(11.293 22.807)" opacity="0.1">
              <g id="Grupo_960280" data-name="Grupo 960280">
                <g id="Grupo_960279" data-name="Grupo 960279">
                  <path id="Trazado_658225" data-name="Trazado 658225" d="M148.223,133v58.344a3.925,3.925,0,0,1-3.367,3.9,3.846,3.846,0,0,0,.2-1.236v-58.35a3.943,3.943,0,0,0-3.947-3.941H47.233a2.966,2.966,0,0,0-.58.05,3.929,3.929,0,0,1,3.745-2.711h93.878A3.945,3.945,0,0,1,148.223,133Z" transform="translate(-46.653 -129.058)"/>
                </g>
              </g>
            </g>
            <g id="Grupo_960284" data-name="Grupo 960284" transform="translate(15.346 60.44)">
              <g id="Grupo_960283" data-name="Grupo 960283">
                <g id="Grupo_960282" data-name="Grupo 960282">
                  <path id="Trazado_658226" data-name="Trazado 658226" d="M64.187,288.182a.788.788,0,0,1-.788-.788v-2.081a.788.788,0,0,1,1.576,0v2.081A.787.787,0,0,1,64.187,288.182Z" transform="translate(-63.399 -284.526)" fill="#fff"/>
                </g>
              </g>
            </g>
            <g id="Grupo_960287" data-name="Grupo 960287" transform="translate(15.346 66.505)">
              <g id="Grupo_960286" data-name="Grupo 960286">
                <g id="Grupo_960285" data-name="Grupo 960285">
                  <path id="Trazado_658227" data-name="Trazado 658227" d="M64.187,318.567a.788.788,0,0,1-.788-.788v-7.408a.788.788,0,1,1,1.576,0v7.408A.787.787,0,0,1,64.187,318.567Z" transform="translate(-63.399 -309.583)" fill="#fff"/>
                </g>
              </g>
            </g>
            <g id="Grupo_960289" data-name="Grupo 960289" transform="translate(0.821 94.303)">
              <g id="Grupo_960288" data-name="Grupo 960288">
                <path id="Trazado_658228" data-name="Trazado 658228" d="M125.7,426.94v3.369a2.523,2.523,0,0,1-.739,1.783l-3.567,3.567a2.522,2.522,0,0,1-1.783.738H9.479a2.523,2.523,0,0,1-1.783-.738L4.13,432.092a2.522,2.522,0,0,1-.739-1.783V426.94a2.522,2.522,0,0,1,2.522-2.522H123.181A2.522,2.522,0,0,1,125.7,426.94Z" transform="translate(-3.391 -424.418)" fill="#dbdddb"/>
              </g>
            </g>
            <g id="Grupo_960291" data-name="Grupo 960291" transform="translate(46.746 94.3)">
              <g id="Grupo_960290" data-name="Grupo 960290">
                <path id="Trazado_658229" data-name="Trazado 658229" d="M223.577,424.406a5.992,5.992,0,0,1-5.992,5.993H199.108a5.992,5.992,0,0,1-5.992-5.992" transform="translate(-193.116 -424.406)" fill="#878787"/>
              </g>
            </g>
            <g id="Grupo_960293" data-name="Grupo 960293" transform="translate(30.172 11.606)">
              <g id="Grupo_960292" data-name="Grupo 960292">
                <path id="Trazado_658230" data-name="Trazado 658230" d="M140.549,85.491v55.064a2.7,2.7,0,0,1-2.7,2.7H127.351a2.7,2.7,0,0,1-2.7-2.7V85.491a2.7,2.7,0,0,1,2.7-2.7h10.493a2.7,2.7,0,0,1,2.7,2.7Z" transform="translate(-124.647 -82.787)" fill="#ebc9b1"/>
              </g>
            </g>
            <g id="Grupo_960295" data-name="Grupo 960295" transform="translate(30.172 56.582)">
              <g id="Grupo_960294" data-name="Grupo 960294">
                <path id="Trazado_658231" data-name="Trazado 658231" d="M124.645,268.588h15.9V275.4h-15.9Z" transform="translate(-124.645 -268.588)" fill="#eef0ee"/>
              </g>
            </g>
            <g id="Grupo_960297" data-name="Grupo 960297" transform="translate(30.172 20.287)">
              <g id="Grupo_960296" data-name="Grupo 960296">
                <path id="Trazado_658232" data-name="Trazado 658232" d="M124.645,118.65h15.9v6.816h-15.9Z" transform="translate(-124.645 -118.65)" fill="#eef0ee"/>
              </g>
            </g>
            <g id="Grupo_960299" data-name="Grupo 960299" transform="translate(46.075 0.788)">
              <g id="Grupo_960298" data-name="Grupo 960298">
                <path id="Trazado_658233" data-name="Trazado 658233" d="M206.244,40.8v65.882a2.7,2.7,0,0,1-2.7,2.7H193.046a2.7,2.7,0,0,1-2.7-2.7V40.8a2.7,2.7,0,0,1,2.7-2.7H203.54A2.7,2.7,0,0,1,206.244,40.8Z" transform="translate(-190.342 -38.096)" fill="#a1d51c"/>
              </g>
            </g>
            <g id="Grupo_960301" data-name="Grupo 960301" transform="translate(46.074 9.699)">
              <g id="Grupo_960300" data-name="Grupo 960300">
                <path id="Trazado_658234" data-name="Trazado 658234" d="M190.34,74.909h15.9V81.6h-15.9Z" transform="translate(-190.34 -74.909)" fill="#eef0ee"/>
              </g>
            </g>
            <g id="Grupo_960303" data-name="Grupo 960303" transform="translate(50.78 30.051)">
              <g id="Grupo_960302" data-name="Grupo 960302">
                <path id="Trazado_658235" data-name="Trazado 658235" d="M209.78,158.983h6.491v33.346H209.78Z" transform="translate(-209.78 -158.983)" fill="#eef0ee"/>
              </g>
            </g>
            <g id="Grupo_960305" data-name="Grupo 960305" transform="translate(61.977 11.606)">
              <g id="Grupo_960304" data-name="Grupo 960304">
                <path id="Trazado_658236" data-name="Trazado 658236" d="M271.939,85.491v55.064a2.7,2.7,0,0,1-2.7,2.7H258.741a2.7,2.7,0,0,1-2.7-2.7V85.491a2.7,2.7,0,0,1,2.7-2.7h10.493a2.7,2.7,0,0,1,2.7,2.7Z" transform="translate(-256.037 -82.787)" fill="#fdb768"/>
              </g>
            </g>
            <g id="Grupo_960307" data-name="Grupo 960307" transform="translate(61.977 56.582)">
              <g id="Grupo_960306" data-name="Grupo 960306">
                <path id="Trazado_658237" data-name="Trazado 658237" d="M256.035,268.588h15.9V275.4h-15.9Z" transform="translate(-256.035 -268.588)" fill="#eef0ee"/>
              </g>
            </g>
            <g id="Grupo_960309" data-name="Grupo 960309" transform="translate(66.141 19.909)">
              <g id="Grupo_960308" data-name="Grupo 960308">
                <ellipse id="Elipse_5004" data-name="Elipse 5004" cx="3.786" cy="3.786" rx="3.786" ry="3.786" fill="#eef0ee"/>
              </g>
            </g>
            <g id="Grupo_960311" data-name="Grupo 960311" transform="translate(77.88 0.788)">
              <g id="Grupo_960310" data-name="Grupo 960310">
                <path id="Trazado_658238" data-name="Trazado 658238" d="M337.634,40.8v65.882a2.7,2.7,0,0,1-2.7,2.7H324.436a2.7,2.7,0,0,1-2.7-2.7V40.8a2.7,2.7,0,0,1,2.7-2.7H334.93A2.7,2.7,0,0,1,337.634,40.8Z" transform="translate(-321.732 -38.096)" fill="#878787"/>
              </g>
            </g>
            <g id="Grupo_960313" data-name="Grupo 960313" transform="translate(77.879 9.699)">
              <g id="Grupo_960312" data-name="Grupo 960312">
                <path id="Trazado_658239" data-name="Trazado 658239" d="M321.73,74.909h15.9V81.6h-15.9Z" transform="translate(-321.73 -74.909)" fill="#eef0ee"/>
              </g>
            </g>
            <g id="Grupo_960315" data-name="Grupo 960315" transform="translate(77.879 56.582)">
              <g id="Grupo_960314" data-name="Grupo 960314">
                <path id="Trazado_658240" data-name="Trazado 658240" d="M321.73,268.588h15.9v6.694h-15.9Z" transform="translate(-321.73 -268.588)" fill="#eef0ee"/>
              </g>
            </g>
            <g id="Grupo_960338" data-name="Grupo 960338">
              <g id="Grupo_960317" data-name="Grupo 960317" transform="translate(122.361 56.805)">
                <g id="Grupo_960316" data-name="Grupo 960316">
                  <path id="Trazado_658241" data-name="Trazado 658241" d="M506.278,269.509a.788.788,0,0,0-.788.788v2.181a.788.788,0,0,0,1.576,0V270.3A.788.788,0,0,0,506.278,269.509Z" transform="translate(-505.49 -269.509)"/>
                </g>
              </g>
              <g id="Grupo_960319" data-name="Grupo 960319" transform="translate(122.361 63.135)">
                <g id="Grupo_960318" data-name="Grupo 960318">
                  <path id="Trazado_658242" data-name="Trazado 658242" d="M506.278,295.659a.788.788,0,0,0-.788.788v11.9a.788.788,0,0,0,1.576,0v-11.9A.788.788,0,0,0,506.278,295.659Z" transform="translate(-505.49 -295.659)"/>
                </g>
              </g>
              <g id="Grupo_960321" data-name="Grupo 960321" transform="translate(0 23.523)">
                <g id="Grupo_960320" data-name="Grupo 960320">
                  <path id="Trazado_658243" data-name="Trazado 658243" d="M1.578,135.612c.01-1.5-.029-1.916.052-2.726a.788.788,0,1,0-1.569-.15c-.09.894-.049,1.387-.06,2.863a.752.752,0,0,0,.816.779A.748.748,0,0,0,1.578,135.612Z" transform="translate(-0.001 -132.016)"/>
                </g>
              </g>
              <g id="Grupo_960323" data-name="Grupo 960323" transform="translate(1.243 11.854)">
                <g id="Grupo_960322" data-name="Grupo 960322">
                  <path id="Trazado_658244" data-name="Trazado 658244" d="M5.586,92.568a.788.788,0,0,0,1.05-.374,12.121,12.121,0,0,1,9.188-6.816.788.788,0,0,0-.229-1.559,13.691,13.691,0,0,0-10.382,7.7.787.787,0,0,0,.374,1.05Z" transform="translate(-5.136 -83.81)"/>
                </g>
              </g>
              <g id="Grupo_960325" data-name="Grupo 960325" transform="translate(0.032)">
                <g id="Grupo_960324" data-name="Grupo 960324">
                  <path id="Trazado_658245" data-name="Trazado 658245" d="M120.713,128.355h-1.7V60.276a8.688,8.688,0,0,0-8.679-8.679H94.672V38.333a3.5,3.5,0,0,0-3.493-3.493H80.686a3.5,3.5,0,0,0-3.492,3.493v7.9a3.471,3.471,0,0,0-1.917-.576H64.784a3.471,3.471,0,0,0-1.917.576v-7.9a3.5,3.5,0,0,0-3.492-3.493H48.882a3.5,3.5,0,0,0-3.493,3.493v7.9a3.469,3.469,0,0,0-1.916-.576H32.979a3.5,3.5,0,0,0-3.492,3.493V51.6H13.825a8.688,8.688,0,0,0-8.679,8.679v68.078h-1.7a3.314,3.314,0,0,0-3.31,3.31v3.369a3.29,3.29,0,0,0,.97,2.341l3.567,3.566a3.286,3.286,0,0,0,2.34.97H117.148a3.286,3.286,0,0,0,2.34-.97l3.567-3.566a3.292,3.292,0,0,0,.968-2.341v-3.369A3.315,3.315,0,0,0,120.713,128.355ZM31.063,55.915H45.389v5.24H31.063Zm15.9-10.587H61.291v5.117H46.965Zm31.805,0H93.1v5.117H78.77ZM45.388,97.449H31.062V92.21H45.388ZM31.063,99.025H45.389v5.189a1.918,1.918,0,0,1-1.916,1.917H32.978a1.918,1.918,0,0,1-1.916-1.917Zm15.9-47H61.291v52.193a1.918,1.918,0,0,1-1.916,1.917H48.881a1.918,1.918,0,0,1-1.917-1.917Zm15.9,47H77.193v5.189a1.918,1.918,0,0,1-1.917,1.917H64.784a1.918,1.918,0,0,1-1.917-1.917Zm15.9-6.815H93.1v5.117H78.77Zm0,6.693H93.1v5.31a1.918,1.918,0,0,1-1.917,1.917H80.686a1.918,1.918,0,0,1-1.916-1.917ZM93.1,90.634H78.77V52.021H93.1Zm-15.9,6.815H62.867V92.21H77.194ZM45.388,62.731v27.9H31.062v-27.9Zm-15.9-.788v42.271a3.5,3.5,0,0,0,3.492,3.493H43.472a3.485,3.485,0,0,0,2.7-1.286,3.487,3.487,0,0,0,2.7,1.286H59.374a3.485,3.485,0,0,0,2.7-1.286,3.487,3.487,0,0,0,2.7,1.286H75.276a3.486,3.486,0,0,0,2.7-1.286,3.486,3.486,0,0,0,2.7,1.286H91.178a3.5,3.5,0,0,0,3.493-3.493V58.434h14.346a3.162,3.162,0,0,1,3.158,3.158v58.346a3.161,3.161,0,0,1-3.158,3.157H15.14a3.161,3.161,0,0,1-3.157-3.157V61.592a3.161,3.161,0,0,1,3.157-3.158H29.486Zm51.2-25.527H91.179A1.918,1.918,0,0,1,93.1,38.333v5.419H78.77V38.333A1.918,1.918,0,0,1,80.686,36.416Zm-15.9,10.818H75.277a1.918,1.918,0,0,1,1.917,1.917V90.634H62.867V49.151A1.919,1.919,0,0,1,64.784,47.234Zm-15.9-10.818H59.375a1.918,1.918,0,0,1,1.916,1.917v5.419H46.965V38.333a1.919,1.919,0,0,1,1.917-1.917Zm-15.9,10.818H43.472a1.918,1.918,0,0,1,1.916,1.917v5.189H31.063V49.151A1.918,1.918,0,0,1,32.978,47.234ZM6.722,60.276a7.111,7.111,0,0,1,7.1-7.1H29.486v3.684H15.14a4.739,4.739,0,0,0-4.733,4.734v58.346a4.739,4.739,0,0,0,4.733,4.733h93.878a4.739,4.739,0,0,0,4.734-4.733V61.592a4.739,4.739,0,0,0-4.734-4.734H94.672V53.173h15.662a7.111,7.111,0,0,1,7.1,7.1v68.078c-27.166,0-84.715,0-110.714,0V60.276Zm69.739,69.656a5.212,5.212,0,0,1-5.144,4.412H52.841a5.213,5.213,0,0,1-5.144-4.412Zm45.986,5.1a1.726,1.726,0,0,1-.507,1.227l-3.567,3.566a1.746,1.746,0,0,1-1.226.508H7.012a1.748,1.748,0,0,1-1.226-.508L2.219,136.26a1.723,1.723,0,0,1-.509-1.227v-3.369a1.735,1.735,0,0,1,1.734-1.734H46.111a6.787,6.787,0,0,0,6.73,5.988H71.318a6.787,6.787,0,0,0,6.73-5.988h42.665a1.735,1.735,0,0,1,1.734,1.734Z" transform="translate(-0.135 -34.84)"/>
                </g>
              </g>
              <g id="Grupo_960327" data-name="Grupo 960327" transform="translate(88.122 99.504)">
                <g id="Grupo_960326" data-name="Grupo 960326">
                  <path id="Trazado_658246" data-name="Trazado 658246" d="M367.57,445.906h-2.736a.788.788,0,1,0,0,1.576h2.736a.788.788,0,1,0,0-1.576Z" transform="translate(-364.046 -445.906)"/>
                </g>
              </g>
              <g id="Grupo_960329" data-name="Grupo 960329" transform="translate(95.91 99.504)">
                <g id="Grupo_960328" data-name="Grupo 960328">
                  <path id="Trazado_658247" data-name="Trazado 658247" d="M399.744,445.906h-2.737a.788.788,0,0,0,0,1.576h2.737a.788.788,0,1,0,0-1.576Z" transform="translate(-396.219 -445.906)"/>
                </g>
              </g>
              <g id="Grupo_960331" data-name="Grupo 960331" transform="translate(103.699 99.504)">
                <g id="Grupo_960330" data-name="Grupo 960330">
                  <path id="Trazado_658248" data-name="Trazado 658248" d="M431.919,445.906h-2.736a.788.788,0,1,0,0,1.576h2.736a.788.788,0,1,0,0-1.576Z" transform="translate(-428.395 -445.906)"/>
                </g>
              </g>
              <g id="Grupo_960333" data-name="Grupo 960333" transform="translate(111.487 99.504)">
                <g id="Grupo_960332" data-name="Grupo 960332">
                  <path id="Trazado_658249" data-name="Trazado 658249" d="M464.095,445.906h-2.736a.788.788,0,1,0,0,1.576h2.736a.788.788,0,1,0,0-1.576Z" transform="translate(-460.571 -445.906)"/>
                </g>
              </g>
              <g id="Grupo_960335" data-name="Grupo 960335" transform="translate(49.992 29.263)">
                <g id="Grupo_960334" data-name="Grupo 960334">
                  <path id="Trazado_658250" data-name="Trazado 658250" d="M207.312,190.651H213.8a.788.788,0,0,0,.788-.788V156.517a.788.788,0,0,0-.788-.788h-6.491a.788.788,0,0,0-.788.788v33.346A.788.788,0,0,0,207.312,190.651Zm.788-33.346h4.915v31.77H208.1Z" transform="translate(-206.524 -155.729)"/>
                </g>
              </g>
              <g id="Grupo_960337" data-name="Grupo 960337" transform="translate(65.354 19.121)">
                <g id="Grupo_960336" data-name="Grupo 960336">
                  <path id="Trazado_658251" data-name="Trazado 658251" d="M274.561,122.979a4.575,4.575,0,1,0-4.575-4.575A4.58,4.58,0,0,0,274.561,122.979Zm0-7.573a3,3,0,1,1-3,3A3,3,0,0,1,274.561,115.406Z" transform="translate(-269.986 -113.83)"/>
                </g>
              </g>
            </g>
          </g>
        </g>
      </g>
      <g id="Grupo_960340" data-name="Grupo 960340" transform="translate(0 22.032)">
        <g id="Grupo_158843" data-name="Grupo 158843" transform="translate(0 5)" clip-path="url(#clip-path-2)">
          <path id="Trazado_154267" data-name="Trazado 154267" d="M19.337,61.227c-1.029-.313-1.122-1.052-.912-1.954a11.174,11.174,0,0,1,10.909-8.453c5.117.076,9.829,3.761,10.635,8.74A44.758,44.758,0,0,1,39.994,72.2a9.119,9.119,0,0,1-2.67,5.165,1.95,1.95,0,0,0-.633,1.511c.038,1.642.065,3.288-.01,4.928-.036.8.308,1.036.984,1.211,4.123,1.064,8.247,2.128,12.354,3.253a10.81,10.81,0,0,1,8.33,10.819c.04,11.664.012,23.328.018,34.991,0,.777-.032,1.546-.968,1.743s-1.309-.458-1.564-1.208a2.747,2.747,0,0,1-.378-2q-.011-16.552-.006-33.105c0-4.567-2.022-7.271-6.427-8.557-2.559-.747-5.158-1.354-7.719-2.085-.914-.367-1.885-.523-2.953-.828,1.145,2.707,2.392,5.228,3.595,7.766.774,1.633,1.505,3.284,2.3,4.908.726,1.481.516,2.107-.889,2.96-1.157.7-2.342,1.364-3.526,2.023a1.2,1.2,0,0,0-.575,1.735c.774,1.989,1.455,4.015,2.24,6a2.616,2.616,0,0,1-.5,2.842c-2.9,3.621-5.79,7.255-8.769,10.811a5.539,5.539,0,0,0-1.442,4.614c-.069.981.255,2-.311,2.927-.148.7-.484,1.218-1.272,1.218s-1.125-.522-1.272-1.217c-.563-.925-.244-1.944-.316-2.92a5.345,5.345,0,0,0-1.434-4.606c-2.9-3.347-5.559-6.9-8.445-10.264a3.576,3.576,0,0,1-.66-4.169c.752-1.73,1.3-3.543,2-5.3.314-.793.216-1.285-.583-1.7-1.129-.583-2.213-1.253-3.319-1.882-1.636-.931-1.873-1.632-1.036-3.3,2.052-4.1,3.933-8.282,5.991-12.506-1.035.42-2.051.54-3.012.88-2.652.74-5.327,1.384-7.973,2.133A8.088,8.088,0,0,0,3.214,96.55a8.423,8.423,0,0,0-.267,2.56q0,16.752-.006,33.5c0,.682.152,1.413-.394,1.994-.262.736-.617,1.41-1.555,1.216S0,134.871.005,134.091c.005-11.652-.024-23.3.018-34.955C.043,93.609,3.274,89.6,8.657,88.2c4.037-1.055,8.066-2.137,12.108-3.175.7-.18,1.042-.469.952-1.24a10.071,10.071,0,0,1-.008-1.844c.151-2.235.006-4.262-1.742-6.071-1.344-1.391-1.671-3.415-1.846-5.368-.089-1,.2-1.687,1.22-1.952,1.273-.1,1.452.776,1.564,1.729a8.506,8.506,0,0,0,2.511,5.471,7.918,7.918,0,0,0,8.879,1.758,7.88,7.88,0,0,0,5.165-7.328c.17-2.783.1-5.586.021-8.377a8.279,8.279,0,0,0-16.228-2.218c-.508,1.6-.706,1.766-1.915,1.643" transform="translate(0 -50.819)"/>
          <path id="Trazado_154270" data-name="Trazado 154270" d="M40.017,146.422q0-1.6,0-3.2c4.014-4.557,7.647-9.426,11.537-14.084a4.093,4.093,0,0,0,.777-4.543c-.594-1.483-1.075-3.015-1.684-4.494a1.4,1.4,0,0,1,.674-2.041c.861-.474,1.722-.955,2.559-1.475,1.784-1.109,2.263-2.457,1.39-4.386q-1.192-2.633-2.462-5.232c-.9-1.842-1.708-3.73-2.617-5.569-.176-.356-.835-1.147.4-1.093,3.089.812,6.229,1.469,9.251,2.479,3.283,1.1,5.435,3.593,5.48,7.036.161,12.2.057,24.4.054,36.6l-6.9,0c-.548-.581-.394-1.314-.4-1.994q-.018-12.446-.009-24.892a5.776,5.776,0,0,0-.154-1.834c-.121-.365-.325-.7-.763-.693-.455.008-.6.368-.678.748a8.843,8.843,0,0,0-.082,1.72q0,12.509-.011,25.016c0,.714.191,1.5-.433,2.093a2.382,2.382,0,0,0-1.2-.167l-14.733.005" transform="translate(-9.544 -62.621)" fill="#72c1e8"/>
          <path id="Trazado_154273" data-name="Trazado 154273" d="M28.7,143.192v3.2l-16.151,0c-.668-.575-.46-1.364-.461-2.074q-.025-12.44-.011-24.882a9.328,9.328,0,0,0-.065-1.6c-.071-.414-.177-.852-.706-.854-.5,0-.688.409-.793.811a7.257,7.257,0,0,0-.113,1.84q0,12.317-.009,24.635c0,.719.176,1.494-.4,2.113l-6.671-.008c-.023-.408-.066-.816-.066-1.223q0-16.667,0-33.336c0-5.455,2.135-8.241,7.389-9.627,2.489-.656,4.987-1.284,7.481-1.924.551-.234.675.067.624.524a2.66,2.66,0,0,1-.357.914c-1.529,2.907-2.774,5.95-4.3,8.858q-.257.49-.474,1c-1.182,2.8-.757,3.887,1.892,5.436,3.418,2,3.1.945,1.763,4.89-.368,1.087-.784,2.16-1.208,3.227a3.178,3.178,0,0,0,.6,3.44c3.938,4.727,7.635,9.653,11.749,14.234.109.122.188.269.3.393" transform="translate(-0.776 -62.596)" fill="#72c1e8"/>
          <path id="Trazado_154275" data-name="Trazado 154275" d="M25.333,61.992c.889,0,1.272-.5,1.5-1.326A8.6,8.6,0,0,1,43.8,62.874c-.008,3.114.333,6.253-.186,9.34a8.454,8.454,0,0,1-9.158,6.991,8.553,8.553,0,0,1-7.845-8.076c-.052-.945-.314-1.582-1.271-1.817a6.6,6.6,0,0,0-.194-2.414c1.313-1.023,1.313-1.023.193-2.521q0-1.192,0-2.387" transform="translate(-5.997 -51.584)" fill="#fdb59e"/>
          <path id="Trazado_154278" data-name="Trazado 154278" d="M60.941,151.629q0-13.978.01-27.956c0-.369-.008-.739.019-1.107a1.2,1.2,0,0,1,2.373-.155,5.3,5.3,0,0,1,.072,1.222q0,13.24,0,26.479c0,.45.031.9.048,1.35-.209.634-.478,1.217-1.275,1.225a1.2,1.2,0,0,1-1.251-1.059" transform="translate(-14.535 -67.667)" fill="#000101"/>
          <path id="Trazado_154279" data-name="Trazado 154279" d="M12.105,151.461q.024-10.03.048-20.06c.005-2.79-.014-5.58.008-8.37.01-1.2.759-1.843,1.659-1.493.765.3.8.935.8,1.623q-.014,5.293,0,10.586.016,8.86.043,17.721c-.134.706-.476,1.212-1.266,1.216-.806.005-1.091-.573-1.294-1.224" transform="translate(-2.887 -67.664)" fill="#000101"/>
          <path id="Trazado_154282" data-name="Trazado 154282" d="M25.016,67.622c.686.219,1.3.538,1.22,1.387-.075.829-.641,1.132-1.414,1.132a1.214,1.214,0,0,1-1.017-1.32c.048-.726.608-1,1.212-1.2" transform="translate(-5.677 -54.827)" fill="#070606"/>
          <path id="Trazado_154285" data-name="Trazado 154285" d="M27.473,102.433c.347,1.077,4.986,32.6,4.975,33.836-2.048-2.517-3.872-5.045-6-7.281a3.868,3.868,0,0,1-.8-4.964c.81-1.688,1.3-3.529,2-5.274a1.524,1.524,0,0,0-.819-2.212c-1.409-.748-2.773-1.579-4.161-2.367-.33-.187-.668-.324-.427-.824,1.735-3.6,3.46-7.209,5.235-10.913" transform="translate(-5.284 -63.13)" fill="#fff"/>
          <path id="Trazado_154286" data-name="Trazado 154286" d="M40.9,135.932c1.638-11.137,3.275-22.274,4.964-33.759,1.837,3.9,3.509,7.5,5.224,11.064.289.6-.1.688-.442.886-1.35.774-2.672,1.6-4.056,2.31a1.632,1.632,0,0,0-.846,2.412c.913,2.321,1.735,4.679,2.6,7.019.155.419.357.779-.019,1.239-2.408,2.949-4.785,5.924-7.172,8.89l-.251-.06" transform="translate(-9.755 -63.068)" fill="#fff"/>
          <path id="Trazado_154287" data-name="Trazado 154287" d="M31.63,142.944c-1.41-.58-2.1-1.906-3-2.986-3.155-3.8-6.234-7.664-9.347-11.5a3.267,3.267,0,0,1-.679-3.419c.688-1.838,1.259-3.724,2.039-5.521.4-.915.1-1.182-.649-1.541a25.223,25.223,0,0,1-2.862-1.667,3.034,3.034,0,0,1-1.234-4.17c1.7-3.683,3.488-7.324,5.2-11,.142-.307.9-.8-.054-1.116,1.011-.288,2.022-.577,3.057-.873.155.484-.144.758-.288,1.062Q21,106.151,18.157,112.079c-.857,1.8-.778,2.042.915,3,1.213.685,2.4,1.415,3.637,2.06.657.343.839.68.543,1.417-.808,2.012-1.446,4.1-2.308,6.083a2.811,2.811,0,0,0,.578,3.322c2.959,3.514,5.755,7.166,8.75,10.649a4.916,4.916,0,0,1,1.358,4.336" transform="translate(-3.702 -62.347)" fill="#4ba4c7"/>
          <path id="Trazado_154288" data-name="Trazado 154288" d="M50.568,100.044c-.776.151-.333.589-.186.9q2.439,5.165,4.906,10.316a4.783,4.783,0,0,1,.678,2.7,3.051,3.051,0,0,1-1.526,2.389c-1.062.616-2.1,1.279-3.193,1.831-.639.321-.672.682-.447,1.269.63,1.641,1.16,3.322,1.843,4.94a4.132,4.132,0,0,1-.818,4.628c-3.293,4-6.489,8.08-9.755,12.1a4.948,4.948,0,0,1-2.079,1.841,4.953,4.953,0,0,1,1.353-4.34c3.056-3.593,5.929-7.34,8.926-10.983a2.324,2.324,0,0,0,.417-2.676c-.871-2.12-1.572-4.309-2.414-6.441-.276-.7-.122-1.015.5-1.345,1.305-.686,2.577-1.437,3.853-2.177,1.462-.847,1.56-1.148.853-2.651q-2.773-5.893-5.56-11.779c-.19-.4-.368-.81-.611-1.348a14.942,14.942,0,0,1,3.254.822" transform="translate(-9.518 -62.364)" fill="#4ba4c7"/>
          <path id="Trazado_154289" data-name="Trazado 154289" d="M37.093,131.768c-1.073-7.252-2.131-14.474-3.222-21.693a2.2,2.2,0,0,1,.83-2.458c.928-.657,1.63-2.168,2.562-2.1.9.062,1.706,1.381,2.57,2.128a1.965,1.965,0,0,1,.9,1.963c-1.094,7.094-2.126,14.2-3.182,21.3-.046.308.036.685-.458.866" transform="translate(-8.063 -63.864)" fill="#71c1e8"/>
          <path id="Trazado_154290" data-name="Trazado 154290" d="M41.69,94.853c-1.368,1.356-3.018,2.358-4.492,3.581a.6.6,0,0,1-.873,0c-1.467-1.231-3.118-2.231-4.492-3.58-.019-.036-.054-.072-.056-.108-.178-3.24-.3-3.073,2.61-2.417a12.589,12.589,0,0,0,5.588-.185c1.8-.407,1.847-.356,1.831,1.513a2.222,2.222,0,0,1-.115,1.2" transform="translate(-7.561 -60.626)" fill="#fdb59e"/>
          <path id="Trazado_154291" data-name="Trazado 154291" d="M41.679,94.158c-.13-.844.348-1.945-.216-2.482-.541-.516-1.509.184-2.288.323a12.991,12.991,0,0,1-6.273-.327c-.821-.258-1.13-.117-1.061.771.045.567-.01,1.142-.021,1.714-.382-1.7.029-3.4-.11-5.135,4.866,1.321,4.866,1.321,10.081,0-.123,1.734.26,3.431-.113,5.132" transform="translate(-7.55 -59.931)" fill="#e98e7b"/>
          <path id="Trazado_154292" data-name="Trazado 154292" d="M32.893,104.462c-.2-1.418-.366-2.568-.553-3.887a14.58,14.58,0,0,1,2.641,1.91l-2.088,1.977" transform="translate(-7.713 -62.687)" fill="#6ebbe1"/>
          <path id="Trazado_154293" data-name="Trazado 154293" d="M43.074,104.347c-2.161-1.866-2.161-1.866-.135-3.391.157-.118.315-.233.615-.455a18.746,18.746,0,0,1-.48,3.846" transform="translate(-9.883 -62.669)" fill="#6fbde2"/>
          <path id="Trazado_154307" data-name="Trazado 154307" d="M6.612,123.937c0-4.026.012-8.053,0-12.079-.013-3.919,3.416-6.269,6.907-6.385a1.034,1.034,0,0,1,1.139.9,1.084,1.084,0,0,1-.792,1.337c-.661.215-1.342.369-2,.585A3.628,3.628,0,0,0,9.08,112.15q-.011,11.771,0,23.541c0,.288,0,.576,0,.863,0,.889-.37,1.646-1.291,1.635-.943-.012-1.186-.8-1.182-1.681.02-4.19.009-8.382.01-12.572" transform="translate(-1.575 -63.854)" fill="#c4e4fd"/>
          <path id="Trazado_154308" data-name="Trazado 154308" d="M9.058,153.666a2.323,2.323,0,0,1-.231,1.316,1.186,1.186,0,0,1-1.328.656c-.768-.181-1.173-1.588-.892-2.927a1.09,1.09,0,0,1,1.362-.918c1.155.147,1.054,1.058,1.089,1.873" transform="translate(-1.555 -74.899)" fill="#c3e4fd"/>
          <path id="Trazado_154309" data-name="Trazado 154309" d="M36.542,79.343a5.171,5.171,0,0,1-5-4.813c-.027-.8.2-1.425,1.051-1.531.912-.112,1.3.443,1.428,1.3a2.7,2.7,0,0,0,5.394.024c.122-.868.5-1.431,1.4-1.33.922.1,1.135.8,1.077,1.633a5.2,5.2,0,0,1-5.35,4.714" transform="translate(-7.522 -56.106)" fill="#010100"/>
        </g>
      </g>
    </g>
  </g>
</svg>
