<svg xmlns="http://www.w3.org/2000/svg" width="84" height="84" viewBox="0 0 84 84">
  <g id="Grupo_968460" data-name="Grupo 968460" transform="translate(12671 6985)">
    <g id="clasificacion" transform="translate(-12658.999 -6986.815)">
      <g id="Grupo_960396" data-name="Grupo 960396" transform="translate(6.912 36.814)">
        <g id="Grupo_960395" data-name="Grupo 960395">
          <path id="Trazado_658275" data-name="Trazado 658275" d="M61.574,196.891a.469.469,0,0,0-.311.115l-1.36,1.037a.647.647,0,0,0-.288.542.556.556,0,0,0,.484.6.417.417,0,0,0,.277-.1l.369-.369v6.156c0,.311.369.473.749.473s.749-.161.749-.473v-7.493C62.242,197.075,61.885,196.891,61.574,196.891Z" transform="translate(-59.614 -196.891)" fill="#b5a29b"/>
        </g>
      </g>
      <g id="Grupo_960398" data-name="Grupo 960398" transform="translate(27.483 45.299)">
        <g id="Grupo_960397" data-name="Grupo 960397">
          <path id="Trazado_658276" data-name="Trazado 658276" d="M241.759,277.166h-3.2v-.277c0-1.2,3.654-2.006,3.654-4.5a2.413,2.413,0,0,0-2.582-2.34,2.28,2.28,0,0,0-2.479,2.121c0,.622.288.807.68.807.5,0,.784-.277.784-.554a.935.935,0,0,1,1.026-1.014,1,1,0,0,1,1.072,1.026c0,1.625-3.712,2.605-3.712,4.45v1.118c0,.288.392.473.657.473h4.1c.254,0,.473-.323.473-.669S242.013,277.166,241.759,277.166Z" transform="translate(-236.998 -270.054)" fill="#b5a29b"/>
        </g>
      </g>
      <g id="Grupo_960400" data-name="Grupo 960400" transform="translate(48.203 53.381)">
        <g id="Grupo_960399" data-name="Grupo 960399" transform="translate(0 0)">
          <path id="Trazado_658277" data-name="Trazado 658277" d="M419.907,343.724a2.02,2.02,0,0,0,.9-1.914c0-1.533-1.038-2.064-2.432-2.064-1.948,0-2.525,1.187-2.525,2.006,0,.484.1.645.772.645.553,0,.715-.231.715-.576,0-.461.277-.772,1.026-.772a.884.884,0,0,1,1.014,1.014c0,.991-.484,1.13-1.06,1.13-.334,0-.449.3-.449.588s.115.588.449.588c.738,0,1.268.242,1.268,1.095v.219c0,.876-.369,1.245-1.233,1.245-.738,0-1.2-.323-1.2-.842,0-.369-.161-.53-.772-.53-.519,0-.715.127-.715.588,0,.933.761,2.1,2.652,2.1,1.522,0,2.767-.7,2.767-2.559v-.219A1.719,1.719,0,0,0,419.907,343.724Z" transform="translate(-415.665 -339.747)" fill="#b5a29b"/>
        </g>
      </g>
      <g id="Grupo_960402" data-name="Grupo 960402" transform="translate(-0.001 31.032)">
        <g id="Grupo_960401" data-name="Grupo 960401">
          <path id="Trazado_658278" data-name="Trazado 658278" d="M16.029,147.034H6.913a.9.9,0,0,0,0,1.79h8.222v36.91H1.789V147.929a.9.9,0,0,0-1.79,0v38.7a.9.9,0,0,0,.9.9H16.029a.9.9,0,0,0,.9-.9v-38.7A.9.9,0,0,0,16.029,147.034Z" transform="translate(0.001 -147.034)" fill="#b5a29b"/>
        </g>
      </g>
      <g id="Grupo_960404" data-name="Grupo 960404" transform="translate(21.637 38.654)">
        <g id="Grupo_960403" data-name="Grupo 960403">
          <path id="Trazado_658279" data-name="Trazado 658279" d="M202.618,212.754h-9.694a.9.9,0,0,0,0,1.79h8.8v29.289H188.377V213.649a.9.9,0,0,0-1.79,0v31.079a.9.9,0,0,0,.9.9h15.136a.9.9,0,0,0,.9-.9V213.649A.9.9,0,0,0,202.618,212.754Z" transform="translate(-186.587 -212.754)" fill="#b5a29b"/>
        </g>
      </g>
      <g id="Grupo_960406" data-name="Grupo 960406" transform="translate(42.449 46.656)">
        <g id="Grupo_960405" data-name="Grupo 960405" transform="translate(0 0)">
          <path id="Trazado_658280" data-name="Trazado 658280" d="M382.081,281.761H366.946a.9.9,0,0,0-.9.9v23.076a.9.9,0,0,0,.9.9h15.135a.9.9,0,0,0,.9-.9V282.656A.9.9,0,0,0,382.081,281.761Zm-.895,23.076H367.841V283.551h13.345Z" transform="translate(-366.051 -281.761)" fill="#b5a29b"/>
        </g>
      </g>
      <g id="Grupo_960408" data-name="Grupo 960408" transform="translate(8.646 15.815)">
        <g id="Grupo_960407" data-name="Grupo 960407" transform="translate(0 0)">
          <path id="Trazado_658281" data-name="Trazado 658281" d="M116.827,31.724H96.91V16.71a.9.9,0,0,0-.9-.9H75.456a.9.9,0,0,0-.9.9V27.043a.9.9,0,1,0,1.79,0V17.605H95.12V32.619a.9.9,0,0,0,.9.9h19.917v9.793a.9.9,0,1,0,1.79,0V32.619A.9.9,0,0,0,116.827,31.724Z" transform="translate(-74.561 -15.815)" fill="#b5a29b"/>
        </g>
      </g>
    </g>
    <rect id="Rectángulo_337776" data-name="Rectángulo 337776" width="84" height="84" transform="translate(-12671 -6985)" fill="none"/>
  </g>
</svg>
