<svg xmlns="http://www.w3.org/2000/svg" xmlns:xlink="http://www.w3.org/1999/xlink" width="401" height="240" viewBox="0 0 401 240">
  <defs>
    <filter id="Trazado_661884" x="46" y="92" width="87" height="135" filterUnits="userSpaceOnUse">
      <feOffset dy="3" input="SourceAlpha"/>
      <feGaussianBlur stdDeviation="3" result="blur"/>
      <feFlood flood-opacity="0.161"/>
      <feComposite operator="in" in2="blur"/>
      <feComposite in="SourceGraphic"/>
    </filter>
    <filter id="Trazado_661885" x="158" y="92" width="89" height="135" filterUnits="userSpaceOnUse">
      <feOffset dy="3" input="SourceAlpha"/>
      <feGaussianBlur stdDeviation="3" result="blur-2"/>
      <feFlood flood-opacity="0.161"/>
      <feComposite operator="in" in2="blur-2"/>
      <feComposite in="SourceGraphic"/>
    </filter>
    <filter id="Trazado_661886" x="277" y="92" width="88" height="135" filterUnits="userSpaceOnUse">
      <feOffset dy="3" input="SourceAlpha"/>
      <feGaussianBlur stdDeviation="3" result="blur-3"/>
      <feFlood flood-opacity="0.161"/>
      <feComposite operator="in" in2="blur-3"/>
      <feComposite in="SourceGraphic"/>
    </filter>
    <clipPath id="clip-path">
      <rect id="Rectángulo_337528" data-name="Rectángulo 337528" width="68" height="51" transform="translate(0 0)" fill="#fff0de" stroke="#707070" stroke-width="1"/>
    </clipPath>
  </defs>
  <g id="Grupo_968452" data-name="Grupo 968452" transform="translate(6257 4663)">
    <path id="Trazado_661882" data-name="Trazado 661882" d="M0,0H401V240H0Z" transform="translate(-6257 -4663)" fill="#fffaf4"/>
    <path id="Trazado_661883" data-name="Trazado 661883" d="M0,0H18V239H0Z" transform="translate(-6257 -4662)" fill="#fff0de"/>
    <g transform="matrix(1, 0, 0, 1, -6257, -4663)" filter="url(#Trazado_661884)">
      <path id="Trazado_661884-2" data-name="Trazado 661884" d="M0,0H69V117H0Z" transform="translate(55 98)" fill="#fff"/>
    </g>
    <g transform="matrix(1, 0, 0, 1, -6257, -4663)" filter="url(#Trazado_661885)">
      <path id="Trazado_661885-2" data-name="Trazado 661885" d="M0,0H71V117H0Z" transform="translate(167 98)" fill="#fff"/>
    </g>
    <g transform="matrix(1, 0, 0, 1, -6257, -4663)" filter="url(#Trazado_661886)">
      <path id="Trazado_661886-2" data-name="Trazado 661886" d="M0,0H70V117H0Z" transform="translate(286 98)" fill="#fff"/>
    </g>
    <path id="Trazado_661887" data-name="Trazado 661887" d="M9.762-3.076H4.368L3.343,0H.072L5.629-14.93H8.48L14.068,0H10.8ZM5.2-5.568H8.931L7.055-11.156Z" transform="translate(-6174 -4458)" fill="#12263f"/>
    <path id="Trazado_661888" data-name="Trazado 661888" d="M4.6,0H1.528V-14.93H4.6Zm9.731,0H11.372V-11.439L7.834-10.346v-2.389l6.183-2.215h.318Z" transform="translate(-6177 -4488)" fill="#12263f"/>
    <path id="Trazado_661889" data-name="Trazado 661889" d="M19,0A19.255,19.255,0,0,1,38,19.5,19.255,19.255,0,0,1,19,39,19.255,19.255,0,0,1,0,19.5,19.255,19.255,0,0,1,19,0Z" transform="translate(-6186 -4556)" fill="#5671ff"/>
    <path id="Trazado_661890" data-name="Trazado 661890" d="M9.762-3.076H4.368L3.343,0H.072L5.629-14.93H8.48L14.068,0H10.8ZM5.2-5.568H8.931L7.055-11.156Z" transform="translate(-6174 -4529)" fill="#12263f"/>
    <path id="Trazado_661891" data-name="Trazado 661891" d="M9.762-3.076H4.368L3.343,0H.072L5.629-14.93H8.48L14.068,0H10.8ZM5.2-5.568H8.931L7.055-11.156ZM15.463,0V-14.93h5.229a6.867,6.867,0,0,1,4.122,1.041,3.559,3.559,0,0,1,1.4,3.051,3.373,3.373,0,0,1-.564,1.933A3.258,3.258,0,0,1,24.086-7.68,3.152,3.152,0,0,1,25.9-6.521a3.426,3.426,0,0,1,.661,2.133,3.94,3.94,0,0,1-1.374,3.261A6.186,6.186,0,0,1,21.267,0Zm3.076-6.5v4.03h2.635a2.543,2.543,0,0,0,1.7-.518,1.776,1.776,0,0,0,.61-1.43A1.875,1.875,0,0,0,21.359-6.5Zm0-2.174h2.276q2.328-.041,2.328-1.856a1.715,1.715,0,0,0-.59-1.461,3.1,3.1,0,0,0-1.861-.446H18.539Zm22.046,3.7a5.283,5.283,0,0,1-1.779,3.794A6.248,6.248,0,0,1,34.576.205a5.618,5.618,0,0,1-4.517-1.933,7.925,7.925,0,0,1-1.646-5.306v-.913a8.95,8.95,0,0,1,.759-3.794,5.686,5.686,0,0,1,2.169-2.517,6.075,6.075,0,0,1,3.276-.877A6.087,6.087,0,0,1,38.78-13.75a5.677,5.677,0,0,1,1.825,3.886H37.529a3.118,3.118,0,0,0-.8-2.1,2.981,2.981,0,0,0-2.107-.651,2.614,2.614,0,0,0-2.3,1.1,6.178,6.178,0,0,0-.784,3.42v1.128a6.612,6.612,0,0,0,.733,3.538,2.565,2.565,0,0,0,2.312,1.118A3.037,3.037,0,0,0,36.7-2.958a2.941,2.941,0,0,0,.8-2.015Z" transform="translate(-6076 -4458)" fill="#12263f"/>
    <path id="Trazado_661892" data-name="Trazado 661892" d="M4.6,0H1.528V-14.93H4.6ZM17.37,0H7.137V-2.03l4.83-5.147a11.914,11.914,0,0,0,1.471-1.9,3.048,3.048,0,0,0,.477-1.538,2.28,2.28,0,0,0-.5-1.564,1.814,1.814,0,0,0-1.436-.569,1.956,1.956,0,0,0-1.584.692,2.742,2.742,0,0,0-.579,1.82H6.839a4.894,4.894,0,0,1,.651-2.492,4.589,4.589,0,0,1,1.841-1.769,5.594,5.594,0,0,1,2.7-.641,5.3,5.3,0,0,1,3.584,1.107A3.918,3.918,0,0,1,16.888-10.9a5.02,5.02,0,0,1-.574,2.256,12.536,12.536,0,0,1-1.969,2.676L10.951-2.389H17.37Z" transform="translate(-6063 -4488)" fill="#12263f"/>
    <path id="Trazado_661893" data-name="Trazado 661893" d="M19.5,0A19.5,19.5,0,1,1,0,19.5,19.5,19.5,0,0,1,19.5,0Z" transform="translate(-6073 -4556)" fill="#fd131c"/>
    <path id="Trazado_661894" data-name="Trazado 661894" d="M9.762-3.076H4.368L3.343,0H.072L5.629-14.93H8.48L14.068,0H10.8ZM5.2-5.568H8.931L7.055-11.156Z" transform="translate(-6061 -4529)" fill="#12263f"/>
    <path id="Trazado_661895" data-name="Trazado 661895" d="M-51.336-3.917a1.579,1.579,0,0,0-.615-1.338,8.07,8.07,0,0,0-2.215-.984A15.7,15.7,0,0,1-56.7-7.26a4.138,4.138,0,0,1-2.543-3.7,3.605,3.605,0,0,1,.682-2.158A4.448,4.448,0,0,1-56.6-14.6a7.372,7.372,0,0,1,2.866-.533,6.71,6.71,0,0,1,2.851.579,4.539,4.539,0,0,1,1.943,1.635,4.28,4.28,0,0,1,.692,2.4h-3.076a2.013,2.013,0,0,0-.646-1.594,2.655,2.655,0,0,0-1.815-.569,2.837,2.837,0,0,0-1.753.477,1.5,1.5,0,0,0-.625,1.256,1.44,1.44,0,0,0,.733,1.22,8.283,8.283,0,0,0,2.158.923A9.326,9.326,0,0,1-49.449-6.85a3.9,3.9,0,0,1,1.2,2.912A3.593,3.593,0,0,1-49.716-.9a6.419,6.419,0,0,1-3.948,1.1A7.623,7.623,0,0,1-56.8-.426,4.965,4.965,0,0,1-58.96-2.153,4.425,4.425,0,0,1-59.7-4.7h3.086q0,2.471,2.953,2.471a2.873,2.873,0,0,0,1.712-.446A1.451,1.451,0,0,0-51.336-3.917ZM-42.9,0h-3.076V-14.93H-42.9Zm14.663-1.887A5.339,5.339,0,0,1-30.582-.344a9.834,9.834,0,0,1-3.363.549,6.662,6.662,0,0,1-3.4-.846A5.642,5.642,0,0,1-39.6-3.1a8.643,8.643,0,0,1-.815-3.784V-7.9a9.179,9.179,0,0,1,.754-3.871,5.575,5.575,0,0,1,2.174-2.5,6.262,6.262,0,0,1,3.327-.866,6.236,6.236,0,0,1,4.153,1.266,5.412,5.412,0,0,1,1.774,3.686h-2.994a2.977,2.977,0,0,0-.907-1.876,2.9,2.9,0,0,0-1.933-.595,2.728,2.728,0,0,0-2.389,1.179,6.2,6.2,0,0,0-.831,3.507v.954A5.9,5.9,0,0,0-36.4-3.466a3.055,3.055,0,0,0,2.615,1.2A3.412,3.412,0,0,0-31.31-3V-5.578h-2.8V-7.844h5.875ZM-13.6,0h-3.076l-5.988-9.823V0h-3.076V-14.93h3.076l6,9.844V-14.93H-13.6ZM-2.3-3.076H-7.7L-8.721,0h-3.271l5.558-14.93h2.851L2,0H-1.266ZM-6.865-5.568h3.732l-1.876-5.588Zm20.272-6.87H8.834V0H5.758V-12.438H1.246V-14.93H13.407ZM26.46-14.93V-5.1A5.035,5.035,0,0,1,24.927-1.22,5.91,5.91,0,0,1,20.739.205a5.976,5.976,0,0,1-4.153-1.384,4.949,4.949,0,0,1-1.569-3.8V-14.93h3.076v9.854a2.845,2.845,0,0,0,.7,2.138,2.7,2.7,0,0,0,1.943.672q2.594,0,2.635-2.728V-14.93ZM34.51-5.465H32.059V0H28.983V-14.93H34.53a6.271,6.271,0,0,1,4.081,1.179,4.07,4.07,0,0,1,1.436,3.333,4.593,4.593,0,0,1-.661,2.548,4.511,4.511,0,0,1-2,1.625l3.23,6.1V0h-3.3ZM32.059-7.957H34.54a2.541,2.541,0,0,0,1.794-.59,2.107,2.107,0,0,0,.636-1.625,2.256,2.256,0,0,0-.6-1.661,2.493,2.493,0,0,0-1.841-.6H32.059ZM50.813-3.076H45.42L44.394,0H41.123l5.558-14.93h2.851L55.12,0H51.849ZM46.25-5.568h3.732l-1.876-5.588ZM-58.719,19.562h-4.573V32h-3.076V19.562H-70.88V17.07h12.161Zm13.73,5.312a9.013,9.013,0,0,1-.779,3.866A5.869,5.869,0,0,1-48,31.3a6.169,6.169,0,0,1-3.327.9,6.211,6.211,0,0,1-3.312-.892,5.926,5.926,0,0,1-2.256-2.548,8.755,8.755,0,0,1-.81-3.809v-.738a8.965,8.965,0,0,1,.795-3.881,5.917,5.917,0,0,1,2.246-2.574,6.177,6.177,0,0,1,3.317-.9,6.177,6.177,0,0,1,3.317.9,5.917,5.917,0,0,1,2.246,2.574,8.94,8.94,0,0,1,.795,3.871Zm-3.117-.677a6.283,6.283,0,0,0-.841-3.568,2.74,2.74,0,0,0-2.4-1.22,2.741,2.741,0,0,0-2.389,1.2,6.211,6.211,0,0,0-.851,3.532v.728a6.361,6.361,0,0,0,.841,3.548,2.733,2.733,0,0,0,2.42,1.261,2.708,2.708,0,0,0,2.379-1.215,6.324,6.324,0,0,0,.841-3.543Zm8.429,2.543V32h-3.076V17.07h5.824a6.738,6.738,0,0,1,2.958.615,4.534,4.534,0,0,1,1.964,1.748,4.875,4.875,0,0,1,.687,2.579,4.287,4.287,0,0,1-1.5,3.461,6.257,6.257,0,0,1-4.158,1.266Zm0-2.492h2.748a2.7,2.7,0,0,0,1.861-.574,2.088,2.088,0,0,0,.641-1.641,2.463,2.463,0,0,0-.646-1.774,2.413,2.413,0,0,0-1.784-.7h-2.82Zm22.733.625a9.013,9.013,0,0,1-.779,3.866,5.869,5.869,0,0,1-2.23,2.563,6.169,6.169,0,0,1-3.327.9,6.211,6.211,0,0,1-3.312-.892,5.926,5.926,0,0,1-2.256-2.548,8.755,8.755,0,0,1-.81-3.809v-.738a8.965,8.965,0,0,1,.795-3.881,5.917,5.917,0,0,1,2.246-2.574,6.177,6.177,0,0,1,3.317-.9,6.177,6.177,0,0,1,3.317.9,5.917,5.917,0,0,1,2.246,2.574,8.94,8.94,0,0,1,.795,3.871Zm-3.117-.677a6.283,6.283,0,0,0-.841-3.568,2.74,2.74,0,0,0-2.4-1.22,2.741,2.741,0,0,0-2.389,1.2,6.211,6.211,0,0,0-.851,3.532v.728a6.361,6.361,0,0,0,.841,3.548,2.733,2.733,0,0,0,2.42,1.261A2.708,2.708,0,0,0-20.9,28.468a6.324,6.324,0,0,0,.841-3.543ZM-2.9,30.113a5.339,5.339,0,0,1-2.348,1.543,9.834,9.834,0,0,1-3.363.549,6.662,6.662,0,0,1-3.4-.846A5.642,5.642,0,0,1-14.263,28.9a8.643,8.643,0,0,1-.815-3.784V24.1a9.179,9.179,0,0,1,.754-3.871,5.575,5.575,0,0,1,2.174-2.5,6.262,6.262,0,0,1,3.327-.866,6.236,6.236,0,0,1,4.153,1.266A5.412,5.412,0,0,1-2.9,21.818H-5.891A2.977,2.977,0,0,0-6.8,19.941a2.9,2.9,0,0,0-1.933-.595,2.728,2.728,0,0,0-2.389,1.179,6.2,6.2,0,0,0-.831,3.507v.954a5.9,5.9,0,0,0,.892,3.548,3.055,3.055,0,0,0,2.615,1.2A3.412,3.412,0,0,0-5.973,29V26.422h-2.8V24.156H-2.9Zm8.019-3.579H2.671V32H-.405V17.07H5.142A6.271,6.271,0,0,1,9.223,18.25a4.07,4.07,0,0,1,1.436,3.333A4.593,4.593,0,0,1,10,24.13a4.511,4.511,0,0,1-2,1.625l3.23,6.1V32h-3.3ZM2.671,24.043H5.153a2.541,2.541,0,0,0,1.794-.59,2.107,2.107,0,0,0,.636-1.625,2.256,2.256,0,0,0-.6-1.661,2.493,2.493,0,0,0-1.841-.6H2.671Zm18.754,4.881H16.032L15.007,32H11.736l5.558-14.93h2.851L25.732,32H22.461Zm-4.563-2.492h3.732l-1.876-5.588Zm2.492-13.361h3.23l-2.84,3.179h-2.41ZM36.109,25.9H30.2V32H27.127V17.07h9.721v2.492H30.2v3.855h5.906ZM41.9,32H38.826V17.07H41.9Zm14.571-4.973a5.283,5.283,0,0,1-1.779,3.794,6.248,6.248,0,0,1-4.23,1.384,5.618,5.618,0,0,1-4.517-1.933A7.925,7.925,0,0,1,44.3,24.966v-.913a8.95,8.95,0,0,1,.759-3.794,5.686,5.686,0,0,1,2.169-2.517,6.777,6.777,0,0,1,7.439.508,5.677,5.677,0,0,1,1.825,3.886H53.418a3.118,3.118,0,0,0-.8-2.1,2.981,2.981,0,0,0-2.107-.651,2.614,2.614,0,0,0-2.3,1.1,6.178,6.178,0,0,0-.784,3.42v1.128a6.612,6.612,0,0,0,.733,3.538,2.565,2.565,0,0,0,2.312,1.118,3.037,3.037,0,0,0,2.128-.651,2.941,2.941,0,0,0,.8-2.015Zm10.449,1.9H61.529L60.5,32H57.232L62.79,17.07H65.64L71.229,32H67.958Zm-4.563-2.492h3.732l-1.876-5.588Z" transform="translate(-6062 -4625)" fill="#12263f"/>
    <path id="Trazado_661896" data-name="Trazado 661896" d="M9.762-3.076H4.368L3.343,0H.072L5.629-14.93H8.48L14.068,0H10.8ZM5.2-5.568H8.931L7.055-11.156ZM15.463,0V-14.93h5.229a6.867,6.867,0,0,1,4.122,1.041,3.559,3.559,0,0,1,1.4,3.051,3.373,3.373,0,0,1-.564,1.933A3.258,3.258,0,0,1,24.086-7.68,3.152,3.152,0,0,1,25.9-6.521a3.426,3.426,0,0,1,.661,2.133,3.94,3.94,0,0,1-1.374,3.261A6.186,6.186,0,0,1,21.267,0Zm3.076-6.5v4.03h2.635a2.543,2.543,0,0,0,1.7-.518,1.776,1.776,0,0,0,.61-1.43A1.875,1.875,0,0,0,21.359-6.5Zm0-2.174h2.276q2.328-.041,2.328-1.856a1.715,1.715,0,0,0-.59-1.461,3.1,3.1,0,0,0-1.861-.446H18.539Zm22.046,3.7a5.283,5.283,0,0,1-1.779,3.794A6.248,6.248,0,0,1,34.576.205a5.618,5.618,0,0,1-4.517-1.933,7.925,7.925,0,0,1-1.646-5.306v-.913a8.95,8.95,0,0,1,.759-3.794,5.686,5.686,0,0,1,2.169-2.517,6.075,6.075,0,0,1,3.276-.877A6.087,6.087,0,0,1,38.78-13.75a5.677,5.677,0,0,1,1.825,3.886H37.529a3.118,3.118,0,0,0-.8-2.1,2.981,2.981,0,0,0-2.107-.651,2.614,2.614,0,0,0-2.3,1.1,6.178,6.178,0,0,0-.784,3.42v1.128a6.612,6.612,0,0,0,.733,3.538,2.565,2.565,0,0,0,2.312,1.118A3.037,3.037,0,0,0,36.7-2.958a2.941,2.941,0,0,0,.8-2.015Z" transform="translate(-5957 -4458)" fill="#12263f"/>
    <path id="Trazado_661897" data-name="Trazado 661897" d="M4.6,0H1.528V-14.93H4.6Zm5.547-8.777H11.73A2.225,2.225,0,0,0,13.4-9.341a2.067,2.067,0,0,0,.543-1.5,1.827,1.827,0,0,0-.538-1.4,2.086,2.086,0,0,0-1.482-.5,2.187,2.187,0,0,0-1.425.467,1.492,1.492,0,0,0-.574,1.215H6.962a3.644,3.644,0,0,1,.631-2.1,4.2,4.2,0,0,1,1.764-1.451,5.886,5.886,0,0,1,2.5-.523A5.582,5.582,0,0,1,15.565-14a3.866,3.866,0,0,1,1.343,3.122,3.141,3.141,0,0,1-.625,1.887A4.064,4.064,0,0,1,14.643-7.67a3.71,3.71,0,0,1,1.882,1.354,3.672,3.672,0,0,1,.62,2.133A3.93,3.93,0,0,1,15.694-.995a5.834,5.834,0,0,1-3.84,1.2A5.531,5.531,0,0,1,8.2-.974a3.851,3.851,0,0,1-1.42-3.117H9.741a1.717,1.717,0,0,0,.631,1.374,2.324,2.324,0,0,0,1.553.533,2.335,2.335,0,0,0,1.656-.559,1.929,1.929,0,0,0,.6-1.482q0-2.235-2.461-2.235H10.151Z" transform="translate(-5946 -4488)" fill="#12263f"/>
    <path id="Trazado_661898" data-name="Trazado 661898" d="M19.5,0A19.5,19.5,0,1,1,0,19.5,19.5,19.5,0,0,1,19.5,0Z" transform="translate(-5954.999 -4556)" fill="#35ba6b"/>
    <path id="Trazado_661899" data-name="Trazado 661899" d="M9.762-3.076H4.368L3.343,0H.072L5.629-14.93H8.48L14.068,0H10.8ZM5.2-5.568H8.931L7.055-11.156Z" transform="translate(-5943 -4529)" fill="#12263f"/>
    <g id="Enmascarar_grupo_952149" data-name="Enmascarar grupo 952149" transform="translate(-5926 -4662)" clip-path="url(#clip-path)">
      <path id="Trazado_661215" data-name="Trazado 661215" d="M0,0H68.05V38.535A33.615,33.615,0,0,1,34.435,72.15h-.82A33.615,33.615,0,0,1,0,38.535Z" transform="translate(0.069 -21.025)" fill="#fff0de"/>
    </g>
    <path id="Trazado_661900" data-name="Trazado 661900" d="M11.931,11.927h4.717V13H10.612V3.047h1.319ZM19.321,13H18.056V5.6h1.265ZM17.953,3.642a.755.755,0,0,1,.188-.52A.706.706,0,0,1,18.7,2.91a.717.717,0,0,1,.561.212.747.747,0,0,1,.191.52.722.722,0,0,1-.191.513.73.73,0,0,1-.561.205.718.718,0,0,1-.557-.205A.73.73,0,0,1,17.953,3.642Zm9.652,5.742a4.4,4.4,0,0,1-.779,2.724,2.49,2.49,0,0,1-2.092,1.029,2.578,2.578,0,0,1-2.167-.991L22.506,13H21.344V2.5h1.265V6.417a2.564,2.564,0,0,1,2.112-.95,2.505,2.505,0,0,1,2.116,1.019,4.53,4.53,0,0,1,.769,2.789ZM26.341,9.24a3.417,3.417,0,0,0-.5-2,1.652,1.652,0,0,0-1.436-.7,1.857,1.857,0,0,0-1.8,1.162v3.2a1.909,1.909,0,0,0,1.812,1.162,1.643,1.643,0,0,0,1.415-.7A3.634,3.634,0,0,0,26.341,9.24Zm6.433-2.5a3.79,3.79,0,0,0-.622-.048,1.667,1.667,0,0,0-1.688,1.06V13H29.2V5.6h1.23l.021.854a1.969,1.969,0,0,1,1.764-.991,1.292,1.292,0,0,1,.561.1Zm.69,2.5a4.369,4.369,0,0,1,.427-1.955,3.187,3.187,0,0,1,1.189-1.34,3.238,3.238,0,0,1,1.74-.472,3.119,3.119,0,0,1,2.444,1.046A4.024,4.024,0,0,1,40.2,9.295v.089a4.407,4.407,0,0,1-.414,1.938A3.14,3.14,0,0,1,38.6,12.658a3.275,3.275,0,0,1-1.767.479A3.111,3.111,0,0,1,34.4,12.091a4,4,0,0,1-.933-2.769Zm1.271.15a3.164,3.164,0,0,0,.571,1.976,1.934,1.934,0,0,0,3.059-.01,3.46,3.46,0,0,0,.567-2.116,3.159,3.159,0,0,0-.578-1.972,1.836,1.836,0,0,0-1.535-.755,1.816,1.816,0,0,0-1.511.745A3.435,3.435,0,0,0,34.736,9.384ZM46.09,11.038a.931.931,0,0,0-.386-.8,3.718,3.718,0,0,0-1.347-.489,6.367,6.367,0,0,1-1.524-.492A2.169,2.169,0,0,1,42,8.577a1.635,1.635,0,0,1-.27-.943A1.919,1.919,0,0,1,42.5,6.1a3,3,0,0,1,1.965-.629,3.091,3.091,0,0,1,2.041.649,2.063,2.063,0,0,1,.783,1.661H46.015a1.142,1.142,0,0,0-.441-.9,1.652,1.652,0,0,0-1.111-.376,1.729,1.729,0,0,0-1.08.3.947.947,0,0,0-.39.786.767.767,0,0,0,.362.69,4.458,4.458,0,0,0,1.309.444,6.821,6.821,0,0,1,1.535.506,2.239,2.239,0,0,1,.872.708,1.74,1.74,0,0,1,.284,1.008,1.893,1.893,0,0,1-.793,1.589,3.326,3.326,0,0,1-2.058.6,3.725,3.725,0,0,1-1.572-.314,2.557,2.557,0,0,1-1.07-.878,2.117,2.117,0,0,1-.386-1.22h1.265a1.309,1.309,0,0,0,.509,1.008A1.976,1.976,0,0,0,44.5,12.1a2.039,2.039,0,0,0,1.152-.291A.893.893,0,0,0,46.09,11.038ZM2.419,31H1.154V23.6H2.419ZM1.052,21.642a.755.755,0,0,1,.188-.52A.706.706,0,0,1,1.8,20.91a.717.717,0,0,1,.561.212.747.747,0,0,1,.191.52.722.722,0,0,1-.191.513.73.73,0,0,1-.561.205.718.718,0,0,1-.557-.205A.73.73,0,0,1,1.052,21.642ZM5.639,23.6l.041.93a2.7,2.7,0,0,1,2.215-1.066q2.345,0,2.365,2.646V31H8.995V26.105a1.7,1.7,0,0,0-.366-1.183,1.466,1.466,0,0,0-1.118-.383,1.825,1.825,0,0,0-1.08.328,2.228,2.228,0,0,0-.725.861V31H4.442V23.6Zm7.15,7.4V24.581H11.62V23.6h1.169v-.759a2.519,2.519,0,0,1,.636-1.839,2.4,2.4,0,0,1,1.8-.649,3.339,3.339,0,0,1,.868.115l-.068,1.019a3.632,3.632,0,0,0-.684-.062,1.234,1.234,0,0,0-.95.36,1.46,1.46,0,0,0-.335,1.032V23.6h1.579v.978H14.054V31Zm8.8,0a2.657,2.657,0,0,1-.178-.779,2.822,2.822,0,0,1-2.105.916,2.611,2.611,0,0,1-1.794-.619,2,2,0,0,1-.7-1.569,2.091,2.091,0,0,1,.878-1.794,4.141,4.141,0,0,1,2.471-.639H21.4v-.581a1.42,1.42,0,0,0-.4-1.056,1.593,1.593,0,0,0-1.169-.393,1.844,1.844,0,0,0-1.135.342,1.007,1.007,0,0,0-.458.827H16.966a1.745,1.745,0,0,1,.393-1.07,2.683,2.683,0,0,1,1.066-.817,3.588,3.588,0,0,1,1.48-.3,2.924,2.924,0,0,1,2,.639,2.306,2.306,0,0,1,.752,1.76v3.4a4.162,4.162,0,0,0,.26,1.62V31Zm-2.1-.964a2.223,2.223,0,0,0,1.128-.308,1.861,1.861,0,0,0,.772-.8V27.411H20.4q-2.324,0-2.324,1.36a1.151,1.151,0,0,0,.4.93A1.524,1.524,0,0,0,19.495,30.036ZM25.839,23.6l.041.93a2.7,2.7,0,0,1,2.215-1.066q2.345,0,2.365,2.646V31H29.2V26.105a1.7,1.7,0,0,0-.366-1.183,1.466,1.466,0,0,0-1.118-.383,1.825,1.825,0,0,0-1.08.328,2.228,2.228,0,0,0-.725.861V31H24.642V23.6Zm8.244-1.791V23.6h1.381v.978H34.083v4.593a1.027,1.027,0,0,0,.185.667.777.777,0,0,0,.629.222,3.062,3.062,0,0,0,.6-.082V31a3.688,3.688,0,0,1-.971.136,1.575,1.575,0,0,1-1.278-.513,2.2,2.2,0,0,1-.431-1.456V24.581H31.472V23.6h1.347V21.813ZM38.314,31H37.05V23.6h1.265Zm-1.367-9.358a.755.755,0,0,1,.188-.52.706.706,0,0,1,.557-.212.717.717,0,0,1,.561.212.747.747,0,0,1,.191.52.722.722,0,0,1-.191.513.73.73,0,0,1-.561.205.718.718,0,0,1-.557-.205A.73.73,0,0,1,36.947,21.642ZM41.712,31H40.447V20.5h1.265Zm5.093.137a3.232,3.232,0,0,1-2.447-.988,3.666,3.666,0,0,1-.943-2.642v-.232a4.438,4.438,0,0,1,.42-1.965,3.279,3.279,0,0,1,1.176-1.354,2.956,2.956,0,0,1,1.637-.489,2.77,2.77,0,0,1,2.242.95,4.114,4.114,0,0,1,.8,2.721v.526H44.679a2.629,2.629,0,0,0,.639,1.767,2.009,2.009,0,0,0,1.555.673,2.2,2.2,0,0,0,1.135-.273,2.851,2.851,0,0,0,.813-.725l.772.6A3.106,3.106,0,0,1,46.8,31.137Zm-.157-6.631a1.687,1.687,0,0,0-1.285.557,2.708,2.708,0,0,0-.643,1.562h3.705v-.1a2.409,2.409,0,0,0-.52-1.494A1.588,1.588,0,0,0,46.647,24.506Zm8.812,4.532a.931.931,0,0,0-.386-.8,3.718,3.718,0,0,0-1.347-.489,6.367,6.367,0,0,1-1.524-.492,2.169,2.169,0,0,1-.834-.684,1.635,1.635,0,0,1-.27-.943,1.919,1.919,0,0,1,.769-1.538,3,3,0,0,1,1.965-.629,3.091,3.091,0,0,1,2.041.649,2.063,2.063,0,0,1,.783,1.661H55.384a1.142,1.142,0,0,0-.441-.9,1.652,1.652,0,0,0-1.111-.376,1.729,1.729,0,0,0-1.08.3.947.947,0,0,0-.39.786.767.767,0,0,0,.362.69,4.458,4.458,0,0,0,1.309.444,6.821,6.821,0,0,1,1.535.506,2.239,2.239,0,0,1,.872.708,1.74,1.74,0,0,1,.284,1.008,1.893,1.893,0,0,1-.793,1.589,3.326,3.326,0,0,1-2.058.6,3.725,3.725,0,0,1-1.572-.314,2.557,2.557,0,0,1-1.07-.878,2.117,2.117,0,0,1-.386-1.22h1.265a1.309,1.309,0,0,0,.509,1.008,1.976,1.976,0,0,0,1.254.373,2.039,2.039,0,0,0,1.152-.291A.893.893,0,0,0,55.459,29.038Z" transform="translate(-5919.327 -4661.688)" fill="#12263f"/>
  </g>
</svg>
