<svg xmlns="http://www.w3.org/2000/svg" width="88.77" height="88.766" viewBox="0 0 88.77 88.766">
  <g id="Grupo_968459" data-name="Grupo 968459" transform="translate(3504 8225.712)">
    <g id="licencias" transform="translate(-3503.99 -8225.72)">
      <path id="Trazado_661774" data-name="Trazado 661774" d="M391.413,48.282V33.487a1.479,1.479,0,0,0-1.479-1.479h-5.918v2.959h4.438V48.282Zm0,0" transform="translate(-313.009 -26.082)" fill="#fd9827"/>
      <path id="Trazado_661775" data-name="Trazado 661775" d="M56.016,240.008v36.986a1.479,1.479,0,0,0,1.479,1.479h59.177a1.479,1.479,0,0,0,1.479-1.479V266.638h-2.959v8.876H58.974V240.008Zm0,0" transform="translate(-45.665 -195.618)" fill="#fd9827"/>
      <path id="Trazado_661776" data-name="Trazado 661776" d="M103.97.156c-.046-.021-.09-.033-.138-.049a1.471,1.471,0,0,0-.383-.077.565.565,0,0,0-.092-.022H57.495a1.479,1.479,0,0,0-1.479,1.479V4.446h2.959V2.967h42.9V14.8a1.479,1.479,0,0,0,1.479,1.479h11.835v7.4h2.959V14.8c0-.031-.016-.059-.018-.092a1.441,1.441,0,0,0-.077-.383c-.017-.048-.028-.092-.049-.138a1.47,1.47,0,0,0-.3-.433L104.4.441a1.482,1.482,0,0,0-.428-.285ZM113.1,13.323h-8.264V5.059Zm0,0" transform="translate(-45.665)" fill="#fd9827"/>
      <path id="Trazado_661777" data-name="Trazado 661777" d="M184.016,329.487v11.835A1.479,1.479,0,0,0,185.5,342.8h19.232v-2.959H186.975v-8.877h7.4v-2.959H185.5A1.479,1.479,0,0,0,184.016,329.487Zm0,0" transform="translate(-149.995 -267.344)" fill="#fd9827"/>
      <path id="Trazado_661778" data-name="Trazado 661778" d="M216.016,360.008h8.877v2.959h-8.877Zm0,0" transform="translate(-176.077 -293.426)" fill="#fd9827"/>
      <path id="Trazado_661779" data-name="Trazado 661779" d="M156.672,136.008a10.369,10.369,0,0,0-10.356,10.356v.148l-7.545,7.965-4.724-4.724a1.479,1.479,0,0,0-2.092,0l-13.315,13.315a1.48,1.48,0,0,0,0,2.092l20.712,20.712a1.48,1.48,0,0,0,2.092,0l4.438-4.438,7.831-7.828v23.058h-57.7v2.959h59.177a1.479,1.479,0,0,0,1.479-1.479V162.638h-2.959v6.785l-5.157-5.157,7.968-7.545h.148a10.356,10.356,0,0,0,0-20.712ZM140.4,182.737l-18.62-18.62,2.346-2.346,18.62,18.62Zm11.223-11.223-6.785,6.785-18.62-18.62L133,152.894l3.734,3.734-3.329,3.512a1.479,1.479,0,0,0,.028,2.071l7.4,7.4a1.479,1.479,0,0,0,2.062.028l3.514-3.329Zm5.051-17.753h-.74a1.482,1.482,0,0,0-1.018.405l-13.008,12.318-5.354-5.354,12.324-13.009a1.479,1.479,0,0,0,.4-1.018v-.74a7.4,7.4,0,1,1,7.4,7.4Zm0,0" transform="translate(-78.268 -110.85)" fill="#fd9827"/>
      <path id="Trazado_661780" data-name="Trazado 661780" d="M152.016,232.008H166.81v2.959H152.016Zm0,0" transform="translate(-123.913 -189.097)" fill="#fd9827"/>
      <path id="Trazado_661781" data-name="Trazado 661781" d="M104.016,264.008h17.753v2.959H104.016Zm0,0" transform="translate(-84.789 -215.179)" fill="#fd9827"/>
      <path id="Trazado_661782" data-name="Trazado 661782" d="M176.016,200.008h17.753v2.959H176.016Zm0,0" transform="translate(-143.474 -163.015)" fill="#fd9827"/>
      <path id="Trazado_661783" data-name="Trazado 661783" d="M104.016,296.008h8.877v2.959h-8.877Zm0,0" transform="translate(-84.789 -241.262)" fill="#fd9827"/>
      <path id="Trazado_661784" data-name="Trazado 661784" d="M104.016,328.008h11.835v2.959H104.016Zm0,0" transform="translate(-84.789 -267.344)" fill="#fd9827"/>
      <path id="Trazado_661785" data-name="Trazado 661785" d="M104.016,360.008h11.835v2.959H104.016Zm0,0" transform="translate(-84.789 -293.426)" fill="#fd9827"/>
      <path id="Trazado_661786" data-name="Trazado 661786" d="M104.016,392.008h11.835v2.959H104.016Zm0,0" transform="translate(-84.789 -319.509)" fill="#fd9827"/>
      <path id="Trazado_661787" data-name="Trazado 661787" d="M104.016,232.008h5.918v2.959h-5.918Zm0,0" transform="translate(-84.789 -189.097)" fill="#fd9827"/>
      <path id="Trazado_661788" data-name="Trazado 661788" d="M168.016,296.008h5.918v2.959h-5.918Zm0,0" transform="translate(-136.954 -241.262)" fill="#fd9827"/>
      <path id="Trazado_661789" data-name="Trazado 661789" d="M200.016,160.008H214.81v2.959H200.016Zm0,0" transform="translate(-163.036 -130.412)" fill="#fd9827"/>
      <path id="Trazado_661790" data-name="Trazado 661790" d="M17.747,67.5A17.753,17.753,0,0,0,35.469,50.371a3.911,3.911,0,0,0,2.869.9,4.012,4.012,0,0,0,6.16,0,4.013,4.013,0,0,0,4.355-4.355,4.012,4.012,0,0,0,0-6.16A4.013,4.013,0,0,0,44.5,36.4a4.012,4.012,0,0,0-6.16,0,4.013,4.013,0,0,0-4.355,4.355,3.841,3.841,0,0,0-.592.61A17.753,17.753,0,1,0,17.747,67.5ZM36.19,42.855a1.478,1.478,0,0,0,.841-2.028,1.035,1.035,0,0,1,1.383-1.383,1.478,1.478,0,0,0,2.028-.841,1.036,1.036,0,0,1,1.953,0,1.479,1.479,0,0,0,2.028.841,1.035,1.035,0,0,1,1.383,1.383,1.478,1.478,0,0,0,.841,2.028,1.036,1.036,0,0,1,0,1.953,1.479,1.479,0,0,0-.841,2.028,1,1,0,0,1-.2,1.183,1.007,1.007,0,0,1-1.184.2,1.479,1.479,0,0,0-2.028.84,1.036,1.036,0,0,1-1.953,0,1.476,1.476,0,0,0-.829-.871,1.508,1.508,0,0,0-.566-.113,1.449,1.449,0,0,0-.634.148,1.035,1.035,0,0,1-1.383-1.383,1.479,1.479,0,0,0-.841-2.028,1.035,1.035,0,0,1,0-1.953Zm-18.442-7.9A14.794,14.794,0,1,1,2.953,49.75,14.794,14.794,0,0,1,17.747,34.955Zm0,0" transform="translate(0 -26.071)" fill="#fd9827"/>
      <path id="Trazado_661791" data-name="Trazado 661791" d="M38.8,99.238a1.48,1.48,0,0,0,2.092,0L55.684,84.443l-2.092-2.092L39.844,96.1l-3.392-3.392L34.359,94.8Zm0,0" transform="translate(-28.014 -67.116)" fill="#fd9827"/>
    </g>
  </g>
</svg>
