<svg xmlns="http://www.w3.org/2000/svg" xmlns:xlink="http://www.w3.org/1999/xlink" width="204.618" height="148.703" viewBox="0 0 204.618 148.703">
  <defs>
    <clipPath id="clip-path">
      <rect id="Rectángulo_34881" data-name="Rectángulo 34881" width="102.985" height="52.538" fill="#12263f"/>
    </clipPath>
  </defs>
  <g id="Grupo_967033" data-name="Grupo 967033" transform="translate(0 0)">
    <g id="Grupo_157884" data-name="Grupo 157884" transform="translate(0 0)">
      <path id="Rectángulo_34948" data-name="Rectángulo 34948" d="M0,0H141.867a56,56,0,0,1,56,56v82.038a0,0,0,0,1,0,0H56a56,56,0,0,1-56-56V0A0,0,0,0,1,0,0Z" transform="translate(4.052 7.1)" fill="#c9c8c8"/>
      <g id="Enmascarar_grupo_63" data-name="Enmascarar grupo 63" transform="translate(0 0)" clip-path="url(#clip-path)">
        <path id="Trazado_151731" data-name="Trazado 151731" d="M49.035,77.423A28.389,28.389,0,1,0,20.646,49.035,28.421,28.421,0,0,0,49.035,77.423m0,20.646A49.035,49.035,0,1,1,98.069,49.035,49.035,49.035,0,0,1,49.035,98.069Z" transform="translate(2.788 3.504)" fill="#fd9827"/>
      </g>
      <g id="Grupo_78301" data-name="Grupo 78301" transform="translate(0 0)">
        <path id="Trazado_145969" data-name="Trazado 145969" d="M29.041,0A29.041,29.041,0,1,0,58.083,29.041,29.041,29.041,0,0,0,29.041,0Z" transform="translate(146.535 1.474)" fill="#fd9827" opacity="0.444" style="mix-blend-mode: multiply;isolation: isolate"/>
        <rect id="Rectángulo_34812" data-name="Rectángulo 34812" width="204.618" height="144.258" transform="translate(0 0)" fill="none"/>
        <path id="Trazado_145971" data-name="Trazado 145971" d="M3.314,0A3.314,3.314,0,1,0,6.629,3.314,3.314,3.314,0,0,0,3.314,0Z" transform="translate(184.895 131.061)" fill="#31313c" opacity="0.444" style="mix-blend-mode: multiply;isolation: isolate"/>
        <g id="Grupo_80270" data-name="Grupo 80270" transform="translate(0 83.5)">
          <path id="Trazado_145968" data-name="Trazado 145968" d="M32.6,0A32.6,32.6,0,1,0,65.2,32.6,32.6,32.6,0,0,0,32.6,0Z" fill="#31313c" opacity="0.444" style="mix-blend-mode: multiply;isolation: isolate"/>
          <g id="Grupo_78276" data-name="Grupo 78276" transform="translate(11.747 13.478)">
            <g id="Grupo_53306" data-name="Grupo 53306" transform="translate(0)">
              <path id="Trazado_99200" data-name="Trazado 99200" d="M414.214,50.647a.443.443,0,1,0,.443-.423A.433.433,0,0,0,414.214,50.647Z" transform="translate(-374.372 -50.224)" fill="#fff"/>
              <path id="Trazado_99201" data-name="Trazado 99201" d="M422.66,50.647a.443.443,0,1,0,.442-.423A.433.433,0,0,0,422.66,50.647Z" transform="translate(-386.802 -50.224)" fill="#fff"/>
              <path id="Trazado_99202" data-name="Trazado 99202" d="M431.106,50.647a.443.443,0,1,0,.442-.423A.433.433,0,0,0,431.106,50.647Z" transform="translate(-399.232 -50.224)" fill="#fff"/>
              <path id="Trazado_99203" data-name="Trazado 99203" d="M439.553,50.647a.443.443,0,1,0,.443-.423A.433.433,0,0,0,439.553,50.647Z" transform="translate(-411.664 -50.224)" fill="#fff"/>
              <path id="Trazado_99204" data-name="Trazado 99204" d="M448,50.647a.443.443,0,1,0,.442-.423A.433.433,0,0,0,448,50.647Z" transform="translate(-424.094 -50.224)" fill="#fff"/>
              <path id="Trazado_99205" data-name="Trazado 99205" d="M456.445,50.647a.443.443,0,1,0,.442-.423A.433.433,0,0,0,456.445,50.647Z" transform="translate(-436.524 -50.224)" fill="#fff"/>
              <path id="Trazado_99206" data-name="Trazado 99206" d="M464.892,50.647a.443.443,0,1,0,.443-.423A.434.434,0,0,0,464.892,50.647Z" transform="translate(-448.955 -50.224)" fill="#fff"/>
              <path id="Trazado_99207" data-name="Trazado 99207" d="M473.338,50.647a.443.443,0,1,0,.442-.423A.433.433,0,0,0,473.338,50.647Z" transform="translate(-461.386 -50.224)" fill="#fff"/>
              <path id="Trazado_99208" data-name="Trazado 99208" d="M481.784,50.647a.443.443,0,1,0,.442-.423A.433.433,0,0,0,481.784,50.647Z" transform="translate(-473.815 -50.224)" fill="#fff"/>
              <path id="Trazado_99209" data-name="Trazado 99209" d="M490.231,50.647a.443.443,0,1,0,.443-.423A.434.434,0,0,0,490.231,50.647Z" transform="translate(-486.247 -50.224)" fill="#fff"/>
              <path id="Trazado_99210" data-name="Trazado 99210" d="M498.677,50.647a.443.443,0,1,0,.443-.423A.433.433,0,0,0,498.677,50.647Z" transform="translate(-498.677 -50.224)" fill="#fff"/>
            </g>
            <g id="Grupo_53307" data-name="Grupo 53307" transform="translate(0 3.387)">
              <path id="Trazado_99211" data-name="Trazado 99211" d="M414.214,58.155a.443.443,0,1,0,.443-.423A.433.433,0,0,0,414.214,58.155Z" transform="translate(-374.372 -57.732)" fill="#fff"/>
              <path id="Trazado_99212" data-name="Trazado 99212" d="M422.66,58.155a.443.443,0,1,0,.442-.423A.433.433,0,0,0,422.66,58.155Z" transform="translate(-386.802 -57.732)" fill="#fff"/>
              <path id="Trazado_99213" data-name="Trazado 99213" d="M431.106,58.155a.443.443,0,1,0,.442-.423A.433.433,0,0,0,431.106,58.155Z" transform="translate(-399.232 -57.732)" fill="#fff"/>
              <path id="Trazado_99214" data-name="Trazado 99214" d="M439.553,58.155a.443.443,0,1,0,.443-.423A.433.433,0,0,0,439.553,58.155Z" transform="translate(-411.664 -57.732)" fill="#fff"/>
              <path id="Trazado_99215" data-name="Trazado 99215" d="M448,58.155a.443.443,0,1,0,.442-.423A.433.433,0,0,0,448,58.155Z" transform="translate(-424.094 -57.732)" fill="#fff"/>
              <path id="Trazado_99216" data-name="Trazado 99216" d="M456.445,58.155a.443.443,0,1,0,.442-.423A.433.433,0,0,0,456.445,58.155Z" transform="translate(-436.524 -57.732)" fill="#fff"/>
              <path id="Trazado_99217" data-name="Trazado 99217" d="M464.892,58.155a.443.443,0,1,0,.443-.423A.434.434,0,0,0,464.892,58.155Z" transform="translate(-448.955 -57.732)" fill="#fff"/>
              <path id="Trazado_99218" data-name="Trazado 99218" d="M473.338,58.155a.443.443,0,1,0,.442-.423A.433.433,0,0,0,473.338,58.155Z" transform="translate(-461.386 -57.732)" fill="#fff"/>
              <path id="Trazado_99219" data-name="Trazado 99219" d="M481.784,58.155a.443.443,0,1,0,.442-.423A.433.433,0,0,0,481.784,58.155Z" transform="translate(-473.815 -57.732)" fill="#fff"/>
              <path id="Trazado_99220" data-name="Trazado 99220" d="M490.231,58.155a.443.443,0,1,0,.443-.423A.434.434,0,0,0,490.231,58.155Z" transform="translate(-486.247 -57.732)" fill="#fff"/>
              <path id="Trazado_99221" data-name="Trazado 99221" d="M498.677,58.155a.443.443,0,1,0,.443-.423A.433.433,0,0,0,498.677,58.155Z" transform="translate(-498.677 -57.732)" fill="#fff"/>
            </g>
            <g id="Grupo_53308" data-name="Grupo 53308" transform="translate(0 6.774)">
              <ellipse id="Elipse_3955" data-name="Elipse 3955" cx="0.443" cy="0.423" rx="0.443" ry="0.423" transform="translate(39.842)" fill="#fff"/>
              <path id="Trazado_99222" data-name="Trazado 99222" d="M422.66,65.663a.443.443,0,1,0,.442-.423A.434.434,0,0,0,422.66,65.663Z" transform="translate(-386.802 -65.24)" fill="#fff"/>
              <ellipse id="Elipse_3956" data-name="Elipse 3956" cx="0.443" cy="0.423" rx="0.443" ry="0.423" transform="translate(31.874)" fill="#fff"/>
              <path id="Trazado_99223" data-name="Trazado 99223" d="M439.553,65.663A.443.443,0,1,0,440,65.24.434.434,0,0,0,439.553,65.663Z" transform="translate(-411.664 -65.24)" fill="#fff"/>
              <path id="Trazado_99224" data-name="Trazado 99224" d="M448,65.663a.443.443,0,1,0,.442-.423A.434.434,0,0,0,448,65.663Z" transform="translate(-424.094 -65.24)" fill="#fff"/>
              <ellipse id="Elipse_3957" data-name="Elipse 3957" cx="0.443" cy="0.423" rx="0.443" ry="0.423" transform="translate(19.921)" fill="#fff"/>
              <path id="Trazado_99225" data-name="Trazado 99225" d="M464.892,65.663a.443.443,0,1,0,.443-.423A.434.434,0,0,0,464.892,65.663Z" transform="translate(-448.955 -65.24)" fill="#fff"/>
              <ellipse id="Elipse_3958" data-name="Elipse 3958" cx="0.443" cy="0.423" rx="0.443" ry="0.423" transform="translate(11.953)" fill="#fff"/>
              <ellipse id="Elipse_3959" data-name="Elipse 3959" cx="0.443" cy="0.423" rx="0.443" ry="0.423" transform="translate(7.968)" fill="#fff"/>
              <path id="Trazado_99226" data-name="Trazado 99226" d="M490.231,65.663a.443.443,0,1,0,.443-.423A.434.434,0,0,0,490.231,65.663Z" transform="translate(-486.247 -65.24)" fill="#fff"/>
              <path id="Trazado_99227" data-name="Trazado 99227" d="M498.677,65.663a.443.443,0,1,0,.443-.423A.434.434,0,0,0,498.677,65.663Z" transform="translate(-498.677 -65.24)" fill="#fff"/>
            </g>
            <g id="Grupo_53309" data-name="Grupo 53309" transform="translate(0 10.16)">
              <ellipse id="Elipse_3960" data-name="Elipse 3960" cx="0.443" cy="0.423" rx="0.443" ry="0.423" transform="translate(39.842 0)" fill="#fff"/>
              <path id="Trazado_99228" data-name="Trazado 99228" d="M422.66,73.171a.443.443,0,1,0,.442-.424A.433.433,0,0,0,422.66,73.171Z" transform="translate(-386.802 -72.747)" fill="#fff"/>
              <ellipse id="Elipse_3961" data-name="Elipse 3961" cx="0.443" cy="0.423" rx="0.443" ry="0.423" transform="translate(31.874 0)" fill="#fff"/>
              <path id="Trazado_99229" data-name="Trazado 99229" d="M439.553,73.171a.443.443,0,1,0,.443-.424A.433.433,0,0,0,439.553,73.171Z" transform="translate(-411.664 -72.747)" fill="#fff"/>
              <path id="Trazado_99230" data-name="Trazado 99230" d="M448,73.171a.443.443,0,1,0,.442-.424A.433.433,0,0,0,448,73.171Z" transform="translate(-424.094 -72.747)" fill="#fff"/>
              <ellipse id="Elipse_3962" data-name="Elipse 3962" cx="0.443" cy="0.423" rx="0.443" ry="0.423" transform="translate(19.921 0)" fill="#fff"/>
              <path id="Trazado_99231" data-name="Trazado 99231" d="M464.892,73.171a.443.443,0,1,0,.443-.424A.434.434,0,0,0,464.892,73.171Z" transform="translate(-448.955 -72.747)" fill="#fff"/>
              <ellipse id="Elipse_3963" data-name="Elipse 3963" cx="0.443" cy="0.423" rx="0.443" ry="0.423" transform="translate(11.953 0)" fill="#fff"/>
              <ellipse id="Elipse_3964" data-name="Elipse 3964" cx="0.443" cy="0.423" rx="0.443" ry="0.423" transform="translate(7.968 0)" fill="#fff"/>
              <path id="Trazado_99232" data-name="Trazado 99232" d="M490.231,73.171a.443.443,0,1,0,.443-.424A.434.434,0,0,0,490.231,73.171Z" transform="translate(-486.247 -72.747)" fill="#fff"/>
              <path id="Trazado_99233" data-name="Trazado 99233" d="M498.677,73.171a.443.443,0,1,0,.443-.424A.433.433,0,0,0,498.677,73.171Z" transform="translate(-498.677 -72.747)" fill="#fff"/>
            </g>
            <g id="Grupo_53310" data-name="Grupo 53310" transform="translate(0 13.547)">
              <path id="Trazado_99234" data-name="Trazado 99234" d="M414.214,80.679a.443.443,0,1,0,.443-.424A.433.433,0,0,0,414.214,80.679Z" transform="translate(-374.372 -80.255)" fill="#fff"/>
              <path id="Trazado_99235" data-name="Trazado 99235" d="M422.66,80.679a.443.443,0,1,0,.442-.424A.433.433,0,0,0,422.66,80.679Z" transform="translate(-386.802 -80.255)" fill="#fff"/>
              <path id="Trazado_99236" data-name="Trazado 99236" d="M431.106,80.679a.443.443,0,1,0,.442-.424A.433.433,0,0,0,431.106,80.679Z" transform="translate(-399.232 -80.255)" fill="#fff"/>
              <path id="Trazado_99237" data-name="Trazado 99237" d="M439.553,80.679a.443.443,0,1,0,.443-.424A.433.433,0,0,0,439.553,80.679Z" transform="translate(-411.664 -80.255)" fill="#fff"/>
              <path id="Trazado_99238" data-name="Trazado 99238" d="M448,80.679a.443.443,0,1,0,.442-.424A.433.433,0,0,0,448,80.679Z" transform="translate(-424.094 -80.255)" fill="#fff"/>
              <path id="Trazado_99239" data-name="Trazado 99239" d="M456.445,80.679a.443.443,0,1,0,.442-.424A.433.433,0,0,0,456.445,80.679Z" transform="translate(-436.524 -80.255)" fill="#fff"/>
              <path id="Trazado_99240" data-name="Trazado 99240" d="M464.892,80.679a.443.443,0,1,0,.443-.424A.434.434,0,0,0,464.892,80.679Z" transform="translate(-448.955 -80.255)" fill="#fff"/>
              <path id="Trazado_99241" data-name="Trazado 99241" d="M473.338,80.679a.443.443,0,1,0,.442-.424A.433.433,0,0,0,473.338,80.679Z" transform="translate(-461.386 -80.255)" fill="#fff"/>
              <path id="Trazado_99242" data-name="Trazado 99242" d="M481.784,80.679a.443.443,0,1,0,.442-.424A.433.433,0,0,0,481.784,80.679Z" transform="translate(-473.815 -80.255)" fill="#fff"/>
              <path id="Trazado_99243" data-name="Trazado 99243" d="M490.231,80.679a.443.443,0,1,0,.443-.424A.434.434,0,0,0,490.231,80.679Z" transform="translate(-486.247 -80.255)" fill="#fff"/>
              <path id="Trazado_99244" data-name="Trazado 99244" d="M498.677,80.679a.443.443,0,1,0,.443-.424A.433.433,0,0,0,498.677,80.679Z" transform="translate(-498.677 -80.255)" fill="#fff"/>
            </g>
            <g id="Grupo_53311" data-name="Grupo 53311" transform="translate(0 16.934)">
              <ellipse id="Elipse_3965" data-name="Elipse 3965" cx="0.443" cy="0.423" rx="0.443" ry="0.423" transform="translate(39.842 0)" fill="#fff"/>
              <path id="Trazado_99245" data-name="Trazado 99245" d="M422.66,88.187a.443.443,0,1,0,.442-.424A.433.433,0,0,0,422.66,88.187Z" transform="translate(-386.802 -87.763)" fill="#fff"/>
              <ellipse id="Elipse_3966" data-name="Elipse 3966" cx="0.443" cy="0.423" rx="0.443" ry="0.423" transform="translate(31.874 0)" fill="#fff"/>
              <path id="Trazado_99246" data-name="Trazado 99246" d="M439.553,88.187a.443.443,0,1,0,.443-.424A.433.433,0,0,0,439.553,88.187Z" transform="translate(-411.664 -87.763)" fill="#fff"/>
              <path id="Trazado_99247" data-name="Trazado 99247" d="M448,88.187a.443.443,0,1,0,.442-.424A.433.433,0,0,0,448,88.187Z" transform="translate(-424.094 -87.763)" fill="#fff"/>
              <ellipse id="Elipse_3967" data-name="Elipse 3967" cx="0.443" cy="0.423" rx="0.443" ry="0.423" transform="translate(19.921 0)" fill="#fff"/>
              <path id="Trazado_99248" data-name="Trazado 99248" d="M464.892,88.187a.443.443,0,1,0,.443-.424A.434.434,0,0,0,464.892,88.187Z" transform="translate(-448.955 -87.763)" fill="#fff"/>
              <ellipse id="Elipse_3968" data-name="Elipse 3968" cx="0.443" cy="0.423" rx="0.443" ry="0.423" transform="translate(11.953 0)" fill="#fff"/>
              <ellipse id="Elipse_3969" data-name="Elipse 3969" cx="0.443" cy="0.423" rx="0.443" ry="0.423" transform="translate(7.968 0)" fill="#fff"/>
              <path id="Trazado_99249" data-name="Trazado 99249" d="M490.231,88.187a.443.443,0,1,0,.443-.424A.434.434,0,0,0,490.231,88.187Z" transform="translate(-486.247 -87.763)" fill="#fff"/>
              <path id="Trazado_99250" data-name="Trazado 99250" d="M498.677,88.187a.443.443,0,1,0,.443-.424A.433.433,0,0,0,498.677,88.187Z" transform="translate(-498.677 -87.763)" fill="#fff"/>
            </g>
            <g id="Grupo_53312" data-name="Grupo 53312" transform="translate(0 20.321)">
              <ellipse id="Elipse_3970" data-name="Elipse 3970" cx="0.443" cy="0.423" rx="0.443" ry="0.423" transform="translate(39.842)" fill="#fff"/>
              <path id="Trazado_99251" data-name="Trazado 99251" d="M422.66,95.694a.443.443,0,1,0,.442-.423A.433.433,0,0,0,422.66,95.694Z" transform="translate(-386.802 -95.271)" fill="#fff"/>
              <ellipse id="Elipse_3971" data-name="Elipse 3971" cx="0.443" cy="0.423" rx="0.443" ry="0.423" transform="translate(31.874)" fill="#fff"/>
              <path id="Trazado_99252" data-name="Trazado 99252" d="M439.553,95.694a.443.443,0,1,0,.443-.423A.433.433,0,0,0,439.553,95.694Z" transform="translate(-411.664 -95.271)" fill="#fff"/>
              <path id="Trazado_99253" data-name="Trazado 99253" d="M448,95.694a.443.443,0,1,0,.442-.423A.433.433,0,0,0,448,95.694Z" transform="translate(-424.094 -95.271)" fill="#fff"/>
              <ellipse id="Elipse_3972" data-name="Elipse 3972" cx="0.443" cy="0.423" rx="0.443" ry="0.423" transform="translate(19.921)" fill="#fff"/>
              <path id="Trazado_99254" data-name="Trazado 99254" d="M464.892,95.694a.443.443,0,1,0,.443-.423A.434.434,0,0,0,464.892,95.694Z" transform="translate(-448.955 -95.271)" fill="#fff"/>
              <ellipse id="Elipse_3973" data-name="Elipse 3973" cx="0.443" cy="0.423" rx="0.443" ry="0.423" transform="translate(11.953)" fill="#fff"/>
              <ellipse id="Elipse_3974" data-name="Elipse 3974" cx="0.443" cy="0.423" rx="0.443" ry="0.423" transform="translate(7.968)" fill="#fff"/>
              <path id="Trazado_99255" data-name="Trazado 99255" d="M490.231,95.694a.443.443,0,1,0,.443-.423A.434.434,0,0,0,490.231,95.694Z" transform="translate(-486.247 -95.271)" fill="#fff"/>
              <path id="Trazado_99256" data-name="Trazado 99256" d="M498.677,95.694a.443.443,0,1,0,.443-.423A.433.433,0,0,0,498.677,95.694Z" transform="translate(-498.677 -95.271)" fill="#fff"/>
            </g>
            <g id="Grupo_53313" data-name="Grupo 53313" transform="translate(0 23.708)">
              <path id="Trazado_99257" data-name="Trazado 99257" d="M414.214,103.2a.443.443,0,1,0,.443-.423A.433.433,0,0,0,414.214,103.2Z" transform="translate(-374.372 -102.779)" fill="#fff"/>
              <path id="Trazado_99258" data-name="Trazado 99258" d="M422.66,103.2a.443.443,0,1,0,.442-.423A.433.433,0,0,0,422.66,103.2Z" transform="translate(-386.802 -102.779)" fill="#fff"/>
              <path id="Trazado_99259" data-name="Trazado 99259" d="M431.106,103.2a.443.443,0,1,0,.442-.423A.433.433,0,0,0,431.106,103.2Z" transform="translate(-399.232 -102.779)" fill="#fff"/>
              <path id="Trazado_99260" data-name="Trazado 99260" d="M439.553,103.2a.443.443,0,1,0,.443-.423A.433.433,0,0,0,439.553,103.2Z" transform="translate(-411.664 -102.779)" fill="#fff"/>
              <path id="Trazado_99261" data-name="Trazado 99261" d="M448,103.2a.443.443,0,1,0,.442-.423A.433.433,0,0,0,448,103.2Z" transform="translate(-424.094 -102.779)" fill="#fff"/>
              <path id="Trazado_99262" data-name="Trazado 99262" d="M456.445,103.2a.443.443,0,1,0,.442-.423A.433.433,0,0,0,456.445,103.2Z" transform="translate(-436.524 -102.779)" fill="#fff"/>
              <path id="Trazado_99263" data-name="Trazado 99263" d="M464.892,103.2a.443.443,0,1,0,.443-.423A.434.434,0,0,0,464.892,103.2Z" transform="translate(-448.955 -102.779)" fill="#fff"/>
              <path id="Trazado_99264" data-name="Trazado 99264" d="M473.338,103.2a.443.443,0,1,0,.442-.423A.433.433,0,0,0,473.338,103.2Z" transform="translate(-461.386 -102.779)" fill="#fff"/>
              <path id="Trazado_99265" data-name="Trazado 99265" d="M481.784,103.2a.443.443,0,1,0,.442-.423A.433.433,0,0,0,481.784,103.2Z" transform="translate(-473.815 -102.779)" fill="#fff"/>
              <path id="Trazado_99266" data-name="Trazado 99266" d="M490.231,103.2a.443.443,0,1,0,.443-.423A.434.434,0,0,0,490.231,103.2Z" transform="translate(-486.247 -102.779)" fill="#fff"/>
              <path id="Trazado_99267" data-name="Trazado 99267" d="M498.677,103.2a.443.443,0,1,0,.443-.423A.433.433,0,0,0,498.677,103.2Z" transform="translate(-498.677 -102.779)" fill="#fff"/>
            </g>
            <g id="Grupo_53314" data-name="Grupo 53314" transform="translate(0 27.095)">
              <ellipse id="Elipse_3975" data-name="Elipse 3975" cx="0.443" cy="0.423" rx="0.443" ry="0.423" transform="translate(39.842)" fill="#fff"/>
              <path id="Trazado_99268" data-name="Trazado 99268" d="M422.66,110.71a.443.443,0,1,0,.442-.423A.434.434,0,0,0,422.66,110.71Z" transform="translate(-386.802 -110.287)" fill="#fff"/>
              <ellipse id="Elipse_3976" data-name="Elipse 3976" cx="0.443" cy="0.423" rx="0.443" ry="0.423" transform="translate(31.874)" fill="#fff"/>
              <path id="Trazado_99269" data-name="Trazado 99269" d="M439.553,110.71a.443.443,0,1,0,.443-.423A.434.434,0,0,0,439.553,110.71Z" transform="translate(-411.664 -110.287)" fill="#fff"/>
              <path id="Trazado_99270" data-name="Trazado 99270" d="M448,110.71a.443.443,0,1,0,.442-.423A.434.434,0,0,0,448,110.71Z" transform="translate(-424.094 -110.287)" fill="#fff"/>
              <ellipse id="Elipse_3977" data-name="Elipse 3977" cx="0.443" cy="0.423" rx="0.443" ry="0.423" transform="translate(19.921)" fill="#fff"/>
              <path id="Trazado_99271" data-name="Trazado 99271" d="M464.892,110.71a.443.443,0,1,0,.443-.423A.434.434,0,0,0,464.892,110.71Z" transform="translate(-448.955 -110.287)" fill="#fff"/>
              <ellipse id="Elipse_3978" data-name="Elipse 3978" cx="0.443" cy="0.423" rx="0.443" ry="0.423" transform="translate(11.953)" fill="#fff"/>
              <ellipse id="Elipse_3979" data-name="Elipse 3979" cx="0.443" cy="0.423" rx="0.443" ry="0.423" transform="translate(7.968)" fill="#fff"/>
              <path id="Trazado_99272" data-name="Trazado 99272" d="M490.231,110.71a.443.443,0,1,0,.443-.423A.434.434,0,0,0,490.231,110.71Z" transform="translate(-486.247 -110.287)" fill="#fff"/>
              <path id="Trazado_99273" data-name="Trazado 99273" d="M498.677,110.71a.443.443,0,1,0,.443-.423A.434.434,0,0,0,498.677,110.71Z" transform="translate(-498.677 -110.287)" fill="#fff"/>
            </g>
            <g id="Grupo_53315" data-name="Grupo 53315" transform="translate(0 30.481)">
              <path id="Trazado_99274" data-name="Trazado 99274" d="M414.214,118.218a.443.443,0,1,0,.443-.424A.434.434,0,0,0,414.214,118.218Z" transform="translate(-374.372 -117.794)" fill="#fff"/>
              <path id="Trazado_99275" data-name="Trazado 99275" d="M422.66,118.218a.443.443,0,1,0,.442-.424A.433.433,0,0,0,422.66,118.218Z" transform="translate(-386.802 -117.794)" fill="#fff"/>
              <path id="Trazado_99276" data-name="Trazado 99276" d="M431.106,118.218a.443.443,0,1,0,.442-.424A.434.434,0,0,0,431.106,118.218Z" transform="translate(-399.232 -117.794)" fill="#fff"/>
              <path id="Trazado_99277" data-name="Trazado 99277" d="M439.553,118.218a.443.443,0,1,0,.443-.424A.434.434,0,0,0,439.553,118.218Z" transform="translate(-411.664 -117.794)" fill="#fff"/>
              <path id="Trazado_99278" data-name="Trazado 99278" d="M448,118.218a.443.443,0,1,0,.442-.424A.434.434,0,0,0,448,118.218Z" transform="translate(-424.094 -117.794)" fill="#fff"/>
              <path id="Trazado_99279" data-name="Trazado 99279" d="M456.445,118.218a.443.443,0,1,0,.442-.424A.433.433,0,0,0,456.445,118.218Z" transform="translate(-436.524 -117.794)" fill="#fff"/>
              <path id="Trazado_99280" data-name="Trazado 99280" d="M464.892,118.218a.443.443,0,1,0,.443-.424A.434.434,0,0,0,464.892,118.218Z" transform="translate(-448.955 -117.794)" fill="#fff"/>
              <path id="Trazado_99281" data-name="Trazado 99281" d="M473.338,118.218a.443.443,0,1,0,.442-.424A.434.434,0,0,0,473.338,118.218Z" transform="translate(-461.386 -117.794)" fill="#fff"/>
              <path id="Trazado_99282" data-name="Trazado 99282" d="M481.784,118.218a.443.443,0,1,0,.442-.424A.434.434,0,0,0,481.784,118.218Z" transform="translate(-473.815 -117.794)" fill="#fff"/>
              <path id="Trazado_99283" data-name="Trazado 99283" d="M490.231,118.218a.443.443,0,1,0,.443-.424A.434.434,0,0,0,490.231,118.218Z" transform="translate(-486.247 -117.794)" fill="#fff"/>
              <path id="Trazado_99284" data-name="Trazado 99284" d="M498.677,118.218a.443.443,0,1,0,.443-.424A.434.434,0,0,0,498.677,118.218Z" transform="translate(-498.677 -117.794)" fill="#fff"/>
            </g>
            <g id="Grupo_53316" data-name="Grupo 53316" transform="translate(0 33.868)">
              <ellipse id="Elipse_3980" data-name="Elipse 3980" cx="0.443" cy="0.423" rx="0.443" ry="0.423" transform="translate(39.842 0)" fill="#fff"/>
              <path id="Trazado_99285" data-name="Trazado 99285" d="M422.66,125.726a.443.443,0,1,0,.442-.424A.433.433,0,0,0,422.66,125.726Z" transform="translate(-386.802 -125.302)" fill="#fff"/>
              <ellipse id="Elipse_3981" data-name="Elipse 3981" cx="0.443" cy="0.423" rx="0.443" ry="0.423" transform="translate(31.874 0)" fill="#fff"/>
              <path id="Trazado_99286" data-name="Trazado 99286" d="M439.553,125.726A.443.443,0,1,0,440,125.3.433.433,0,0,0,439.553,125.726Z" transform="translate(-411.664 -125.302)" fill="#fff"/>
              <path id="Trazado_99287" data-name="Trazado 99287" d="M448,125.726a.443.443,0,1,0,.442-.424A.433.433,0,0,0,448,125.726Z" transform="translate(-424.094 -125.302)" fill="#fff"/>
              <ellipse id="Elipse_3982" data-name="Elipse 3982" cx="0.443" cy="0.423" rx="0.443" ry="0.423" transform="translate(19.921 0)" fill="#fff"/>
              <path id="Trazado_99288" data-name="Trazado 99288" d="M464.892,125.726a.443.443,0,1,0,.443-.424A.434.434,0,0,0,464.892,125.726Z" transform="translate(-448.955 -125.302)" fill="#fff"/>
              <ellipse id="Elipse_3983" data-name="Elipse 3983" cx="0.443" cy="0.423" rx="0.443" ry="0.423" transform="translate(11.953 0)" fill="#fff"/>
              <ellipse id="Elipse_3984" data-name="Elipse 3984" cx="0.443" cy="0.423" rx="0.443" ry="0.423" transform="translate(7.968 0)" fill="#fff"/>
              <path id="Trazado_99289" data-name="Trazado 99289" d="M490.231,125.726a.443.443,0,1,0,.443-.424A.434.434,0,0,0,490.231,125.726Z" transform="translate(-486.247 -125.302)" fill="#fff"/>
              <path id="Trazado_99290" data-name="Trazado 99290" d="M498.677,125.726a.443.443,0,1,0,.443-.424A.433.433,0,0,0,498.677,125.726Z" transform="translate(-498.677 -125.302)" fill="#fff"/>
            </g>
            <g id="Grupo_53317" data-name="Grupo 53317" transform="translate(0 37.255)">
              <ellipse id="Elipse_3985" data-name="Elipse 3985" cx="0.443" cy="0.423" rx="0.443" ry="0.423" transform="translate(39.842 0)" fill="#fff"/>
              <path id="Trazado_99291" data-name="Trazado 99291" d="M422.66,133.234a.443.443,0,1,0,.442-.424A.433.433,0,0,0,422.66,133.234Z" transform="translate(-386.802 -132.81)" fill="#fff"/>
              <ellipse id="Elipse_3986" data-name="Elipse 3986" cx="0.443" cy="0.423" rx="0.443" ry="0.423" transform="translate(31.874 0)" fill="#fff"/>
              <path id="Trazado_99292" data-name="Trazado 99292" d="M439.553,133.234a.443.443,0,1,0,.443-.424A.433.433,0,0,0,439.553,133.234Z" transform="translate(-411.664 -132.81)" fill="#fff"/>
              <path id="Trazado_99293" data-name="Trazado 99293" d="M448,133.234a.443.443,0,1,0,.442-.424A.433.433,0,0,0,448,133.234Z" transform="translate(-424.094 -132.81)" fill="#fff"/>
              <ellipse id="Elipse_3987" data-name="Elipse 3987" cx="0.443" cy="0.423" rx="0.443" ry="0.423" transform="translate(19.921 0)" fill="#fff"/>
              <path id="Trazado_99294" data-name="Trazado 99294" d="M464.892,133.234a.443.443,0,1,0,.443-.424A.434.434,0,0,0,464.892,133.234Z" transform="translate(-448.955 -132.81)" fill="#fff"/>
              <ellipse id="Elipse_3988" data-name="Elipse 3988" cx="0.443" cy="0.423" rx="0.443" ry="0.423" transform="translate(11.953 0)" fill="#fff"/>
              <ellipse id="Elipse_3989" data-name="Elipse 3989" cx="0.443" cy="0.423" rx="0.443" ry="0.423" transform="translate(7.968 0)" fill="#fff"/>
              <path id="Trazado_99295" data-name="Trazado 99295" d="M490.231,133.234a.443.443,0,1,0,.443-.424A.434.434,0,0,0,490.231,133.234Z" transform="translate(-486.247 -132.81)" fill="#fff"/>
              <path id="Trazado_99296" data-name="Trazado 99296" d="M498.677,133.234a.443.443,0,1,0,.443-.424A.433.433,0,0,0,498.677,133.234Z" transform="translate(-498.677 -132.81)" fill="#fff"/>
            </g>
          </g>
        </g>
        <line id="Línea_138" data-name="Línea 138" y2="70.907" transform="translate(197.508 40.328)" fill="none" stroke="#31313c" stroke-linecap="round" stroke-width="4" stroke-dasharray="8"/>
      </g>
    </g>
    <g id="Grupo_158064" data-name="Grupo 158064" transform="translate(11.81 3.242)">
      <g id="Grupo_158065" data-name="Grupo 158065" transform="translate(0 0)">
        <path id="Trazado_152551" data-name="Trazado 152551" d="M919.382,860.014l.616.366,29.973,21.5-8.665,5.468a10.526,10.526,0,0,1-11.431-.126l-21.957-14.545Z" transform="translate(-831.017 -787.17)" fill="#f9c6b7"/>
        <path id="Trazado_152552" data-name="Trazado 152552" d="M627.959,671.99c8.858-5.683,18.151-2.038,27.675,6.557l13.668,6.869-17.63,16.154Z" transform="translate(-574.77 -612.567)" fill="#31313c"/>
        <path id="Rectángulo_35110" data-name="Rectángulo 35110" d="M-1.971-2.154H-.29a.182.182,0,0,1,.182.182V21.64a.182.182,0,0,1-.182.182H-1.971a.182.182,0,0,1-.182-.182V-1.971A.182.182,0,0,1-1.971-2.154Zm1.5.365H-1.789V21.458H-.472Z" transform="translate(132.507 13.287)" fill="#b4daef"/>
        <path id="Trazado_152553" data-name="Trazado 152553" d="M584.734,1414.367l.667,3.744h56.743l-13.5-22.164Z" transform="translate(-535.206 -1277.708)" fill="#231f20"/>
        <path id="Trazado_152554" data-name="Trazado 152554" d="M3.26,1315.543.116,1335.476a9.268,9.268,0,0,0,10.078,10.69,26.955,26.955,0,0,0,7-1.862l5.571-28.594Z" transform="translate(0 -1204.115)" fill="#f9c6b7"/>
        <path id="Trazado_152555" data-name="Trazado 152555" d="M1549.66,506.561a19.926,19.926,0,0,0,2.952-3.5,40.121,40.121,0,0,0,2.443-4.027l4.168-7.521a21.954,21.954,0,0,0,7.267,1.7,1.342,1.342,0,0,0,.868-.117.95.95,0,0,0,.141-1.291,2.759,2.759,0,0,0-1.158-.837L1561,488.4c2.069-.433,3.607-1.562,5.407-2.671,1.622-1,3.2-2.462,3.358-4.361a.539.539,0,0,0-.594-.7,8.277,8.277,0,0,0-3.789,1.019q-3.394,1.553-6.674,3.34a31.13,31.13,0,0,1,3.839-3.444,9.8,9.8,0,0,0,3.512-4.33.652.652,0,0,0,.034-.459.574.574,0,0,0-.318-.271,3.265,3.265,0,0,0-2.785.522,27.842,27.842,0,0,0-6.789,5.3,29.368,29.368,0,0,0,3.757-5.26,3.16,3.16,0,0,0,.448-1.261,1.162,1.162,0,0,0-.572-1.134,1.632,1.632,0,0,0-1.473.283c-2.623,1.562-4.5,4.088-6.311,6.548l-13.835,16.472Z" transform="translate(-1407.929 -434.402)" fill="#f9c6b7"/>
        <path id="Trazado_152556" data-name="Trazado 152556" d="M268.878,712.225l-9.561,3.708.475,31.32,21.383,22.478,5.66,12.054,45.787-21.222-14.336-23.414c-2.44-8.5-3.7-11.575-8.705-19.352l-19.04-16.24-5.995,3.334Z" transform="translate(-237.353 -642.134)" fill="#31313c"/>
        <path id="Trazado_152557" data-name="Trazado 152557" d="M712.388,794.016a.183.183,0,0,1-.175-.132c-.49-1.709-.888-3.037-1.25-4.18-.412-1.3-.8-2.428-1.192-3.457A45.193,45.193,0,0,0,706.834,780a29.17,29.17,0,0,0-3.265-4.681,29.744,29.744,0,0,0-4.11-3.963l-9.5-7.547a.182.182,0,0,1,.227-.286l9.5,7.547a30.128,30.128,0,0,1,4.16,4.012,29.539,29.539,0,0,1,3.306,4.74,45.525,45.525,0,0,1,2.959,6.292c.393,1.035.785,2.172,1.2,3.476.363,1.146.762,2.477,1.253,4.19a.182.182,0,0,1-.125.226A.18.18,0,0,1,712.388,794.016Z" transform="translate(-631.455 -698.819)" fill="#231f20"/>
        <path id="Trazado_152558" data-name="Trazado 152558" d="M39.919,871.276c-8.833,1.449-14.85,6.8-15.773,19.539l-4.53,19.843,21.658.233,3.584-10.518Z" transform="translate(-17.954 -797.478)" fill="#31313c"/>
        <path id="Trazado_152559" data-name="Trazado 152559" d="M165.77,321.49a12.756,12.756,0,0,1-4.28.313,42.188,42.188,0,0,1-14.838-4.295,16.6,16.6,0,0,1-7.156-6.668c-2.872-5.2-1.685-11.672,2.181-16.147a16.208,16.208,0,0,1,13.556-5.316c5.209.5,8,5.17,9.992,9.485q1.046,2.264,2,4.567c.566,1.359,1.015,2.748,1.607,4.108,1.939,4.454,3.06,12.359-3.068,13.952" transform="translate(-126.225 -264.802)" fill="#f9c6b7"/>
        <path id="Trazado_152560" data-name="Trazado 152560" d="M258.062,620.765l9.668,17.511c12,3.23,18.42,1.785,15.668-7.334-2.235-1.236-4.154-4.7-6-8.668Z" transform="translate(-236.204 -568.185)" fill="#f9c6b7"/>
        <path id="Rectángulo_35111" data-name="Rectángulo 35111" d="M2.388-2.154H72.011a4.538,4.538,0,0,1,4.541,4.541v131.5a4.538,4.538,0,0,1-4.541,4.541H2.388a4.538,4.538,0,0,1-4.541-4.541V2.387A4.538,4.538,0,0,1,2.388-2.154Zm69.624,140.22a4.173,4.173,0,0,0,4.176-4.176V2.387a4.173,4.173,0,0,0-4.176-4.176H2.388A4.173,4.173,0,0,0-1.789,2.387v131.5a4.173,4.173,0,0,0,4.176,4.176Z" transform="translate(54.166 2.154)" fill="#31313c"/>
        <path id="Rectángulo_35112" data-name="Rectángulo 35112" d="M2.267-2.154h67.7a4.417,4.417,0,0,1,4.421,4.421V130.133a4.417,4.417,0,0,1-4.42,4.421H2.267a4.417,4.417,0,0,1-4.421-4.421V2.267A4.417,4.417,0,0,1,2.267-2.154Zm67.7,136.342a4.052,4.052,0,0,0,4.056-4.056V2.267a4.052,4.052,0,0,0-4.056-4.056H2.267A4.052,4.052,0,0,0-1.789,2.267V130.133a4.052,4.052,0,0,0,4.056,4.056Z" transform="translate(55.249 4.093)" fill="#31313c"/>
        <path id="Trazado_152561" data-name="Trazado 152561" d="M1048.257,62.362a2.5,2.5,0,1,1-2.5-2.5,2.5,2.5,0,0,1,2.5,2.5" transform="translate(-954.892 -54.791)" fill="#231f20"/>
        <path id="Trazado_152562" data-name="Trazado 152562" d="M202.96,1281.661l35.006-22.325-4.1-12.233-30.533,13.165Z" transform="translate(-185.77 -1141.472)" fill="#f9c6b7"/>
        <path id="Trazado_152563" data-name="Trazado 152563" d="M1231,774.29l26.4-22.771,11.065,8.5L1245.69,782.57Z" transform="translate(-1126.736 -687.864)" fill="#f9c6b7"/>
        <path id="Trazado_152564" data-name="Trazado 152564" d="M389.8,452.611a.187.187,0,0,1-.034,0,.182.182,0,0,1-.145-.213c.113-.594.232-1.084.328-1.478.167-.685.277-1.137.143-1.3-.171-.208-.893-.19-2.063-.136a.182.182,0,0,1-.161-.082l-2.167-3.315a.182.182,0,0,1,.305-.2l2.11,3.228a13.863,13.863,0,0,1,1.45-.019,1.983,1.983,0,0,1,.475.08.694.694,0,0,1,.332.212.862.862,0,0,1,.131.659,8.549,8.549,0,0,1-.2.96c-.095.39-.213.875-.324,1.46A.182.182,0,0,1,389.8,452.611Z" transform="translate(-353.004 -408.04)" fill="#231f20"/>
        <path id="Trazado_152565" data-name="Trazado 152565" d="M398.1,550.951a3.2,3.2,0,0,1-1.087-.2,5.135,5.135,0,0,1-1.437-.839.182.182,0,0,1,.228-.285,4.775,4.775,0,0,0,1.333.781,2.748,2.748,0,0,0,1.209.164,2.822,2.822,0,0,0,1.129-.378,4.835,4.835,0,0,0,1.083-.883.182.182,0,1,1,.265.25,5.2,5.2,0,0,1-1.166.949,3.184,3.184,0,0,1-1.275.424Q398.246,550.951,398.1,550.951Z" transform="translate(-362.011 -502.733)" fill="#231f20"/>
        <path id="Trazado_152566" data-name="Trazado 152566" d="M336.791,477.951c.212.555.136,1.1-.168,1.216s-.723-.24-.935-.795-.136-1.1.168-1.216.724.24.935.795" transform="translate(-307.145 -436.72)" fill="#231f20"/>
        <path id="Trazado_152567" data-name="Trazado 152567" d="M430.7,433.938c.212.555.136,1.1-.168,1.216s-.723-.24-.935-.795-.136-1.1.168-1.216.723.24.935.795" transform="translate(-393.099 -396.435)" fill="#231f20"/>
        <path id="Trazado_152568" data-name="Trazado 152568" d="M300.214,420.4c.43-.431,1.253-1.259.7-1.883-.35-.393-1.028-.3-1.473-.159a9.085,9.085,0,0,0-3.948,3.3,1.722,1.722,0,0,0-.234.792.832.832,0,0,0,.359.712c.729.444,1.7-.527,2.259-.9a15.241,15.241,0,0,0,2.339-1.859" transform="translate(-270.248 -382.812)" fill="#231f20"/>
        <path id="Trazado_152569" data-name="Trazado 152569" d="M403.2,373.017c.285-.271.546-.552.445-.959a1.347,1.347,0,0,0-.75-.848c-.813-.262-1.926.721-2.488,1.16a6.261,6.261,0,0,0-1.7,1.776,1.488,1.488,0,0,0-.223.712.737.737,0,0,0,.341.641c.693.4,1.62-.474,2.148-.809a14.393,14.393,0,0,0,2.223-1.673" transform="translate(-364.731 -339.727)" fill="#231f20"/>
        <path id="Trazado_152570" data-name="Trazado 152570" d="M117.01,266.545a1.772,1.772,0,0,0,1.6-1.848,5.146,5.146,0,0,0-.928-2.528l-3.736-6.385c.108-.624.874-1.14,1.475-1.34,1.55-.516,3.345.128,4.836-.54,1.618-.726,2.285-2.719,3.768-3.692,1.638-1.075,3.946-.7,5.525-1.861a3.368,3.368,0,0,0-2.3-6.069,3.15,3.15,0,0,0-1.926-2.568,5.979,5.979,0,0,0-5.2-.053,10.289,10.289,0,0,1-2.921,1.351,14.515,14.515,0,0,1-2.492-.2,4.454,4.454,0,0,0-3.248,1.231c-1.133,1.095-1.609,2.719-2.677,3.877-1.419,1.537-3.741,2.1-4.926,3.824a4.124,4.124,0,0,0,.109,4.695,4.052,4.052,0,0,0-2.138,4.02,8.7,8.7,0,0,0,1.761,4.623c1.91,2.771,3.362,5.4,6.358,7.141a20.162,20.162,0,0,1,4.8,3.267c.895.954,1.541,2.114,2.386,3.112a1.545,1.545,0,0,0,.785.579,1.137,1.137,0,0,0,1.213-.826,3.171,3.171,0,0,0-.021-1.59,48.544,48.544,0,0,0-2.321-8.173" transform="translate(-93.208 -218.842)" fill="#231f20"/>
        <path id="Trazado_152571" data-name="Trazado 152571" d="M967.28,190.5H917.36a7.841,7.841,0,0,1-7.841-7.841v-1.332a7.841,7.841,0,0,1,7.841-7.841h49.92a7.841,7.841,0,0,1,7.841,7.841v1.332a7.841,7.841,0,0,1-7.841,7.841" transform="translate(-832.482 -158.79)" fill="#fdb768"/>
        <path id="Trazado_152572" data-name="Trazado 152572" d="M559.921,287.74h-9.151a8.016,8.016,0,0,1-8.016-8.016v-.983a8.016,8.016,0,0,1,8.016-8.016h9.151a8.016,8.016,0,0,1,8.016,8.016v.983a8.016,8.016,0,0,1-8.016,8.016" transform="translate(-496.781 -247.794)" fill="#785549"/>
        <rect id="Rectángulo_35113" data-name="Rectángulo 35113" width="33.466" height="30.742" transform="translate(67.252 42.985)" fill="#ebc9b1"/>
        <path id="Trazado_152573" data-name="Trazado 152573" d="M762.559,1038.553H730.121a11.569,11.569,0,0,1-11.569-11.569v-1.038a11.569,11.569,0,0,1,11.569-11.569h32.438a11.569,11.569,0,0,1,11.569,11.569v1.038a11.569,11.569,0,0,1-11.569,11.569" transform="translate(-657.69 -928.459)" fill="#fd9827"/>
        <path id="Rectángulo_35114" data-name="Rectángulo 35114" d="M5.689-2.154H52.972a7.9,7.9,0,0,1,1.58.159,7.8,7.8,0,0,1,2.8,1.18A7.865,7.865,0,0,1,60.2,2.636a7.8,7.8,0,0,1,.457,1.472,7.9,7.9,0,0,1,.159,1.58V7.384a7.9,7.9,0,0,1-.159,1.58,7.8,7.8,0,0,1-1.18,2.8,7.865,7.865,0,0,1-3.45,2.841,7.8,7.8,0,0,1-1.472.457,7.9,7.9,0,0,1-1.58.159H5.689a7.9,7.9,0,0,1-1.58-.159,7.8,7.8,0,0,1-2.8-1.18,7.865,7.865,0,0,1-2.841-3.45,7.8,7.8,0,0,1-.457-1.472,7.9,7.9,0,0,1-.159-1.58V5.689a7.9,7.9,0,0,1,.159-1.58A7.8,7.8,0,0,1-.814,1.3a7.865,7.865,0,0,1,3.45-2.841,7.8,7.8,0,0,1,1.472-.457A7.9,7.9,0,0,1,5.689-2.154ZM52.972,14.861a7.534,7.534,0,0,0,1.507-.152,7.435,7.435,0,0,0,2.673-1.125,7.5,7.5,0,0,0,2.709-3.29,7.439,7.439,0,0,0,.436-1.4,7.534,7.534,0,0,0,.152-1.507V5.689A7.534,7.534,0,0,0,60.3,4.182a7.435,7.435,0,0,0-1.125-2.673A7.5,7.5,0,0,0,55.882-1.2a7.439,7.439,0,0,0-1.4-.436,7.534,7.534,0,0,0-1.507-.152H5.689a7.534,7.534,0,0,0-1.507.152A7.436,7.436,0,0,0,1.508-.512,7.5,7.5,0,0,0-1.2,2.778a7.439,7.439,0,0,0-.436,1.4,7.534,7.534,0,0,0-.152,1.507V7.384a7.534,7.534,0,0,0,.152,1.507A7.435,7.435,0,0,0-.512,11.564a7.5,7.5,0,0,0,3.29,2.709,7.439,7.439,0,0,0,1.4.436,7.534,7.534,0,0,0,1.507.152Z" transform="translate(113.794 41.993)" fill="#31313c"/>
        <path id="Trazado_152576" data-name="Trazado 152576" d="M1393.353,525.5l.709,2.181h2.294a.629.629,0,0,1,.37,1.138l-1.856,1.348.709,2.182a.629.629,0,0,1-.968.7l-1.856-1.348-1.856,1.348a.629.629,0,0,1-.968-.7l.709-2.182-1.856-1.348a.629.629,0,0,1,.37-1.138h2.294l.709-2.181a.629.629,0,0,1,1.2,0" transform="translate(-1270.914 -480.589)" fill="#31313c"/>
        <path id="Trazado_152577" data-name="Trazado 152577" d="M1530.084,525.5l.709,2.181h2.294a.629.629,0,0,1,.37,1.138l-1.856,1.348.709,2.182a.629.629,0,0,1-.968.7l-1.856-1.348-1.856,1.348a.629.629,0,0,1-.968-.7l.709-2.182-1.856-1.348a.629.629,0,0,1,.37-1.138h2.294l.709-2.181a.629.629,0,0,1,1.2,0" transform="translate(-1396.064 -480.589)" fill="#31313c"/>
        <path id="Trazado_152578" data-name="Trazado 152578" d="M1646.417,525.5l.709,2.181h2.294a.629.629,0,0,1,.37,1.138l-1.856,1.348.709,2.182a.629.629,0,0,1-.968.7l-1.856-1.348-1.856,1.348a.629.629,0,0,1-.968-.7l.709-2.182-1.856-1.348a.629.629,0,0,1,.37-1.138h2.294l.709-2.181a.629.629,0,0,1,1.2,0" transform="translate(-1502.544 -480.589)" fill="#31313c"/>
        <path id="Trazado_152579" data-name="Trazado 152579" d="M1770.888,525.5l.709,2.181h2.294a.629.629,0,0,1,.37,1.138l-1.856,1.348.709,2.182a.629.629,0,0,1-.968.7l-1.856-1.348-1.856,1.348a.629.629,0,0,1-.968-.7l.709-2.182-1.856-1.348a.629.629,0,0,1,.37-1.138h2.294l.709-2.181a.629.629,0,0,1,1.2,0" transform="translate(-1616.471 -480.589)" fill="#31313c"/>
        <path id="Trazado_152580" data-name="Trazado 152580" d="M1898.082,525.5l.709,2.181h2.294a.629.629,0,0,1,.37,1.138l-1.856,1.348.709,2.182a.629.629,0,0,1-.968.7l-1.855-1.348-1.856,1.348a.629.629,0,0,1-.968-.7l.709-2.182-1.856-1.348a.629.629,0,0,1,.37-1.138h2.294l.709-2.181a.629.629,0,0,1,1.2,0" transform="translate(-1732.892 -480.589)" fill="#31313c"/>
        <path id="Trazado_152581" data-name="Trazado 152581" d="M154.9,516.852a6.494,6.494,0,1,1-6.494-6.494,6.494,6.494,0,0,1,6.494,6.494" transform="translate(-129.896 -467.13)" fill="#f9c6b7"/>
        <path id="Trazado_152582" data-name="Trazado 152582" d="M171.037,535.013a.182.182,0,0,1-.182-.182,4.465,4.465,0,1,0-8.931,0,.182.182,0,0,1-.365,0,4.808,4.808,0,0,1,.825-2.7,4.842,4.842,0,0,1,2.125-1.75,4.824,4.824,0,0,1,4.581.445,4.844,4.844,0,0,1,1.75,2.125,4.8,4.8,0,0,1,.38,1.88A.182.182,0,0,1,171.037,535.013Z" transform="translate(-147.875 -485.109)" fill="#231f20"/>
        <path id="Trazado_152583" data-name="Trazado 152583" d="M1542.589,519.862a2.318,2.318,0,0,1,1.8-1.823l11.23-4.294a2.307,2.307,0,0,1,2.177-.066c.991.751.18,2.327-.739,3.165a19.419,19.419,0,0,1-5.606,3.569,3.084,3.084,0,0,0-1.313.806,3.04,3.04,0,0,0-.457,1.648,16.2,16.2,0,0,1-3.661,9.368c-1.44,1.618-8.4,6.089-7.99,1.295.184-2.158,1.455-4.547,2.151-6.59Z" transform="translate(-1407.742 -469.937)" fill="#f9c6b7"/>
        <path id="Trazado_152584" data-name="Trazado 152584" d="M1630.576,530.446a.182.182,0,0,1-.136-.3,13.485,13.485,0,0,0,2.53-4.308,19.277,19.277,0,0,0,1.085-4.955l0-.051a6.436,6.436,0,0,1,.119-.868,1.874,1.874,0,0,1,.988-1.333,6.3,6.3,0,0,1,.7-.323l.072-.03a19.24,19.24,0,0,0,5.554-3.535,4.11,4.11,0,0,0,.811-1.029,2.206,2.206,0,0,0,.32-1.121,1,1,0,0,0-.1-.4.944.944,0,0,0-.28-.331,1.244,1.244,0,0,0-.92-.2,4.5,4.5,0,0,0-1.077.294l-5.233,2.294a.182.182,0,0,1-.146-.334l5.237-2.3.008,0a4.843,4.843,0,0,1,1.173-.318,2,2,0,0,1,.609.022,1.4,1.4,0,0,1,.569.255,1.307,1.307,0,0,1,.386.459,1.363,1.363,0,0,1,.137.55,2.562,2.562,0,0,1-.365,1.313,4.488,4.488,0,0,1-.885,1.123,19.609,19.609,0,0,1-5.659,3.6l-.073.03a2,2,0,0,0-1.58,2.22l0,.051a19.64,19.64,0,0,1-1.106,5.049,13.85,13.85,0,0,1-2.6,4.424A.182.182,0,0,1,1630.576,530.446Z" transform="translate(-1492.298 -467.968)" fill="#231f20"/>
        <path id="Trazado_152585" data-name="Trazado 152585" d="M540.6,1062.832l8.365-12.117a9.939,9.939,0,0,1,8.062-5.3c1.793-.376,12.623-3.586,12.561-1.126-.043,1.693-3.177,2.291-4.307,2.552a21.247,21.247,0,0,0-6.654,2.337,76.364,76.364,0,0,1,10.274-2.552,4.149,4.149,0,0,1,1.706-.045,1.3,1.3,0,0,1,.509,2.417,4.312,4.312,0,0,1-1.36.6l-9.55,2.935c3.077-.882,5.879-1.428,9.009-2.1a4.554,4.554,0,0,1,2.782,0,1.17,1.17,0,0,1,.708.723,1.334,1.334,0,0,1-.677,1.275,8.367,8.367,0,0,1-2.756,1.134l-7.914,2.195a56.746,56.746,0,0,1,9.353-1.559c.767-.052,1.779.116,1.9.876.113.724-.716,1.2-1.406,1.446a96.473,96.473,0,0,1-11.162,3.232c-3.7,5.814-6.9,9.953-13.031,13.1Z" transform="translate(-494.812 -954.992)" fill="#f9c6b7"/>
        <path id="Trazado_152586" data-name="Trazado 152586" d="M1000.1,227.635a.182.182,0,0,1-.138-.3,25.33,25.33,0,0,1,6.041-5.106,6.117,6.117,0,0,1,.985-.482,4.392,4.392,0,0,1,1.073-.269,1.874,1.874,0,0,1,1.863.715,2.981,2.981,0,0,1,.41,1.258,4.084,4.084,0,0,0,.2.826,1.879,1.879,0,0,0,.55.755,2.51,2.51,0,0,0,.854.458,3.53,3.53,0,0,0,2.044.011,6.184,6.184,0,0,0,1.4-.643c.449-.27.891-.586,1.317-.892.294-.211.6-.429.9-.632a9.03,9.03,0,0,1,2.141-1.029,8.7,8.7,0,0,1,1.165-.3,7.5,7.5,0,0,1,1.173-.119h.134a5.248,5.248,0,0,1,2.071.392,3.842,3.842,0,0,1,1.709,1.4,7.542,7.542,0,0,1,.441.781,4.659,4.659,0,0,0,.667,1.06,2.35,2.35,0,0,0,.556.447,2.432,2.432,0,0,0,.638.253,3.727,3.727,0,0,0,1.469.025,7.565,7.565,0,0,0,1.582-.457,13.042,13.042,0,0,0,1.5-.723l6.186-3.446a16.8,16.8,0,0,1,1.583-.807,5.555,5.555,0,0,1,1.73-.455,3.5,3.5,0,0,1,1.813.344,2.749,2.749,0,0,1,.745.535,2.242,2.242,0,0,1,.5.776,4.326,4.326,0,0,1,.2.845,2.807,2.807,0,0,0,.29,1,1.577,1.577,0,0,0,1.166.7,3.19,3.19,0,0,0,1.549-.19,10.8,10.8,0,0,0,1.124-.532,6.885,6.885,0,0,1,1.894-.759.182.182,0,1,1,.067.359,6.512,6.512,0,0,0-1.792.723,11.079,11.079,0,0,1-1.162.55,3.709,3.709,0,0,1-.851.213,3.238,3.238,0,0,1-.881,0,2.257,2.257,0,0,1-.811-.273,1.706,1.706,0,0,1-.616-.6,3.124,3.124,0,0,1-.336-1.131,4,4,0,0,0-.178-.774,1.881,1.881,0,0,0-.42-.65,2.386,2.386,0,0,0-.647-.463,3.013,3.013,0,0,0-.789-.261,3.167,3.167,0,0,0-.833-.045,5.2,5.2,0,0,0-1.617.428,15.972,15.972,0,0,0-1.548.789l-6.186,3.446a13.43,13.43,0,0,1-1.545.743,7.934,7.934,0,0,1-1.659.478,4.088,4.088,0,0,1-1.613-.031,2.707,2.707,0,0,1-1.375-.807,5,5,0,0,1-.723-1.141,7.327,7.327,0,0,0-.419-.744,3.484,3.484,0,0,0-1.55-1.272,4.957,4.957,0,0,0-2.054-.361,7.133,7.133,0,0,0-1.116.114,8.325,8.325,0,0,0-1.116.283,8.659,8.659,0,0,0-2.053.987c-.3.2-.6.415-.893.624a9.853,9.853,0,0,1-2.825,1.588,3.9,3.9,0,0,1-2.26-.013,2.873,2.873,0,0,1-.977-.526,2.239,2.239,0,0,1-.655-.9,4.408,4.408,0,0,1-.217-.9,2.675,2.675,0,0,0-.35-1.11,1.27,1.27,0,0,0-.647-.487,2.041,2.041,0,0,0-.877-.074,4.03,4.03,0,0,0-.984.248,5.747,5.747,0,0,0-.926.453,24.969,24.969,0,0,0-5.954,5.033A.182.182,0,0,1,1000.1,227.635Z" transform="translate(-915.223 -201.685)" fill="#785549"/>
        <path id="Trazado_152587" data-name="Trazado 152587" d="M1122.39,1384.906h-46.481a8.161,8.161,0,0,1-8.161-8.161h0a8.161,8.161,0,0,1,8.161-8.161h46.481a8.161,8.161,0,0,1,8.161,8.161h0a8.16,8.16,0,0,1-8.161,8.161" transform="translate(-977.309 -1252.664)" fill="#f5e8df"/>
        <path id="Trazado_152588" data-name="Trazado 152588" d="M1145.078,1444.12h-.053a3.014,3.014,0,0,1-2.158-.837,5.053,5.053,0,0,1-.671-.914,5.6,5.6,0,0,0-.518-.741,3.038,3.038,0,0,0-1.927-.97,4.517,4.517,0,0,0-2.266.3,7.438,7.438,0,0,0-1.95,1.22,23.078,23.078,0,0,0-1.712,1.641.182.182,0,0,1-.262-.254,23.389,23.389,0,0,1,1.74-1.666,7.791,7.791,0,0,1,2.046-1.278,4.888,4.888,0,0,1,2.452-.324,3.8,3.8,0,0,1,1.175.348,3.107,3.107,0,0,1,.978.743,5.968,5.968,0,0,1,.553.788,4.7,4.7,0,0,0,.621.85,2.347,2.347,0,0,0,.864.549,3.124,3.124,0,0,0,1.039.181h.048a4.807,4.807,0,0,0,2.114-.526,14.355,14.355,0,0,0,1.95-1.266,15.5,15.5,0,0,1,1.881-1.235,5.367,5.367,0,0,1,2.312-.63,3.57,3.57,0,0,1,1.168.156,2.77,2.77,0,0,1,1.027.584,5.518,5.518,0,0,1,.875,1.122,3.008,3.008,0,0,0,1.32,1.346,1.568,1.568,0,0,0,.671.092,2.47,2.47,0,0,0,.7-.164,8.2,8.2,0,0,0,1.4-.754l.066-.041a17.457,17.457,0,0,1,4.617-2.022,2.056,2.056,0,0,1,1.109-.078,1.421,1.421,0,0,1,.687.457,4.628,4.628,0,0,1,.456.664,5.072,5.072,0,0,0,.378.565,2.4,2.4,0,0,0,1.622.824,4.127,4.127,0,0,0,1.961-.271,11.819,11.819,0,0,0,2.118-1.195c.452-.3.919-.6,1.406-.866a3.253,3.253,0,0,1,.763-.311,1.48,1.48,0,0,1,.848.019,2.166,2.166,0,0,1,1.1,1.26,6.053,6.053,0,0,0,.309.57,1.635,1.635,0,0,0,.383.433,1.492,1.492,0,0,0,1.132.237,5.336,5.336,0,0,0,1.3-.39l5.364-2.218a.183.183,0,0,1,.14.337l-5.364,2.218a5.665,5.665,0,0,1-1.4.415,2.313,2.313,0,0,1-.723-.013,1.616,1.616,0,0,1-.674-.294,3.007,3.007,0,0,1-.8-1.132,4.433,4.433,0,0,0-.386-.678,1.076,1.076,0,0,0-.511-.4,1.107,1.107,0,0,0-.641-.009,2.908,2.908,0,0,0-.677.278c-.472.253-.932.556-1.378.849a12.094,12.094,0,0,1-2.185,1.229,4.5,4.5,0,0,1-2.138.294,2.752,2.752,0,0,1-1.861-.956,5.318,5.318,0,0,1-.407-.607c-.262-.432-.509-.841-.93-.96a1.758,1.758,0,0,0-.913.078,17.088,17.088,0,0,0-4.521,1.98l-.066.041a8.6,8.6,0,0,1-1.462.786,2.249,2.249,0,0,1-1.623.072,3.317,3.317,0,0,1-1.5-1.488,5.243,5.243,0,0,0-.813-1.05,2.409,2.409,0,0,0-.893-.507,3.2,3.2,0,0,0-1.048-.139,4.991,4.991,0,0,0-2.151.588,15.26,15.26,0,0,0-1.835,1.207,14.619,14.619,0,0,1-2,1.3A5.18,5.18,0,0,1,1145.078,1444.12Z" transform="translate(-1037.501 -1318.118)" fill="#231f20"/>
        <path id="Trazado_152589" data-name="Trazado 152589" d="M395.924,663.7l-9.489.471,11.418,2.736Z" transform="translate(-353.704 -607.48)" fill="#f4a592"/>
        <path id="Línea_158" data-name="Línea 158" d="M.422,4.925A.182.182,0,0,1,.25,4.8L-2.143-1.91a.182.182,0,0,1,.111-.233.182.182,0,0,1,.233.111L.594,4.681a.183.183,0,0,1-.172.244Z" transform="translate(21.436 47.144)" fill="#231f20"/>
        <path id="Línea_159" data-name="Línea 159" d="M-1.971,8.926a.183.183,0,0,1-.048-.006A.182.182,0,0,1-2.148,8.7L.759-2.019a.182.182,0,0,1,.224-.128.182.182,0,0,1,.128.224L-1.8,8.791A.182.182,0,0,1-1.971,8.926Z" transform="translate(26.98 99.076)" fill="#231f20"/>
        <path id="Línea_160" data-name="Línea 160" d="M-1.971,2.392a.182.182,0,0,1-.162-.1.182.182,0,0,1,.078-.246l8.1-4.181a.182.182,0,0,1,.246.078.182.182,0,0,1-.078.246l-8.1,4.181A.182.182,0,0,1-1.971,2.392Z" transform="translate(15.838 118.872)" fill="#231f20"/>
        <path id="Trazado_152590" data-name="Trazado 152590" d="M1511.06,856.621h-55.934a.766.766,0,0,1-.767-.766V817.789a.767.767,0,0,1,.767-.767h55.934a.767.767,0,0,1,.766.767v38.065a.766.766,0,0,1-.766.766" transform="translate(-1331.173 -747.82)" fill="#785549"/>
        <path id="Rectángulo_35115" data-name="Rectángulo 35115" d="M.182,0h.833A.182.182,0,0,1,1.2.182V1.189a.182.182,0,0,1-.182.182H.182A.182.182,0,0,1,0,1.189V.182A.182.182,0,0,1,.182,0Zm.65.365H.365v.642H.833Z" transform="translate(125.235 71.852) rotate(-0.175)" fill="#31313c"/>
        <path id="Rectángulo_35116" data-name="Rectángulo 35116" d="M.182,0H2.051a.182.182,0,0,1,.182.182V1.189a.182.182,0,0,1-.182.182H.182A.182.182,0,0,1,0,1.189V.182A.182.182,0,0,1,.182,0ZM1.869.365H.365v.642h1.5Z" transform="translate(126.836 71.847) rotate(-0.174)" fill="#31313c"/>
        <path id="Rectángulo_35117" data-name="Rectángulo 35117" d="M.182,0H2.935a.182.182,0,0,1,.182.182V1.189a.182.182,0,0,1-.182.182H.182A.182.182,0,0,1,0,1.189V.182A.182.182,0,0,1,.182,0Zm2.57.365H.365v.642H2.752Z" transform="translate(129.662 71.839) rotate(-0.175)" fill="#31313c"/>
        <path id="Rectángulo_35118" data-name="Rectángulo 35118" d="M.182,0H3.16a.182.182,0,0,1,.182.182V1.189a.182.182,0,0,1-.182.182H.182A.182.182,0,0,1,0,1.189V.182A.182.182,0,0,1,.182,0ZM2.977.365H.365v.642H2.977Z" transform="translate(144.579 71.793) rotate(-0.174)" fill="#31313c"/>
        <path id="Rectángulo_35119" data-name="Rectángulo 35119" d="M.182,0h5.4a.182.182,0,0,1,.182.182V1.189a.182.182,0,0,1-.182.182H.182A.182.182,0,0,1,0,1.189V.182A.182.182,0,0,1,.182,0ZM5.4.365H.365v.642H5.4Z" transform="matrix(1, -0.003, 0.003, 1, 135.393, 71.821)" fill="#31313c"/>
        <path id="Rectángulo_35120" data-name="Rectángulo 35120" d="M.182,0H2.077a.182.182,0,0,1,.182.182V1.189a.182.182,0,0,1-.182.182H.182A.182.182,0,0,1,0,1.189V.182A.182.182,0,0,1,.182,0ZM1.894.365H.365v.642H1.894Z" transform="matrix(1, -0.003, 0.003, 1, 132.893, 71.829)" fill="#31313c"/>
        <path id="Rectángulo_35121" data-name="Rectángulo 35121" d="M.182,0H2.077a.182.182,0,0,1,.182.182V1.189a.182.182,0,0,1-.182.182H.182A.182.182,0,0,1,0,1.189V.182A.182.182,0,0,1,.182,0ZM1.894.365H.365v.642H1.894Z" transform="matrix(1, -0.003, 0.003, 1, 141.778, 71.802)" fill="#31313c"/>
        <path id="Rectángulo_35122" data-name="Rectángulo 35122" d="M.182,0h1.27a.182.182,0,0,1,.182.182V1.189a.182.182,0,0,1-.182.182H.182A.182.182,0,0,1,0,1.189V.182A.182.182,0,0,1,.182,0ZM1.27.365H.365v.642H1.27Z" transform="translate(162.119 71.74) rotate(-0.176)" fill="#31313c"/>
        <path id="Rectángulo_35123" data-name="Rectángulo 35123" d="M.182,0H8.94a.182.182,0,0,1,.182.182V1.189a.182.182,0,0,1-.182.182H.182A.182.182,0,0,1,0,1.189V.182A.182.182,0,0,1,.182,0ZM8.757.365H.365v.642H8.757Z" transform="translate(164.214 71.733) rotate(-0.175)" fill="#31313c"/>
        <path id="Rectángulo_35124" data-name="Rectángulo 35124" d="M.182,0H5.028A.182.182,0,0,1,5.21.182V1.189a.182.182,0,0,1-.182.182H.182A.182.182,0,0,1,0,1.189V.182A.182.182,0,0,1,.182,0ZM4.846.365H.365v.642H4.846Z" transform="translate(156.441 71.757) rotate(-0.174)" fill="#31313c"/>
        <path id="Rectángulo_35125" data-name="Rectángulo 35125" d="M.182,0H6.427a.182.182,0,0,1,.182.182V1.189a.182.182,0,0,1-.182.182H.182A.182.182,0,0,1,0,1.189V.182A.182.182,0,0,1,.182,0ZM6.245.365H.365v.642h5.88Z" transform="translate(148.657 71.781) rotate(-0.175)" fill="#31313c"/>
        <path id="Rectángulo_35126" data-name="Rectángulo 35126" d="M.182,0h.833A.182.182,0,0,1,1.2.182V1.189a.182.182,0,0,1-.182.182H.182A.182.182,0,0,1,0,1.189V.182A.182.182,0,0,1,.182,0Zm.65.365H.365v.642H.833Z" transform="translate(125.243 74.444) rotate(-0.175)" fill="#31313c"/>
        <path id="Rectángulo_35127" data-name="Rectángulo 35127" d="M.182,0H5.029a.182.182,0,0,1,.182.182V1.189a.182.182,0,0,1-.182.182H.182A.182.182,0,0,1,0,1.189V.182A.182.182,0,0,1,.182,0ZM4.847.365H.365v.642H4.847Z" transform="matrix(1, -0.003, 0.003, 1, 126.844, 74.439)" fill="#31313c"/>
        <path id="Rectángulo_35128" data-name="Rectángulo 35128" d="M.182,0H10.808a.182.182,0,0,1,.182.182V1.189a.182.182,0,0,1-.182.182H.182A.182.182,0,0,1,0,1.189V.182A.182.182,0,0,1,.182,0ZM10.626.365H.365v.642H10.626Z" transform="matrix(1, -0.003, 0.003, 1, 136.939, 74.408)" fill="#31313c"/>
        <path id="Rectángulo_35129" data-name="Rectángulo 35129" d="M.182,0h3.03a.182.182,0,0,1,.182.182V1.189a.182.182,0,0,1-.182.182H.182A.182.182,0,0,1,0,1.189V.182A.182.182,0,0,1,.182,0ZM3.03.365H.365v.642H3.03Z" transform="translate(132.901 74.42) rotate(-0.175)" fill="#31313c"/>
        <path id="Rectángulo_35130" data-name="Rectángulo 35130" d="M.182,0H18.768a.182.182,0,0,1,.182.182V1.189a.182.182,0,0,1-.182.182H.182A.182.182,0,0,1,0,1.189V.182A.182.182,0,0,1,.182,0Zm18.4.365H.365v.642H18.586Z" transform="translate(148.665 74.372) rotate(-0.174)" fill="#31313c"/>
        <path id="Rectángulo_35131" data-name="Rectángulo 35131" d="M.182,0h.833A.182.182,0,0,1,1.2.182V1.189a.182.182,0,0,1-.182.182H.182A.182.182,0,0,1,0,1.189V.182A.182.182,0,0,1,.182,0Zm.65.365H.365v.642H.833Z" transform="translate(125.251 77.061) rotate(-0.175)" fill="#31313c"/>
        <path id="Rectángulo_35132" data-name="Rectángulo 35132" d="M.182,0H2.606a.182.182,0,0,1,.182.182V1.189a.182.182,0,0,1-.182.182H.182A.182.182,0,0,1,0,1.189V.182A.182.182,0,0,1,.182,0ZM2.424.365H.365v.642H2.424Z" transform="translate(126.852 77.056) rotate(-0.174)" fill="#31313c"/>
        <path id="Rectángulo_35133" data-name="Rectángulo 35133" d="M.182,0H6.417A.182.182,0,0,1,6.6.182V1.189a.182.182,0,0,1-.182.182H.182A.182.182,0,0,1,0,1.189V.182A.182.182,0,0,1,.182,0ZM6.234.365H.365v.642h5.87Z" transform="translate(139.37 77.018) rotate(-0.174)" fill="#31313c"/>
        <path id="Rectángulo_35134" data-name="Rectángulo 35134" d="M.182,0H1.8a.182.182,0,0,1,.182.182V1.189a.182.182,0,0,1-.182.182H.182A.182.182,0,0,1,0,1.189V.182A.182.182,0,0,1,.182,0ZM1.617.365H.365v.642H1.617Z" transform="matrix(1, -0.003, 0.003, 1, 136.947, 77.026)" fill="#31313c"/>
        <path id="Rectángulo_35135" data-name="Rectángulo 35135" d="M.182,0h5.8a.182.182,0,0,1,.182.182V1.189a.182.182,0,0,1-.182.182H.182A.182.182,0,0,1,0,1.189V.182A.182.182,0,0,1,.182,0ZM5.8.365H.365v.642H5.8Z" transform="matrix(1, -0.003, 0.003, 1, 130.134, 77.046)" fill="#31313c"/>
        <path id="Rectángulo_35136" data-name="Rectángulo 35136" d="M.182,0H6.517A.182.182,0,0,1,6.7.182V1.189a.182.182,0,0,1-.182.182H.182A.182.182,0,0,1,0,1.189V.182A.182.182,0,0,1,.182,0ZM6.335.365H.365v.642h5.97Z" transform="matrix(1, -0.003, 0.003, 1, 153.352, 76.976)" fill="#31313c"/>
        <path id="Rectángulo_35137" data-name="Rectángulo 35137" d="M.182,0h2.6a.182.182,0,0,1,.182.182V1.189a.182.182,0,0,1-.182.182H.182A.182.182,0,0,1,0,1.189V.182A.182.182,0,0,1,.182,0ZM2.6.365H.365v.642H2.6Z" transform="matrix(1, -0.003, 0.003, 1, 146.362, 76.997)" fill="#31313c"/>
        <path id="Rectángulo_35138" data-name="Rectángulo 35138" d="M.182,0h2.6a.182.182,0,0,1,.182.182V1.189a.182.182,0,0,1-.182.182H.182A.182.182,0,0,1,0,1.189V.182A.182.182,0,0,1,.182,0ZM2.6.365H.365v.642H2.6Z" transform="matrix(1, -0.003, 0.003, 1, 149.885, 76.986)" fill="#31313c"/>
        <path id="Rectángulo_35139" data-name="Rectángulo 35139" d="M.182,0h.833A.182.182,0,0,1,1.2.182V1.189a.182.182,0,0,1-.182.182H.182A.182.182,0,0,1,0,1.189V.182A.182.182,0,0,1,.182,0Zm.65.365H.365v.642H.833Z" transform="translate(125.267 82.531) rotate(-0.175)" fill="#31313c"/>
        <path id="Rectángulo_35140" data-name="Rectángulo 35140" d="M.182,0H5.029a.182.182,0,0,1,.182.182V1.189a.182.182,0,0,1-.182.182H.182A.182.182,0,0,1,0,1.189V.182A.182.182,0,0,1,.182,0ZM4.847.365H.365v.642H4.847Z" transform="matrix(1, -0.003, 0.003, 1, 126.868, 82.526)" fill="#31313c"/>
        <path id="Rectángulo_35141" data-name="Rectángulo 35141" d="M.182,0H5.029a.182.182,0,0,1,.182.182V1.189a.182.182,0,0,1-.182.182H.182A.182.182,0,0,1,0,1.189V.182A.182.182,0,0,1,.182,0ZM4.847.365H.365v.642H4.847Z" transform="matrix(1, -0.003, 0.003, 1, 142.742, 82.478)" fill="#31313c"/>
        <path id="Rectángulo_35142" data-name="Rectángulo 35142" d="M.182,0H5.029a.182.182,0,0,1,.182.182V1.189a.182.182,0,0,1-.182.182H.182A.182.182,0,0,1,0,1.189V.182A.182.182,0,0,1,.182,0ZM4.847.365H.365v.642H4.847Z" transform="matrix(1, -0.003, 0.003, 1, 136.963, 82.495)" fill="#31313c"/>
        <path id="Rectángulo_35143" data-name="Rectángulo 35143" d="M.182,0h3.03a.182.182,0,0,1,.182.182V1.189a.182.182,0,0,1-.182.182H.182A.182.182,0,0,1,0,1.189V.182A.182.182,0,0,1,.182,0ZM3.03.365H.365v.642H3.03Z" transform="translate(132.925 82.507) rotate(-0.175)" fill="#31313c"/>
        <path id="Rectángulo_35144" data-name="Rectángulo 35144" d="M.182,0h.833A.182.182,0,0,1,1.2.182V1.189a.182.182,0,0,1-.182.182H.182A.182.182,0,0,1,0,1.189V.182A.182.182,0,0,1,.182,0Zm.65.365H.365v.642H.833Z" transform="translate(129.754 97.763) rotate(-0.175)" fill="#31313c"/>
        <path id="Rectángulo_35145" data-name="Rectángulo 35145" d="M.182,0H5.029a.182.182,0,0,1,.182.182V1.189a.182.182,0,0,1-.182.182H.182A.182.182,0,0,1,0,1.189V.182A.182.182,0,0,1,.182,0ZM4.847.365H.365v.642H4.847Z" transform="matrix(1, -0.003, 0.003, 1, 131.355, 97.758)" fill="#31313c"/>
        <path id="Rectángulo_35146" data-name="Rectángulo 35146" d="M.182,0H5.029a.182.182,0,0,1,.182.182V1.189a.182.182,0,0,1-.182.182H.182A.182.182,0,0,1,0,1.189V.182A.182.182,0,0,1,.182,0ZM4.847.365H.365v.642H4.847Z" transform="matrix(1, -0.003, 0.003, 1, 147.229, 97.71)" fill="#31313c"/>
        <path id="Rectángulo_35147" data-name="Rectángulo 35147" d="M.182,0H5.029a.182.182,0,0,1,.182.182V1.189a.182.182,0,0,1-.182.182H.182A.182.182,0,0,1,0,1.189V.182A.182.182,0,0,1,.182,0ZM4.847.365H.365v.642H4.847Z" transform="matrix(1, -0.003, 0.003, 1, 141.45, 97.728)" fill="#31313c"/>
        <path id="Rectángulo_35148" data-name="Rectángulo 35148" d="M.182,0h3.03a.182.182,0,0,1,.182.182V1.189a.182.182,0,0,1-.182.182H.182A.182.182,0,0,1,0,1.189V.182A.182.182,0,0,1,.182,0ZM3.03.365H.365v.642H3.03Z" transform="translate(137.412 97.74) rotate(-0.175)" fill="#31313c"/>
        <path id="Rectángulo_35149" data-name="Rectángulo 35149" d="M.182,0H8.22A.182.182,0,0,1,8.4.182V1.189a.182.182,0,0,1-.182.182H.182A.182.182,0,0,1,0,1.189V.182A.182.182,0,0,1,.182,0ZM8.037.365H.365v.642H8.037Z" transform="translate(169.453 97.642) rotate(-0.174)" fill="#31313c"/>
        <path id="Rectángulo_35150" data-name="Rectángulo 35150" d="M.182,0H8.22A.182.182,0,0,1,8.4.182V1.189a.182.182,0,0,1-.182.182H.182A.182.182,0,0,1,0,1.189V.182A.182.182,0,0,1,.182,0ZM8.037.365H.365v.642H8.037Z" transform="translate(159.871 97.671) rotate(-0.174)" fill="#31313c"/>
        <path id="Rectángulo_35151" data-name="Rectángulo 35151" d="M.182,0H5.207a.182.182,0,0,1,.182.182V1.189a.182.182,0,0,1-.182.182H.182A.182.182,0,0,1,0,1.189V.182A.182.182,0,0,1,.182,0ZM5.024.365H.365v.642H5.024Z" transform="translate(153.176 97.692) rotate(-0.175)" fill="#31313c"/>
        <path id="Rectángulo_35152" data-name="Rectángulo 35152" d="M.182,0h.833A.182.182,0,0,1,1.2.182V1.189a.182.182,0,0,1-.182.182H.182A.182.182,0,0,1,0,1.189V.182A.182.182,0,0,1,.182,0Zm.65.365H.365v.642H.833Z" transform="translate(125.275 85.122) rotate(-0.175)" fill="#31313c"/>
        <path id="Rectángulo_35153" data-name="Rectángulo 35153" d="M.182,0H1.394a.182.182,0,0,1,.182.182V1.189a.182.182,0,0,1-.182.182H.182A.182.182,0,0,1,0,1.189V.182A.182.182,0,0,1,.182,0ZM1.212.365H.365v.642h.847Z" transform="translate(126.876 85.118) rotate(-0.176)" fill="#31313c"/>
        <path id="Rectángulo_35154" data-name="Rectángulo 35154" d="M.182,0H5.029a.182.182,0,0,1,.182.182V1.189a.182.182,0,0,1-.182.182H.182A.182.182,0,0,1,0,1.189V.182A.182.182,0,0,1,.182,0ZM4.847.365H.365v.642H4.847Z" transform="matrix(1, -0.003, 0.003, 1, 140.63, 85.076)" fill="#31313c"/>
        <path id="Rectángulo_35155" data-name="Rectángulo 35155" d="M.182,0h6.84A.182.182,0,0,1,7.2.182V1.189a.182.182,0,0,1-.182.182H.182A.182.182,0,0,1,0,1.189V.182A.182.182,0,0,1,.182,0ZM6.84.365H.365v.642H6.84Z" transform="translate(133.01 85.099) rotate(-0.175)" fill="#31313c"/>
        <path id="Rectángulo_35156" data-name="Rectángulo 35156" d="M.182,0h3.03a.182.182,0,0,1,.182.182V1.189a.182.182,0,0,1-.182.182H.182A.182.182,0,0,1,0,1.189V.182A.182.182,0,0,1,.182,0ZM3.03.365H.365v.642H3.03Z" transform="translate(128.963 85.111) rotate(-0.175)" fill="#31313c"/>
        <path id="Rectángulo_35157" data-name="Rectángulo 35157" d="M.182,0h.833A.182.182,0,0,1,1.2.182V1.189a.182.182,0,0,1-.182.182H.182A.182.182,0,0,1,0,1.189V.182A.182.182,0,0,1,.182,0Zm.65.365H.365v.642H.833Z" transform="translate(125.283 87.74) rotate(-0.175)" fill="#31313c"/>
        <path id="Rectángulo_35158" data-name="Rectángulo 35158" d="M.182,0H5.03a.182.182,0,0,1,.182.182V1.189a.182.182,0,0,1-.182.182H.182A.182.182,0,0,1,0,1.189V.182A.182.182,0,0,1,.182,0ZM4.847.365H.365v.642H4.847Z" transform="matrix(1, -0.003, 0.003, 1, 126.884, 87.735)" fill="#31313c"/>
        <path id="Rectángulo_35159" data-name="Rectángulo 35159" d="M.182,0H4.246a.182.182,0,0,1,.182.182V1.189a.182.182,0,0,1-.182.182H.182A.182.182,0,0,1,0,1.189V.182A.182.182,0,0,1,.182,0ZM4.063.365H.365v.642h3.7Z" transform="translate(142.18 87.688) rotate(-0.174)" fill="#31313c"/>
        <path id="Rectángulo_35160" data-name="Rectángulo 35160" d="M.182,0H2.85a.182.182,0,0,1,.182.182V1.189a.182.182,0,0,1-.182.182H.182A.182.182,0,0,1,0,1.189V.182A.182.182,0,0,1,.182,0ZM2.668.365H.365v.642h2.3Z" transform="matrix(1, -0.003, 0.003, 1, 135.449, 87.709)" fill="#31313c"/>
        <path id="Rectángulo_35161" data-name="Rectángulo 35161" d="M.182,0H2.85a.182.182,0,0,1,.182.182V1.189a.182.182,0,0,1-.182.182H.182A.182.182,0,0,1,0,1.189V.182A.182.182,0,0,1,.182,0ZM2.668.365H.365v.642h2.3Z" transform="matrix(1, -0.003, 0.003, 1, 138.809, 87.699)" fill="#31313c"/>
        <path id="Rectángulo_35162" data-name="Rectángulo 35162" d="M.182,0H1.61a.182.182,0,0,1,.182.182V1.189a.182.182,0,0,1-.182.182H.182A.182.182,0,0,1,0,1.189V.182A.182.182,0,0,1,.182,0ZM1.427.365H.365v.642H1.427Z" transform="matrix(1, -0.003, 0.003, 1, 132.941, 87.717)" fill="#31313c"/>
        <path id="Rectángulo_35163" data-name="Rectángulo 35163" d="M.182,0H5.511a.182.182,0,0,1,.182.182V1.189a.182.182,0,0,1-.182.182H.182A.182.182,0,0,1,0,1.189V.182A.182.182,0,0,1,.182,0ZM5.329.365H.365v.642H5.329Z" transform="translate(171.783 87.598) rotate(-0.175)" fill="#31313c"/>
        <path id="Rectángulo_35164" data-name="Rectángulo 35164" d="M.182,0h.833A.182.182,0,0,1,1.2.182V1.189a.182.182,0,0,1-.182.182H.182A.182.182,0,0,1,0,1.189V.182A.182.182,0,0,1,.182,0Zm.65.365H.365v.642H.833Z" transform="translate(125.291 90.332) rotate(-0.175)" fill="#31313c"/>
        <path id="Rectángulo_35165" data-name="Rectángulo 35165" d="M.182,0H5.029a.182.182,0,0,1,.182.182V1.189a.182.182,0,0,1-.182.182H.182A.182.182,0,0,1,0,1.189V.182A.182.182,0,0,1,.182,0ZM4.847.365H.365v.642H4.847Z" transform="matrix(1, -0.003, 0.003, 1, 126.892, 90.327)" fill="#31313c"/>
        <path id="Rectángulo_35166" data-name="Rectángulo 35166" d="M.182,0H11.44a.182.182,0,0,1,.182.182V1.189a.182.182,0,0,1-.182.182H.182A.182.182,0,0,1,0,1.189V.182A.182.182,0,0,1,.182,0ZM11.257.365H.365v.642H11.257Z" transform="translate(136.987 90.296) rotate(-0.175)" fill="#31313c"/>
        <path id="Rectángulo_35167" data-name="Rectángulo 35167" d="M.182,0h3.03a.182.182,0,0,1,.182.182V1.189a.182.182,0,0,1-.182.182H.182A.182.182,0,0,1,0,1.189V.182A.182.182,0,0,1,.182,0ZM3.03.365H.365v.642H3.03Z" transform="translate(132.949 90.308) rotate(-0.175)" fill="#31313c"/>
        <path id="Rectángulo_35168" data-name="Rectángulo 35168" d="M.182,0h.833A.182.182,0,0,1,1.2.182V1.189a.182.182,0,0,1-.182.182H.182A.182.182,0,0,1,0,1.189V.182A.182.182,0,0,1,.182,0Zm.65.365H.365v.642H.833Z" transform="translate(129.835 95.612) rotate(-0.175)" fill="#31313c"/>
        <path id="Rectángulo_35169" data-name="Rectángulo 35169" d="M.182,0H5.029a.182.182,0,0,1,.182.182V1.189a.182.182,0,0,1-.182.182H.182A.182.182,0,0,1,0,1.189V.182A.182.182,0,0,1,.182,0ZM4.847.365H.365v.642H4.847Z" transform="matrix(1, -0.003, 0.003, 1, 131.436, 95.608)" fill="#31313c"/>
        <path id="Rectángulo_35170" data-name="Rectángulo 35170" d="M.182,0H2.606a.182.182,0,0,1,.182.182V1.189a.182.182,0,0,1-.182.182H.182A.182.182,0,0,1,0,1.189V.182A.182.182,0,0,1,.182,0ZM2.424.365H.365v.642H2.424Z" transform="translate(147.31 95.559) rotate(-0.174)" fill="#31313c"/>
        <path id="Rectángulo_35171" data-name="Rectángulo 35171" d="M.182,0H5.029a.182.182,0,0,1,.182.182V1.189a.182.182,0,0,1-.182.182H.182A.182.182,0,0,1,0,1.189V.182A.182.182,0,0,1,.182,0ZM4.847.365H.365v.642H4.847Z" transform="matrix(1, -0.003, 0.003, 1, 141.531, 95.577)" fill="#31313c"/>
        <path id="Rectángulo_35172" data-name="Rectángulo 35172" d="M.182,0h3.03a.182.182,0,0,1,.182.182V1.189a.182.182,0,0,1-.182.182H.182A.182.182,0,0,1,0,1.189V.182A.182.182,0,0,1,.182,0ZM3.03.365H.365v.642H3.03Z" transform="translate(137.493 95.589) rotate(-0.175)" fill="#31313c"/>
        <path id="Rectángulo_35173" data-name="Rectángulo 35173" d="M.182,0h7.1a.182.182,0,0,1,.182.182V1.189a.182.182,0,0,1-.182.182H.182A.182.182,0,0,1,0,1.189V.182A.182.182,0,0,1,.182,0ZM7.1.365H.365v.642H7.1Z" transform="translate(161.104 95.517) rotate(-0.174)" fill="#31313c"/>
        <path id="Rectángulo_35174" data-name="Rectángulo 35174" d="M.182,0H5.9a.182.182,0,0,1,.182.182V1.189a.182.182,0,0,1-.182.182H.182A.182.182,0,0,1,0,1.189V.182A.182.182,0,0,1,.182,0ZM5.721.365H.365v.642H5.721Z" transform="matrix(1, -0.003, 0.003, 1, 154.513, 95.537)" fill="#31313c"/>
        <path id="Rectángulo_35175" data-name="Rectángulo 35175" d="M.182,0h3.14a.182.182,0,0,1,.182.182V1.189a.182.182,0,0,1-.182.182H.182A.182.182,0,0,1,0,1.189V.182A.182.182,0,0,1,.182,0ZM3.14.365H.365v.642H3.14Z" transform="matrix(1, -0.003, 0.003, 1, 150.405, 95.55)" fill="#31313c"/>
        <path id="Rectángulo_35176" data-name="Rectángulo 35176" d="M.182,0h.833A.182.182,0,0,1,1.2.182V1.189a.182.182,0,0,1-.182.182H.182A.182.182,0,0,1,0,1.189V.182A.182.182,0,0,1,.182,0Zm.65.365H.365v.642H.833Z" transform="translate(128.573 79.786) rotate(-0.175)" fill="#31313c"/>
        <path id="Rectángulo_35177" data-name="Rectángulo 35177" d="M.182,0h3.6a.182.182,0,0,1,.182.182V1.189a.182.182,0,0,1-.182.182H.182A.182.182,0,0,1,0,1.189V.182A.182.182,0,0,1,.182,0ZM3.6.365H.365v.642H3.6Z" transform="matrix(1, -0.003, 0.003, 1, 130.174, 79.781)" fill="#31313c"/>
        <path id="Rectángulo_35178" data-name="Rectángulo 35178" d="M.182,0H5.029a.182.182,0,0,1,.182.182V1.189a.182.182,0,0,1-.182.182H.182A.182.182,0,0,1,0,1.189V.182A.182.182,0,0,1,.182,0ZM4.847.365H.365v.642H4.847Z" transform="matrix(1, -0.003, 0.003, 1, 138.474, 79.756)" fill="#31313c"/>
        <path id="Rectángulo_35179" data-name="Rectángulo 35179" d="M.182,0H3.494a.182.182,0,0,1,.182.182V1.189a.182.182,0,0,1-.182.182H.182A.182.182,0,0,1,0,1.189V.182A.182.182,0,0,1,.182,0ZM3.311.365H.365v.642H3.311Z" transform="translate(134.489 79.768) rotate(-0.174)" fill="#31313c"/>
        <path id="Rectángulo_35180" data-name="Rectángulo 35180" d="M.182,0h.833A.182.182,0,0,1,1.2.182V1.189a.182.182,0,0,1-.182.182H.182A.182.182,0,0,1,0,1.189V.182A.182.182,0,0,1,.182,0Zm.65.365H.365v.642H.833Z" transform="translate(125.321 100.202) rotate(-0.175)" fill="#31313c"/>
        <path id="Rectángulo_35181" data-name="Rectángulo 35181" d="M.182,0H2.606a.182.182,0,0,1,.182.182V1.189a.182.182,0,0,1-.182.182H.182A.182.182,0,0,1,0,1.189V.182A.182.182,0,0,1,.182,0ZM2.424.365H.365v.642H2.424Z" transform="matrix(1, -0.003, 0.003, 1, 126.922, 100.197)" fill="#31313c"/>
        <path id="Rectángulo_35182" data-name="Rectángulo 35182" d="M.182,0H6.417A.182.182,0,0,1,6.6.182V1.189a.182.182,0,0,1-.182.182H.182A.182.182,0,0,1,0,1.189V.182A.182.182,0,0,1,.182,0ZM6.234.365H.365v.642h5.87Z" transform="translate(139.441 100.159) rotate(-0.174)" fill="#31313c"/>
        <path id="Rectángulo_35183" data-name="Rectángulo 35183" d="M.182,0H1.8a.182.182,0,0,1,.182.182V1.189a.182.182,0,0,1-.182.182H.182A.182.182,0,0,1,0,1.189V.182A.182.182,0,0,1,.182,0ZM1.617.365H.365v.642H1.617Z" transform="translate(137.017 100.166) rotate(-0.174)" fill="#31313c"/>
        <path id="Rectángulo_35184" data-name="Rectángulo 35184" d="M.182,0h5.8a.182.182,0,0,1,.182.182V1.189a.182.182,0,0,1-.182.182H.182A.182.182,0,0,1,0,1.189V.182A.182.182,0,0,1,.182,0ZM5.8.365H.365v.642H5.8Z" transform="matrix(1, -0.003, 0.003, 1, 130.205, 100.187)" fill="#31313c"/>
        <path id="Rectángulo_35185" data-name="Rectángulo 35185" d="M.182,0H6.517A.182.182,0,0,1,6.7.182V1.189a.182.182,0,0,1-.182.182H.182A.182.182,0,0,1,0,1.189V.182A.182.182,0,0,1,.182,0ZM6.335.365H.365v.642h5.97Z" transform="matrix(1, -0.003, 0.003, 1, 153.423, 100.116)" fill="#31313c"/>
        <path id="Rectángulo_35186" data-name="Rectángulo 35186" d="M.182,0h2.6a.182.182,0,0,1,.182.182V1.189a.182.182,0,0,1-.182.182H.182A.182.182,0,0,1,0,1.189V.182A.182.182,0,0,1,.182,0ZM2.6.365H.365v.642H2.6Z" transform="translate(146.432 100.137) rotate(-0.176)" fill="#31313c"/>
        <path id="Rectángulo_35187" data-name="Rectángulo 35187" d="M.182,0h2.6a.182.182,0,0,1,.182.182V1.189a.182.182,0,0,1-.182.182H.182A.182.182,0,0,1,0,1.189V.182A.182.182,0,0,1,.182,0ZM2.6.365H.365v.642H2.6Z" transform="translate(149.955 100.126) rotate(-0.176)" fill="#31313c"/>
        <path id="Rectángulo_35188" data-name="Rectángulo 35188" d="M.182,0h.833A.182.182,0,0,1,1.2.182V1.189a.182.182,0,0,1-.182.182H.182A.182.182,0,0,1,0,1.189V.182A.182.182,0,0,1,.182,0Zm.65.365H.365v.642H.833Z" transform="translate(125.335 104.748) rotate(-0.175)" fill="#31313c"/>
        <path id="Rectángulo_35189" data-name="Rectángulo 35189" d="M.182,0H5.029a.182.182,0,0,1,.182.182V1.189a.182.182,0,0,1-.182.182H.182A.182.182,0,0,1,0,1.189V.182A.182.182,0,0,1,.182,0ZM4.847.365H.365v.642H4.847Z" transform="matrix(1, -0.003, 0.003, 1, 126.936, 104.743)" fill="#31313c"/>
        <path id="Rectángulo_35190" data-name="Rectángulo 35190" d="M.182,0H5.029a.182.182,0,0,1,.182.182V1.189a.182.182,0,0,1-.182.182H.182A.182.182,0,0,1,0,1.189V.182A.182.182,0,0,1,.182,0ZM4.847.365H.365v.642H4.847Z" transform="matrix(1, -0.003, 0.003, 1, 142.81, 104.695)" fill="#31313c"/>
        <path id="Rectángulo_35191" data-name="Rectángulo 35191" d="M.182,0H5.029a.182.182,0,0,1,.182.182V1.189a.182.182,0,0,1-.182.182H.182A.182.182,0,0,1,0,1.189V.182A.182.182,0,0,1,.182,0ZM4.847.365H.365v.642H4.847Z" transform="matrix(1, -0.003, 0.003, 1, 137.031, 104.713)" fill="#31313c"/>
        <path id="Rectángulo_35192" data-name="Rectángulo 35192" d="M.182,0h3.03a.182.182,0,0,1,.182.182V1.189a.182.182,0,0,1-.182.182H.182A.182.182,0,0,1,0,1.189V.182A.182.182,0,0,1,.182,0ZM3.03.365H.365v.642H3.03Z" transform="translate(132.993 104.725) rotate(-0.175)" fill="#31313c"/>
        <path id="Rectángulo_35193" data-name="Rectángulo 35193" d="M.182,0h3.03a.182.182,0,0,1,.182.182V1.189a.182.182,0,0,1-.182.182H.182A.182.182,0,0,1,0,1.189V.182A.182.182,0,0,1,.182,0ZM3.03.365H.365v.642H3.03Z" transform="translate(174.134 104.6) rotate(-0.175)" fill="#31313c"/>
        <path id="Rectángulo_35194" data-name="Rectángulo 35194" d="M.182,0H8.22A.182.182,0,0,1,8.4.182V1.189a.182.182,0,0,1-.182.182H.182A.182.182,0,0,1,0,1.189V.182A.182.182,0,0,1,.182,0ZM8.037.365H.365v.642H8.037Z" transform="translate(165.034 104.627) rotate(-0.174)" fill="#31313c"/>
        <path id="Rectángulo_35195" data-name="Rectángulo 35195" d="M.182,0H8.22A.182.182,0,0,1,8.4.182V1.189a.182.182,0,0,1-.182.182H.182A.182.182,0,0,1,0,1.189V.182A.182.182,0,0,1,.182,0ZM8.037.365H.365v.642H8.037Z" transform="translate(155.453 104.656) rotate(-0.174)" fill="#31313c"/>
        <path id="Rectángulo_35196" data-name="Rectángulo 35196" d="M.182,0H5.207a.182.182,0,0,1,.182.182V1.189a.182.182,0,0,1-.182.182H.182A.182.182,0,0,1,0,1.189V.182A.182.182,0,0,1,.182,0ZM5.024.365H.365v.642H5.024Z" transform="translate(148.757 104.677) rotate(-0.175)" fill="#31313c"/>
        <path id="Rectángulo_35197" data-name="Rectángulo 35197" d="M.182,0h.833A.182.182,0,0,1,1.2.182V1.189a.182.182,0,0,1-.182.182H.182A.182.182,0,0,1,0,1.189V.182A.182.182,0,0,1,.182,0Zm.65.365H.365v.642H.833Z" transform="translate(125.328 102.533) rotate(-0.175)" fill="#31313c"/>
        <path id="Rectángulo_35198" data-name="Rectángulo 35198" d="M.182,0h3.6a.182.182,0,0,1,.182.182V1.189a.182.182,0,0,1-.182.182H.182A.182.182,0,0,1,0,1.189V.182A.182.182,0,0,1,.182,0ZM3.6.365H.365v.642H3.6Z" transform="translate(126.929 102.528) rotate(-0.175)" fill="#31313c"/>
        <path id="Rectángulo_35199" data-name="Rectángulo 35199" d="M.182,0H5.029a.182.182,0,0,1,.182.182V1.189a.182.182,0,0,1-.182.182H.182A.182.182,0,0,1,0,1.189V.182A.182.182,0,0,1,.182,0ZM4.847.365H.365v.642H4.847Z" transform="matrix(1, -0.003, 0.003, 1, 135.23, 102.503)" fill="#31313c"/>
        <path id="Rectángulo_35200" data-name="Rectángulo 35200" d="M.182,0H3.494a.182.182,0,0,1,.182.182V1.189a.182.182,0,0,1-.182.182H.182A.182.182,0,0,1,0,1.189V.182A.182.182,0,0,1,.182,0ZM3.311.365H.365v.642H3.311Z" transform="translate(131.244 102.515) rotate(-0.174)" fill="#31313c"/>
        <path id="Rectángulo_35201" data-name="Rectángulo 35201" d="M.182,0h.833A.182.182,0,0,1,1.2.182V1.189a.182.182,0,0,1-.182.182H.182A.182.182,0,0,1,0,1.189V.182A.182.182,0,0,1,.182,0Zm.65.365H.365v.642H.833Z" transform="translate(125.298 92.709) rotate(-0.175)" fill="#31313c"/>
        <path id="Rectángulo_35202" data-name="Rectángulo 35202" d="M.182,0H5.03a.182.182,0,0,1,.182.182V1.189a.182.182,0,0,1-.182.182H.182A.182.182,0,0,1,0,1.189V.182A.182.182,0,0,1,.182,0ZM4.847.365H.365v.642H4.847Z" transform="matrix(1, -0.003, 0.003, 1, 126.899, 92.704)" fill="#31313c"/>
        <path id="Rectángulo_35203" data-name="Rectángulo 35203" d="M.182,0H5.029a.182.182,0,0,1,.182.182V1.189a.182.182,0,0,1-.182.182H.182A.182.182,0,0,1,0,1.189V.182A.182.182,0,0,1,.182,0ZM4.847.365H.365v.642H4.847Z" transform="matrix(1, -0.003, 0.003, 1, 136.994, 92.673)" fill="#31313c"/>
        <path id="Rectángulo_35204" data-name="Rectángulo 35204" d="M.182,0h3.03a.182.182,0,0,1,.182.182V1.189a.182.182,0,0,1-.182.182H.182A.182.182,0,0,1,0,1.189V.182A.182.182,0,0,1,.182,0ZM3.03.365H.365v.642H3.03Z" transform="translate(132.956 92.685) rotate(-0.175)" fill="#31313c"/>
        <text id="i" transform="translate(79.19 67.034)" fill="#12263f" font-size="30" font-family="ScriptMTBold, Script MT"><tspan x="0" y="0">i</tspan></text>
      </g>
    </g>
  </g>
</svg>
