<svg xmlns="http://www.w3.org/2000/svg" width="73.67" height="88.767" viewBox="0 0 73.67 88.767">
  <g id="Grupo_968458" data-name="Grupo 968458" transform="translate(2866 8225.712)">
    <g id="entregar" transform="translate(-2909.538 -8225.712)">
      <g id="Grupo_968269" data-name="Grupo 968269" transform="translate(43.538 0)">
        <path id="Trazado_661798" data-name="Trazado 661798" d="M181.521,42.2H158.4a3.756,3.756,0,0,0-3.752,3.752V57.865a3.756,3.756,0,0,0,3.752,3.752h23.118a3.756,3.756,0,0,0,3.752-3.752V45.956A3.757,3.757,0,0,0,181.521,42.2Zm1.151,15.661a1.153,1.153,0,0,1-1.152,1.152H158.4a1.153,1.153,0,0,1-1.152-1.152V45.956A1.153,1.153,0,0,1,158.4,44.8h23.118a1.153,1.153,0,0,1,1.152,1.152V57.865Z" transform="translate(-135.387 -34.887)" fill="#fd9827"/>
        <path id="Trazado_661799" data-name="Trazado 661799" d="M205.089,106.854H188.276a1.3,1.3,0,0,0,0,2.6h16.813a1.3,1.3,0,1,0,0-2.6Z" transform="translate(-162.108 -88.329)" fill="#fd9827"/>
        <path id="Trazado_661800" data-name="Trazado 661800" d="M188.276,77.131h3.5a1.3,1.3,0,1,0,0-2.6h-3.5a1.3,1.3,0,0,0,0,2.6Z" transform="translate(-162.108 -61.609)" fill="#fd9827"/>
        <path id="Trazado_661801" data-name="Trazado 661801" d="M248.511,74.53h-7.706a1.3,1.3,0,1,0,0,2.6h7.706a1.3,1.3,0,1,0,0-2.6Z" transform="translate(-205.53 -61.609)" fill="#fd9827"/>
        <path id="Trazado_661802" data-name="Trazado 661802" d="M126.673,311.13h-9.107a1.3,1.3,0,0,0,0,2.6h9.107a1.3,1.3,0,0,0,0-2.6Z" transform="translate(-103.657 -257.189)" fill="#fd9827"/>
        <path id="Trazado_661803" data-name="Trazado 661803" d="M117.565,281.407h3.5a1.3,1.3,0,0,0,0-2.6h-3.5a1.3,1.3,0,0,0,0,2.6Z" transform="translate(-103.656 -230.469)" fill="#fd9827"/>
        <path id="Trazado_661804" data-name="Trazado 661804" d="M172.545,278.806h-2.452a1.3,1.3,0,1,0,0,2.6h2.452a1.3,1.3,0,1,0,0-2.6Z" transform="translate(-147.077 -230.469)" fill="#fd9827"/>
        <path id="Trazado_661805" data-name="Trazado 661805" d="M110.431,32.786a1.3,1.3,0,0,0,2.546-.53l-1.954-9.381a4.01,4.01,0,0,0-5.34-3.008V4.8a4.808,4.808,0,0,0-4.8-4.8H51.843a8.315,8.315,0,0,0-8.3,8.306v4.177a1.3,1.3,0,1,0,2.6,0V8.306a5.714,5.714,0,0,1,4.4-5.554V59.673a8.581,8.581,0,0,0-4.4,2.209V18.551a1.3,1.3,0,1,0-2.6,0s0,49.425,0,49.462h0a8.313,8.313,0,0,0,8.3,8.145h17.75a1.3,1.3,0,1,0,0-2.6H51.843a5.711,5.711,0,0,1-5.7-5.673,5.589,5.589,0,0,1,1.63-3.961,5.939,5.939,0,0,1,4.211-1.776H84.167v4.4H65.854a1.3,1.3,0,0,0,0,2.6H84.19a7.109,7.109,0,0,0,1.961,4.405H75.66a1.3,1.3,0,1,0,0,2.6H88.139a4.507,4.507,0,0,1,.233,1.436v9.874a1.3,1.3,0,0,0,2.6,0V77.593a7.139,7.139,0,0,0-2.57-5.486,4.525,4.525,0,0,1-1.635-3.487v-8.54a4.507,4.507,0,0,1,.429-1.926A4.569,4.569,0,0,1,88.4,56.591a7.121,7.121,0,0,0,2.569-5.486V41.932a2.917,2.917,0,0,1,2.846-2.9,2.826,2.826,0,0,1,2.045.83,3.056,3.056,0,0,1,.915,2.166v9.6a3.116,3.116,0,0,0,.906,2.189l1.358,1.358a3.1,3.1,0,0,0,4.377,0l1.357-1.357a3.117,3.117,0,0,0,.906-2.189V23.62a1.406,1.406,0,0,1,1.471-1.4,1.471,1.471,0,0,1,1.323,1.189Zm-7.349,18.841a.5.5,0,0,1-.145.35l-1.358,1.358a.5.5,0,0,1-.7,0l-1.358-1.358a.5.5,0,0,1-.144-.35v-9.6A5.672,5.672,0,0,0,97.685,38a5.418,5.418,0,0,0-3.916-1.574,5.53,5.53,0,0,0-5.4,5.5V51.1a4.528,4.528,0,0,1-1.634,3.488,7.115,7.115,0,0,0-2.548,4.953H53.143V2.6h47.738a2.2,2.2,0,0,1,2.2,2.2Z" transform="translate(-43.538 0)" fill="#fd9827"/>
        <path id="Trazado_661806" data-name="Trazado 661806" d="M425.072,228.478l-2.731-13.1a1.3,1.3,0,0,0-2.546.531l2.731,13.1a9.919,9.919,0,0,1-.31,5.179l-5.86,17.434a1.3,1.3,0,0,0-.068.414v12.609a1.3,1.3,0,0,0,2.6,0v-12.4l5.792-17.232A12.522,12.522,0,0,0,425.072,228.478Z" transform="translate(-351.664 -177.179)" fill="#fd9827"/>
        <path id="Trazado_661807" data-name="Trazado 661807" d="M85.24,383.862a1.3,1.3,0,0,0,0,2.6h8.406a1.3,1.3,0,0,0,0-2.6Z" transform="translate(-76.935 -317.311)" fill="#fd9827"/>
      </g>
    </g>
  </g>
</svg>
