<svg xmlns="http://www.w3.org/2000/svg" xmlns:xlink="http://www.w3.org/1999/xlink" width="101" height="103" viewBox="0 0 101 103">
  <defs>
    <filter id="Elipse_4724" x="0" y="2" width="101" height="101" filterUnits="userSpaceOnUse">
      <feOffset dy="3" input="SourceAlpha"/>
      <feGaussianBlur stdDeviation="3" result="blur"/>
      <feFlood flood-opacity="0.161"/>
      <feComposite operator="in" in2="blur"/>
      <feComposite in="SourceGraphic"/>
    </filter>
  </defs>
  <g id="Grupo_968456" data-name="Grupo 968456" transform="translate(2620 7414)">
    <g transform="matrix(1, 0, 0, 1, -2620, -7414)" filter="url(#Elipse_4724)">
      <circle id="Elipse_4724-2" data-name="Elipse 4724" cx="41.5" cy="41.5" r="41.5" transform="translate(9 8)" fill="#fd9827"/>
    </g>
    <g id="computadora_1_" data-name="computadora (1)" transform="translate(-2595.695 -7390)">
      <g id="Grupo_968283" data-name="Grupo 968283" transform="translate(0.879)">
        <g id="Grupo_968282" data-name="Grupo 968282">
          <path id="Trazado_661827" data-name="Trazado 661827" d="M49.4,0H5.285a2.7,2.7,0,0,0-2.7,2.7V25.054H4.06V2.7A1.227,1.227,0,0,1,5.285,1.471H49.4A1.227,1.227,0,0,1,50.63,2.7V28.825H27V30.3H50.63v5.343A1.227,1.227,0,0,1,49.4,36.864H21.027v1.471h.68v3.573a2.92,2.92,0,0,1-2.3,2.868A2.68,2.68,0,0,0,17.3,47.408v2.1h20.1v-2.1a2.68,2.68,0,0,0-2.111-2.632,2.921,2.921,0,0,1-2.3-2.868V38.335H49.4a2.7,2.7,0,0,0,2.7-2.7V2.7A2.7,2.7,0,0,0,49.4,0ZM34.964,46.212a1.218,1.218,0,0,1,.96,1.2v.633H18.766v-.633a1.218,1.218,0,0,1,.96-1.2,4.382,4.382,0,0,0,3.452-4.3V38.335h8.334v3.573A4.383,4.383,0,0,0,34.964,46.212Z" transform="translate(-2.589)"/>
        </g>
      </g>
      <g id="Grupo_968285" data-name="Grupo 968285" transform="translate(0.695 13.629)">
        <g id="Grupo_968284" data-name="Grupo 968284">
          <path id="Trazado_661828" data-name="Trazado 661828" d="M24.1,140.355a2.742,2.742,0,0,0-3.708,1.119l-2.11,3.935-2.827-1.516-.383.715-.042.079L12.2,143.17l-.851,1.587-2.827-1.516-4.8,8.952L3.184,157.7.695,161.731l1.251.773,2.668-4.318.543-5.558,3.966-7.4,1.531.821L9.3,148.58l1.3.695,1.355-2.526.851-1.587,1.531.821L12.127,150.1l1.3.695,2.206-4.114h0l.426-.794,1.531.821-2.631,4.907,1.3.695,2.631-4.907h0l2.805-5.231a1.269,1.269,0,0,1,2.236,1.2L18.223,154l3.065,1.644-2.319,4.324-5.242,3L6.469,175.5l1.273.737L14.8,164.044l5.264-3.014,3.213-5.992-3.065-1.644,5-9.331A2.742,2.742,0,0,0,24.1,140.355Z" transform="translate(-0.695 -140.03)"/>
        </g>
      </g>
      <g id="Grupo_968287" data-name="Grupo 968287" transform="translate(16.37 8.039)">
        <g id="Grupo_968286" data-name="Grupo 968286">
          <path id="Trazado_661829" data-name="Trazado 661829" d="M175.231,87.37a6.912,6.912,0,1,0-13.146,4.277l1.4-.455a5.441,5.441,0,1,1,6.858,3.491l.455,1.4A6.92,6.92,0,0,0,175.231,87.37Z" transform="translate(-161.745 -82.596)"/>
        </g>
      </g>
      <g id="Grupo_968289" data-name="Grupo 968289" transform="translate(32.023 15.133)">
        <g id="Grupo_968288" data-name="Grupo 968288">
          <path id="Trazado_661830" data-name="Trazado 661830" d="M322.712,155.488a8.951,8.951,0,0,1-.13,1.35l1.449.252a10.4,10.4,0,0,0,.151-1.573Z" transform="translate(-322.582 -155.488)"/>
        </g>
      </g>
      <g id="Grupo_968291" data-name="Grupo 968291" transform="translate(29.426 20.342)">
        <g id="Grupo_968290" data-name="Grupo 968290">
          <path id="Trazado_661831" data-name="Trazado 661831" d="M296.8,209a8.949,8.949,0,0,1-.9,1.011l1.018,1.061a10.419,10.419,0,0,0,1.054-1.178Z" transform="translate(-295.897 -209.005)"/>
        </g>
      </g>
      <g id="Grupo_968293" data-name="Grupo 968293" transform="translate(26.128 5.152)">
        <g id="Grupo_968292" data-name="Grupo 968292">
          <path id="Trazado_661832" data-name="Trazado 661832" d="M262.48,52.931l-.471,1.393a8.853,8.853,0,0,1,1.248.532l.679-1.3A10.306,10.306,0,0,0,262.48,52.931Z" transform="translate(-262.009 -52.931)"/>
        </g>
      </g>
      <g id="Grupo_968295" data-name="Grupo 968295" transform="translate(31.114 17.883)">
        <g id="Grupo_968294" data-name="Grupo 968294">
          <path id="Trazado_661833" data-name="Trazado 661833" d="M313.788,183.742a8.829,8.829,0,0,1-.545,1.242l1.3.693a10.288,10.288,0,0,0,.636-1.449Z" transform="translate(-313.243 -183.742)"/>
        </g>
      </g>
      <g id="Grupo_968297" data-name="Grupo 968297" transform="translate(20.166 4.727)">
        <g id="Grupo_968296" data-name="Grupo 968296">
          <path id="Trazado_661834" data-name="Trazado 661834" d="M202.293,48.573a10.317,10.317,0,0,0-1.541.358l.443,1.4a8.822,8.822,0,0,1,1.32-.307Z" transform="translate(-200.752 -48.573)"/>
        </g>
      </g>
      <g id="Grupo_968299" data-name="Grupo 968299" transform="translate(23.373 4.609)">
        <g id="Grupo_968298" data-name="Grupo 968298">
          <path id="Trazado_661835" data-name="Trazado 661835" d="M233.72,47.351l-.015,1.471a8.944,8.944,0,0,1,1.352.116l.237-1.451A10.439,10.439,0,0,0,233.72,47.351Z" transform="translate(-233.705 -47.351)"/>
        </g>
      </g>
      <g id="Grupo_968301" data-name="Grupo 968301" transform="translate(17.254 5.724)">
        <g id="Grupo_968300" data-name="Grupo 968300">
          <path id="Trazado_661836" data-name="Trazado 661836" d="M172.182,58.812a10.391,10.391,0,0,0-1.35.822l.858,1.195a8.914,8.914,0,0,1,1.158-.7Z" transform="translate(-170.832 -58.812)"/>
        </g>
      </g>
      <g id="Grupo_968303" data-name="Grupo 968303" transform="translate(31.772 11.936)">
        <g id="Grupo_968302" data-name="Grupo 968302">
          <path id="Trazado_661837" data-name="Trazado 661837" d="M321.41,122.642,320,123.07a8.844,8.844,0,0,1,.294,1.323l1.456-.207A10.291,10.291,0,0,0,321.41,122.642Z" transform="translate(-320.003 -122.642)"/>
        </g>
      </g>
      <g id="Grupo_968305" data-name="Grupo 968305" transform="translate(24.456 23.467)">
        <g id="Grupo_968304" data-name="Grupo 968304">
          <path id="Trazado_661838" data-name="Trazado 661838" d="M246.157,241.12a8.836,8.836,0,0,1-1.327.28l.192,1.458a10.308,10.308,0,0,0,1.548-.327Z" transform="translate(-244.83 -241.12)"/>
        </g>
      </g>
      <g id="Grupo_968307" data-name="Grupo 968307" transform="translate(14.939 7.637)">
        <g id="Grupo_968306" data-name="Grupo 968306">
          <path id="Trazado_661839" data-name="Trazado 661839" d="M148.079,78.465a10.409,10.409,0,0,0-1.03,1.2l1.186.87a8.929,8.929,0,0,1,.884-1.03Z" transform="translate(-147.049 -78.465)"/>
        </g>
      </g>
      <g id="Grupo_968309" data-name="Grupo 968309" transform="translate(12.939 13.376)">
        <g id="Grupo_968308" data-name="Grupo 968308">
          <path id="Trazado_661840" data-name="Trazado 661840" d="M126.613,137.432a10.458,10.458,0,0,0-.119,1.576h1.471a8.977,8.977,0,0,1,.1-1.353Z" transform="translate(-126.494 -137.432)"/>
        </g>
      </g>
      <g id="Grupo_968311" data-name="Grupo 968311" transform="translate(13.449 10.273)">
        <g id="Grupo_968310" data-name="Grupo 968310">
          <path id="Trazado_661841" data-name="Trazado 661841" d="M132.342,105.55a10.319,10.319,0,0,0-.606,1.462l1.4.457a8.842,8.842,0,0,1,.519-1.253Z" transform="translate(-131.736 -105.55)"/>
        </g>
      </g>
      <g id="Grupo_968313" data-name="Grupo 968313" transform="translate(30.546 9.009)">
        <g id="Grupo_968312" data-name="Grupo 968312">
          <path id="Trazado_661842" data-name="Trazado 661842" d="M308.611,92.569l-1.2.846a8.9,8.9,0,0,1,.693,1.165l1.318-.653A10.392,10.392,0,0,0,308.611,92.569Z" transform="translate(-307.408 -92.569)"/>
        </g>
      </g>
      <g id="Grupo_968315" data-name="Grupo 968315" transform="translate(27.132 22.267)">
        <g id="Grupo_968314" data-name="Grupo 968314">
          <path id="Trazado_661843" data-name="Trazado 661843" d="M273.5,228.79a8.9,8.9,0,0,1-1.172.681l.639,1.324A10.357,10.357,0,0,0,274.33,230Z" transform="translate(-272.324 -228.79)"/>
        </g>
      </g>
      <g id="Grupo_968317" data-name="Grupo 968317" transform="translate(28.6 6.672)">
        <g id="Grupo_968316" data-name="Grupo 968316">
          <path id="Trazado_661844" data-name="Trazado 661844" d="M288.293,68.548l-.882,1.177a8.933,8.933,0,0,1,1.021.894l1.051-1.029A10.427,10.427,0,0,0,288.293,68.548Z" transform="translate(-287.411 -68.548)"/>
        </g>
      </g>
    </g>
    <rect id="Rectángulo_337777" data-name="Rectángulo 337777" width="98" height="98" transform="translate(-2619 -7414)" fill="none"/>
  </g>
</svg>
