<svg xmlns="http://www.w3.org/2000/svg" width="80.344" height="88.766" viewBox="0 0 80.344 88.766">
  <g id="Grupo_968456" data-name="Grupo 968456" transform="translate(3096 7892.219)">
    <g id="enfocar" transform="translate(-3119.03 -7892.219)">
      <g id="Grupo_968271" data-name="Grupo 968271" transform="translate(23.03)">
        <g id="Grupo_968270" data-name="Grupo 968270" transform="translate(0)">
          <path id="Trazado_661809" data-name="Trazado 661809" d="M154.816,162.438l-1.215-2.7a16.129,16.129,0,0,0-7.579,6.988l2.594,1.428A13.206,13.206,0,0,1,154.816,162.438Z" transform="translate(-123.25 -130.161)" fill="#fd9827"/>
          <path id="Trazado_661810" data-name="Trazado 661810" d="M135.027,224.417l2.962-.027a13.426,13.426,0,0,1,.33-3.072l-2.888-.655A16.355,16.355,0,0,0,135.027,224.417Z" transform="translate(-114.291 -179.808)" fill="#fd9827"/>
          <rect id="Rectángulo_337697" data-name="Rectángulo 337697" width="2.841" height="65.331" transform="translate(71.012)" fill="#fd9827"/>
          <rect id="Rectángulo_337698" data-name="Rectángulo 337698" width="2.841" height="88.766" fill="#fd9827"/>
          <path id="Trazado_661811" data-name="Trazado 661811" d="M166.415,172.869l-16.293-16.293a1.481,1.481,0,0,0-2.094,0l-1.915,1.915-2.737-2.737a22.154,22.154,0,1,0-5.036,5.072l2.717,2.722-1.915,1.915a1.481,1.481,0,0,0,0,2.094l16.293,16.293a7.765,7.765,0,0,0,10.982-10.982Zm-45.144-11.248a19.247,19.247,0,0,1-10.635-6.436h.006a19.285,19.285,0,0,1-4.078-8.243,19.6,19.6,0,0,1,0-8.253,19.275,19.275,0,0,1,37.622-.009,19.605,19.605,0,0,1,0,8.253A19.247,19.247,0,0,1,121.271,161.621ZM140.8,159.1l.868-.868,2.349,2.349-.868.868Zm1.481,7.406,1.915-1.915,2.962-2.962,1.915-1.915,2.349,2.349-6.793,6.793Zm22.039,15.246a4.809,4.809,0,0,1-6.793,0l-10.8-10.8,6.793-6.793,10.8,10.8A4.809,4.809,0,0,1,164.32,181.756Z" transform="translate(-88.345 -98.375)" fill="#fd9827"/>
          <rect id="Rectángulo_337699" data-name="Rectángulo 337699" width="46.158" height="2.841" transform="translate(22.014 2.841)" fill="#fd9827"/>
          <rect id="Rectángulo_337700" data-name="Rectángulo 337700" width="61.071" height="2.841" transform="translate(7.101 12.072)" fill="#fd9827"/>
          <rect id="Rectángulo_337701" data-name="Rectángulo 337701" width="17.753" height="2.841" transform="translate(50.419 20.594)" fill="#fd9827"/>
          <rect id="Rectángulo_337702" data-name="Rectángulo 337702" width="16.333" height="2.841" transform="translate(7.101 20.594)" fill="#fd9827"/>
          <rect id="Rectángulo_337703" data-name="Rectángulo 337703" width="9.232" height="2.841" transform="translate(58.94 29.825)" fill="#fd9827"/>
          <rect id="Rectángulo_337704" data-name="Rectángulo 337704" width="7.811" height="2.841" transform="translate(7.101 29.825)" fill="#fd9827"/>
          <rect id="Rectángulo_337705" data-name="Rectángulo 337705" width="5.681" height="2.841" transform="translate(62.491 38.347)" fill="#fd9827"/>
          <rect id="Rectángulo_337706" data-name="Rectángulo 337706" width="4.971" height="2.841" transform="translate(7.101 38.347)" fill="#fd9827"/>
          <rect id="Rectángulo_337707" data-name="Rectángulo 337707" width="5.681" height="2.841" transform="translate(62.491 47.578)" fill="#fd9827"/>
          <rect id="Rectángulo_337708" data-name="Rectángulo 337708" width="4.971" height="2.841" transform="translate(7.101 47.578)" fill="#fd9827"/>
          <rect id="Rectángulo_337709" data-name="Rectángulo 337709" width="2.841" height="2.841" transform="translate(65.331 56.1)" fill="#fd9827"/>
          <rect id="Rectángulo_337710" data-name="Rectángulo 337710" width="7.811" height="2.841" transform="translate(7.101 56.1)" fill="#fd9827"/>
          <rect id="Rectángulo_337711" data-name="Rectángulo 337711" width="16.333" height="2.841" transform="translate(7.101 65.331)" fill="#fd9827"/>
          <rect id="Rectángulo_337712" data-name="Rectángulo 337712" width="28.405" height="2.841" transform="translate(23.434 73.853)" fill="#fd9827"/>
          <rect id="Rectángulo_337713" data-name="Rectángulo 337713" width="53.97" height="2.841" transform="translate(7.101 83.085)" fill="#fd9827"/>
          <rect id="Rectángulo_337714" data-name="Rectángulo 337714" width="13.492" height="2.841" transform="translate(34.086 32.666)" fill="#fd9827"/>
          <rect id="Rectángulo_337715" data-name="Rectángulo 337715" width="20.594" height="2.841" transform="translate(26.985 53.259)" fill="#fd9827"/>
          <rect id="Rectángulo_337716" data-name="Rectángulo 337716" width="26.275" height="3.551" transform="translate(26.985 42.607)" fill="#fd9827"/>
        </g>
      </g>
    </g>
  </g>
</svg>
